  0
SECTION
  2
BLOCKS
  0
ENDSEC
  0
SECTION
  2
ENTITIES
  0
LINE
  8
0
 10
0.480347
 20
-77.1849
 11
0.958786
 21
-77.1397
  0
LINE
  8
0
 10
0.958786
 20
-77.1397
 11
1.43346
 21
-77.0645
  0
LINE
  8
0
 10
1.43346
 20
-77.0645
 11
1.90247
 21
-76.9597
  0
LINE
  8
0
 10
1.90247
 20
-76.9597
 11
2.36397
 21
-76.8256
  0
LINE
  8
0
 10
2.36397
 20
-76.8256
 11
2.81615
 21
-76.6628
  0
LINE
  8
0
 10
2.81615
 20
-76.6628
 11
3.2572
 21
-76.4719
  0
LINE
  8
0
 10
3.2572
 20
-76.4719
 11
3.68541
 21
-76.2537
  0
LINE
  8
0
 10
3.68541
 20
-76.2537
 11
4.09906
 21
-76.0091
  0
LINE
  8
0
 10
4.09906
 20
-76.0091
 11
4.49655
 21
-75.739
  0
LINE
  8
0
 10
4.49655
 20
-75.739
 11
4.87628
 21
-75.4444
  0
LINE
  8
0
 10
4.87628
 20
-75.4444
 11
5.23677
 21
-75.1266
  0
LINE
  8
0
 10
5.23677
 20
-75.1266
 11
5.5766
 21
-74.7868
  0
LINE
  8
0
 10
5.5766
 20
-74.7868
 11
5.89442
 21
-74.4263
  0
LINE
  8
0
 10
5.89442
 20
-74.4263
 11
6.18896
 21
-74.0466
  0
LINE
  8
0
 10
6.18896
 20
-74.0466
 11
6.45911
 21
-73.6491
  0
LINE
  8
0
 10
6.45911
 20
-73.6491
 11
6.70374
 21
-73.2354
  0
LINE
  8
0
 10
6.70374
 20
-73.2354
 11
6.92192
 21
-72.8072
  0
LINE
  8
0
 10
6.92192
 20
-72.8072
 11
7.11278
 21
-72.3661
  0
LINE
  8
0
 10
7.11278
 20
-72.3661
 11
7.27557
 21
-71.914
  0
LINE
  8
0
 10
7.27557
 20
-71.914
 11
7.40965
 21
-71.4525
  0
LINE
  8
0
 10
7.40965
 20
-71.4525
 11
7.5145
 21
-70.9835
  0
LINE
  8
0
 10
7.5145
 20
-70.9835
 11
7.58968
 21
-70.5088
  0
LINE
  8
0
 10
7.58968
 20
-70.5088
 11
7.6349
 21
-70.0303
  0
LINE
  8
0
 10
7.6349
 20
-70.0303
 11
7.64999
 21
-69.55
  0
LINE
  8
0
 10
7.64999
 20
-69.55
 11
7.64999
 21
-55.5998
  0
LINE
  8
0
 10
7.64999
 20
-55.5998
 11
29.8129
 21
-17.2125
  0
LINE
  8
0
 10
29.8129
 20
-17.2125
 11
29.7998
 21
-17.2049
  0
LINE
  8
0
 10
29.7998
 20
-17.2049
 11
30.1669
 21
-16.5844
  0
LINE
  8
0
 10
30.1669
 20
-16.5844
 11
31.1487
 21
-14.6574
  0
LINE
  8
0
 10
31.1487
 20
-14.6574
 11
32.0076
 21
-12.6727
  0
LINE
  8
0
 10
32.0076
 20
-12.6727
 11
32.7401
 21
-10.6379
  0
LINE
  8
0
 10
32.7401
 20
-10.6379
 11
33.3435
 21
-8.56114
  0
LINE
  8
0
 10
33.3435
 20
-8.56114
 11
33.8152
 21
-6.45059
  0
LINE
  8
0
 10
33.8152
 20
-6.45059
 11
34.1535
 21
-4.31459
  0
LINE
  8
0
 10
34.1535
 20
-4.31459
 11
34.3571
 21
-2.16156
  0
LINE
  8
0
 10
34.3571
 20
-2.16156
 11
34.425
 21
0
  0
LINE
  8
0
 10
34.425
 20
0
 11
34.3571
 21
2.16156
  0
LINE
  8
0
 10
34.3571
 20
2.16156
 11
34.1535
 21
4.31459
  0
LINE
  8
0
 10
34.1535
 20
4.31459
 11
33.8152
 21
6.45059
  0
LINE
  8
0
 10
33.8152
 20
6.45059
 11
33.3435
 21
8.56114
  0
LINE
  8
0
 10
33.3435
 20
8.56114
 11
32.7401
 21
10.6379
  0
LINE
  8
0
 10
32.7401
 20
10.6379
 11
32.0076
 21
12.6727
  0
LINE
  8
0
 10
32.0076
 20
12.6727
 11
31.1487
 21
14.6574
  0
LINE
  8
0
 10
31.1487
 20
14.6574
 11
30.1669
 21
16.5844
  0
LINE
  8
0
 10
30.1669
 20
16.5844
 11
29.066
 21
18.4458
  0
LINE
  8
0
 10
29.066
 20
18.4458
 11
27.8504
 21
20.2345
  0
LINE
  8
0
 10
27.8504
 20
20.2345
 11
26.5249
 21
21.9433
  0
LINE
  8
0
 10
26.5249
 20
21.9433
 11
25.0947
 21
23.5655
  0
LINE
  8
0
 10
25.0947
 20
23.5655
 11
23.5655
 21
25.0947
  0
LINE
  8
0
 10
23.5655
 20
25.0947
 11
21.9433
 21
26.5249
  0
LINE
  8
0
 10
21.9433
 20
26.5249
 11
20.2345
 21
27.8504
  0
LINE
  8
0
 10
20.2345
 20
27.8504
 11
18.4458
 21
29.066
  0
LINE
  8
0
 10
18.4458
 20
29.066
 11
16.5844
 21
30.1669
  0
LINE
  8
0
 10
16.5844
 20
30.1669
 11
14.6574
 21
31.1487
  0
LINE
  8
0
 10
14.6574
 20
31.1487
 11
12.6727
 21
32.0076
  0
LINE
  8
0
 10
12.6727
 20
32.0076
 11
10.6379
 21
32.7401
  0
LINE
  8
0
 10
10.6379
 20
32.7401
 11
8.56114
 21
33.3435
  0
LINE
  8
0
 10
8.56114
 20
33.3435
 11
6.45059
 21
33.8152
  0
LINE
  8
0
 10
6.45059
 20
33.8152
 11
4.31459
 21
34.1535
  0
LINE
  8
0
 10
4.31459
 20
34.1535
 11
2.16156
 21
34.3571
  0
LINE
  8
0
 10
2.16156
 20
34.3571
 11
0
 21
34.425
  0
LINE
  8
0
 10
0
 20
34.425
 11
-2.16156
 21
34.3571
  0
LINE
  8
0
 10
-2.16156
 20
34.3571
 11
-4.31459
 21
34.1535
  0
LINE
  8
0
 10
-4.31459
 20
34.1535
 11
-6.45059
 21
33.8152
  0
LINE
  8
0
 10
-6.45059
 20
33.8152
 11
-8.56114
 21
33.3435
  0
LINE
  8
0
 10
-8.56114
 20
33.3435
 11
-10.6379
 21
32.7401
  0
LINE
  8
0
 10
-10.6379
 20
32.7401
 11
-12.6727
 21
32.0076
  0
LINE
  8
0
 10
-12.6727
 20
32.0076
 11
-14.6574
 21
31.1487
  0
LINE
  8
0
 10
-14.6574
 20
31.1487
 11
-16.5844
 21
30.1669
  0
LINE
  8
0
 10
-16.5844
 20
30.1669
 11
-18.4458
 21
29.066
  0
LINE
  8
0
 10
-18.4458
 20
29.066
 11
-20.2345
 21
27.8504
  0
LINE
  8
0
 10
-20.2345
 20
27.8504
 11
-21.9433
 21
26.5249
  0
LINE
  8
0
 10
-21.9433
 20
26.5249
 11
-23.5655
 21
25.0947
  0
LINE
  8
0
 10
-23.5655
 20
25.0947
 11
-25.0947
 21
23.5655
  0
LINE
  8
0
 10
-25.0947
 20
23.5655
 11
-26.5249
 21
21.9433
  0
LINE
  8
0
 10
-26.5249
 20
21.9433
 11
-27.8504
 21
20.2345
  0
LINE
  8
0
 10
-27.8504
 20
20.2345
 11
-29.066
 21
18.4458
  0
LINE
  8
0
 10
-29.066
 20
18.4458
 11
-30.1669
 21
16.5844
  0
LINE
  8
0
 10
-30.1669
 20
16.5844
 11
-31.1487
 21
14.6574
  0
LINE
  8
0
 10
-31.1487
 20
14.6574
 11
-32.0076
 21
12.6727
  0
LINE
  8
0
 10
-32.0076
 20
12.6727
 11
-32.7401
 21
10.6379
  0
LINE
  8
0
 10
-32.7401
 20
10.6379
 11
-33.3435
 21
8.56114
  0
LINE
  8
0
 10
-33.3435
 20
8.56114
 11
-33.4883
 21
7.91331
  0
LINE
  8
0
 10
-33.4883
 20
7.91331
 11
-22.7278
 21
-1.11575
  0
LINE
  8
0
 10
-22.7278
 20
-1.11575
 11
-16.5627
 21
9.5625
  0
LINE
  8
0
 10
-16.5627
 20
9.5625
 11
-16.5555
 21
9.5583
  0
LINE
  8
0
 10
-16.5555
 20
9.5583
 11
-16.1478
 21
10.2477
  0
LINE
  8
0
 10
-16.1478
 20
10.2477
 11
-15.4724
 21
11.2414
  0
LINE
  8
0
 10
-15.4724
 20
11.2414
 11
-14.7361
 21
12.1907
  0
LINE
  8
0
 10
-14.7361
 20
12.1907
 11
-13.9415
 21
13.0919
  0
LINE
  8
0
 10
-13.9415
 20
13.0919
 11
-13.0919
 21
13.9415
  0
LINE
  8
0
 10
-13.0919
 20
13.9415
 11
-12.1907
 21
14.7361
  0
LINE
  8
0
 10
-12.1907
 20
14.7361
 11
-11.2414
 21
15.4724
  0
LINE
  8
0
 10
-11.2414
 20
15.4724
 11
-10.2477
 21
16.1478
  0
LINE
  8
0
 10
-10.2477
 20
16.1478
 11
-9.21353
 21
16.7594
  0
LINE
  8
0
 10
-9.21353
 20
16.7594
 11
-8.14302
 21
17.3048
  0
LINE
  8
0
 10
-8.14302
 20
17.3048
 11
-7.04037
 21
17.782
  0
LINE
  8
0
 10
-7.04037
 20
17.782
 11
-5.90994
 21
18.1889
  0
LINE
  8
0
 10
-5.90994
 20
18.1889
 11
-4.75618
 21
18.5241
  0
LINE
  8
0
 10
-4.75618
 20
18.5241
 11
-3.58366
 21
18.7862
  0
LINE
  8
0
 10
-3.58366
 20
18.7862
 11
-2.39699
 21
18.9742
  0
LINE
  8
0
 10
-2.39699
 20
18.9742
 11
-1.20087
 21
19.0872
  0
LINE
  8
0
 10
-1.20087
 20
19.0872
 11
0
 21
19.125
  0
LINE
  8
0
 10
0
 20
19.125
 11
1.20087
 21
19.0872
  0
LINE
  8
0
 10
1.20087
 20
19.0872
 11
2.39699
 21
18.9742
  0
LINE
  8
0
 10
2.39699
 20
18.9742
 11
3.58366
 21
18.7862
  0
LINE
  8
0
 10
3.58366
 20
18.7862
 11
4.75618
 21
18.5241
  0
LINE
  8
0
 10
4.75618
 20
18.5241
 11
5.90994
 21
18.1889
  0
LINE
  8
0
 10
5.90994
 20
18.1889
 11
7.04037
 21
17.782
  0
LINE
  8
0
 10
7.04037
 20
17.782
 11
8.14302
 21
17.3048
  0
LINE
  8
0
 10
8.14302
 20
17.3048
 11
9.21353
 21
16.7594
  0
LINE
  8
0
 10
9.21353
 20
16.7594
 11
10.2477
 21
16.1478
  0
LINE
  8
0
 10
10.2477
 20
16.1478
 11
11.2414
 21
15.4724
  0
LINE
  8
0
 10
11.2414
 20
15.4724
 11
12.1907
 21
14.7361
  0
LINE
  8
0
 10
12.1907
 20
14.7361
 11
13.0919
 21
13.9415
  0
LINE
  8
0
 10
13.0919
 20
13.9415
 11
13.9415
 21
13.0919
  0
LINE
  8
0
 10
13.9415
 20
13.0919
 11
14.7361
 21
12.1907
  0
LINE
  8
0
 10
14.7361
 20
12.1907
 11
15.4724
 21
11.2414
  0
LINE
  8
0
 10
15.4724
 20
11.2414
 11
16.1478
 21
10.2477
  0
LINE
  8
0
 10
16.1478
 20
10.2477
 11
16.7594
 21
9.21353
  0
LINE
  8
0
 10
16.7594
 20
9.21353
 11
17.3048
 21
8.14302
  0
LINE
  8
0
 10
17.3048
 20
8.14302
 11
17.782
 21
7.04037
  0
LINE
  8
0
 10
17.782
 20
7.04037
 11
18.1889
 21
5.90994
  0
LINE
  8
0
 10
18.1889
 20
5.90994
 11
18.5241
 21
4.75618
  0
LINE
  8
0
 10
18.5241
 20
4.75618
 11
18.7862
 21
3.58366
  0
LINE
  8
0
 10
18.7862
 20
3.58366
 11
18.9742
 21
2.39699
  0
LINE
  8
0
 10
18.9742
 20
2.39699
 11
19.0872
 21
1.20087
  0
LINE
  8
0
 10
19.0872
 20
1.20087
 11
19.125
 21
0
  0
LINE
  8
0
 10
19.125
 20
0
 11
19.0872
 21
-1.20087
  0
LINE
  8
0
 10
19.0872
 20
-1.20087
 11
18.9742
 21
-2.39699
  0
LINE
  8
0
 10
18.9742
 20
-2.39699
 11
18.7862
 21
-3.58366
  0
LINE
  8
0
 10
18.7862
 20
-3.58366
 11
18.5241
 21
-4.75618
  0
LINE
  8
0
 10
18.5241
 20
-4.75618
 11
18.1889
 21
-5.90994
  0
LINE
  8
0
 10
18.1889
 20
-5.90994
 11
17.782
 21
-7.04037
  0
LINE
  8
0
 10
17.782
 20
-7.04037
 11
17.3048
 21
-8.14302
  0
LINE
  8
0
 10
17.3048
 20
-8.14302
 11
16.7594
 21
-9.21353
  0
LINE
  8
0
 10
16.7594
 20
-9.21353
 11
16.5555
 21
-9.5583
  0
LINE
  8
0
 10
16.5555
 20
-9.5583
 11
16.5627
 21
-9.5625
  0
LINE
  8
0
 10
16.5627
 20
-9.5625
 11
-6.62509
 21
-49.725
  0
LINE
  8
0
 10
-6.62509
 20
-49.725
 11
-6.62218
 21
-49.7267
  0
LINE
  8
0
 10
-6.62218
 20
-49.7267
 11
-6.70374
 21
-49.8646
  0
LINE
  8
0
 10
-6.70374
 20
-49.8646
 11
-6.92192
 21
-50.2928
  0
LINE
  8
0
 10
-6.92192
 20
-50.2928
 11
-7.11278
 21
-50.7338
  0
LINE
  8
0
 10
-7.11278
 20
-50.7338
 11
-7.27557
 21
-51.186
  0
LINE
  8
0
 10
-7.27557
 20
-51.186
 11
-7.40965
 21
-51.6475
  0
LINE
  8
0
 10
-7.40965
 20
-51.6475
 11
-7.5145
 21
-52.1165
  0
LINE
  8
0
 10
-7.5145
 20
-52.1165
 11
-7.58968
 21
-52.5912
  0
LINE
  8
0
 10
-7.58968
 20
-52.5912
 11
-7.6349
 21
-53.0696
  0
LINE
  8
0
 10
-7.6349
 20
-53.0696
 11
-7.64999
 21
-53.55
  0
LINE
  8
0
 10
-7.64999
 20
-53.55
 11
-7.64999
 21
-69.55
  0
LINE
  8
0
 10
-7.64999
 20
-69.55
 11
-7.6349
 21
-70.0303
  0
LINE
  8
0
 10
-7.6349
 20
-70.0303
 11
-7.58968
 21
-70.5088
  0
LINE
  8
0
 10
-7.58968
 20
-70.5088
 11
-7.5145
 21
-70.9835
  0
LINE
  8
0
 10
-7.5145
 20
-70.9835
 11
-7.40965
 21
-71.4525
  0
LINE
  8
0
 10
-7.40965
 20
-71.4525
 11
-7.27557
 21
-71.914
  0
LINE
  8
0
 10
-7.27557
 20
-71.914
 11
-7.11278
 21
-72.3661
  0
LINE
  8
0
 10
-7.11278
 20
-72.3661
 11
-6.92192
 21
-72.8072
  0
LINE
  8
0
 10
-6.92192
 20
-72.8072
 11
-6.70374
 21
-73.2354
  0
LINE
  8
0
 10
-6.70374
 20
-73.2354
 11
-6.45911
 21
-73.6491
  0
LINE
  8
0
 10
-6.45911
 20
-73.6491
 11
-6.18896
 21
-74.0466
  0
LINE
  8
0
 10
-6.18896
 20
-74.0466
 11
-5.89442
 21
-74.4263
  0
LINE
  8
0
 10
-5.89442
 20
-74.4263
 11
-5.5766
 21
-74.7868
  0
LINE
  8
0
 10
-5.5766
 20
-74.7868
 11
-5.23677
 21
-75.1266
  0
LINE
  8
0
 10
-5.23677
 20
-75.1266
 11
-4.87628
 21
-75.4444
  0
LINE
  8
0
 10
-4.87628
 20
-75.4444
 11
-4.49655
 21
-75.739
  0
LINE
  8
0
 10
-4.49655
 20
-75.739
 11
-4.09906
 21
-76.0091
  0
LINE
  8
0
 10
-4.09906
 20
-76.0091
 11
-3.68541
 21
-76.2537
  0
LINE
  8
0
 10
-3.68541
 20
-76.2537
 11
-3.2572
 21
-76.4719
  0
LINE
  8
0
 10
-3.2572
 20
-76.4719
 11
-2.81615
 21
-76.6628
  0
LINE
  8
0
 10
-2.81615
 20
-76.6628
 11
-2.36397
 21
-76.8256
  0
LINE
  8
0
 10
-2.36397
 20
-76.8256
 11
-1.90247
 21
-76.9597
  0
LINE
  8
0
 10
-1.90247
 20
-76.9597
 11
-1.43346
 21
-77.0645
  0
LINE
  8
0
 10
-1.43346
 20
-77.0645
 11
-0.958786
 21
-77.1397
  0
LINE
  8
0
 10
-0.958786
 20
-77.1397
 11
-0.480347
 21
-77.1849
  0
LINE
  8
0
 10
-0.480347
 20
-77.1849
 11
0
 21
-77.2
  0
LINE
  8
0
 10
0
 20
-77.2
 11
0.480347
 21
-77.1849
  0
LINE
  8
0
 10
-0.0941772
 20
-71.047
 11
-0.187988
 21
-71.0382
  0
LINE
  8
0
 10
-0.187988
 20
-71.0382
 11
-0.281067
 21
-71.0234
  0
LINE
  8
0
 10
-0.281067
 20
-71.0234
 11
-0.373032
 21
-71.0029
  0
LINE
  8
0
 10
-0.373032
 20
-71.0029
 11
-0.463516
 21
-70.9766
  0
LINE
  8
0
 10
-0.463516
 20
-70.9766
 11
-0.552185
 21
-70.9447
  0
LINE
  8
0
 10
-0.552185
 20
-70.9447
 11
-0.638657
 21
-70.9072
  0
LINE
  8
0
 10
-0.638657
 20
-70.9072
 11
-0.722626
 21
-70.8645
  0
LINE
  8
0
 10
-0.722626
 20
-70.8645
 11
-0.803726
 21
-70.8165
  0
LINE
  8
0
 10
-0.803726
 20
-70.8165
 11
-0.881668
 21
-70.7635
  0
LINE
  8
0
 10
-0.881668
 20
-70.7635
 11
-0.956131
 21
-70.7058
  0
LINE
  8
0
 10
-0.956131
 20
-70.7058
 11
-1.02681
 21
-70.6434
  0
LINE
  8
0
 10
-1.02681
 20
-70.6434
 11
-1.09344
 21
-70.5768
  0
LINE
  8
0
 10
-1.09344
 20
-70.5768
 11
-1.15576
 21
-70.5061
  0
LINE
  8
0
 10
-1.15576
 20
-70.5061
 11
-1.21352
 21
-70.4317
  0
LINE
  8
0
 10
-1.21352
 20
-70.4317
 11
-1.26648
 21
-70.3537
  0
LINE
  8
0
 10
-1.26648
 20
-70.3537
 11
-1.31445
 21
-70.2726
  0
LINE
  8
0
 10
-1.31445
 20
-70.2726
 11
-1.35724
 21
-70.1887
  0
LINE
  8
0
 10
-1.35724
 20
-70.1887
 11
-1.39465
 21
-70.1022
  0
LINE
  8
0
 10
-1.39465
 20
-70.1022
 11
-1.42657
 21
-70.0135
  0
LINE
  8
0
 10
-1.42657
 20
-70.0135
 11
-1.45287
 21
-69.923
  0
LINE
  8
0
 10
-1.45287
 20
-69.923
 11
-1.47342
 21
-69.8311
  0
LINE
  8
0
 10
-1.47342
 20
-69.8311
 11
-1.48816
 21
-69.738
  0
LINE
  8
0
 10
-1.48816
 20
-69.738
 11
-1.49704
 21
-69.6442
  0
LINE
  8
0
 10
-1.49704
 20
-69.6442
 11
-1.5
 21
-69.55
  0
LINE
  8
0
 10
-1.5
 20
-69.55
 11
-1.49704
 21
-69.4558
  0
LINE
  8
0
 10
-1.49704
 20
-69.4558
 11
-1.48816
 21
-69.362
  0
LINE
  8
0
 10
-1.48816
 20
-69.362
 11
-1.47342
 21
-69.2689
  0
LINE
  8
0
 10
-1.47342
 20
-69.2689
 11
-1.45287
 21
-69.177
  0
LINE
  8
0
 10
-1.45287
 20
-69.177
 11
-1.42657
 21
-69.0865
  0
LINE
  8
0
 10
-1.42657
 20
-69.0865
 11
-1.39465
 21
-68.9978
  0
LINE
  8
0
 10
-1.39465
 20
-68.9978
 11
-1.35724
 21
-68.9113
  0
LINE
  8
0
 10
-1.35724
 20
-68.9113
 11
-1.31445
 21
-68.8274
  0
LINE
  8
0
 10
-1.31445
 20
-68.8274
 11
-1.26648
 21
-68.7463
  0
LINE
  8
0
 10
-1.26648
 20
-68.7463
 11
-1.21352
 21
-68.6683
  0
LINE
  8
0
 10
-1.21352
 20
-68.6683
 11
-1.15576
 21
-68.5939
  0
LINE
  8
0
 10
-1.15576
 20
-68.5939
 11
-1.09344
 21
-68.5232
  0
LINE
  8
0
 10
-1.09344
 20
-68.5232
 11
-1.02681
 21
-68.4565
  0
LINE
  8
0
 10
-1.02681
 20
-68.4565
 11
-0.956131
 21
-68.3942
  0
LINE
  8
0
 10
-0.956131
 20
-68.3942
 11
-0.881668
 21
-68.3365
  0
LINE
  8
0
 10
-0.881668
 20
-68.3365
 11
-0.803726
 21
-68.2835
  0
LINE
  8
0
 10
-0.803726
 20
-68.2835
 11
-0.722626
 21
-68.2355
  0
LINE
  8
0
 10
-0.722626
 20
-68.2355
 11
-0.638657
 21
-68.1927
  0
LINE
  8
0
 10
-0.638657
 20
-68.1927
 11
-0.552185
 21
-68.1553
  0
LINE
  8
0
 10
-0.552185
 20
-68.1553
 11
-0.463516
 21
-68.1234
  0
LINE
  8
0
 10
-0.463516
 20
-68.1234
 11
-0.373032
 21
-68.0971
  0
LINE
  8
0
 10
-0.373032
 20
-68.0971
 11
-0.281067
 21
-68.0766
  0
LINE
  8
0
 10
-0.281067
 20
-68.0766
 11
-0.187988
 21
-68.0618
  0
LINE
  8
0
 10
-0.187988
 20
-68.0618
 11
-0.0941772
 21
-68.053
  0
LINE
  8
0
 10
-0.0941772
 20
-68.053
 11
0
 21
-68.05
  0
LINE
  8
0
 10
0
 20
-68.05
 11
0.0941772
 21
-68.053
  0
LINE
  8
0
 10
0.0941772
 20
-68.053
 11
0.187988
 21
-68.0618
  0
LINE
  8
0
 10
0.187988
 20
-68.0618
 11
0.281067
 21
-68.0766
  0
LINE
  8
0
 10
0.281067
 20
-68.0766
 11
0.373032
 21
-68.0971
  0
LINE
  8
0
 10
0.373032
 20
-68.0971
 11
0.463516
 21
-68.1234
  0
LINE
  8
0
 10
0.463516
 20
-68.1234
 11
0.552185
 21
-68.1553
  0
LINE
  8
0
 10
0.552185
 20
-68.1553
 11
0.638657
 21
-68.1927
  0
LINE
  8
0
 10
0.638657
 20
-68.1927
 11
0.722626
 21
-68.2355
  0
LINE
  8
0
 10
0.722626
 20
-68.2355
 11
0.803726
 21
-68.2835
  0
LINE
  8
0
 10
0.803726
 20
-68.2835
 11
0.881668
 21
-68.3365
  0
LINE
  8
0
 10
0.881668
 20
-68.3365
 11
0.956131
 21
-68.3942
  0
LINE
  8
0
 10
0.956131
 20
-68.3942
 11
1.02681
 21
-68.4565
  0
LINE
  8
0
 10
1.02681
 20
-68.4565
 11
1.09344
 21
-68.5232
  0
LINE
  8
0
 10
1.09344
 20
-68.5232
 11
1.15576
 21
-68.5939
  0
LINE
  8
0
 10
1.15576
 20
-68.5939
 11
1.21352
 21
-68.6683
  0
LINE
  8
0
 10
1.21352
 20
-68.6683
 11
1.26648
 21
-68.7463
  0
LINE
  8
0
 10
1.26648
 20
-68.7463
 11
1.31445
 21
-68.8274
  0
LINE
  8
0
 10
1.31445
 20
-68.8274
 11
1.35724
 21
-68.9113
  0
LINE
  8
0
 10
1.35724
 20
-68.9113
 11
1.39465
 21
-68.9978
  0
LINE
  8
0
 10
1.39465
 20
-68.9978
 11
1.42657
 21
-69.0865
  0
LINE
  8
0
 10
1.42657
 20
-69.0865
 11
1.45287
 21
-69.177
  0
LINE
  8
0
 10
1.45287
 20
-69.177
 11
1.47342
 21
-69.2689
  0
LINE
  8
0
 10
1.47342
 20
-69.2689
 11
1.48816
 21
-69.362
  0
LINE
  8
0
 10
1.48816
 20
-69.362
 11
1.49704
 21
-69.4558
  0
LINE
  8
0
 10
1.49704
 20
-69.4558
 11
1.5
 21
-69.55
  0
LINE
  8
0
 10
1.5
 20
-69.55
 11
1.49704
 21
-69.6442
  0
LINE
  8
0
 10
1.49704
 20
-69.6442
 11
1.48816
 21
-69.738
  0
LINE
  8
0
 10
1.48816
 20
-69.738
 11
1.47342
 21
-69.8311
  0
LINE
  8
0
 10
1.47342
 20
-69.8311
 11
1.45287
 21
-69.923
  0
LINE
  8
0
 10
1.45287
 20
-69.923
 11
1.42657
 21
-70.0135
  0
LINE
  8
0
 10
1.42657
 20
-70.0135
 11
1.39465
 21
-70.1022
  0
LINE
  8
0
 10
1.39465
 20
-70.1022
 11
1.35724
 21
-70.1887
  0
LINE
  8
0
 10
1.35724
 20
-70.1887
 11
1.31445
 21
-70.2726
  0
LINE
  8
0
 10
1.31445
 20
-70.2726
 11
1.26648
 21
-70.3537
  0
LINE
  8
0
 10
1.26648
 20
-70.3537
 11
1.21352
 21
-70.4317
  0
LINE
  8
0
 10
1.21352
 20
-70.4317
 11
1.15576
 21
-70.5061
  0
LINE
  8
0
 10
1.15576
 20
-70.5061
 11
1.09344
 21
-70.5768
  0
LINE
  8
0
 10
1.09344
 20
-70.5768
 11
1.02681
 21
-70.6434
  0
LINE
  8
0
 10
1.02681
 20
-70.6434
 11
0.956131
 21
-70.7058
  0
LINE
  8
0
 10
0.956131
 20
-70.7058
 11
0.881668
 21
-70.7635
  0
LINE
  8
0
 10
0.881668
 20
-70.7635
 11
0.803726
 21
-70.8165
  0
LINE
  8
0
 10
0.803726
 20
-70.8165
 11
0.722626
 21
-70.8645
  0
LINE
  8
0
 10
0.722626
 20
-70.8645
 11
0.638657
 21
-70.9072
  0
LINE
  8
0
 10
0.638657
 20
-70.9072
 11
0.552185
 21
-70.9447
  0
LINE
  8
0
 10
0.552185
 20
-70.9447
 11
0.463516
 21
-70.9766
  0
LINE
  8
0
 10
0.463516
 20
-70.9766
 11
0.373032
 21
-71.0029
  0
LINE
  8
0
 10
0.373032
 20
-71.0029
 11
0.281067
 21
-71.0234
  0
LINE
  8
0
 10
0.281067
 20
-71.0234
 11
0.187988
 21
-71.0382
  0
LINE
  8
0
 10
0.187988
 20
-71.0382
 11
0.0941772
 21
-71.047
  0
LINE
  8
0
 10
0.0941772
 20
-71.047
 11
0
 21
-71.05
  0
LINE
  8
0
 10
0
 20
-71.05
 11
-0.0941772
 21
-71.047
  0
ENDSEC
  0
SECTION
  2
OBJECTS
  0
DICTIONARY
  0
ENDSEC
  0
EOF
