  0
SECTION
  2
BLOCKS
  0
ENDSEC
  0
SECTION
  2
ENTITIES
  0
LINE
  8
0
 10
0.565109
 20
-368.982
 11
1.12799
 21
-368.929
  0
LINE
  8
0
 10
1.12799
 20
-368.929
 11
1.68642
 21
-368.841
  0
LINE
  8
0
 10
1.68642
 20
-368.841
 11
2.2382
 21
-368.717
  0
LINE
  8
0
 10
2.2382
 20
-368.717
 11
2.78114
 21
-368.56
  0
LINE
  8
0
 10
2.78114
 20
-368.56
 11
3.31311
 21
-368.368
  0
LINE
  8
0
 10
3.31311
 20
-368.368
 11
3.832
 21
-368.143
  0
LINE
  8
0
 10
3.832
 20
-368.143
 11
4.33577
 21
-367.887
  0
LINE
  8
0
 10
4.33577
 20
-367.887
 11
4.82243
 21
-367.599
  0
LINE
  8
0
 10
4.82243
 20
-367.599
 11
5.29005
 21
-367.281
  0
LINE
  8
0
 10
5.29005
 20
-367.281
 11
5.7368
 21
-366.935
  0
LINE
  8
0
 10
5.7368
 20
-366.935
 11
6.16092
 21
-366.561
  0
LINE
  8
0
 10
6.16092
 20
-366.561
 11
6.56071
 21
-366.161
  0
LINE
  8
0
 10
6.56071
 20
-366.161
 11
6.93462
 21
-365.737
  0
LINE
  8
0
 10
6.93462
 20
-365.737
 11
7.28114
 21
-365.29
  0
LINE
  8
0
 10
7.28114
 20
-365.29
 11
7.59894
 21
-364.822
  0
LINE
  8
0
 10
7.59894
 20
-364.822
 11
7.88675
 21
-364.336
  0
LINE
  8
0
 10
7.88675
 20
-364.336
 11
8.14343
 21
-363.832
  0
LINE
  8
0
 10
8.14343
 20
-363.832
 11
8.36798
 21
-363.313
  0
LINE
  8
0
 10
8.36798
 20
-363.313
 11
8.55949
 21
-362.781
  0
LINE
  8
0
 10
8.55949
 20
-362.781
 11
8.71724
 21
-362.238
  0
LINE
  8
0
 10
8.71724
 20
-362.238
 11
8.84058
 21
-361.686
  0
LINE
  8
0
 10
8.84058
 20
-361.686
 11
8.92903
 21
-361.128
  0
LINE
  8
0
 10
8.92903
 20
-361.128
 11
8.98224
 21
-360.565
  0
LINE
  8
0
 10
8.98224
 20
-360.565
 11
9
 21
-360
  0
LINE
  8
0
 10
9
 20
-360
 11
11
 21
0
  0
LINE
  8
0
 10
11
 20
0
 11
10.9783
 21
0.690689
  0
LINE
  8
0
 10
10.9783
 20
0.690689
 11
10.9133
 21
1.37866
  0
LINE
  8
0
 10
10.9133
 20
1.37866
 11
10.8051
 21
2.06119
  0
LINE
  8
0
 10
10.8051
 20
2.06119
 11
10.6544
 21
2.73558
  0
LINE
  8
0
 10
10.6544
 20
2.73558
 11
10.4616
 21
3.39919
  0
LINE
  8
0
 10
10.4616
 20
3.39919
 11
10.2275
 21
4.04936
  0
LINE
  8
0
 10
10.2275
 20
4.04936
 11
9.95309
 21
4.68356
  0
LINE
  8
0
 10
9.95309
 20
4.68356
 11
9.63936
 21
5.29929
  0
LINE
  8
0
 10
9.63936
 20
5.29929
 11
9.2876
 21
5.89409
  0
LINE
  8
0
 10
9.2876
 20
5.89409
 11
8.89919
 21
6.46564
  0
LINE
  8
0
 10
8.89919
 20
6.46564
 11
8.47563
 21
7.01166
  0
LINE
  8
0
 10
8.47563
 20
7.01166
 11
8.01865
 21
7.53001
  0
LINE
  8
0
 10
8.01865
 20
7.53001
 11
7.53001
 21
8.01865
  0
LINE
  8
0
 10
7.53001
 20
8.01865
 11
7.01166
 21
8.47563
  0
LINE
  8
0
 10
7.01166
 20
8.47563
 11
6.46564
 21
8.89919
  0
LINE
  8
0
 10
6.46564
 20
8.89919
 11
5.89409
 21
9.2876
  0
LINE
  8
0
 10
5.89409
 20
9.2876
 11
5.29929
 21
9.63936
  0
LINE
  8
0
 10
5.29929
 20
9.63936
 11
4.68356
 21
9.95309
  0
LINE
  8
0
 10
4.68356
 20
9.95309
 11
4.04936
 21
10.2275
  0
LINE
  8
0
 10
4.04936
 20
10.2275
 11
3.39919
 21
10.4616
  0
LINE
  8
0
 10
3.39919
 20
10.4616
 11
2.73558
 21
10.6544
  0
LINE
  8
0
 10
2.73558
 20
10.6544
 11
2.06119
 21
10.8051
  0
LINE
  8
0
 10
2.06119
 20
10.8051
 11
1.37866
 21
10.9133
  0
LINE
  8
0
 10
1.37866
 20
10.9133
 11
0.690689
 21
10.9783
  0
LINE
  8
0
 10
0.690689
 20
10.9783
 11
0
 21
11
  0
LINE
  8
0
 10
0
 20
11
 11
-48
 21
11
  0
LINE
  8
0
 10
-48
 20
11
 11
-48.6907
 21
10.9783
  0
LINE
  8
0
 10
-48.6907
 20
10.9783
 11
-49.3787
 21
10.9133
  0
LINE
  8
0
 10
-49.3787
 20
10.9133
 11
-50.0612
 21
10.8051
  0
LINE
  8
0
 10
-50.0612
 20
10.8051
 11
-50.7356
 21
10.6544
  0
LINE
  8
0
 10
-50.7356
 20
10.6544
 11
-51.3992
 21
10.4616
  0
LINE
  8
0
 10
-51.3992
 20
10.4616
 11
-52.0494
 21
10.2275
  0
LINE
  8
0
 10
-52.0494
 20
10.2275
 11
-52.6836
 21
9.95309
  0
LINE
  8
0
 10
-52.6836
 20
9.95309
 11
-53.2993
 21
9.63936
  0
LINE
  8
0
 10
-53.2993
 20
9.63936
 11
-53.8941
 21
9.2876
  0
LINE
  8
0
 10
-53.8941
 20
9.2876
 11
-54.4656
 21
8.89919
  0
LINE
  8
0
 10
-54.4656
 20
8.89919
 11
-55.0117
 21
8.47563
  0
LINE
  8
0
 10
-55.0117
 20
8.47563
 11
-55.53
 21
8.01865
  0
LINE
  8
0
 10
-55.53
 20
8.01865
 11
-56.0186
 21
7.53001
  0
LINE
  8
0
 10
-56.0186
 20
7.53001
 11
-56.4756
 21
7.01166
  0
LINE
  8
0
 10
-56.4756
 20
7.01166
 11
-56.8992
 21
6.46564
  0
LINE
  8
0
 10
-56.8992
 20
6.46564
 11
-57.2876
 21
5.89409
  0
LINE
  8
0
 10
-57.2876
 20
5.89409
 11
-57.6394
 21
5.29929
  0
LINE
  8
0
 10
-57.6394
 20
5.29929
 11
-57.9531
 21
4.68356
  0
LINE
  8
0
 10
-57.9531
 20
4.68356
 11
-58.2275
 21
4.04936
  0
LINE
  8
0
 10
-58.2275
 20
4.04936
 11
-58.4616
 21
3.39919
  0
LINE
  8
0
 10
-58.4616
 20
3.39919
 11
-58.6544
 21
2.73558
  0
LINE
  8
0
 10
-58.6544
 20
2.73558
 11
-58.8052
 21
2.06119
  0
LINE
  8
0
 10
-58.8052
 20
2.06119
 11
-58.9133
 21
1.37866
  0
LINE
  8
0
 10
-58.9133
 20
1.37866
 11
-58.9783
 21
0.690689
  0
LINE
  8
0
 10
-58.9783
 20
0.690689
 11
-59
 21
0
  0
LINE
  8
0
 10
-59
 20
0
 11
-58.9783
 21
-0.690689
  0
LINE
  8
0
 10
-58.9783
 20
-0.690689
 11
-58.9133
 21
-1.37866
  0
LINE
  8
0
 10
-58.9133
 20
-1.37866
 11
-58.8052
 21
-2.06119
  0
LINE
  8
0
 10
-58.8052
 20
-2.06119
 11
-58.6544
 21
-2.73558
  0
LINE
  8
0
 10
-58.6544
 20
-2.73558
 11
-58.4616
 21
-3.39919
  0
LINE
  8
0
 10
-58.4616
 20
-3.39919
 11
-58.2275
 21
-4.04936
  0
LINE
  8
0
 10
-58.2275
 20
-4.04936
 11
-57.9531
 21
-4.68356
  0
LINE
  8
0
 10
-57.9531
 20
-4.68356
 11
-57.6394
 21
-5.29929
  0
LINE
  8
0
 10
-57.6394
 20
-5.29929
 11
-57.2876
 21
-5.89409
  0
LINE
  8
0
 10
-57.2876
 20
-5.89409
 11
-56.8992
 21
-6.46564
  0
LINE
  8
0
 10
-56.8992
 20
-6.46564
 11
-56.4756
 21
-7.01166
  0
LINE
  8
0
 10
-56.4756
 20
-7.01166
 11
-56.0186
 21
-7.53001
  0
LINE
  8
0
 10
-56.0186
 20
-7.53001
 11
-55.53
 21
-8.01865
  0
LINE
  8
0
 10
-55.53
 20
-8.01865
 11
-55.0117
 21
-8.47563
  0
LINE
  8
0
 10
-55.0117
 20
-8.47563
 11
-54.4656
 21
-8.89919
  0
LINE
  8
0
 10
-54.4656
 20
-8.89919
 11
-53.8941
 21
-9.2876
  0
LINE
  8
0
 10
-53.8941
 20
-9.2876
 11
-53.2993
 21
-9.63936
  0
LINE
  8
0
 10
-53.2993
 20
-9.63936
 11
-52.6836
 21
-9.95309
  0
LINE
  8
0
 10
-52.6836
 20
-9.95309
 11
-52.0494
 21
-10.2275
  0
LINE
  8
0
 10
-52.0494
 20
-10.2275
 11
-51.3992
 21
-10.4616
  0
LINE
  8
0
 10
-51.3992
 20
-10.4616
 11
-50.7356
 21
-10.6544
  0
LINE
  8
0
 10
-50.7356
 20
-10.6544
 11
-50.0612
 21
-10.8051
  0
LINE
  8
0
 10
-50.0612
 20
-10.8051
 11
-49.3787
 21
-10.9133
  0
LINE
  8
0
 10
-49.3787
 20
-10.9133
 11
-48.6907
 21
-10.9783
  0
LINE
  8
0
 10
-48.6907
 20
-10.9783
 11
-48
 21
-11
  0
LINE
  8
0
 10
-48
 20
-11
 11
-10.9389
 21
-11
  0
LINE
  8
0
 10
-10.9389
 20
-11
 11
-9
 21
-360
  0
LINE
  8
0
 10
-9
 20
-360
 11
-8.98224
 21
-360.565
  0
LINE
  8
0
 10
-8.98224
 20
-360.565
 11
-8.92903
 21
-361.128
  0
LINE
  8
0
 10
-8.92903
 20
-361.128
 11
-8.84058
 21
-361.686
  0
LINE
  8
0
 10
-8.84058
 20
-361.686
 11
-8.71724
 21
-362.238
  0
LINE
  8
0
 10
-8.71724
 20
-362.238
 11
-8.55949
 21
-362.781
  0
LINE
  8
0
 10
-8.55949
 20
-362.781
 11
-8.36798
 21
-363.313
  0
LINE
  8
0
 10
-8.36798
 20
-363.313
 11
-8.14343
 21
-363.832
  0
LINE
  8
0
 10
-8.14343
 20
-363.832
 11
-7.88675
 21
-364.336
  0
LINE
  8
0
 10
-7.88675
 20
-364.336
 11
-7.59894
 21
-364.822
  0
LINE
  8
0
 10
-7.59894
 20
-364.822
 11
-7.28114
 21
-365.29
  0
LINE
  8
0
 10
-7.28114
 20
-365.29
 11
-6.93462
 21
-365.737
  0
LINE
  8
0
 10
-6.93462
 20
-365.737
 11
-6.56071
 21
-366.161
  0
LINE
  8
0
 10
-6.56071
 20
-366.161
 11
-6.16092
 21
-366.561
  0
LINE
  8
0
 10
-6.16092
 20
-366.561
 11
-5.7368
 21
-366.935
  0
LINE
  8
0
 10
-5.7368
 20
-366.935
 11
-5.29005
 21
-367.281
  0
LINE
  8
0
 10
-5.29005
 20
-367.281
 11
-4.82243
 21
-367.599
  0
LINE
  8
0
 10
-4.82243
 20
-367.599
 11
-4.33577
 21
-367.887
  0
LINE
  8
0
 10
-4.33577
 20
-367.887
 11
-3.832
 21
-368.143
  0
LINE
  8
0
 10
-3.832
 20
-368.143
 11
-3.31311
 21
-368.368
  0
LINE
  8
0
 10
-3.31311
 20
-368.368
 11
-2.78114
 21
-368.56
  0
LINE
  8
0
 10
-2.78114
 20
-368.56
 11
-2.2382
 21
-368.717
  0
LINE
  8
0
 10
-2.2382
 20
-368.717
 11
-1.68642
 21
-368.841
  0
LINE
  8
0
 10
-1.68642
 20
-368.841
 11
-1.12799
 21
-368.929
  0
LINE
  8
0
 10
-1.12799
 20
-368.929
 11
-0.565109
 21
-368.982
  0
LINE
  8
0
 10
-0.565109
 20
-368.982
 11
0
 21
-369
  0
LINE
  8
0
 10
0
 20
-369
 11
0.565109
 21
-368.982
  0
LINE
  8
0
 10
-0.439529
 20
-6.98618
 11
-0.877319
 21
-6.94479
  0
LINE
  8
0
 10
-0.877319
 20
-6.94479
 11
-1.31166
 21
-6.87601
  0
LINE
  8
0
 10
-1.31166
 20
-6.87601
 11
-1.74081
 21
-6.78008
  0
LINE
  8
0
 10
-1.74081
 20
-6.78008
 11
-2.16312
 21
-6.65739
  0
LINE
  8
0
 10
-2.16312
 20
-6.65739
 11
-2.57686
 21
-6.50842
  0
LINE
  8
0
 10
-2.57686
 20
-6.50842
 11
-2.98045
 21
-6.33379
  0
LINE
  8
0
 10
-2.98045
 20
-6.33379
 11
-3.37227
 21
-6.13414
  0
LINE
  8
0
 10
-3.37227
 20
-6.13414
 11
-3.75078
 21
-5.91029
  0
LINE
  8
0
 10
-3.75078
 20
-5.91029
 11
-4.11449
 21
-5.66312
  0
LINE
  8
0
 10
-4.11449
 20
-5.66312
 11
-4.46196
 21
-5.39359
  0
LINE
  8
0
 10
-4.46196
 20
-5.39359
 11
-4.79182
 21
-5.10277
  0
LINE
  8
0
 10
-4.79182
 20
-5.10277
 11
-5.10277
 21
-4.79182
  0
LINE
  8
0
 10
-5.10277
 20
-4.79182
 11
-5.39359
 21
-4.46196
  0
LINE
  8
0
 10
-5.39359
 20
-4.46196
 11
-5.66312
 21
-4.11449
  0
LINE
  8
0
 10
-5.66312
 20
-4.11449
 11
-5.91029
 21
-3.75078
  0
LINE
  8
0
 10
-5.91029
 20
-3.75078
 11
-6.13414
 21
-3.37227
  0
LINE
  8
0
 10
-6.13414
 20
-3.37227
 11
-6.33379
 21
-2.98045
  0
LINE
  8
0
 10
-6.33379
 20
-2.98045
 11
-6.50842
 21
-2.57686
  0
LINE
  8
0
 10
-6.50842
 20
-2.57686
 11
-6.65739
 21
-2.16312
  0
LINE
  8
0
 10
-6.65739
 20
-2.16312
 11
-6.78008
 21
-1.74081
  0
LINE
  8
0
 10
-6.78008
 20
-1.74081
 11
-6.87601
 21
-1.31166
  0
LINE
  8
0
 10
-6.87601
 20
-1.31166
 11
-6.94479
 21
-0.877319
  0
LINE
  8
0
 10
-6.94479
 20
-0.877319
 11
-6.98618
 21
-0.439529
  0
LINE
  8
0
 10
-6.98618
 20
-0.439529
 11
-7
 21
0
  0
LINE
  8
0
 10
-7
 20
0
 11
-6.98618
 21
0.439529
  0
LINE
  8
0
 10
-6.98618
 20
0.439529
 11
-6.94479
 21
0.877319
  0
LINE
  8
0
 10
-6.94479
 20
0.877319
 11
-6.87601
 21
1.31166
  0
LINE
  8
0
 10
-6.87601
 20
1.31166
 11
-6.78008
 21
1.74081
  0
LINE
  8
0
 10
-6.78008
 20
1.74081
 11
-6.65739
 21
2.16312
  0
LINE
  8
0
 10
-6.65739
 20
2.16312
 11
-6.50842
 21
2.57686
  0
LINE
  8
0
 10
-6.50842
 20
2.57686
 11
-6.33379
 21
2.98045
  0
LINE
  8
0
 10
-6.33379
 20
2.98045
 11
-6.13414
 21
3.37227
  0
LINE
  8
0
 10
-6.13414
 20
3.37227
 11
-5.91029
 21
3.75078
  0
LINE
  8
0
 10
-5.91029
 20
3.75078
 11
-5.66312
 21
4.11449
  0
LINE
  8
0
 10
-5.66312
 20
4.11449
 11
-5.39359
 21
4.46196
  0
LINE
  8
0
 10
-5.39359
 20
4.46196
 11
-5.10277
 21
4.79182
  0
LINE
  8
0
 10
-5.10277
 20
4.79182
 11
-4.79182
 21
5.10277
  0
LINE
  8
0
 10
-4.79182
 20
5.10277
 11
-4.46196
 21
5.39359
  0
LINE
  8
0
 10
-4.46196
 20
5.39359
 11
-4.11449
 21
5.66312
  0
LINE
  8
0
 10
-4.11449
 20
5.66312
 11
-3.75078
 21
5.91029
  0
LINE
  8
0
 10
-3.75078
 20
5.91029
 11
-3.37227
 21
6.13414
  0
LINE
  8
0
 10
-3.37227
 20
6.13414
 11
-2.98045
 21
6.33379
  0
LINE
  8
0
 10
-2.98045
 20
6.33379
 11
-2.57686
 21
6.50842
  0
LINE
  8
0
 10
-2.57686
 20
6.50842
 11
-2.16312
 21
6.65739
  0
LINE
  8
0
 10
-2.16312
 20
6.65739
 11
-1.74081
 21
6.78008
  0
LINE
  8
0
 10
-1.74081
 20
6.78008
 11
-1.31166
 21
6.87601
  0
LINE
  8
0
 10
-1.31166
 20
6.87601
 11
-0.877319
 21
6.94479
  0
LINE
  8
0
 10
-0.877319
 20
6.94479
 11
-0.439529
 21
6.98618
  0
LINE
  8
0
 10
-0.439529
 20
6.98618
 11
0
 21
7
  0
LINE
  8
0
 10
0
 20
7
 11
0.439529
 21
6.98618
  0
LINE
  8
0
 10
0.439529
 20
6.98618
 11
0.877319
 21
6.94479
  0
LINE
  8
0
 10
0.877319
 20
6.94479
 11
1.31166
 21
6.87601
  0
LINE
  8
0
 10
1.31166
 20
6.87601
 11
1.74081
 21
6.78008
  0
LINE
  8
0
 10
1.74081
 20
6.78008
 11
2.16312
 21
6.65739
  0
LINE
  8
0
 10
2.16312
 20
6.65739
 11
2.57686
 21
6.50842
  0
LINE
  8
0
 10
2.57686
 20
6.50842
 11
2.98045
 21
6.33379
  0
LINE
  8
0
 10
2.98045
 20
6.33379
 11
3.37227
 21
6.13414
  0
LINE
  8
0
 10
3.37227
 20
6.13414
 11
3.75078
 21
5.91029
  0
LINE
  8
0
 10
3.75078
 20
5.91029
 11
4.11449
 21
5.66312
  0
LINE
  8
0
 10
4.11449
 20
5.66312
 11
4.46196
 21
5.39359
  0
LINE
  8
0
 10
4.46196
 20
5.39359
 11
4.79182
 21
5.10277
  0
LINE
  8
0
 10
4.79182
 20
5.10277
 11
5.10277
 21
4.79182
  0
LINE
  8
0
 10
5.10277
 20
4.79182
 11
5.39359
 21
4.46196
  0
LINE
  8
0
 10
5.39359
 20
4.46196
 11
5.66312
 21
4.11449
  0
LINE
  8
0
 10
5.66312
 20
4.11449
 11
5.91029
 21
3.75078
  0
LINE
  8
0
 10
5.91029
 20
3.75078
 11
6.13414
 21
3.37227
  0
LINE
  8
0
 10
6.13414
 20
3.37227
 11
6.33379
 21
2.98045
  0
LINE
  8
0
 10
6.33379
 20
2.98045
 11
6.50842
 21
2.57686
  0
LINE
  8
0
 10
6.50842
 20
2.57686
 11
6.65739
 21
2.16312
  0
LINE
  8
0
 10
6.65739
 20
2.16312
 11
6.78008
 21
1.74081
  0
LINE
  8
0
 10
6.78008
 20
1.74081
 11
6.87601
 21
1.31166
  0
LINE
  8
0
 10
6.87601
 20
1.31166
 11
6.94479
 21
0.877319
  0
LINE
  8
0
 10
6.94479
 20
0.877319
 11
6.98618
 21
0.439529
  0
LINE
  8
0
 10
6.98618
 20
0.439529
 11
7
 21
0
  0
LINE
  8
0
 10
7
 20
0
 11
6.98618
 21
-0.439529
  0
LINE
  8
0
 10
6.98618
 20
-0.439529
 11
6.94479
 21
-0.877319
  0
LINE
  8
0
 10
6.94479
 20
-0.877319
 11
6.87601
 21
-1.31166
  0
LINE
  8
0
 10
6.87601
 20
-1.31166
 11
6.78008
 21
-1.74081
  0
LINE
  8
0
 10
6.78008
 20
-1.74081
 11
6.65739
 21
-2.16312
  0
LINE
  8
0
 10
6.65739
 20
-2.16312
 11
6.50842
 21
-2.57686
  0
LINE
  8
0
 10
6.50842
 20
-2.57686
 11
6.33379
 21
-2.98045
  0
LINE
  8
0
 10
6.33379
 20
-2.98045
 11
6.13414
 21
-3.37227
  0
LINE
  8
0
 10
6.13414
 20
-3.37227
 11
5.91029
 21
-3.75078
  0
LINE
  8
0
 10
5.91029
 20
-3.75078
 11
5.66312
 21
-4.11449
  0
LINE
  8
0
 10
5.66312
 20
-4.11449
 11
5.39359
 21
-4.46196
  0
LINE
  8
0
 10
5.39359
 20
-4.46196
 11
5.10277
 21
-4.79182
  0
LINE
  8
0
 10
5.10277
 20
-4.79182
 11
4.79182
 21
-5.10277
  0
LINE
  8
0
 10
4.79182
 20
-5.10277
 11
4.46196
 21
-5.39359
  0
LINE
  8
0
 10
4.46196
 20
-5.39359
 11
4.11449
 21
-5.66312
  0
LINE
  8
0
 10
4.11449
 20
-5.66312
 11
3.75078
 21
-5.91029
  0
LINE
  8
0
 10
3.75078
 20
-5.91029
 11
3.37227
 21
-6.13414
  0
LINE
  8
0
 10
3.37227
 20
-6.13414
 11
2.98045
 21
-6.33379
  0
LINE
  8
0
 10
2.98045
 20
-6.33379
 11
2.57686
 21
-6.50842
  0
LINE
  8
0
 10
2.57686
 20
-6.50842
 11
2.16312
 21
-6.65739
  0
LINE
  8
0
 10
2.16312
 20
-6.65739
 11
1.74081
 21
-6.78008
  0
LINE
  8
0
 10
1.74081
 20
-6.78008
 11
1.31166
 21
-6.87601
  0
LINE
  8
0
 10
1.31166
 20
-6.87601
 11
0.877319
 21
-6.94479
  0
LINE
  8
0
 10
0.877319
 20
-6.94479
 11
0.439529
 21
-6.98618
  0
LINE
  8
0
 10
0.439529
 20
-6.98618
 11
0
 21
-7
  0
LINE
  8
0
 10
0
 20
-7
 11
-0.439529
 21
-6.98618
  0
LINE
  8
0
 10
-48.4395
 20
-6.98618
 11
-48.8773
 21
-6.94479
  0
LINE
  8
0
 10
-48.8773
 20
-6.94479
 11
-49.3117
 21
-6.87601
  0
LINE
  8
0
 10
-49.3117
 20
-6.87601
 11
-49.7408
 21
-6.78008
  0
LINE
  8
0
 10
-49.7408
 20
-6.78008
 11
-50.1631
 21
-6.65739
  0
LINE
  8
0
 10
-50.1631
 20
-6.65739
 11
-50.5769
 21
-6.50842
  0
LINE
  8
0
 10
-50.5769
 20
-6.50842
 11
-50.9805
 21
-6.33379
  0
LINE
  8
0
 10
-50.9805
 20
-6.33379
 11
-51.3723
 21
-6.13414
  0
LINE
  8
0
 10
-51.3723
 20
-6.13414
 11
-51.7508
 21
-5.91029
  0
LINE
  8
0
 10
-51.7508
 20
-5.91029
 11
-52.1145
 21
-5.66312
  0
LINE
  8
0
 10
-52.1145
 20
-5.66312
 11
-52.462
 21
-5.39359
  0
LINE
  8
0
 10
-52.462
 20
-5.39359
 11
-52.7918
 21
-5.10277
  0
LINE
  8
0
 10
-52.7918
 20
-5.10277
 11
-53.1028
 21
-4.79182
  0
LINE
  8
0
 10
-53.1028
 20
-4.79182
 11
-53.3936
 21
-4.46196
  0
LINE
  8
0
 10
-53.3936
 20
-4.46196
 11
-53.6631
 21
-4.11449
  0
LINE
  8
0
 10
-53.6631
 20
-4.11449
 11
-53.9103
 21
-3.75078
  0
LINE
  8
0
 10
-53.9103
 20
-3.75078
 11
-54.1341
 21
-3.37227
  0
LINE
  8
0
 10
-54.1341
 20
-3.37227
 11
-54.3338
 21
-2.98045
  0
LINE
  8
0
 10
-54.3338
 20
-2.98045
 11
-54.5084
 21
-2.57686
  0
LINE
  8
0
 10
-54.5084
 20
-2.57686
 11
-54.6574
 21
-2.16312
  0
LINE
  8
0
 10
-54.6574
 20
-2.16312
 11
-54.7801
 21
-1.74081
  0
LINE
  8
0
 10
-54.7801
 20
-1.74081
 11
-54.876
 21
-1.31166
  0
LINE
  8
0
 10
-54.876
 20
-1.31166
 11
-54.9448
 21
-0.877319
  0
LINE
  8
0
 10
-54.9448
 20
-0.877319
 11
-54.9862
 21
-0.439529
  0
LINE
  8
0
 10
-54.9862
 20
-0.439529
 11
-55
 21
0
  0
LINE
  8
0
 10
-55
 20
0
 11
-54.9862
 21
0.439529
  0
LINE
  8
0
 10
-54.9862
 20
0.439529
 11
-54.9448
 21
0.877319
  0
LINE
  8
0
 10
-54.9448
 20
0.877319
 11
-54.876
 21
1.31166
  0
LINE
  8
0
 10
-54.876
 20
1.31166
 11
-54.7801
 21
1.74081
  0
LINE
  8
0
 10
-54.7801
 20
1.74081
 11
-54.6574
 21
2.16312
  0
LINE
  8
0
 10
-54.6574
 20
2.16312
 11
-54.5084
 21
2.57686
  0
LINE
  8
0
 10
-54.5084
 20
2.57686
 11
-54.3338
 21
2.98045
  0
LINE
  8
0
 10
-54.3338
 20
2.98045
 11
-54.1341
 21
3.37227
  0
LINE
  8
0
 10
-54.1341
 20
3.37227
 11
-53.9103
 21
3.75078
  0
LINE
  8
0
 10
-53.9103
 20
3.75078
 11
-53.6631
 21
4.11449
  0
LINE
  8
0
 10
-53.6631
 20
4.11449
 11
-53.3936
 21
4.46196
  0
LINE
  8
0
 10
-53.3936
 20
4.46196
 11
-53.1028
 21
4.79182
  0
LINE
  8
0
 10
-53.1028
 20
4.79182
 11
-52.7918
 21
5.10277
  0
LINE
  8
0
 10
-52.7918
 20
5.10277
 11
-52.462
 21
5.39359
  0
LINE
  8
0
 10
-52.462
 20
5.39359
 11
-52.1145
 21
5.66312
  0
LINE
  8
0
 10
-52.1145
 20
5.66312
 11
-51.7508
 21
5.91029
  0
LINE
  8
0
 10
-51.7508
 20
5.91029
 11
-51.3723
 21
6.13414
  0
LINE
  8
0
 10
-51.3723
 20
6.13414
 11
-50.9805
 21
6.33379
  0
LINE
  8
0
 10
-50.9805
 20
6.33379
 11
-50.5769
 21
6.50842
  0
LINE
  8
0
 10
-50.5769
 20
6.50842
 11
-50.1631
 21
6.65739
  0
LINE
  8
0
 10
-50.1631
 20
6.65739
 11
-49.7408
 21
6.78008
  0
LINE
  8
0
 10
-49.7408
 20
6.78008
 11
-49.3117
 21
6.87601
  0
LINE
  8
0
 10
-49.3117
 20
6.87601
 11
-48.8773
 21
6.94479
  0
LINE
  8
0
 10
-48.8773
 20
6.94479
 11
-48.4395
 21
6.98618
  0
LINE
  8
0
 10
-48.4395
 20
6.98618
 11
-48
 21
7
  0
LINE
  8
0
 10
-48
 20
7
 11
-47.5605
 21
6.98618
  0
LINE
  8
0
 10
-47.5605
 20
6.98618
 11
-47.1227
 21
6.94479
  0
LINE
  8
0
 10
-47.1227
 20
6.94479
 11
-46.6883
 21
6.87601
  0
LINE
  8
0
 10
-46.6883
 20
6.87601
 11
-46.2592
 21
6.78008
  0
LINE
  8
0
 10
-46.2592
 20
6.78008
 11
-45.8369
 21
6.65739
  0
LINE
  8
0
 10
-45.8369
 20
6.65739
 11
-45.4231
 21
6.50842
  0
LINE
  8
0
 10
-45.4231
 20
6.50842
 11
-45.0195
 21
6.33379
  0
LINE
  8
0
 10
-45.0195
 20
6.33379
 11
-44.6277
 21
6.13414
  0
LINE
  8
0
 10
-44.6277
 20
6.13414
 11
-44.2492
 21
5.91029
  0
LINE
  8
0
 10
-44.2492
 20
5.91029
 11
-43.8855
 21
5.66312
  0
LINE
  8
0
 10
-43.8855
 20
5.66312
 11
-43.538
 21
5.39359
  0
LINE
  8
0
 10
-43.538
 20
5.39359
 11
-43.2082
 21
5.10277
  0
LINE
  8
0
 10
-43.2082
 20
5.10277
 11
-42.8972
 21
4.79182
  0
LINE
  8
0
 10
-42.8972
 20
4.79182
 11
-42.6064
 21
4.46196
  0
LINE
  8
0
 10
-42.6064
 20
4.46196
 11
-42.3369
 21
4.11449
  0
LINE
  8
0
 10
-42.3369
 20
4.11449
 11
-42.0897
 21
3.75078
  0
LINE
  8
0
 10
-42.0897
 20
3.75078
 11
-41.8658
 21
3.37227
  0
LINE
  8
0
 10
-41.8658
 20
3.37227
 11
-41.6662
 21
2.98045
  0
LINE
  8
0
 10
-41.6662
 20
2.98045
 11
-41.4916
 21
2.57686
  0
LINE
  8
0
 10
-41.4916
 20
2.57686
 11
-41.3426
 21
2.16312
  0
LINE
  8
0
 10
-41.3426
 20
2.16312
 11
-41.2199
 21
1.74081
  0
LINE
  8
0
 10
-41.2199
 20
1.74081
 11
-41.124
 21
1.31166
  0
LINE
  8
0
 10
-41.124
 20
1.31166
 11
-41.0552
 21
0.877319
  0
LINE
  8
0
 10
-41.0552
 20
0.877319
 11
-41.0138
 21
0.439529
  0
LINE
  8
0
 10
-41.0138
 20
0.439529
 11
-41
 21
0
  0
LINE
  8
0
 10
-41
 20
0
 11
-41.0138
 21
-0.439529
  0
LINE
  8
0
 10
-41.0138
 20
-0.439529
 11
-41.0552
 21
-0.877319
  0
LINE
  8
0
 10
-41.0552
 20
-0.877319
 11
-41.124
 21
-1.31166
  0
LINE
  8
0
 10
-41.124
 20
-1.31166
 11
-41.2199
 21
-1.74081
  0
LINE
  8
0
 10
-41.2199
 20
-1.74081
 11
-41.3426
 21
-2.16312
  0
LINE
  8
0
 10
-41.3426
 20
-2.16312
 11
-41.4916
 21
-2.57686
  0
LINE
  8
0
 10
-41.4916
 20
-2.57686
 11
-41.6662
 21
-2.98045
  0
LINE
  8
0
 10
-41.6662
 20
-2.98045
 11
-41.8658
 21
-3.37227
  0
LINE
  8
0
 10
-41.8658
 20
-3.37227
 11
-42.0897
 21
-3.75078
  0
LINE
  8
0
 10
-42.0897
 20
-3.75078
 11
-42.3369
 21
-4.11449
  0
LINE
  8
0
 10
-42.3369
 20
-4.11449
 11
-42.6064
 21
-4.46196
  0
LINE
  8
0
 10
-42.6064
 20
-4.46196
 11
-42.8972
 21
-4.79182
  0
LINE
  8
0
 10
-42.8972
 20
-4.79182
 11
-43.2082
 21
-5.10277
  0
LINE
  8
0
 10
-43.2082
 20
-5.10277
 11
-43.538
 21
-5.39359
  0
LINE
  8
0
 10
-43.538
 20
-5.39359
 11
-43.8855
 21
-5.66312
  0
LINE
  8
0
 10
-43.8855
 20
-5.66312
 11
-44.2492
 21
-5.91029
  0
LINE
  8
0
 10
-44.2492
 20
-5.91029
 11
-44.6277
 21
-6.13414
  0
LINE
  8
0
 10
-44.6277
 20
-6.13414
 11
-45.0195
 21
-6.33379
  0
LINE
  8
0
 10
-45.0195
 20
-6.33379
 11
-45.4231
 21
-6.50842
  0
LINE
  8
0
 10
-45.4231
 20
-6.50842
 11
-45.8369
 21
-6.65739
  0
LINE
  8
0
 10
-45.8369
 20
-6.65739
 11
-46.2592
 21
-6.78008
  0
LINE
  8
0
 10
-46.2592
 20
-6.78008
 11
-46.6883
 21
-6.87601
  0
LINE
  8
0
 10
-46.6883
 20
-6.87601
 11
-47.1227
 21
-6.94479
  0
LINE
  8
0
 10
-47.1227
 20
-6.94479
 11
-47.5605
 21
-6.98618
  0
LINE
  8
0
 10
-47.5605
 20
-6.98618
 11
-48
 21
-7
  0
LINE
  8
0
 10
-48
 20
-7
 11
-48.4395
 21
-6.98618
  0
LINE
  8
0
 10
-32.135
 20
-2.14575
 11
-32.2695
 21
-2.13304
  0
LINE
  8
0
 10
-32.2695
 20
-2.13304
 11
-32.4029
 21
-2.11191
  0
LINE
  8
0
 10
-32.4029
 20
-2.11191
 11
-32.5347
 21
-2.08244
  0
LINE
  8
0
 10
-32.5347
 20
-2.08244
 11
-32.6644
 21
-2.04477
  0
LINE
  8
0
 10
-32.6644
 20
-2.04477
 11
-32.7915
 21
-1.99901
  0
LINE
  8
0
 10
-32.7915
 20
-1.99901
 11
-32.9154
 21
-1.94537
  0
LINE
  8
0
 10
-32.9154
 20
-1.94537
 11
-33.0358
 21
-1.88405
  0
LINE
  8
0
 10
-33.0358
 20
-1.88405
 11
-33.152
 21
-1.81529
  0
LINE
  8
0
 10
-33.152
 20
-1.81529
 11
-33.2637
 21
-1.73938
  0
LINE
  8
0
 10
-33.2637
 20
-1.73938
 11
-33.3705
 21
-1.6566
  0
LINE
  8
0
 10
-33.3705
 20
-1.6566
 11
-33.4718
 21
-1.56728
  0
LINE
  8
0
 10
-33.4718
 20
-1.56728
 11
-33.5673
 21
-1.47177
  0
LINE
  8
0
 10
-33.5673
 20
-1.47177
 11
-33.6566
 21
-1.37045
  0
LINE
  8
0
 10
-33.6566
 20
-1.37045
 11
-33.7394
 21
-1.26373
  0
LINE
  8
0
 10
-33.7394
 20
-1.26373
 11
-33.8153
 21
-1.15202
  0
LINE
  8
0
 10
-33.8153
 20
-1.15202
 11
-33.884
 21
-1.03577
  0
LINE
  8
0
 10
-33.884
 20
-1.03577
 11
-33.9454
 21
-0.915421
  0
LINE
  8
0
 10
-33.9454
 20
-0.915421
 11
-33.999
 21
-0.791458
  0
LINE
  8
0
 10
-33.999
 20
-0.791458
 11
-34.0448
 21
-0.664383
  0
LINE
  8
0
 10
-34.0448
 20
-0.664383
 11
-34.0824
 21
-0.534683
  0
LINE
  8
0
 10
-34.0824
 20
-0.534683
 11
-34.1119
 21
-0.402863
  0
LINE
  8
0
 10
-34.1119
 20
-0.402863
 11
-34.133
 21
-0.269455
  0
LINE
  8
0
 10
-34.133
 20
-0.269455
 11
-34.1458
 21
-0.134995
  0
LINE
  8
0
 10
-34.1458
 20
-0.134995
 11
-34.15
 21
0
  0
LINE
  8
0
 10
-34.15
 20
0
 11
-34.1458
 21
0.134995
  0
LINE
  8
0
 10
-34.1458
 20
0.134995
 11
-34.133
 21
0.269455
  0
LINE
  8
0
 10
-34.133
 20
0.269455
 11
-34.1119
 21
0.402863
  0
LINE
  8
0
 10
-34.1119
 20
0.402863
 11
-34.0824
 21
0.534683
  0
LINE
  8
0
 10
-34.0824
 20
0.534683
 11
-34.0448
 21
0.664383
  0
LINE
  8
0
 10
-34.0448
 20
0.664383
 11
-33.999
 21
0.791458
  0
LINE
  8
0
 10
-33.999
 20
0.791458
 11
-33.9454
 21
0.915421
  0
LINE
  8
0
 10
-33.9454
 20
0.915421
 11
-33.884
 21
1.03577
  0
LINE
  8
0
 10
-33.884
 20
1.03577
 11
-33.8153
 21
1.15202
  0
LINE
  8
0
 10
-33.8153
 20
1.15202
 11
-33.7394
 21
1.26373
  0
LINE
  8
0
 10
-33.7394
 20
1.26373
 11
-33.6566
 21
1.37045
  0
LINE
  8
0
 10
-33.6566
 20
1.37045
 11
-33.5673
 21
1.47177
  0
LINE
  8
0
 10
-33.5673
 20
1.47177
 11
-33.4718
 21
1.56728
  0
LINE
  8
0
 10
-33.4718
 20
1.56728
 11
-33.3705
 21
1.6566
  0
LINE
  8
0
 10
-33.3705
 20
1.6566
 11
-33.2637
 21
1.73938
  0
LINE
  8
0
 10
-33.2637
 20
1.73938
 11
-33.152
 21
1.81529
  0
LINE
  8
0
 10
-33.152
 20
1.81529
 11
-33.0358
 21
1.88405
  0
LINE
  8
0
 10
-33.0358
 20
1.88405
 11
-32.9154
 21
1.94537
  0
LINE
  8
0
 10
-32.9154
 20
1.94537
 11
-32.7915
 21
1.99901
  0
LINE
  8
0
 10
-32.7915
 20
1.99901
 11
-32.6644
 21
2.04477
  0
LINE
  8
0
 10
-32.6644
 20
2.04477
 11
-32.5347
 21
2.08244
  0
LINE
  8
0
 10
-32.5347
 20
2.08244
 11
-32.4029
 21
2.11191
  0
LINE
  8
0
 10
-32.4029
 20
2.11191
 11
-32.2695
 21
2.13304
  0
LINE
  8
0
 10
-32.2695
 20
2.13304
 11
-32.135
 21
2.14575
  0
LINE
  8
0
 10
-32.135
 20
2.14575
 11
-32
 21
2.14999
  0
LINE
  8
0
 10
-32
 20
2.14999
 11
-31.865
 21
2.14575
  0
LINE
  8
0
 10
-31.865
 20
2.14575
 11
-31.7305
 21
2.13304
  0
LINE
  8
0
 10
-31.7305
 20
2.13304
 11
-31.5971
 21
2.11191
  0
LINE
  8
0
 10
-31.5971
 20
2.11191
 11
-31.4653
 21
2.08244
  0
LINE
  8
0
 10
-31.4653
 20
2.08244
 11
-31.3356
 21
2.04477
  0
LINE
  8
0
 10
-31.3356
 20
2.04477
 11
-31.2085
 21
1.99901
  0
LINE
  8
0
 10
-31.2085
 20
1.99901
 11
-31.0846
 21
1.94537
  0
LINE
  8
0
 10
-31.0846
 20
1.94537
 11
-30.9642
 21
1.88405
  0
LINE
  8
0
 10
-30.9642
 20
1.88405
 11
-30.848
 21
1.81529
  0
LINE
  8
0
 10
-30.848
 20
1.81529
 11
-30.7363
 21
1.73938
  0
LINE
  8
0
 10
-30.7363
 20
1.73938
 11
-30.6295
 21
1.6566
  0
LINE
  8
0
 10
-30.6295
 20
1.6566
 11
-30.5282
 21
1.56728
  0
LINE
  8
0
 10
-30.5282
 20
1.56728
 11
-30.4327
 21
1.47177
  0
LINE
  8
0
 10
-30.4327
 20
1.47177
 11
-30.3434
 21
1.37045
  0
LINE
  8
0
 10
-30.3434
 20
1.37045
 11
-30.2606
 21
1.26373
  0
LINE
  8
0
 10
-30.2606
 20
1.26373
 11
-30.1847
 21
1.15202
  0
LINE
  8
0
 10
-30.1847
 20
1.15202
 11
-30.1159
 21
1.03577
  0
LINE
  8
0
 10
-30.1159
 20
1.03577
 11
-30.0546
 21
0.915421
  0
LINE
  8
0
 10
-30.0546
 20
0.915421
 11
-30.001
 21
0.791458
  0
LINE
  8
0
 10
-30.001
 20
0.791458
 11
-29.9552
 21
0.664383
  0
LINE
  8
0
 10
-29.9552
 20
0.664383
 11
-29.9175
 21
0.534683
  0
LINE
  8
0
 10
-29.9175
 20
0.534683
 11
-29.8881
 21
0.402863
  0
LINE
  8
0
 10
-29.8881
 20
0.402863
 11
-29.8669
 21
0.269455
  0
LINE
  8
0
 10
-29.8669
 20
0.269455
 11
-29.8542
 21
0.134995
  0
LINE
  8
0
 10
-29.8542
 20
0.134995
 11
-29.85
 21
0
  0
LINE
  8
0
 10
-29.85
 20
0
 11
-29.8542
 21
-0.134995
  0
LINE
  8
0
 10
-29.8542
 20
-0.134995
 11
-29.8669
 21
-0.269455
  0
LINE
  8
0
 10
-29.8669
 20
-0.269455
 11
-29.8881
 21
-0.402863
  0
LINE
  8
0
 10
-29.8881
 20
-0.402863
 11
-29.9175
 21
-0.534683
  0
LINE
  8
0
 10
-29.9175
 20
-0.534683
 11
-29.9552
 21
-0.664383
  0
LINE
  8
0
 10
-29.9552
 20
-0.664383
 11
-30.001
 21
-0.791458
  0
LINE
  8
0
 10
-30.001
 20
-0.791458
 11
-30.0546
 21
-0.915421
  0
LINE
  8
0
 10
-30.0546
 20
-0.915421
 11
-30.1159
 21
-1.03577
  0
LINE
  8
0
 10
-30.1159
 20
-1.03577
 11
-30.1847
 21
-1.15202
  0
LINE
  8
0
 10
-30.1847
 20
-1.15202
 11
-30.2606
 21
-1.26373
  0
LINE
  8
0
 10
-30.2606
 20
-1.26373
 11
-30.3434
 21
-1.37045
  0
LINE
  8
0
 10
-30.3434
 20
-1.37045
 11
-30.4327
 21
-1.47177
  0
LINE
  8
0
 10
-30.4327
 20
-1.47177
 11
-30.5282
 21
-1.56728
  0
LINE
  8
0
 10
-30.5282
 20
-1.56728
 11
-30.6295
 21
-1.6566
  0
LINE
  8
0
 10
-30.6295
 20
-1.6566
 11
-30.7363
 21
-1.73938
  0
LINE
  8
0
 10
-30.7363
 20
-1.73938
 11
-30.848
 21
-1.81529
  0
LINE
  8
0
 10
-30.848
 20
-1.81529
 11
-30.9642
 21
-1.88405
  0
LINE
  8
0
 10
-30.9642
 20
-1.88405
 11
-31.0846
 21
-1.94537
  0
LINE
  8
0
 10
-31.0846
 20
-1.94537
 11
-31.2085
 21
-1.99901
  0
LINE
  8
0
 10
-31.2085
 20
-1.99901
 11
-31.3356
 21
-2.04477
  0
LINE
  8
0
 10
-31.3356
 20
-2.04477
 11
-31.4653
 21
-2.08244
  0
LINE
  8
0
 10
-31.4653
 20
-2.08244
 11
-31.5971
 21
-2.11191
  0
LINE
  8
0
 10
-31.5971
 20
-2.11191
 11
-31.7305
 21
-2.13304
  0
LINE
  8
0
 10
-31.7305
 20
-2.13304
 11
-31.865
 21
-2.14575
  0
LINE
  8
0
 10
-31.865
 20
-2.14575
 11
-32
 21
-2.14999
  0
LINE
  8
0
 10
-32
 20
-2.14999
 11
-32.135
 21
-2.14575
  0
LINE
  8
0
 10
-16.135
 20
-2.14575
 11
-16.2695
 21
-2.13304
  0
LINE
  8
0
 10
-16.2695
 20
-2.13304
 11
-16.4029
 21
-2.11191
  0
LINE
  8
0
 10
-16.4029
 20
-2.11191
 11
-16.5347
 21
-2.08244
  0
LINE
  8
0
 10
-16.5347
 20
-2.08244
 11
-16.6644
 21
-2.04477
  0
LINE
  8
0
 10
-16.6644
 20
-2.04477
 11
-16.7915
 21
-1.99901
  0
LINE
  8
0
 10
-16.7915
 20
-1.99901
 11
-16.9154
 21
-1.94537
  0
LINE
  8
0
 10
-16.9154
 20
-1.94537
 11
-17.0358
 21
-1.88405
  0
LINE
  8
0
 10
-17.0358
 20
-1.88405
 11
-17.152
 21
-1.81529
  0
LINE
  8
0
 10
-17.152
 20
-1.81529
 11
-17.2637
 21
-1.73938
  0
LINE
  8
0
 10
-17.2637
 20
-1.73938
 11
-17.3705
 21
-1.6566
  0
LINE
  8
0
 10
-17.3705
 20
-1.6566
 11
-17.4718
 21
-1.56728
  0
LINE
  8
0
 10
-17.4718
 20
-1.56728
 11
-17.5673
 21
-1.47177
  0
LINE
  8
0
 10
-17.5673
 20
-1.47177
 11
-17.6566
 21
-1.37045
  0
LINE
  8
0
 10
-17.6566
 20
-1.37045
 11
-17.7394
 21
-1.26373
  0
LINE
  8
0
 10
-17.7394
 20
-1.26373
 11
-17.8153
 21
-1.15202
  0
LINE
  8
0
 10
-17.8153
 20
-1.15202
 11
-17.884
 21
-1.03577
  0
LINE
  8
0
 10
-17.884
 20
-1.03577
 11
-17.9454
 21
-0.915421
  0
LINE
  8
0
 10
-17.9454
 20
-0.915421
 11
-17.999
 21
-0.791458
  0
LINE
  8
0
 10
-17.999
 20
-0.791458
 11
-18.0448
 21
-0.664383
  0
LINE
  8
0
 10
-18.0448
 20
-0.664383
 11
-18.0824
 21
-0.534683
  0
LINE
  8
0
 10
-18.0824
 20
-0.534683
 11
-18.1119
 21
-0.402863
  0
LINE
  8
0
 10
-18.1119
 20
-0.402863
 11
-18.133
 21
-0.269455
  0
LINE
  8
0
 10
-18.133
 20
-0.269455
 11
-18.1458
 21
-0.134995
  0
LINE
  8
0
 10
-18.1458
 20
-0.134995
 11
-18.15
 21
0
  0
LINE
  8
0
 10
-18.15
 20
0
 11
-18.1458
 21
0.134995
  0
LINE
  8
0
 10
-18.1458
 20
0.134995
 11
-18.133
 21
0.269455
  0
LINE
  8
0
 10
-18.133
 20
0.269455
 11
-18.1119
 21
0.402863
  0
LINE
  8
0
 10
-18.1119
 20
0.402863
 11
-18.0824
 21
0.534683
  0
LINE
  8
0
 10
-18.0824
 20
0.534683
 11
-18.0448
 21
0.664383
  0
LINE
  8
0
 10
-18.0448
 20
0.664383
 11
-17.999
 21
0.791458
  0
LINE
  8
0
 10
-17.999
 20
0.791458
 11
-17.9454
 21
0.915421
  0
LINE
  8
0
 10
-17.9454
 20
0.915421
 11
-17.884
 21
1.03577
  0
LINE
  8
0
 10
-17.884
 20
1.03577
 11
-17.8153
 21
1.15202
  0
LINE
  8
0
 10
-17.8153
 20
1.15202
 11
-17.7394
 21
1.26373
  0
LINE
  8
0
 10
-17.7394
 20
1.26373
 11
-17.6566
 21
1.37045
  0
LINE
  8
0
 10
-17.6566
 20
1.37045
 11
-17.5673
 21
1.47177
  0
LINE
  8
0
 10
-17.5673
 20
1.47177
 11
-17.4718
 21
1.56728
  0
LINE
  8
0
 10
-17.4718
 20
1.56728
 11
-17.3705
 21
1.6566
  0
LINE
  8
0
 10
-17.3705
 20
1.6566
 11
-17.2637
 21
1.73938
  0
LINE
  8
0
 10
-17.2637
 20
1.73938
 11
-17.152
 21
1.81529
  0
LINE
  8
0
 10
-17.152
 20
1.81529
 11
-17.0358
 21
1.88405
  0
LINE
  8
0
 10
-17.0358
 20
1.88405
 11
-16.9154
 21
1.94537
  0
LINE
  8
0
 10
-16.9154
 20
1.94537
 11
-16.7915
 21
1.99901
  0
LINE
  8
0
 10
-16.7915
 20
1.99901
 11
-16.6644
 21
2.04477
  0
LINE
  8
0
 10
-16.6644
 20
2.04477
 11
-16.5347
 21
2.08244
  0
LINE
  8
0
 10
-16.5347
 20
2.08244
 11
-16.4029
 21
2.11191
  0
LINE
  8
0
 10
-16.4029
 20
2.11191
 11
-16.2695
 21
2.13304
  0
LINE
  8
0
 10
-16.2695
 20
2.13304
 11
-16.135
 21
2.14575
  0
LINE
  8
0
 10
-16.135
 20
2.14575
 11
-16
 21
2.14999
  0
LINE
  8
0
 10
-16
 20
2.14999
 11
-15.865
 21
2.14575
  0
LINE
  8
0
 10
-15.865
 20
2.14575
 11
-15.7305
 21
2.13304
  0
LINE
  8
0
 10
-15.7305
 20
2.13304
 11
-15.5971
 21
2.11191
  0
LINE
  8
0
 10
-15.5971
 20
2.11191
 11
-15.4653
 21
2.08244
  0
LINE
  8
0
 10
-15.4653
 20
2.08244
 11
-15.3356
 21
2.04477
  0
LINE
  8
0
 10
-15.3356
 20
2.04477
 11
-15.2085
 21
1.99901
  0
LINE
  8
0
 10
-15.2085
 20
1.99901
 11
-15.0846
 21
1.94537
  0
LINE
  8
0
 10
-15.0846
 20
1.94537
 11
-14.9642
 21
1.88405
  0
LINE
  8
0
 10
-14.9642
 20
1.88405
 11
-14.848
 21
1.81529
  0
LINE
  8
0
 10
-14.848
 20
1.81529
 11
-14.7363
 21
1.73938
  0
LINE
  8
0
 10
-14.7363
 20
1.73938
 11
-14.6295
 21
1.6566
  0
LINE
  8
0
 10
-14.6295
 20
1.6566
 11
-14.5282
 21
1.56728
  0
LINE
  8
0
 10
-14.5282
 20
1.56728
 11
-14.4327
 21
1.47177
  0
LINE
  8
0
 10
-14.4327
 20
1.47177
 11
-14.3434
 21
1.37045
  0
LINE
  8
0
 10
-14.3434
 20
1.37045
 11
-14.2606
 21
1.26373
  0
LINE
  8
0
 10
-14.2606
 20
1.26373
 11
-14.1847
 21
1.15202
  0
LINE
  8
0
 10
-14.1847
 20
1.15202
 11
-14.1159
 21
1.03577
  0
LINE
  8
0
 10
-14.1159
 20
1.03577
 11
-14.0546
 21
0.915421
  0
LINE
  8
0
 10
-14.0546
 20
0.915421
 11
-14.001
 21
0.791458
  0
LINE
  8
0
 10
-14.001
 20
0.791458
 11
-13.9552
 21
0.664383
  0
LINE
  8
0
 10
-13.9552
 20
0.664383
 11
-13.9175
 21
0.534683
  0
LINE
  8
0
 10
-13.9175
 20
0.534683
 11
-13.8881
 21
0.402863
  0
LINE
  8
0
 10
-13.8881
 20
0.402863
 11
-13.8669
 21
0.269455
  0
LINE
  8
0
 10
-13.8669
 20
0.269455
 11
-13.8542
 21
0.134995
  0
LINE
  8
0
 10
-13.8542
 20
0.134995
 11
-13.85
 21
0
  0
LINE
  8
0
 10
-13.85
 20
0
 11
-13.8542
 21
-0.134995
  0
LINE
  8
0
 10
-13.8542
 20
-0.134995
 11
-13.8669
 21
-0.269455
  0
LINE
  8
0
 10
-13.8669
 20
-0.269455
 11
-13.8881
 21
-0.402863
  0
LINE
  8
0
 10
-13.8881
 20
-0.402863
 11
-13.9175
 21
-0.534683
  0
LINE
  8
0
 10
-13.9175
 20
-0.534683
 11
-13.9552
 21
-0.664383
  0
LINE
  8
0
 10
-13.9552
 20
-0.664383
 11
-14.001
 21
-0.791458
  0
LINE
  8
0
 10
-14.001
 20
-0.791458
 11
-14.0546
 21
-0.915421
  0
LINE
  8
0
 10
-14.0546
 20
-0.915421
 11
-14.1159
 21
-1.03577
  0
LINE
  8
0
 10
-14.1159
 20
-1.03577
 11
-14.1847
 21
-1.15202
  0
LINE
  8
0
 10
-14.1847
 20
-1.15202
 11
-14.2606
 21
-1.26373
  0
LINE
  8
0
 10
-14.2606
 20
-1.26373
 11
-14.3434
 21
-1.37045
  0
LINE
  8
0
 10
-14.3434
 20
-1.37045
 11
-14.4327
 21
-1.47177
  0
LINE
  8
0
 10
-14.4327
 20
-1.47177
 11
-14.5282
 21
-1.56728
  0
LINE
  8
0
 10
-14.5282
 20
-1.56728
 11
-14.6295
 21
-1.6566
  0
LINE
  8
0
 10
-14.6295
 20
-1.6566
 11
-14.7363
 21
-1.73938
  0
LINE
  8
0
 10
-14.7363
 20
-1.73938
 11
-14.848
 21
-1.81529
  0
LINE
  8
0
 10
-14.848
 20
-1.81529
 11
-14.9642
 21
-1.88405
  0
LINE
  8
0
 10
-14.9642
 20
-1.88405
 11
-15.0846
 21
-1.94537
  0
LINE
  8
0
 10
-15.0846
 20
-1.94537
 11
-15.2085
 21
-1.99901
  0
LINE
  8
0
 10
-15.2085
 20
-1.99901
 11
-15.3356
 21
-2.04477
  0
LINE
  8
0
 10
-15.3356
 20
-2.04477
 11
-15.4653
 21
-2.08244
  0
LINE
  8
0
 10
-15.4653
 20
-2.08244
 11
-15.5971
 21
-2.11191
  0
LINE
  8
0
 10
-15.5971
 20
-2.11191
 11
-15.7305
 21
-2.13304
  0
LINE
  8
0
 10
-15.7305
 20
-2.13304
 11
-15.865
 21
-2.14575
  0
LINE
  8
0
 10
-15.865
 20
-2.14575
 11
-16
 21
-2.14999
  0
LINE
  8
0
 10
-16
 20
-2.14999
 11
-16.135
 21
-2.14575
  0
LINE
  8
0
 10
-0.100464
 20
-53.0254
 11
-0.200531
 21
-53.0159
  0
LINE
  8
0
 10
-0.200531
 20
-53.0159
 11
-0.299805
 21
-53.0002
  0
LINE
  8
0
 10
-0.299805
 20
-53.0002
 11
-0.397903
 21
-52.9783
  0
LINE
  8
0
 10
-0.397903
 20
-52.9783
 11
-0.494415
 21
-52.9503
  0
LINE
  8
0
 10
-0.494415
 20
-52.9503
 11
-0.588989
 21
-52.9162
  0
LINE
  8
0
 10
-0.588989
 20
-52.9162
 11
-0.681244
 21
-52.8763
  0
LINE
  8
0
 10
-0.681244
 20
-52.8763
 11
-0.770798
 21
-52.8307
  0
LINE
  8
0
 10
-0.770798
 20
-52.8307
 11
-0.857315
 21
-52.7795
  0
LINE
  8
0
 10
-0.857315
 20
-52.7795
 11
-0.940445
 21
-52.723
  0
LINE
  8
0
 10
-0.940445
 20
-52.723
 11
-1.01987
 21
-52.6614
  0
LINE
  8
0
 10
-1.01987
 20
-52.6614
 11
-1.09526
 21
-52.5949
  0
LINE
  8
0
 10
-1.09526
 20
-52.5949
 11
-1.16634
 21
-52.5238
  0
LINE
  8
0
 10
-1.16634
 20
-52.5238
 11
-1.23282
 21
-52.4484
  0
LINE
  8
0
 10
-1.23282
 20
-52.4484
 11
-1.29442
 21
-52.369
  0
LINE
  8
0
 10
-1.29442
 20
-52.369
 11
-1.35092
 21
-52.2859
  0
LINE
  8
0
 10
-1.35092
 20
-52.2859
 11
-1.40208
 21
-52.1994
  0
LINE
  8
0
 10
-1.40208
 20
-52.1994
 11
-1.44771
 21
-52.1098
  0
LINE
  8
0
 10
-1.44771
 20
-52.1098
 11
-1.48764
 21
-52.0176
  0
LINE
  8
0
 10
-1.48764
 20
-52.0176
 11
-1.52168
 21
-51.923
  0
LINE
  8
0
 10
-1.52168
 20
-51.923
 11
-1.54973
 21
-51.8265
  0
LINE
  8
0
 10
-1.54973
 20
-51.8265
 11
-1.57166
 21
-51.7284
  0
LINE
  8
0
 10
-1.57166
 20
-51.7284
 11
-1.58737
 21
-51.6291
  0
LINE
  8
0
 10
-1.58737
 20
-51.6291
 11
-1.59683
 21
-51.529
  0
LINE
  8
0
 10
-1.59683
 20
-51.529
 11
-1.59999
 21
-51.4286
  0
LINE
  8
0
 10
-1.59999
 20
-51.4286
 11
-1.59683
 21
-51.3281
  0
LINE
  8
0
 10
-1.59683
 20
-51.3281
 11
-1.58737
 21
-51.228
  0
LINE
  8
0
 10
-1.58737
 20
-51.228
 11
-1.57166
 21
-51.1288
  0
LINE
  8
0
 10
-1.57166
 20
-51.1288
 11
-1.54973
 21
-51.0307
  0
LINE
  8
0
 10
-1.54973
 20
-51.0307
 11
-1.52168
 21
-50.9341
  0
LINE
  8
0
 10
-1.52168
 20
-50.9341
 11
-1.48764
 21
-50.8396
  0
LINE
  8
0
 10
-1.48764
 20
-50.8396
 11
-1.44771
 21
-50.7473
  0
LINE
  8
0
 10
-1.44771
 20
-50.7473
 11
-1.40208
 21
-50.6578
  0
LINE
  8
0
 10
-1.40208
 20
-50.6578
 11
-1.35092
 21
-50.5712
  0
LINE
  8
0
 10
-1.35092
 20
-50.5712
 11
-1.29442
 21
-50.4881
  0
LINE
  8
0
 10
-1.29442
 20
-50.4881
 11
-1.23282
 21
-50.4087
  0
LINE
  8
0
 10
-1.23282
 20
-50.4087
 11
-1.16634
 21
-50.3333
  0
LINE
  8
0
 10
-1.16634
 20
-50.3333
 11
-1.09526
 21
-50.2622
  0
LINE
  8
0
 10
-1.09526
 20
-50.2622
 11
-1.01987
 21
-50.1957
  0
LINE
  8
0
 10
-1.01987
 20
-50.1957
 11
-0.940445
 21
-50.1341
  0
LINE
  8
0
 10
-0.940445
 20
-50.1341
 11
-0.857315
 21
-50.0776
  0
LINE
  8
0
 10
-0.857315
 20
-50.0776
 11
-0.770798
 21
-50.0265
  0
LINE
  8
0
 10
-0.770798
 20
-50.0265
 11
-0.681244
 21
-49.9808
  0
LINE
  8
0
 10
-0.681244
 20
-49.9808
 11
-0.588989
 21
-49.9409
  0
LINE
  8
0
 10
-0.588989
 20
-49.9409
 11
-0.494415
 21
-49.9069
  0
LINE
  8
0
 10
-0.494415
 20
-49.9069
 11
-0.397903
 21
-49.8788
  0
LINE
  8
0
 10
-0.397903
 20
-49.8788
 11
-0.299805
 21
-49.8569
  0
LINE
  8
0
 10
-0.299805
 20
-49.8569
 11
-0.200531
 21
-49.8412
  0
LINE
  8
0
 10
-0.200531
 20
-49.8412
 11
-0.100464
 21
-49.8317
  0
LINE
  8
0
 10
-0.100464
 20
-49.8317
 11
0
 21
-49.8286
  0
LINE
  8
0
 10
0
 20
-49.8286
 11
0.100464
 21
-49.8317
  0
LINE
  8
0
 10
0.100464
 20
-49.8317
 11
0.200531
 21
-49.8412
  0
LINE
  8
0
 10
0.200531
 20
-49.8412
 11
0.299805
 21
-49.8569
  0
LINE
  8
0
 10
0.299805
 20
-49.8569
 11
0.397903
 21
-49.8788
  0
LINE
  8
0
 10
0.397903
 20
-49.8788
 11
0.494415
 21
-49.9069
  0
LINE
  8
0
 10
0.494415
 20
-49.9069
 11
0.588989
 21
-49.9409
  0
LINE
  8
0
 10
0.588989
 20
-49.9409
 11
0.681244
 21
-49.9808
  0
LINE
  8
0
 10
0.681244
 20
-49.9808
 11
0.770798
 21
-50.0265
  0
LINE
  8
0
 10
0.770798
 20
-50.0265
 11
0.857315
 21
-50.0776
  0
LINE
  8
0
 10
0.857315
 20
-50.0776
 11
0.940445
 21
-50.1341
  0
LINE
  8
0
 10
0.940445
 20
-50.1341
 11
1.01987
 21
-50.1957
  0
LINE
  8
0
 10
1.01987
 20
-50.1957
 11
1.09526
 21
-50.2622
  0
LINE
  8
0
 10
1.09526
 20
-50.2622
 11
1.16634
 21
-50.3333
  0
LINE
  8
0
 10
1.16634
 20
-50.3333
 11
1.23282
 21
-50.4087
  0
LINE
  8
0
 10
1.23282
 20
-50.4087
 11
1.29442
 21
-50.4881
  0
LINE
  8
0
 10
1.29442
 20
-50.4881
 11
1.35092
 21
-50.5712
  0
LINE
  8
0
 10
1.35092
 20
-50.5712
 11
1.40208
 21
-50.6578
  0
LINE
  8
0
 10
1.40208
 20
-50.6578
 11
1.44771
 21
-50.7473
  0
LINE
  8
0
 10
1.44771
 20
-50.7473
 11
1.48764
 21
-50.8396
  0
LINE
  8
0
 10
1.48764
 20
-50.8396
 11
1.52168
 21
-50.9341
  0
LINE
  8
0
 10
1.52168
 20
-50.9341
 11
1.54973
 21
-51.0307
  0
LINE
  8
0
 10
1.54973
 20
-51.0307
 11
1.57166
 21
-51.1288
  0
LINE
  8
0
 10
1.57166
 20
-51.1288
 11
1.58737
 21
-51.228
  0
LINE
  8
0
 10
1.58737
 20
-51.228
 11
1.59683
 21
-51.3281
  0
LINE
  8
0
 10
1.59683
 20
-51.3281
 11
1.59999
 21
-51.4286
  0
LINE
  8
0
 10
1.59999
 20
-51.4286
 11
1.59683
 21
-51.529
  0
LINE
  8
0
 10
1.59683
 20
-51.529
 11
1.58737
 21
-51.6291
  0
LINE
  8
0
 10
1.58737
 20
-51.6291
 11
1.57166
 21
-51.7284
  0
LINE
  8
0
 10
1.57166
 20
-51.7284
 11
1.54973
 21
-51.8265
  0
LINE
  8
0
 10
1.54973
 20
-51.8265
 11
1.52168
 21
-51.923
  0
LINE
  8
0
 10
1.52168
 20
-51.923
 11
1.48764
 21
-52.0176
  0
LINE
  8
0
 10
1.48764
 20
-52.0176
 11
1.44771
 21
-52.1098
  0
LINE
  8
0
 10
1.44771
 20
-52.1098
 11
1.40208
 21
-52.1994
  0
LINE
  8
0
 10
1.40208
 20
-52.1994
 11
1.35092
 21
-52.2859
  0
LINE
  8
0
 10
1.35092
 20
-52.2859
 11
1.29442
 21
-52.369
  0
LINE
  8
0
 10
1.29442
 20
-52.369
 11
1.23282
 21
-52.4484
  0
LINE
  8
0
 10
1.23282
 20
-52.4484
 11
1.16634
 21
-52.5238
  0
LINE
  8
0
 10
1.16634
 20
-52.5238
 11
1.09526
 21
-52.5949
  0
LINE
  8
0
 10
1.09526
 20
-52.5949
 11
1.01987
 21
-52.6614
  0
LINE
  8
0
 10
1.01987
 20
-52.6614
 11
0.940445
 21
-52.723
  0
LINE
  8
0
 10
0.940445
 20
-52.723
 11
0.857315
 21
-52.7795
  0
LINE
  8
0
 10
0.857315
 20
-52.7795
 11
0.770798
 21
-52.8307
  0
LINE
  8
0
 10
0.770798
 20
-52.8307
 11
0.681244
 21
-52.8763
  0
LINE
  8
0
 10
0.681244
 20
-52.8763
 11
0.588989
 21
-52.9162
  0
LINE
  8
0
 10
0.588989
 20
-52.9162
 11
0.494415
 21
-52.9503
  0
LINE
  8
0
 10
0.494415
 20
-52.9503
 11
0.397903
 21
-52.9783
  0
LINE
  8
0
 10
0.397903
 20
-52.9783
 11
0.299805
 21
-53.0002
  0
LINE
  8
0
 10
0.299805
 20
-53.0002
 11
0.200531
 21
-53.0159
  0
LINE
  8
0
 10
0.200531
 20
-53.0159
 11
0.100464
 21
-53.0254
  0
LINE
  8
0
 10
0.100464
 20
-53.0254
 11
0
 21
-53.0286
  0
LINE
  8
0
 10
0
 20
-53.0286
 11
-0.100464
 21
-53.0254
  0
LINE
  8
0
 10
-0.100464
 20
-104.454
 11
-0.200531
 21
-104.445
  0
LINE
  8
0
 10
-0.200531
 20
-104.445
 11
-0.299805
 21
-104.429
  0
LINE
  8
0
 10
-0.299805
 20
-104.429
 11
-0.397903
 21
-104.407
  0
LINE
  8
0
 10
-0.397903
 20
-104.407
 11
-0.494415
 21
-104.379
  0
LINE
  8
0
 10
-0.494415
 20
-104.379
 11
-0.588989
 21
-104.345
  0
LINE
  8
0
 10
-0.588989
 20
-104.345
 11
-0.681244
 21
-104.305
  0
LINE
  8
0
 10
-0.681244
 20
-104.305
 11
-0.770798
 21
-104.259
  0
LINE
  8
0
 10
-0.770798
 20
-104.259
 11
-0.857315
 21
-104.208
  0
LINE
  8
0
 10
-0.857315
 20
-104.208
 11
-0.940445
 21
-104.152
  0
LINE
  8
0
 10
-0.940445
 20
-104.152
 11
-1.01987
 21
-104.09
  0
LINE
  8
0
 10
-1.01987
 20
-104.09
 11
-1.09526
 21
-104.023
  0
LINE
  8
0
 10
-1.09526
 20
-104.023
 11
-1.16634
 21
-103.952
  0
LINE
  8
0
 10
-1.16634
 20
-103.952
 11
-1.23282
 21
-103.877
  0
LINE
  8
0
 10
-1.23282
 20
-103.877
 11
-1.29442
 21
-103.798
  0
LINE
  8
0
 10
-1.29442
 20
-103.798
 11
-1.35092
 21
-103.714
  0
LINE
  8
0
 10
-1.35092
 20
-103.714
 11
-1.40208
 21
-103.628
  0
LINE
  8
0
 10
-1.40208
 20
-103.628
 11
-1.44771
 21
-103.538
  0
LINE
  8
0
 10
-1.44771
 20
-103.538
 11
-1.48764
 21
-103.446
  0
LINE
  8
0
 10
-1.48764
 20
-103.446
 11
-1.52168
 21
-103.352
  0
LINE
  8
0
 10
-1.52168
 20
-103.352
 11
-1.54973
 21
-103.255
  0
LINE
  8
0
 10
-1.54973
 20
-103.255
 11
-1.57166
 21
-103.157
  0
LINE
  8
0
 10
-1.57166
 20
-103.157
 11
-1.58737
 21
-103.058
  0
LINE
  8
0
 10
-1.58737
 20
-103.058
 11
-1.59683
 21
-102.958
  0
LINE
  8
0
 10
-1.59683
 20
-102.958
 11
-1.59999
 21
-102.857
  0
LINE
  8
0
 10
-1.59999
 20
-102.857
 11
-1.59683
 21
-102.757
  0
LINE
  8
0
 10
-1.59683
 20
-102.757
 11
-1.58737
 21
-102.657
  0
LINE
  8
0
 10
-1.58737
 20
-102.657
 11
-1.57166
 21
-102.557
  0
LINE
  8
0
 10
-1.57166
 20
-102.557
 11
-1.54973
 21
-102.459
  0
LINE
  8
0
 10
-1.54973
 20
-102.459
 11
-1.52168
 21
-102.363
  0
LINE
  8
0
 10
-1.52168
 20
-102.363
 11
-1.48764
 21
-102.268
  0
LINE
  8
0
 10
-1.48764
 20
-102.268
 11
-1.44771
 21
-102.176
  0
LINE
  8
0
 10
-1.44771
 20
-102.176
 11
-1.40208
 21
-102.086
  0
LINE
  8
0
 10
-1.40208
 20
-102.086
 11
-1.35092
 21
-102
  0
LINE
  8
0
 10
-1.35092
 20
-102
 11
-1.29442
 21
-101.917
  0
LINE
  8
0
 10
-1.29442
 20
-101.917
 11
-1.23282
 21
-101.837
  0
LINE
  8
0
 10
-1.23282
 20
-101.837
 11
-1.16634
 21
-101.762
  0
LINE
  8
0
 10
-1.16634
 20
-101.762
 11
-1.09526
 21
-101.691
  0
LINE
  8
0
 10
-1.09526
 20
-101.691
 11
-1.01987
 21
-101.624
  0
LINE
  8
0
 10
-1.01987
 20
-101.624
 11
-0.940445
 21
-101.563
  0
LINE
  8
0
 10
-0.940445
 20
-101.563
 11
-0.857315
 21
-101.506
  0
LINE
  8
0
 10
-0.857315
 20
-101.506
 11
-0.770798
 21
-101.455
  0
LINE
  8
0
 10
-0.770798
 20
-101.455
 11
-0.681244
 21
-101.409
  0
LINE
  8
0
 10
-0.681244
 20
-101.409
 11
-0.588989
 21
-101.369
  0
LINE
  8
0
 10
-0.588989
 20
-101.369
 11
-0.494415
 21
-101.335
  0
LINE
  8
0
 10
-0.494415
 20
-101.335
 11
-0.397903
 21
-101.307
  0
LINE
  8
0
 10
-0.397903
 20
-101.307
 11
-0.299805
 21
-101.285
  0
LINE
  8
0
 10
-0.299805
 20
-101.285
 11
-0.200531
 21
-101.27
  0
LINE
  8
0
 10
-0.200531
 20
-101.27
 11
-0.100464
 21
-101.26
  0
LINE
  8
0
 10
-0.100464
 20
-101.26
 11
0
 21
-101.257
  0
LINE
  8
0
 10
0
 20
-101.257
 11
0.100464
 21
-101.26
  0
LINE
  8
0
 10
0.100464
 20
-101.26
 11
0.200531
 21
-101.27
  0
LINE
  8
0
 10
0.200531
 20
-101.27
 11
0.299805
 21
-101.285
  0
LINE
  8
0
 10
0.299805
 20
-101.285
 11
0.397903
 21
-101.307
  0
LINE
  8
0
 10
0.397903
 20
-101.307
 11
0.494415
 21
-101.335
  0
LINE
  8
0
 10
0.494415
 20
-101.335
 11
0.588989
 21
-101.369
  0
LINE
  8
0
 10
0.588989
 20
-101.369
 11
0.681244
 21
-101.409
  0
LINE
  8
0
 10
0.681244
 20
-101.409
 11
0.770798
 21
-101.455
  0
LINE
  8
0
 10
0.770798
 20
-101.455
 11
0.857315
 21
-101.506
  0
LINE
  8
0
 10
0.857315
 20
-101.506
 11
0.940445
 21
-101.563
  0
LINE
  8
0
 10
0.940445
 20
-101.563
 11
1.01987
 21
-101.624
  0
LINE
  8
0
 10
1.01987
 20
-101.624
 11
1.09526
 21
-101.691
  0
LINE
  8
0
 10
1.09526
 20
-101.691
 11
1.16634
 21
-101.762
  0
LINE
  8
0
 10
1.16634
 20
-101.762
 11
1.23282
 21
-101.837
  0
LINE
  8
0
 10
1.23282
 20
-101.837
 11
1.29442
 21
-101.917
  0
LINE
  8
0
 10
1.29442
 20
-101.917
 11
1.35092
 21
-102
  0
LINE
  8
0
 10
1.35092
 20
-102
 11
1.40208
 21
-102.086
  0
LINE
  8
0
 10
1.40208
 20
-102.086
 11
1.44771
 21
-102.176
  0
LINE
  8
0
 10
1.44771
 20
-102.176
 11
1.48764
 21
-102.268
  0
LINE
  8
0
 10
1.48764
 20
-102.268
 11
1.52168
 21
-102.363
  0
LINE
  8
0
 10
1.52168
 20
-102.363
 11
1.54973
 21
-102.459
  0
LINE
  8
0
 10
1.54973
 20
-102.459
 11
1.57166
 21
-102.557
  0
LINE
  8
0
 10
1.57166
 20
-102.557
 11
1.58737
 21
-102.657
  0
LINE
  8
0
 10
1.58737
 20
-102.657
 11
1.59683
 21
-102.757
  0
LINE
  8
0
 10
1.59683
 20
-102.757
 11
1.59999
 21
-102.857
  0
LINE
  8
0
 10
1.59999
 20
-102.857
 11
1.59683
 21
-102.958
  0
LINE
  8
0
 10
1.59683
 20
-102.958
 11
1.58737
 21
-103.058
  0
LINE
  8
0
 10
1.58737
 20
-103.058
 11
1.57166
 21
-103.157
  0
LINE
  8
0
 10
1.57166
 20
-103.157
 11
1.54973
 21
-103.255
  0
LINE
  8
0
 10
1.54973
 20
-103.255
 11
1.52168
 21
-103.352
  0
LINE
  8
0
 10
1.52168
 20
-103.352
 11
1.48764
 21
-103.446
  0
LINE
  8
0
 10
1.48764
 20
-103.446
 11
1.44771
 21
-103.538
  0
LINE
  8
0
 10
1.44771
 20
-103.538
 11
1.40208
 21
-103.628
  0
LINE
  8
0
 10
1.40208
 20
-103.628
 11
1.35092
 21
-103.714
  0
LINE
  8
0
 10
1.35092
 20
-103.714
 11
1.29442
 21
-103.798
  0
LINE
  8
0
 10
1.29442
 20
-103.798
 11
1.23282
 21
-103.877
  0
LINE
  8
0
 10
1.23282
 20
-103.877
 11
1.16634
 21
-103.952
  0
LINE
  8
0
 10
1.16634
 20
-103.952
 11
1.09526
 21
-104.023
  0
LINE
  8
0
 10
1.09526
 20
-104.023
 11
1.01987
 21
-104.09
  0
LINE
  8
0
 10
1.01987
 20
-104.09
 11
0.940445
 21
-104.152
  0
LINE
  8
0
 10
0.940445
 20
-104.152
 11
0.857315
 21
-104.208
  0
LINE
  8
0
 10
0.857315
 20
-104.208
 11
0.770798
 21
-104.259
  0
LINE
  8
0
 10
0.770798
 20
-104.259
 11
0.681244
 21
-104.305
  0
LINE
  8
0
 10
0.681244
 20
-104.305
 11
0.588989
 21
-104.345
  0
LINE
  8
0
 10
0.588989
 20
-104.345
 11
0.494415
 21
-104.379
  0
LINE
  8
0
 10
0.494415
 20
-104.379
 11
0.397903
 21
-104.407
  0
LINE
  8
0
 10
0.397903
 20
-104.407
 11
0.299805
 21
-104.429
  0
LINE
  8
0
 10
0.299805
 20
-104.429
 11
0.200531
 21
-104.445
  0
LINE
  8
0
 10
0.200531
 20
-104.445
 11
0.100464
 21
-104.454
  0
LINE
  8
0
 10
0.100464
 20
-104.454
 11
0
 21
-104.457
  0
LINE
  8
0
 10
0
 20
-104.457
 11
-0.100464
 21
-104.454
  0
LINE
  8
0
 10
-0.100464
 20
-155.883
 11
-0.200531
 21
-155.873
  0
LINE
  8
0
 10
-0.200531
 20
-155.873
 11
-0.299805
 21
-155.857
  0
LINE
  8
0
 10
-0.299805
 20
-155.857
 11
-0.397903
 21
-155.835
  0
LINE
  8
0
 10
-0.397903
 20
-155.835
 11
-0.494415
 21
-155.807
  0
LINE
  8
0
 10
-0.494415
 20
-155.807
 11
-0.588989
 21
-155.773
  0
LINE
  8
0
 10
-0.588989
 20
-155.773
 11
-0.681244
 21
-155.733
  0
LINE
  8
0
 10
-0.681244
 20
-155.733
 11
-0.770798
 21
-155.688
  0
LINE
  8
0
 10
-0.770798
 20
-155.688
 11
-0.857315
 21
-155.637
  0
LINE
  8
0
 10
-0.857315
 20
-155.637
 11
-0.940445
 21
-155.58
  0
LINE
  8
0
 10
-0.940445
 20
-155.58
 11
-1.01987
 21
-155.519
  0
LINE
  8
0
 10
-1.01987
 20
-155.519
 11
-1.09526
 21
-155.452
  0
LINE
  8
0
 10
-1.09526
 20
-155.452
 11
-1.16634
 21
-155.381
  0
LINE
  8
0
 10
-1.16634
 20
-155.381
 11
-1.23282
 21
-155.306
  0
LINE
  8
0
 10
-1.23282
 20
-155.306
 11
-1.29442
 21
-155.226
  0
LINE
  8
0
 10
-1.29442
 20
-155.226
 11
-1.35092
 21
-155.143
  0
LINE
  8
0
 10
-1.35092
 20
-155.143
 11
-1.40208
 21
-155.057
  0
LINE
  8
0
 10
-1.40208
 20
-155.057
 11
-1.44771
 21
-154.967
  0
LINE
  8
0
 10
-1.44771
 20
-154.967
 11
-1.48764
 21
-154.875
  0
LINE
  8
0
 10
-1.48764
 20
-154.875
 11
-1.52168
 21
-154.78
  0
LINE
  8
0
 10
-1.52168
 20
-154.78
 11
-1.54973
 21
-154.684
  0
LINE
  8
0
 10
-1.54973
 20
-154.684
 11
-1.57166
 21
-154.586
  0
LINE
  8
0
 10
-1.57166
 20
-154.586
 11
-1.58737
 21
-154.486
  0
LINE
  8
0
 10
-1.58737
 20
-154.486
 11
-1.59683
 21
-154.386
  0
LINE
  8
0
 10
-1.59683
 20
-154.386
 11
-1.59999
 21
-154.286
  0
LINE
  8
0
 10
-1.59999
 20
-154.286
 11
-1.59683
 21
-154.185
  0
LINE
  8
0
 10
-1.59683
 20
-154.185
 11
-1.58737
 21
-154.085
  0
LINE
  8
0
 10
-1.58737
 20
-154.085
 11
-1.57166
 21
-153.986
  0
LINE
  8
0
 10
-1.57166
 20
-153.986
 11
-1.54973
 21
-153.888
  0
LINE
  8
0
 10
-1.54973
 20
-153.888
 11
-1.52168
 21
-153.791
  0
LINE
  8
0
 10
-1.52168
 20
-153.791
 11
-1.48764
 21
-153.697
  0
LINE
  8
0
 10
-1.48764
 20
-153.697
 11
-1.44771
 21
-153.604
  0
LINE
  8
0
 10
-1.44771
 20
-153.604
 11
-1.40208
 21
-153.515
  0
LINE
  8
0
 10
-1.40208
 20
-153.515
 11
-1.35092
 21
-153.428
  0
LINE
  8
0
 10
-1.35092
 20
-153.428
 11
-1.29442
 21
-153.345
  0
LINE
  8
0
 10
-1.29442
 20
-153.345
 11
-1.23282
 21
-153.266
  0
LINE
  8
0
 10
-1.23282
 20
-153.266
 11
-1.16634
 21
-153.19
  0
LINE
  8
0
 10
-1.16634
 20
-153.19
 11
-1.09526
 21
-153.119
  0
LINE
  8
0
 10
-1.09526
 20
-153.119
 11
-1.01987
 21
-153.053
  0
LINE
  8
0
 10
-1.01987
 20
-153.053
 11
-0.940445
 21
-152.991
  0
LINE
  8
0
 10
-0.940445
 20
-152.991
 11
-0.857315
 21
-152.935
  0
LINE
  8
0
 10
-0.857315
 20
-152.935
 11
-0.770798
 21
-152.884
  0
LINE
  8
0
 10
-0.770798
 20
-152.884
 11
-0.681244
 21
-152.838
  0
LINE
  8
0
 10
-0.681244
 20
-152.838
 11
-0.588989
 21
-152.798
  0
LINE
  8
0
 10
-0.588989
 20
-152.798
 11
-0.494415
 21
-152.764
  0
LINE
  8
0
 10
-0.494415
 20
-152.764
 11
-0.397903
 21
-152.736
  0
LINE
  8
0
 10
-0.397903
 20
-152.736
 11
-0.299805
 21
-152.714
  0
LINE
  8
0
 10
-0.299805
 20
-152.714
 11
-0.200531
 21
-152.698
  0
LINE
  8
0
 10
-0.200531
 20
-152.698
 11
-0.100464
 21
-152.689
  0
LINE
  8
0
 10
-0.100464
 20
-152.689
 11
0
 21
-152.686
  0
LINE
  8
0
 10
0
 20
-152.686
 11
0.100464
 21
-152.689
  0
LINE
  8
0
 10
0.100464
 20
-152.689
 11
0.200531
 21
-152.698
  0
LINE
  8
0
 10
0.200531
 20
-152.698
 11
0.299805
 21
-152.714
  0
LINE
  8
0
 10
0.299805
 20
-152.714
 11
0.397903
 21
-152.736
  0
LINE
  8
0
 10
0.397903
 20
-152.736
 11
0.494415
 21
-152.764
  0
LINE
  8
0
 10
0.494415
 20
-152.764
 11
0.588989
 21
-152.798
  0
LINE
  8
0
 10
0.588989
 20
-152.798
 11
0.681244
 21
-152.838
  0
LINE
  8
0
 10
0.681244
 20
-152.838
 11
0.770798
 21
-152.884
  0
LINE
  8
0
 10
0.770798
 20
-152.884
 11
0.857315
 21
-152.935
  0
LINE
  8
0
 10
0.857315
 20
-152.935
 11
0.940445
 21
-152.991
  0
LINE
  8
0
 10
0.940445
 20
-152.991
 11
1.01987
 21
-153.053
  0
LINE
  8
0
 10
1.01987
 20
-153.053
 11
1.09526
 21
-153.119
  0
LINE
  8
0
 10
1.09526
 20
-153.119
 11
1.16634
 21
-153.19
  0
LINE
  8
0
 10
1.16634
 20
-153.19
 11
1.23282
 21
-153.266
  0
LINE
  8
0
 10
1.23282
 20
-153.266
 11
1.29442
 21
-153.345
  0
LINE
  8
0
 10
1.29442
 20
-153.345
 11
1.35092
 21
-153.428
  0
LINE
  8
0
 10
1.35092
 20
-153.428
 11
1.40208
 21
-153.515
  0
LINE
  8
0
 10
1.40208
 20
-153.515
 11
1.44771
 21
-153.604
  0
LINE
  8
0
 10
1.44771
 20
-153.604
 11
1.48764
 21
-153.697
  0
LINE
  8
0
 10
1.48764
 20
-153.697
 11
1.52168
 21
-153.791
  0
LINE
  8
0
 10
1.52168
 20
-153.791
 11
1.54973
 21
-153.888
  0
LINE
  8
0
 10
1.54973
 20
-153.888
 11
1.57166
 21
-153.986
  0
LINE
  8
0
 10
1.57166
 20
-153.986
 11
1.58737
 21
-154.085
  0
LINE
  8
0
 10
1.58737
 20
-154.085
 11
1.59683
 21
-154.185
  0
LINE
  8
0
 10
1.59683
 20
-154.185
 11
1.59999
 21
-154.286
  0
LINE
  8
0
 10
1.59999
 20
-154.286
 11
1.59683
 21
-154.386
  0
LINE
  8
0
 10
1.59683
 20
-154.386
 11
1.58737
 21
-154.486
  0
LINE
  8
0
 10
1.58737
 20
-154.486
 11
1.57166
 21
-154.586
  0
LINE
  8
0
 10
1.57166
 20
-154.586
 11
1.54973
 21
-154.684
  0
LINE
  8
0
 10
1.54973
 20
-154.684
 11
1.52168
 21
-154.78
  0
LINE
  8
0
 10
1.52168
 20
-154.78
 11
1.48764
 21
-154.875
  0
LINE
  8
0
 10
1.48764
 20
-154.875
 11
1.44771
 21
-154.967
  0
LINE
  8
0
 10
1.44771
 20
-154.967
 11
1.40208
 21
-155.057
  0
LINE
  8
0
 10
1.40208
 20
-155.057
 11
1.35092
 21
-155.143
  0
LINE
  8
0
 10
1.35092
 20
-155.143
 11
1.29442
 21
-155.226
  0
LINE
  8
0
 10
1.29442
 20
-155.226
 11
1.23282
 21
-155.306
  0
LINE
  8
0
 10
1.23282
 20
-155.306
 11
1.16634
 21
-155.381
  0
LINE
  8
0
 10
1.16634
 20
-155.381
 11
1.09526
 21
-155.452
  0
LINE
  8
0
 10
1.09526
 20
-155.452
 11
1.01987
 21
-155.519
  0
LINE
  8
0
 10
1.01987
 20
-155.519
 11
0.940445
 21
-155.58
  0
LINE
  8
0
 10
0.940445
 20
-155.58
 11
0.857315
 21
-155.637
  0
LINE
  8
0
 10
0.857315
 20
-155.637
 11
0.770798
 21
-155.688
  0
LINE
  8
0
 10
0.770798
 20
-155.688
 11
0.681244
 21
-155.733
  0
LINE
  8
0
 10
0.681244
 20
-155.733
 11
0.588989
 21
-155.773
  0
LINE
  8
0
 10
0.588989
 20
-155.773
 11
0.494415
 21
-155.807
  0
LINE
  8
0
 10
0.494415
 20
-155.807
 11
0.397903
 21
-155.835
  0
LINE
  8
0
 10
0.397903
 20
-155.835
 11
0.299805
 21
-155.857
  0
LINE
  8
0
 10
0.299805
 20
-155.857
 11
0.200531
 21
-155.873
  0
LINE
  8
0
 10
0.200531
 20
-155.873
 11
0.100464
 21
-155.883
  0
LINE
  8
0
 10
0.100464
 20
-155.883
 11
0
 21
-155.886
  0
LINE
  8
0
 10
0
 20
-155.886
 11
-0.100464
 21
-155.883
  0
LINE
  8
0
 10
-0.100464
 20
-207.311
 11
-0.200531
 21
-207.302
  0
LINE
  8
0
 10
-0.200531
 20
-207.302
 11
-0.299805
 21
-207.286
  0
LINE
  8
0
 10
-0.299805
 20
-207.286
 11
-0.397903
 21
-207.264
  0
LINE
  8
0
 10
-0.397903
 20
-207.264
 11
-0.494415
 21
-207.236
  0
LINE
  8
0
 10
-0.494415
 20
-207.236
 11
-0.588989
 21
-207.202
  0
LINE
  8
0
 10
-0.588989
 20
-207.202
 11
-0.681244
 21
-207.162
  0
LINE
  8
0
 10
-0.681244
 20
-207.162
 11
-0.770798
 21
-207.116
  0
LINE
  8
0
 10
-0.770798
 20
-207.116
 11
-0.857315
 21
-207.065
  0
LINE
  8
0
 10
-0.857315
 20
-207.065
 11
-0.940445
 21
-207.009
  0
LINE
  8
0
 10
-0.940445
 20
-207.009
 11
-1.01987
 21
-206.947
  0
LINE
  8
0
 10
-1.01987
 20
-206.947
 11
-1.09526
 21
-206.881
  0
LINE
  8
0
 10
-1.09526
 20
-206.881
 11
-1.16634
 21
-206.81
  0
LINE
  8
0
 10
-1.16634
 20
-206.81
 11
-1.23282
 21
-206.734
  0
LINE
  8
0
 10
-1.23282
 20
-206.734
 11
-1.29442
 21
-206.655
  0
LINE
  8
0
 10
-1.29442
 20
-206.655
 11
-1.35092
 21
-206.572
  0
LINE
  8
0
 10
-1.35092
 20
-206.572
 11
-1.40208
 21
-206.485
  0
LINE
  8
0
 10
-1.40208
 20
-206.485
 11
-1.44771
 21
-206.396
  0
LINE
  8
0
 10
-1.44771
 20
-206.396
 11
-1.48764
 21
-206.303
  0
LINE
  8
0
 10
-1.48764
 20
-206.303
 11
-1.52168
 21
-206.209
  0
LINE
  8
0
 10
-1.52168
 20
-206.209
 11
-1.54973
 21
-206.112
  0
LINE
  8
0
 10
-1.54973
 20
-206.112
 11
-1.57166
 21
-206.014
  0
LINE
  8
0
 10
-1.57166
 20
-206.014
 11
-1.58737
 21
-205.915
  0
LINE
  8
0
 10
-1.58737
 20
-205.915
 11
-1.59683
 21
-205.815
  0
LINE
  8
0
 10
-1.59683
 20
-205.815
 11
-1.59999
 21
-205.714
  0
LINE
  8
0
 10
-1.59999
 20
-205.714
 11
-1.59683
 21
-205.614
  0
LINE
  8
0
 10
-1.59683
 20
-205.614
 11
-1.58737
 21
-205.514
  0
LINE
  8
0
 10
-1.58737
 20
-205.514
 11
-1.57166
 21
-205.414
  0
LINE
  8
0
 10
-1.57166
 20
-205.414
 11
-1.54973
 21
-205.316
  0
LINE
  8
0
 10
-1.54973
 20
-205.316
 11
-1.52168
 21
-205.22
  0
LINE
  8
0
 10
-1.52168
 20
-205.22
 11
-1.48764
 21
-205.125
  0
LINE
  8
0
 10
-1.48764
 20
-205.125
 11
-1.44771
 21
-205.033
  0
LINE
  8
0
 10
-1.44771
 20
-205.033
 11
-1.40208
 21
-204.943
  0
LINE
  8
0
 10
-1.40208
 20
-204.943
 11
-1.35092
 21
-204.857
  0
LINE
  8
0
 10
-1.35092
 20
-204.857
 11
-1.29442
 21
-204.774
  0
LINE
  8
0
 10
-1.29442
 20
-204.774
 11
-1.23282
 21
-204.694
  0
LINE
  8
0
 10
-1.23282
 20
-204.694
 11
-1.16634
 21
-204.619
  0
LINE
  8
0
 10
-1.16634
 20
-204.619
 11
-1.09526
 21
-204.548
  0
LINE
  8
0
 10
-1.09526
 20
-204.548
 11
-1.01987
 21
-204.481
  0
LINE
  8
0
 10
-1.01987
 20
-204.481
 11
-0.940445
 21
-204.42
  0
LINE
  8
0
 10
-0.940445
 20
-204.42
 11
-0.857315
 21
-204.363
  0
LINE
  8
0
 10
-0.857315
 20
-204.363
 11
-0.770798
 21
-204.312
  0
LINE
  8
0
 10
-0.770798
 20
-204.312
 11
-0.681244
 21
-204.267
  0
LINE
  8
0
 10
-0.681244
 20
-204.267
 11
-0.588989
 21
-204.227
  0
LINE
  8
0
 10
-0.588989
 20
-204.227
 11
-0.494415
 21
-204.193
  0
LINE
  8
0
 10
-0.494415
 20
-204.193
 11
-0.397903
 21
-204.165
  0
LINE
  8
0
 10
-0.397903
 20
-204.165
 11
-0.299805
 21
-204.143
  0
LINE
  8
0
 10
-0.299805
 20
-204.143
 11
-0.200531
 21
-204.127
  0
LINE
  8
0
 10
-0.200531
 20
-204.127
 11
-0.100464
 21
-204.117
  0
LINE
  8
0
 10
-0.100464
 20
-204.117
 11
0
 21
-204.114
  0
LINE
  8
0
 10
0
 20
-204.114
 11
0.100464
 21
-204.117
  0
LINE
  8
0
 10
0.100464
 20
-204.117
 11
0.200531
 21
-204.127
  0
LINE
  8
0
 10
0.200531
 20
-204.127
 11
0.299805
 21
-204.143
  0
LINE
  8
0
 10
0.299805
 20
-204.143
 11
0.397903
 21
-204.165
  0
LINE
  8
0
 10
0.397903
 20
-204.165
 11
0.494415
 21
-204.193
  0
LINE
  8
0
 10
0.494415
 20
-204.193
 11
0.588989
 21
-204.227
  0
LINE
  8
0
 10
0.588989
 20
-204.227
 11
0.681244
 21
-204.267
  0
LINE
  8
0
 10
0.681244
 20
-204.267
 11
0.770798
 21
-204.312
  0
LINE
  8
0
 10
0.770798
 20
-204.312
 11
0.857315
 21
-204.363
  0
LINE
  8
0
 10
0.857315
 20
-204.363
 11
0.940445
 21
-204.42
  0
LINE
  8
0
 10
0.940445
 20
-204.42
 11
1.01987
 21
-204.481
  0
LINE
  8
0
 10
1.01987
 20
-204.481
 11
1.09526
 21
-204.548
  0
LINE
  8
0
 10
1.09526
 20
-204.548
 11
1.16634
 21
-204.619
  0
LINE
  8
0
 10
1.16634
 20
-204.619
 11
1.23282
 21
-204.694
  0
LINE
  8
0
 10
1.23282
 20
-204.694
 11
1.29442
 21
-204.774
  0
LINE
  8
0
 10
1.29442
 20
-204.774
 11
1.35092
 21
-204.857
  0
LINE
  8
0
 10
1.35092
 20
-204.857
 11
1.40208
 21
-204.943
  0
LINE
  8
0
 10
1.40208
 20
-204.943
 11
1.44771
 21
-205.033
  0
LINE
  8
0
 10
1.44771
 20
-205.033
 11
1.48764
 21
-205.125
  0
LINE
  8
0
 10
1.48764
 20
-205.125
 11
1.52168
 21
-205.22
  0
LINE
  8
0
 10
1.52168
 20
-205.22
 11
1.54973
 21
-205.316
  0
LINE
  8
0
 10
1.54973
 20
-205.316
 11
1.57166
 21
-205.414
  0
LINE
  8
0
 10
1.57166
 20
-205.414
 11
1.58737
 21
-205.514
  0
LINE
  8
0
 10
1.58737
 20
-205.514
 11
1.59683
 21
-205.614
  0
LINE
  8
0
 10
1.59683
 20
-205.614
 11
1.59999
 21
-205.714
  0
LINE
  8
0
 10
1.59999
 20
-205.714
 11
1.59683
 21
-205.815
  0
LINE
  8
0
 10
1.59683
 20
-205.815
 11
1.58737
 21
-205.915
  0
LINE
  8
0
 10
1.58737
 20
-205.915
 11
1.57166
 21
-206.014
  0
LINE
  8
0
 10
1.57166
 20
-206.014
 11
1.54973
 21
-206.112
  0
LINE
  8
0
 10
1.54973
 20
-206.112
 11
1.52168
 21
-206.209
  0
LINE
  8
0
 10
1.52168
 20
-206.209
 11
1.48764
 21
-206.303
  0
LINE
  8
0
 10
1.48764
 20
-206.303
 11
1.44771
 21
-206.396
  0
LINE
  8
0
 10
1.44771
 20
-206.396
 11
1.40208
 21
-206.485
  0
LINE
  8
0
 10
1.40208
 20
-206.485
 11
1.35092
 21
-206.572
  0
LINE
  8
0
 10
1.35092
 20
-206.572
 11
1.29442
 21
-206.655
  0
LINE
  8
0
 10
1.29442
 20
-206.655
 11
1.23282
 21
-206.734
  0
LINE
  8
0
 10
1.23282
 20
-206.734
 11
1.16634
 21
-206.81
  0
LINE
  8
0
 10
1.16634
 20
-206.81
 11
1.09526
 21
-206.881
  0
LINE
  8
0
 10
1.09526
 20
-206.881
 11
1.01987
 21
-206.947
  0
LINE
  8
0
 10
1.01987
 20
-206.947
 11
0.940445
 21
-207.009
  0
LINE
  8
0
 10
0.940445
 20
-207.009
 11
0.857315
 21
-207.065
  0
LINE
  8
0
 10
0.857315
 20
-207.065
 11
0.770798
 21
-207.116
  0
LINE
  8
0
 10
0.770798
 20
-207.116
 11
0.681244
 21
-207.162
  0
LINE
  8
0
 10
0.681244
 20
-207.162
 11
0.588989
 21
-207.202
  0
LINE
  8
0
 10
0.588989
 20
-207.202
 11
0.494415
 21
-207.236
  0
LINE
  8
0
 10
0.494415
 20
-207.236
 11
0.397903
 21
-207.264
  0
LINE
  8
0
 10
0.397903
 20
-207.264
 11
0.299805
 21
-207.286
  0
LINE
  8
0
 10
0.299805
 20
-207.286
 11
0.200531
 21
-207.302
  0
LINE
  8
0
 10
0.200531
 20
-207.302
 11
0.100464
 21
-207.311
  0
LINE
  8
0
 10
0.100464
 20
-207.311
 11
0
 21
-207.314
  0
LINE
  8
0
 10
0
 20
-207.314
 11
-0.100464
 21
-207.311
  0
LINE
  8
0
 10
-0.100464
 20
-258.74
 11
-0.200531
 21
-258.73
  0
LINE
  8
0
 10
-0.200531
 20
-258.73
 11
-0.299805
 21
-258.715
  0
LINE
  8
0
 10
-0.299805
 20
-258.715
 11
-0.397903
 21
-258.693
  0
LINE
  8
0
 10
-0.397903
 20
-258.693
 11
-0.494415
 21
-258.665
  0
LINE
  8
0
 10
-0.494415
 20
-258.665
 11
-0.588989
 21
-258.63
  0
LINE
  8
0
 10
-0.588989
 20
-258.63
 11
-0.681244
 21
-258.591
  0
LINE
  8
0
 10
-0.681244
 20
-258.591
 11
-0.770798
 21
-258.545
  0
LINE
  8
0
 10
-0.770798
 20
-258.545
 11
-0.857315
 21
-258.494
  0
LINE
  8
0
 10
-0.857315
 20
-258.494
 11
-0.940445
 21
-258.437
  0
LINE
  8
0
 10
-0.940445
 20
-258.437
 11
-1.01987
 21
-258.376
  0
LINE
  8
0
 10
-1.01987
 20
-258.376
 11
-1.09526
 21
-258.309
  0
LINE
  8
0
 10
-1.09526
 20
-258.309
 11
-1.16634
 21
-258.238
  0
LINE
  8
0
 10
-1.16634
 20
-258.238
 11
-1.23282
 21
-258.163
  0
LINE
  8
0
 10
-1.23282
 20
-258.163
 11
-1.29442
 21
-258.083
  0
LINE
  8
0
 10
-1.29442
 20
-258.083
 11
-1.35092
 21
-258
  0
LINE
  8
0
 10
-1.35092
 20
-258
 11
-1.40208
 21
-257.914
  0
LINE
  8
0
 10
-1.40208
 20
-257.914
 11
-1.44771
 21
-257.824
  0
LINE
  8
0
 10
-1.44771
 20
-257.824
 11
-1.48764
 21
-257.732
  0
LINE
  8
0
 10
-1.48764
 20
-257.732
 11
-1.52168
 21
-257.637
  0
LINE
  8
0
 10
-1.52168
 20
-257.637
 11
-1.54973
 21
-257.541
  0
LINE
  8
0
 10
-1.54973
 20
-257.541
 11
-1.57166
 21
-257.443
  0
LINE
  8
0
 10
-1.57166
 20
-257.443
 11
-1.58737
 21
-257.343
  0
LINE
  8
0
 10
-1.58737
 20
-257.343
 11
-1.59683
 21
-257.243
  0
LINE
  8
0
 10
-1.59683
 20
-257.243
 11
-1.59999
 21
-257.143
  0
LINE
  8
0
 10
-1.59999
 20
-257.143
 11
-1.59683
 21
-257.042
  0
LINE
  8
0
 10
-1.59683
 20
-257.042
 11
-1.58737
 21
-256.942
  0
LINE
  8
0
 10
-1.58737
 20
-256.942
 11
-1.57166
 21
-256.843
  0
LINE
  8
0
 10
-1.57166
 20
-256.843
 11
-1.54973
 21
-256.745
  0
LINE
  8
0
 10
-1.54973
 20
-256.745
 11
-1.52168
 21
-256.648
  0
LINE
  8
0
 10
-1.52168
 20
-256.648
 11
-1.48764
 21
-256.554
  0
LINE
  8
0
 10
-1.48764
 20
-256.554
 11
-1.44771
 21
-256.462
  0
LINE
  8
0
 10
-1.44771
 20
-256.462
 11
-1.40208
 21
-256.372
  0
LINE
  8
0
 10
-1.40208
 20
-256.372
 11
-1.35092
 21
-256.286
  0
LINE
  8
0
 10
-1.35092
 20
-256.286
 11
-1.29442
 21
-256.202
  0
LINE
  8
0
 10
-1.29442
 20
-256.202
 11
-1.23282
 21
-256.123
  0
LINE
  8
0
 10
-1.23282
 20
-256.123
 11
-1.16634
 21
-256.048
  0
LINE
  8
0
 10
-1.16634
 20
-256.048
 11
-1.09526
 21
-255.977
  0
LINE
  8
0
 10
-1.09526
 20
-255.977
 11
-1.01987
 21
-255.91
  0
LINE
  8
0
 10
-1.01987
 20
-255.91
 11
-0.940445
 21
-255.848
  0
LINE
  8
0
 10
-0.940445
 20
-255.848
 11
-0.857315
 21
-255.792
  0
LINE
  8
0
 10
-0.857315
 20
-255.792
 11
-0.770798
 21
-255.741
  0
LINE
  8
0
 10
-0.770798
 20
-255.741
 11
-0.681244
 21
-255.695
  0
LINE
  8
0
 10
-0.681244
 20
-255.695
 11
-0.588989
 21
-255.655
  0
LINE
  8
0
 10
-0.588989
 20
-255.655
 11
-0.494415
 21
-255.621
  0
LINE
  8
0
 10
-0.494415
 20
-255.621
 11
-0.397903
 21
-255.593
  0
LINE
  8
0
 10
-0.397903
 20
-255.593
 11
-0.299805
 21
-255.571
  0
LINE
  8
0
 10
-0.299805
 20
-255.571
 11
-0.200531
 21
-255.555
  0
LINE
  8
0
 10
-0.200531
 20
-255.555
 11
-0.100464
 21
-255.546
  0
LINE
  8
0
 10
-0.100464
 20
-255.546
 11
0
 21
-255.543
  0
LINE
  8
0
 10
0
 20
-255.543
 11
0.100464
 21
-255.546
  0
LINE
  8
0
 10
0.100464
 20
-255.546
 11
0.200531
 21
-255.555
  0
LINE
  8
0
 10
0.200531
 20
-255.555
 11
0.299805
 21
-255.571
  0
LINE
  8
0
 10
0.299805
 20
-255.571
 11
0.397903
 21
-255.593
  0
LINE
  8
0
 10
0.397903
 20
-255.593
 11
0.494415
 21
-255.621
  0
LINE
  8
0
 10
0.494415
 20
-255.621
 11
0.588989
 21
-255.655
  0
LINE
  8
0
 10
0.588989
 20
-255.655
 11
0.681244
 21
-255.695
  0
LINE
  8
0
 10
0.681244
 20
-255.695
 11
0.770798
 21
-255.741
  0
LINE
  8
0
 10
0.770798
 20
-255.741
 11
0.857315
 21
-255.792
  0
LINE
  8
0
 10
0.857315
 20
-255.792
 11
0.940445
 21
-255.848
  0
LINE
  8
0
 10
0.940445
 20
-255.848
 11
1.01987
 21
-255.91
  0
LINE
  8
0
 10
1.01987
 20
-255.91
 11
1.09526
 21
-255.977
  0
LINE
  8
0
 10
1.09526
 20
-255.977
 11
1.16634
 21
-256.048
  0
LINE
  8
0
 10
1.16634
 20
-256.048
 11
1.23282
 21
-256.123
  0
LINE
  8
0
 10
1.23282
 20
-256.123
 11
1.29442
 21
-256.202
  0
LINE
  8
0
 10
1.29442
 20
-256.202
 11
1.35092
 21
-256.286
  0
LINE
  8
0
 10
1.35092
 20
-256.286
 11
1.40208
 21
-256.372
  0
LINE
  8
0
 10
1.40208
 20
-256.372
 11
1.44771
 21
-256.462
  0
LINE
  8
0
 10
1.44771
 20
-256.462
 11
1.48764
 21
-256.554
  0
LINE
  8
0
 10
1.48764
 20
-256.554
 11
1.52168
 21
-256.648
  0
LINE
  8
0
 10
1.52168
 20
-256.648
 11
1.54973
 21
-256.745
  0
LINE
  8
0
 10
1.54973
 20
-256.745
 11
1.57166
 21
-256.843
  0
LINE
  8
0
 10
1.57166
 20
-256.843
 11
1.58737
 21
-256.942
  0
LINE
  8
0
 10
1.58737
 20
-256.942
 11
1.59683
 21
-257.042
  0
LINE
  8
0
 10
1.59683
 20
-257.042
 11
1.59999
 21
-257.143
  0
LINE
  8
0
 10
1.59999
 20
-257.143
 11
1.59683
 21
-257.243
  0
LINE
  8
0
 10
1.59683
 20
-257.243
 11
1.58737
 21
-257.343
  0
LINE
  8
0
 10
1.58737
 20
-257.343
 11
1.57166
 21
-257.443
  0
LINE
  8
0
 10
1.57166
 20
-257.443
 11
1.54973
 21
-257.541
  0
LINE
  8
0
 10
1.54973
 20
-257.541
 11
1.52168
 21
-257.637
  0
LINE
  8
0
 10
1.52168
 20
-257.637
 11
1.48764
 21
-257.732
  0
LINE
  8
0
 10
1.48764
 20
-257.732
 11
1.44771
 21
-257.824
  0
LINE
  8
0
 10
1.44771
 20
-257.824
 11
1.40208
 21
-257.914
  0
LINE
  8
0
 10
1.40208
 20
-257.914
 11
1.35092
 21
-258
  0
LINE
  8
0
 10
1.35092
 20
-258
 11
1.29442
 21
-258.083
  0
LINE
  8
0
 10
1.29442
 20
-258.083
 11
1.23282
 21
-258.163
  0
LINE
  8
0
 10
1.23282
 20
-258.163
 11
1.16634
 21
-258.238
  0
LINE
  8
0
 10
1.16634
 20
-258.238
 11
1.09526
 21
-258.309
  0
LINE
  8
0
 10
1.09526
 20
-258.309
 11
1.01987
 21
-258.376
  0
LINE
  8
0
 10
1.01987
 20
-258.376
 11
0.940445
 21
-258.437
  0
LINE
  8
0
 10
0.940445
 20
-258.437
 11
0.857315
 21
-258.494
  0
LINE
  8
0
 10
0.857315
 20
-258.494
 11
0.770798
 21
-258.545
  0
LINE
  8
0
 10
0.770798
 20
-258.545
 11
0.681244
 21
-258.591
  0
LINE
  8
0
 10
0.681244
 20
-258.591
 11
0.588989
 21
-258.63
  0
LINE
  8
0
 10
0.588989
 20
-258.63
 11
0.494415
 21
-258.665
  0
LINE
  8
0
 10
0.494415
 20
-258.665
 11
0.397903
 21
-258.693
  0
LINE
  8
0
 10
0.397903
 20
-258.693
 11
0.299805
 21
-258.715
  0
LINE
  8
0
 10
0.299805
 20
-258.715
 11
0.200531
 21
-258.73
  0
LINE
  8
0
 10
0.200531
 20
-258.73
 11
0.100464
 21
-258.74
  0
LINE
  8
0
 10
0.100464
 20
-258.74
 11
0
 21
-258.743
  0
LINE
  8
0
 10
0
 20
-258.743
 11
-0.100464
 21
-258.74
  0
LINE
  8
0
 10
-0.100464
 20
-310.168
 11
-0.200531
 21
-310.159
  0
LINE
  8
0
 10
-0.200531
 20
-310.159
 11
-0.299805
 21
-310.143
  0
LINE
  8
0
 10
-0.299805
 20
-310.143
 11
-0.397903
 21
-310.121
  0
LINE
  8
0
 10
-0.397903
 20
-310.121
 11
-0.494415
 21
-310.093
  0
LINE
  8
0
 10
-0.494415
 20
-310.093
 11
-0.588989
 21
-310.059
  0
LINE
  8
0
 10
-0.588989
 20
-310.059
 11
-0.681244
 21
-310.019
  0
LINE
  8
0
 10
-0.681244
 20
-310.019
 11
-0.770798
 21
-309.974
  0
LINE
  8
0
 10
-0.770798
 20
-309.974
 11
-0.857315
 21
-309.922
  0
LINE
  8
0
 10
-0.857315
 20
-309.922
 11
-0.940445
 21
-309.866
  0
LINE
  8
0
 10
-0.940445
 20
-309.866
 11
-1.01987
 21
-309.804
  0
LINE
  8
0
 10
-1.01987
 20
-309.804
 11
-1.09526
 21
-309.738
  0
LINE
  8
0
 10
-1.09526
 20
-309.738
 11
-1.16634
 21
-309.667
  0
LINE
  8
0
 10
-1.16634
 20
-309.667
 11
-1.23282
 21
-309.591
  0
LINE
  8
0
 10
-1.23282
 20
-309.591
 11
-1.29442
 21
-309.512
  0
LINE
  8
0
 10
-1.29442
 20
-309.512
 11
-1.35092
 21
-309.429
  0
LINE
  8
0
 10
-1.35092
 20
-309.429
 11
-1.40208
 21
-309.342
  0
LINE
  8
0
 10
-1.40208
 20
-309.342
 11
-1.44771
 21
-309.253
  0
LINE
  8
0
 10
-1.44771
 20
-309.253
 11
-1.48764
 21
-309.16
  0
LINE
  8
0
 10
-1.48764
 20
-309.16
 11
-1.52168
 21
-309.066
  0
LINE
  8
0
 10
-1.52168
 20
-309.066
 11
-1.54973
 21
-308.969
  0
LINE
  8
0
 10
-1.54973
 20
-308.969
 11
-1.57166
 21
-308.871
  0
LINE
  8
0
 10
-1.57166
 20
-308.871
 11
-1.58737
 21
-308.772
  0
LINE
  8
0
 10
-1.58737
 20
-308.772
 11
-1.59683
 21
-308.672
  0
LINE
  8
0
 10
-1.59683
 20
-308.672
 11
-1.59999
 21
-308.571
  0
LINE
  8
0
 10
-1.59999
 20
-308.571
 11
-1.59683
 21
-308.471
  0
LINE
  8
0
 10
-1.59683
 20
-308.471
 11
-1.58737
 21
-308.371
  0
LINE
  8
0
 10
-1.58737
 20
-308.371
 11
-1.57166
 21
-308.272
  0
LINE
  8
0
 10
-1.57166
 20
-308.272
 11
-1.54973
 21
-308.174
  0
LINE
  8
0
 10
-1.54973
 20
-308.174
 11
-1.52168
 21
-308.077
  0
LINE
  8
0
 10
-1.52168
 20
-308.077
 11
-1.48764
 21
-307.982
  0
LINE
  8
0
 10
-1.48764
 20
-307.982
 11
-1.44771
 21
-307.89
  0
LINE
  8
0
 10
-1.44771
 20
-307.89
 11
-1.40208
 21
-307.801
  0
LINE
  8
0
 10
-1.40208
 20
-307.801
 11
-1.35092
 21
-307.714
  0
LINE
  8
0
 10
-1.35092
 20
-307.714
 11
-1.29442
 21
-307.631
  0
LINE
  8
0
 10
-1.29442
 20
-307.631
 11
-1.23282
 21
-307.552
  0
LINE
  8
0
 10
-1.23282
 20
-307.552
 11
-1.16634
 21
-307.476
  0
LINE
  8
0
 10
-1.16634
 20
-307.476
 11
-1.09526
 21
-307.405
  0
LINE
  8
0
 10
-1.09526
 20
-307.405
 11
-1.01987
 21
-307.339
  0
LINE
  8
0
 10
-1.01987
 20
-307.339
 11
-0.940445
 21
-307.277
  0
LINE
  8
0
 10
-0.940445
 20
-307.277
 11
-0.857315
 21
-307.22
  0
LINE
  8
0
 10
-0.857315
 20
-307.22
 11
-0.770798
 21
-307.169
  0
LINE
  8
0
 10
-0.770798
 20
-307.169
 11
-0.681244
 21
-307.124
  0
LINE
  8
0
 10
-0.681244
 20
-307.124
 11
-0.588989
 21
-307.084
  0
LINE
  8
0
 10
-0.588989
 20
-307.084
 11
-0.494415
 21
-307.05
  0
LINE
  8
0
 10
-0.494415
 20
-307.05
 11
-0.397903
 21
-307.022
  0
LINE
  8
0
 10
-0.397903
 20
-307.022
 11
-0.299805
 21
-307
  0
LINE
  8
0
 10
-0.299805
 20
-307
 11
-0.200531
 21
-306.984
  0
LINE
  8
0
 10
-0.200531
 20
-306.984
 11
-0.100464
 21
-306.975
  0
LINE
  8
0
 10
-0.100464
 20
-306.975
 11
0
 21
-306.971
  0
LINE
  8
0
 10
0
 20
-306.971
 11
0.100464
 21
-306.975
  0
LINE
  8
0
 10
0.100464
 20
-306.975
 11
0.200531
 21
-306.984
  0
LINE
  8
0
 10
0.200531
 20
-306.984
 11
0.299805
 21
-307
  0
LINE
  8
0
 10
0.299805
 20
-307
 11
0.397903
 21
-307.022
  0
LINE
  8
0
 10
0.397903
 20
-307.022
 11
0.494415
 21
-307.05
  0
LINE
  8
0
 10
0.494415
 20
-307.05
 11
0.588989
 21
-307.084
  0
LINE
  8
0
 10
0.588989
 20
-307.084
 11
0.681244
 21
-307.124
  0
LINE
  8
0
 10
0.681244
 20
-307.124
 11
0.770798
 21
-307.169
  0
LINE
  8
0
 10
0.770798
 20
-307.169
 11
0.857315
 21
-307.22
  0
LINE
  8
0
 10
0.857315
 20
-307.22
 11
0.940445
 21
-307.277
  0
LINE
  8
0
 10
0.940445
 20
-307.277
 11
1.01987
 21
-307.339
  0
LINE
  8
0
 10
1.01987
 20
-307.339
 11
1.09526
 21
-307.405
  0
LINE
  8
0
 10
1.09526
 20
-307.405
 11
1.16634
 21
-307.476
  0
LINE
  8
0
 10
1.16634
 20
-307.476
 11
1.23282
 21
-307.552
  0
LINE
  8
0
 10
1.23282
 20
-307.552
 11
1.29442
 21
-307.631
  0
LINE
  8
0
 10
1.29442
 20
-307.631
 11
1.35092
 21
-307.714
  0
LINE
  8
0
 10
1.35092
 20
-307.714
 11
1.40208
 21
-307.801
  0
LINE
  8
0
 10
1.40208
 20
-307.801
 11
1.44771
 21
-307.89
  0
LINE
  8
0
 10
1.44771
 20
-307.89
 11
1.48764
 21
-307.982
  0
LINE
  8
0
 10
1.48764
 20
-307.982
 11
1.52168
 21
-308.077
  0
LINE
  8
0
 10
1.52168
 20
-308.077
 11
1.54973
 21
-308.174
  0
LINE
  8
0
 10
1.54973
 20
-308.174
 11
1.57166
 21
-308.272
  0
LINE
  8
0
 10
1.57166
 20
-308.272
 11
1.58737
 21
-308.371
  0
LINE
  8
0
 10
1.58737
 20
-308.371
 11
1.59683
 21
-308.471
  0
LINE
  8
0
 10
1.59683
 20
-308.471
 11
1.59999
 21
-308.571
  0
LINE
  8
0
 10
1.59999
 20
-308.571
 11
1.59683
 21
-308.672
  0
LINE
  8
0
 10
1.59683
 20
-308.672
 11
1.58737
 21
-308.772
  0
LINE
  8
0
 10
1.58737
 20
-308.772
 11
1.57166
 21
-308.871
  0
LINE
  8
0
 10
1.57166
 20
-308.871
 11
1.54973
 21
-308.969
  0
LINE
  8
0
 10
1.54973
 20
-308.969
 11
1.52168
 21
-309.066
  0
LINE
  8
0
 10
1.52168
 20
-309.066
 11
1.48764
 21
-309.16
  0
LINE
  8
0
 10
1.48764
 20
-309.16
 11
1.44771
 21
-309.253
  0
LINE
  8
0
 10
1.44771
 20
-309.253
 11
1.40208
 21
-309.342
  0
LINE
  8
0
 10
1.40208
 20
-309.342
 11
1.35092
 21
-309.429
  0
LINE
  8
0
 10
1.35092
 20
-309.429
 11
1.29442
 21
-309.512
  0
LINE
  8
0
 10
1.29442
 20
-309.512
 11
1.23282
 21
-309.591
  0
LINE
  8
0
 10
1.23282
 20
-309.591
 11
1.16634
 21
-309.667
  0
LINE
  8
0
 10
1.16634
 20
-309.667
 11
1.09526
 21
-309.738
  0
LINE
  8
0
 10
1.09526
 20
-309.738
 11
1.01987
 21
-309.804
  0
LINE
  8
0
 10
1.01987
 20
-309.804
 11
0.940445
 21
-309.866
  0
LINE
  8
0
 10
0.940445
 20
-309.866
 11
0.857315
 21
-309.922
  0
LINE
  8
0
 10
0.857315
 20
-309.922
 11
0.770798
 21
-309.974
  0
LINE
  8
0
 10
0.770798
 20
-309.974
 11
0.681244
 21
-310.019
  0
LINE
  8
0
 10
0.681244
 20
-310.019
 11
0.588989
 21
-310.059
  0
LINE
  8
0
 10
0.588989
 20
-310.059
 11
0.494415
 21
-310.093
  0
LINE
  8
0
 10
0.494415
 20
-310.093
 11
0.397903
 21
-310.121
  0
LINE
  8
0
 10
0.397903
 20
-310.121
 11
0.299805
 21
-310.143
  0
LINE
  8
0
 10
0.299805
 20
-310.143
 11
0.200531
 21
-310.159
  0
LINE
  8
0
 10
0.200531
 20
-310.159
 11
0.100464
 21
-310.168
  0
LINE
  8
0
 10
0.100464
 20
-310.168
 11
0
 21
-310.171
  0
LINE
  8
0
 10
0
 20
-310.171
 11
-0.100464
 21
-310.168
  0
LINE
  8
0
 10
-0.439529
 20
-366.986
 11
-0.877319
 21
-366.945
  0
LINE
  8
0
 10
-0.877319
 20
-366.945
 11
-1.31166
 21
-366.876
  0
LINE
  8
0
 10
-1.31166
 20
-366.876
 11
-1.74081
 21
-366.78
  0
LINE
  8
0
 10
-1.74081
 20
-366.78
 11
-2.16312
 21
-366.657
  0
LINE
  8
0
 10
-2.16312
 20
-366.657
 11
-2.57686
 21
-366.508
  0
LINE
  8
0
 10
-2.57686
 20
-366.508
 11
-2.98045
 21
-366.334
  0
LINE
  8
0
 10
-2.98045
 20
-366.334
 11
-3.37227
 21
-366.134
  0
LINE
  8
0
 10
-3.37227
 20
-366.134
 11
-3.75078
 21
-365.91
  0
LINE
  8
0
 10
-3.75078
 20
-365.91
 11
-4.11449
 21
-365.663
  0
LINE
  8
0
 10
-4.11449
 20
-365.663
 11
-4.46196
 21
-365.394
  0
LINE
  8
0
 10
-4.46196
 20
-365.394
 11
-4.79182
 21
-365.103
  0
LINE
  8
0
 10
-4.79182
 20
-365.103
 11
-5.10277
 21
-364.792
  0
LINE
  8
0
 10
-5.10277
 20
-364.792
 11
-5.39359
 21
-364.462
  0
LINE
  8
0
 10
-5.39359
 20
-364.462
 11
-5.66312
 21
-364.115
  0
LINE
  8
0
 10
-5.66312
 20
-364.115
 11
-5.91029
 21
-363.751
  0
LINE
  8
0
 10
-5.91029
 20
-363.751
 11
-6.13414
 21
-363.372
  0
LINE
  8
0
 10
-6.13414
 20
-363.372
 11
-6.33379
 21
-362.98
  0
LINE
  8
0
 10
-6.33379
 20
-362.98
 11
-6.50842
 21
-362.577
  0
LINE
  8
0
 10
-6.50842
 20
-362.577
 11
-6.65739
 21
-362.163
  0
LINE
  8
0
 10
-6.65739
 20
-362.163
 11
-6.78008
 21
-361.741
  0
LINE
  8
0
 10
-6.78008
 20
-361.741
 11
-6.87601
 21
-361.312
  0
LINE
  8
0
 10
-6.87601
 20
-361.312
 11
-6.94479
 21
-360.877
  0
LINE
  8
0
 10
-6.94479
 20
-360.877
 11
-6.98618
 21
-360.44
  0
LINE
  8
0
 10
-6.98618
 20
-360.44
 11
-7
 21
-360
  0
LINE
  8
0
 10
-7
 20
-360
 11
-6.98618
 21
-359.56
  0
LINE
  8
0
 10
-6.98618
 20
-359.56
 11
-6.94479
 21
-359.123
  0
LINE
  8
0
 10
-6.94479
 20
-359.123
 11
-6.87601
 21
-358.688
  0
LINE
  8
0
 10
-6.87601
 20
-358.688
 11
-6.78008
 21
-358.259
  0
LINE
  8
0
 10
-6.78008
 20
-358.259
 11
-6.65739
 21
-357.837
  0
LINE
  8
0
 10
-6.65739
 20
-357.837
 11
-6.50842
 21
-357.423
  0
LINE
  8
0
 10
-6.50842
 20
-357.423
 11
-6.33379
 21
-357.02
  0
LINE
  8
0
 10
-6.33379
 20
-357.02
 11
-6.13414
 21
-356.628
  0
LINE
  8
0
 10
-6.13414
 20
-356.628
 11
-5.91029
 21
-356.249
  0
LINE
  8
0
 10
-5.91029
 20
-356.249
 11
-5.66312
 21
-355.885
  0
LINE
  8
0
 10
-5.66312
 20
-355.885
 11
-5.39359
 21
-355.538
  0
LINE
  8
0
 10
-5.39359
 20
-355.538
 11
-5.10277
 21
-355.208
  0
LINE
  8
0
 10
-5.10277
 20
-355.208
 11
-4.79182
 21
-354.897
  0
LINE
  8
0
 10
-4.79182
 20
-354.897
 11
-4.46196
 21
-354.606
  0
LINE
  8
0
 10
-4.46196
 20
-354.606
 11
-4.11449
 21
-354.337
  0
LINE
  8
0
 10
-4.11449
 20
-354.337
 11
-3.75078
 21
-354.09
  0
LINE
  8
0
 10
-3.75078
 20
-354.09
 11
-3.37227
 21
-353.866
  0
LINE
  8
0
 10
-3.37227
 20
-353.866
 11
-2.98045
 21
-353.666
  0
LINE
  8
0
 10
-2.98045
 20
-353.666
 11
-2.57686
 21
-353.492
  0
LINE
  8
0
 10
-2.57686
 20
-353.492
 11
-2.16312
 21
-353.343
  0
LINE
  8
0
 10
-2.16312
 20
-353.343
 11
-1.74081
 21
-353.22
  0
LINE
  8
0
 10
-1.74081
 20
-353.22
 11
-1.31166
 21
-353.124
  0
LINE
  8
0
 10
-1.31166
 20
-353.124
 11
-0.877319
 21
-353.055
  0
LINE
  8
0
 10
-0.877319
 20
-353.055
 11
-0.439529
 21
-353.014
  0
LINE
  8
0
 10
-0.439529
 20
-353.014
 11
0
 21
-353
  0
LINE
  8
0
 10
0
 20
-353
 11
0.439529
 21
-353.014
  0
LINE
  8
0
 10
0.439529
 20
-353.014
 11
0.877319
 21
-353.055
  0
LINE
  8
0
 10
0.877319
 20
-353.055
 11
1.31166
 21
-353.124
  0
LINE
  8
0
 10
1.31166
 20
-353.124
 11
1.74081
 21
-353.22
  0
LINE
  8
0
 10
1.74081
 20
-353.22
 11
2.16312
 21
-353.343
  0
LINE
  8
0
 10
2.16312
 20
-353.343
 11
2.57686
 21
-353.492
  0
LINE
  8
0
 10
2.57686
 20
-353.492
 11
2.98045
 21
-353.666
  0
LINE
  8
0
 10
2.98045
 20
-353.666
 11
3.37227
 21
-353.866
  0
LINE
  8
0
 10
3.37227
 20
-353.866
 11
3.75078
 21
-354.09
  0
LINE
  8
0
 10
3.75078
 20
-354.09
 11
4.11449
 21
-354.337
  0
LINE
  8
0
 10
4.11449
 20
-354.337
 11
4.46196
 21
-354.606
  0
LINE
  8
0
 10
4.46196
 20
-354.606
 11
4.79182
 21
-354.897
  0
LINE
  8
0
 10
4.79182
 20
-354.897
 11
5.10277
 21
-355.208
  0
LINE
  8
0
 10
5.10277
 20
-355.208
 11
5.39359
 21
-355.538
  0
LINE
  8
0
 10
5.39359
 20
-355.538
 11
5.66312
 21
-355.885
  0
LINE
  8
0
 10
5.66312
 20
-355.885
 11
5.91029
 21
-356.249
  0
LINE
  8
0
 10
5.91029
 20
-356.249
 11
6.13414
 21
-356.628
  0
LINE
  8
0
 10
6.13414
 20
-356.628
 11
6.33379
 21
-357.02
  0
LINE
  8
0
 10
6.33379
 20
-357.02
 11
6.50842
 21
-357.423
  0
LINE
  8
0
 10
6.50842
 20
-357.423
 11
6.65739
 21
-357.837
  0
LINE
  8
0
 10
6.65739
 20
-357.837
 11
6.78008
 21
-358.259
  0
LINE
  8
0
 10
6.78008
 20
-358.259
 11
6.87601
 21
-358.688
  0
LINE
  8
0
 10
6.87601
 20
-358.688
 11
6.94479
 21
-359.123
  0
LINE
  8
0
 10
6.94479
 20
-359.123
 11
6.98618
 21
-359.56
  0
LINE
  8
0
 10
6.98618
 20
-359.56
 11
7
 21
-360
  0
LINE
  8
0
 10
7
 20
-360
 11
6.98618
 21
-360.44
  0
LINE
  8
0
 10
6.98618
 20
-360.44
 11
6.94479
 21
-360.877
  0
LINE
  8
0
 10
6.94479
 20
-360.877
 11
6.87601
 21
-361.312
  0
LINE
  8
0
 10
6.87601
 20
-361.312
 11
6.78008
 21
-361.741
  0
LINE
  8
0
 10
6.78008
 20
-361.741
 11
6.65739
 21
-362.163
  0
LINE
  8
0
 10
6.65739
 20
-362.163
 11
6.50842
 21
-362.577
  0
LINE
  8
0
 10
6.50842
 20
-362.577
 11
6.33379
 21
-362.98
  0
LINE
  8
0
 10
6.33379
 20
-362.98
 11
6.13414
 21
-363.372
  0
LINE
  8
0
 10
6.13414
 20
-363.372
 11
5.91029
 21
-363.751
  0
LINE
  8
0
 10
5.91029
 20
-363.751
 11
5.66312
 21
-364.115
  0
LINE
  8
0
 10
5.66312
 20
-364.115
 11
5.39359
 21
-364.462
  0
LINE
  8
0
 10
5.39359
 20
-364.462
 11
5.10277
 21
-364.792
  0
LINE
  8
0
 10
5.10277
 20
-364.792
 11
4.79182
 21
-365.103
  0
LINE
  8
0
 10
4.79182
 20
-365.103
 11
4.46196
 21
-365.394
  0
LINE
  8
0
 10
4.46196
 20
-365.394
 11
4.11449
 21
-365.663
  0
LINE
  8
0
 10
4.11449
 20
-365.663
 11
3.75078
 21
-365.91
  0
LINE
  8
0
 10
3.75078
 20
-365.91
 11
3.37227
 21
-366.134
  0
LINE
  8
0
 10
3.37227
 20
-366.134
 11
2.98045
 21
-366.334
  0
LINE
  8
0
 10
2.98045
 20
-366.334
 11
2.57686
 21
-366.508
  0
LINE
  8
0
 10
2.57686
 20
-366.508
 11
2.16312
 21
-366.657
  0
LINE
  8
0
 10
2.16312
 20
-366.657
 11
1.74081
 21
-366.78
  0
LINE
  8
0
 10
1.74081
 20
-366.78
 11
1.31166
 21
-366.876
  0
LINE
  8
0
 10
1.31166
 20
-366.876
 11
0.877319
 21
-366.945
  0
LINE
  8
0
 10
0.877319
 20
-366.945
 11
0.439529
 21
-366.986
  0
LINE
  8
0
 10
0.439529
 20
-366.986
 11
0
 21
-367
  0
LINE
  8
0
 10
0
 20
-367
 11
-0.439529
 21
-366.986
  0
ENDSEC
  0
SECTION
  2
OBJECTS
  0
DICTIONARY
  0
ENDSEC
  0
EOF
