  0
SECTION
  2
BLOCKS
  0
ENDSEC
  0
SECTION
  2
ENTITIES
  0
LINE
  8
0
 10
51.1984
 20
-6.33721
 11
51.5957
 21
-6.29962
  0
LINE
  8
0
 10
51.5957
 20
-6.29962
 11
51.9898
 21
-6.23722
  0
LINE
  8
0
 10
51.9898
 20
-6.23722
 11
52.379
 21
-6.1504
  0
LINE
  8
0
 10
52.379
 20
-6.1504
 11
52.7619
 21
-6.03917
  0
LINE
  8
0
 10
52.7619
 20
-6.03917
 11
53.1375
 21
-5.9039
  0
LINE
  8
0
 10
53.1375
 20
-5.9039
 11
53.5033
 21
-5.74539
  0
LINE
  8
0
 10
53.5033
 20
-5.74539
 11
53.8591
 21
-5.56439
  0
LINE
  8
0
 10
53.8591
 20
-5.56439
 11
54.2021
 21
-5.3613
  0
LINE
  8
0
 10
54.2021
 20
-5.3613
 11
54.5323
 21
-5.1369
  0
LINE
  8
0
 10
54.5323
 20
-5.1369
 11
54.8474
 21
-4.89272
  0
LINE
  8
0
 10
54.8474
 20
-4.89272
 11
55.1466
 21
-4.62879
  0
LINE
  8
0
 10
55.1466
 20
-4.62879
 11
55.4288
 21
-4.34663
  0
LINE
  8
0
 10
55.4288
 20
-4.34663
 11
55.6927
 21
-4.04743
  0
LINE
  8
0
 10
55.6927
 20
-4.04743
 11
55.9369
 21
-3.73233
  0
LINE
  8
0
 10
55.9369
 20
-3.73233
 11
56.1613
 21
-3.40212
  0
LINE
  8
0
 10
56.1613
 20
-3.40212
 11
56.3644
 21
-3.05912
  0
LINE
  8
0
 10
56.3644
 20
-3.05912
 11
56.5454
 21
-2.70332
  0
LINE
  8
0
 10
56.5454
 20
-2.70332
 11
56.7039
 21
-2.33745
  0
LINE
  8
0
 10
56.7039
 20
-2.33745
 11
56.8392
 21
-1.9619
  0
LINE
  8
0
 10
56.8392
 20
-1.9619
 11
56.9504
 21
-1.57897
  0
LINE
  8
0
 10
56.9504
 20
-1.57897
 11
57.0372
 21
-1.18985
  0
LINE
  8
0
 10
57.0372
 20
-1.18985
 11
57.0996
 21
-0.795688
  0
LINE
  8
0
 10
57.0996
 20
-0.795688
 11
57.1372
 21
-0.398425
  0
LINE
  8
0
 10
57.1372
 20
-0.398425
 11
57.15
 21
0
  0
LINE
  8
0
 10
57.15
 20
0
 11
57.1372
 21
0.398425
  0
LINE
  8
0
 10
57.1372
 20
0.398425
 11
57.0996
 21
0.795688
  0
LINE
  8
0
 10
57.0996
 20
0.795688
 11
57.0372
 21
1.18985
  0
LINE
  8
0
 10
57.0372
 20
1.18985
 11
56.9504
 21
1.57897
  0
LINE
  8
0
 10
56.9504
 20
1.57897
 11
56.8392
 21
1.9619
  0
LINE
  8
0
 10
56.8392
 20
1.9619
 11
56.7039
 21
2.33745
  0
LINE
  8
0
 10
56.7039
 20
2.33745
 11
56.5454
 21
2.70332
  0
LINE
  8
0
 10
56.5454
 20
2.70332
 11
56.3644
 21
3.05912
  0
LINE
  8
0
 10
56.3644
 20
3.05912
 11
56.1613
 21
3.40212
  0
LINE
  8
0
 10
56.1613
 20
3.40212
 11
55.9369
 21
3.73233
  0
LINE
  8
0
 10
55.9369
 20
3.73233
 11
55.6927
 21
4.04743
  0
LINE
  8
0
 10
55.6927
 20
4.04743
 11
55.4288
 21
4.34663
  0
LINE
  8
0
 10
55.4288
 20
4.34663
 11
55.1466
 21
4.62879
  0
LINE
  8
0
 10
55.1466
 20
4.62879
 11
54.8474
 21
4.89272
  0
LINE
  8
0
 10
54.8474
 20
4.89272
 11
54.5323
 21
5.1369
  0
LINE
  8
0
 10
54.5323
 20
5.1369
 11
54.2021
 21
5.3613
  0
LINE
  8
0
 10
54.2021
 20
5.3613
 11
53.8591
 21
5.56439
  0
LINE
  8
0
 10
53.8591
 20
5.56439
 11
53.5033
 21
5.74539
  0
LINE
  8
0
 10
53.5033
 20
5.74539
 11
53.1375
 21
5.9039
  0
LINE
  8
0
 10
53.1375
 20
5.9039
 11
52.7619
 21
6.03917
  0
LINE
  8
0
 10
52.7619
 20
6.03917
 11
52.379
 21
6.1504
  0
LINE
  8
0
 10
52.379
 20
6.1504
 11
51.9898
 21
6.23722
  0
LINE
  8
0
 10
51.9898
 20
6.23722
 11
51.5957
 21
6.29962
  0
LINE
  8
0
 10
51.5957
 20
6.29962
 11
51.1984
 21
6.33721
  0
LINE
  8
0
 10
51.1984
 20
6.33721
 11
50.8
 21
6.35
  0
LINE
  8
0
 10
50.8
 20
6.35
 11
-50.8
 21
6.35
  0
LINE
  8
0
 10
-50.8
 20
6.35
 11
-51.1984
 21
6.33721
  0
LINE
  8
0
 10
-51.1984
 20
6.33721
 11
-51.5957
 21
6.29962
  0
LINE
  8
0
 10
-51.5957
 20
6.29962
 11
-51.9898
 21
6.23722
  0
LINE
  8
0
 10
-51.9898
 20
6.23722
 11
-52.379
 21
6.1504
  0
LINE
  8
0
 10
-52.379
 20
6.1504
 11
-52.7619
 21
6.03917
  0
LINE
  8
0
 10
-52.7619
 20
6.03917
 11
-53.1375
 21
5.9039
  0
LINE
  8
0
 10
-53.1375
 20
5.9039
 11
-53.5033
 21
5.74539
  0
LINE
  8
0
 10
-53.5033
 20
5.74539
 11
-53.8591
 21
5.56439
  0
LINE
  8
0
 10
-53.8591
 20
5.56439
 11
-54.2021
 21
5.3613
  0
LINE
  8
0
 10
-54.2021
 20
5.3613
 11
-54.5323
 21
5.1369
  0
LINE
  8
0
 10
-54.5323
 20
5.1369
 11
-54.8474
 21
4.89272
  0
LINE
  8
0
 10
-54.8474
 20
4.89272
 11
-55.1466
 21
4.62879
  0
LINE
  8
0
 10
-55.1466
 20
4.62879
 11
-55.4288
 21
4.34663
  0
LINE
  8
0
 10
-55.4288
 20
4.34663
 11
-55.6927
 21
4.04743
  0
LINE
  8
0
 10
-55.6927
 20
4.04743
 11
-55.9369
 21
3.73233
  0
LINE
  8
0
 10
-55.9369
 20
3.73233
 11
-56.1613
 21
3.40212
  0
LINE
  8
0
 10
-56.1613
 20
3.40212
 11
-56.3644
 21
3.05912
  0
LINE
  8
0
 10
-56.3644
 20
3.05912
 11
-56.5454
 21
2.70332
  0
LINE
  8
0
 10
-56.5454
 20
2.70332
 11
-56.7039
 21
2.33745
  0
LINE
  8
0
 10
-56.7039
 20
2.33745
 11
-56.8392
 21
1.9619
  0
LINE
  8
0
 10
-56.8392
 20
1.9619
 11
-56.9504
 21
1.57897
  0
LINE
  8
0
 10
-56.9504
 20
1.57897
 11
-57.0372
 21
1.18985
  0
LINE
  8
0
 10
-57.0372
 20
1.18985
 11
-57.0996
 21
0.795688
  0
LINE
  8
0
 10
-57.0996
 20
0.795688
 11
-57.1372
 21
0.398425
  0
LINE
  8
0
 10
-57.1372
 20
0.398425
 11
-57.15
 21
0
  0
LINE
  8
0
 10
-57.15
 20
0
 11
-57.1372
 21
-0.398425
  0
LINE
  8
0
 10
-57.1372
 20
-0.398425
 11
-57.0996
 21
-0.795688
  0
LINE
  8
0
 10
-57.0996
 20
-0.795688
 11
-57.0372
 21
-1.18985
  0
LINE
  8
0
 10
-57.0372
 20
-1.18985
 11
-56.9504
 21
-1.57897
  0
LINE
  8
0
 10
-56.9504
 20
-1.57897
 11
-56.8392
 21
-1.9619
  0
LINE
  8
0
 10
-56.8392
 20
-1.9619
 11
-56.7039
 21
-2.33745
  0
LINE
  8
0
 10
-56.7039
 20
-2.33745
 11
-56.5454
 21
-2.70332
  0
LINE
  8
0
 10
-56.5454
 20
-2.70332
 11
-56.3644
 21
-3.05912
  0
LINE
  8
0
 10
-56.3644
 20
-3.05912
 11
-56.1613
 21
-3.40212
  0
LINE
  8
0
 10
-56.1613
 20
-3.40212
 11
-55.9369
 21
-3.73233
  0
LINE
  8
0
 10
-55.9369
 20
-3.73233
 11
-55.6927
 21
-4.04743
  0
LINE
  8
0
 10
-55.6927
 20
-4.04743
 11
-55.4288
 21
-4.34663
  0
LINE
  8
0
 10
-55.4288
 20
-4.34663
 11
-55.1466
 21
-4.62879
  0
LINE
  8
0
 10
-55.1466
 20
-4.62879
 11
-54.8474
 21
-4.89272
  0
LINE
  8
0
 10
-54.8474
 20
-4.89272
 11
-54.5323
 21
-5.1369
  0
LINE
  8
0
 10
-54.5323
 20
-5.1369
 11
-54.2021
 21
-5.3613
  0
LINE
  8
0
 10
-54.2021
 20
-5.3613
 11
-53.8591
 21
-5.56439
  0
LINE
  8
0
 10
-53.8591
 20
-5.56439
 11
-53.5033
 21
-5.74539
  0
LINE
  8
0
 10
-53.5033
 20
-5.74539
 11
-53.1375
 21
-5.9039
  0
LINE
  8
0
 10
-53.1375
 20
-5.9039
 11
-52.7619
 21
-6.03917
  0
LINE
  8
0
 10
-52.7619
 20
-6.03917
 11
-52.379
 21
-6.1504
  0
LINE
  8
0
 10
-52.379
 20
-6.1504
 11
-51.9898
 21
-6.23722
  0
LINE
  8
0
 10
-51.9898
 20
-6.23722
 11
-51.5957
 21
-6.29962
  0
LINE
  8
0
 10
-51.5957
 20
-6.29962
 11
-51.1984
 21
-6.33721
  0
LINE
  8
0
 10
-51.1984
 20
-6.33721
 11
-50.8
 21
-6.35
  0
LINE
  8
0
 10
-50.8
 20
-6.35
 11
50.8
 21
-6.35
  0
LINE
  8
0
 10
50.8
 20
-6.35
 11
51.1984
 21
-6.33721
  0
LINE
  8
0
 10
-8.12547
 20
-1.996
 11
-8.25066
 21
-1.98399
  0
LINE
  8
0
 10
-8.25066
 20
-1.98399
 11
-8.37468
 21
-1.96422
  0
LINE
  8
0
 10
-8.37468
 20
-1.96422
 11
-8.49716
 21
-1.93709
  0
LINE
  8
0
 10
-8.49716
 20
-1.93709
 11
-8.61769
 21
-1.90182
  0
LINE
  8
0
 10
-8.61769
 20
-1.90182
 11
-8.7359
 21
-1.85919
  0
LINE
  8
0
 10
-8.7359
 20
-1.85919
 11
-8.8514
 21
-1.80958
  0
LINE
  8
0
 10
-8.8514
 20
-1.80958
 11
-8.96341
 21
-1.75261
  0
LINE
  8
0
 10
-8.96341
 20
-1.75261
 11
-9.07154
 21
-1.68827
  0
LINE
  8
0
 10
-9.07154
 20
-1.68827
 11
-9.17541
 21
-1.61773
  0
LINE
  8
0
 10
-9.17541
 20
-1.61773
 11
-9.27463
 21
-1.54099
  0
LINE
  8
0
 10
-9.27463
 20
-1.54099
 11
-9.36881
 21
-1.45766
  0
LINE
  8
0
 10
-9.36881
 20
-1.45766
 11
-9.45756
 21
-1.36891
  0
LINE
  8
0
 10
-9.45756
 20
-1.36891
 11
-9.54089
 21
-1.27473
  0
LINE
  8
0
 10
-9.54089
 20
-1.27473
 11
-9.61802
 21
-1.17551
  0
LINE
  8
0
 10
-9.61802
 20
-1.17551
 11
-9.68856
 21
-1.07164
  0
LINE
  8
0
 10
-9.68856
 20
-1.07164
 11
-9.75251
 21
-0.963507
  0
LINE
  8
0
 10
-9.75251
 20
-0.963507
 11
-9.80948
 21
-0.851498
  0
LINE
  8
0
 10
-9.80948
 20
-0.851498
 11
-9.85948
 21
-0.736002
  0
LINE
  8
0
 10
-9.85948
 20
-0.736002
 11
-9.90211
 21
-0.617792
  0
LINE
  8
0
 10
-9.90211
 20
-0.617792
 11
-9.93699
 21
-0.497256
  0
LINE
  8
0
 10
-9.93699
 20
-0.497256
 11
-9.96451
 21
-0.374396
  0
LINE
  8
0
 10
-9.96451
 20
-0.374396
 11
-9.98389
 21
-0.250372
  0
LINE
  8
0
 10
-9.98389
 20
-0.250372
 11
-9.9959
 21
-0.125574
  0
LINE
  8
0
 10
-9.9959
 20
-0.125574
 11
-9.99978
 21
0
  0
LINE
  8
0
 10
-9.99978
 20
0
 11
-9.9959
 21
0.125574
  0
LINE
  8
0
 10
-9.9959
 20
0.125574
 11
-9.98389
 21
0.250372
  0
LINE
  8
0
 10
-9.98389
 20
0.250372
 11
-9.96451
 21
0.374396
  0
LINE
  8
0
 10
-9.96451
 20
0.374396
 11
-9.93699
 21
0.497256
  0
LINE
  8
0
 10
-9.93699
 20
0.497256
 11
-9.90211
 21
0.617792
  0
LINE
  8
0
 10
-9.90211
 20
0.617792
 11
-9.85948
 21
0.736002
  0
LINE
  8
0
 10
-9.85948
 20
0.736002
 11
-9.80948
 21
0.851498
  0
LINE
  8
0
 10
-9.80948
 20
0.851498
 11
-9.75251
 21
0.963507
  0
LINE
  8
0
 10
-9.75251
 20
0.963507
 11
-9.68856
 21
1.07164
  0
LINE
  8
0
 10
-9.68856
 20
1.07164
 11
-9.61802
 21
1.17551
  0
LINE
  8
0
 10
-9.61802
 20
1.17551
 11
-9.54089
 21
1.27473
  0
LINE
  8
0
 10
-9.54089
 20
1.27473
 11
-9.45756
 21
1.36891
  0
LINE
  8
0
 10
-9.45756
 20
1.36891
 11
-9.36881
 21
1.45766
  0
LINE
  8
0
 10
-9.36881
 20
1.45766
 11
-9.27463
 21
1.54099
  0
LINE
  8
0
 10
-9.27463
 20
1.54099
 11
-9.17541
 21
1.61773
  0
LINE
  8
0
 10
-9.17541
 20
1.61773
 11
-9.07154
 21
1.68827
  0
LINE
  8
0
 10
-9.07154
 20
1.68827
 11
-8.96341
 21
1.75261
  0
LINE
  8
0
 10
-8.96341
 20
1.75261
 11
-8.8514
 21
1.80958
  0
LINE
  8
0
 10
-8.8514
 20
1.80958
 11
-8.7359
 21
1.85919
  0
LINE
  8
0
 10
-8.7359
 20
1.85919
 11
-8.61769
 21
1.90182
  0
LINE
  8
0
 10
-8.61769
 20
1.90182
 11
-8.49716
 21
1.93709
  0
LINE
  8
0
 10
-8.49716
 20
1.93709
 11
-8.37468
 21
1.96422
  0
LINE
  8
0
 10
-8.37468
 20
1.96422
 11
-8.25066
 21
1.98399
  0
LINE
  8
0
 10
-8.25066
 20
1.98399
 11
-8.12547
 21
1.996
  0
LINE
  8
0
 10
-8.12547
 20
1.996
 11
-7.9999
 21
1.99988
  0
LINE
  8
0
 10
-7.9999
 20
1.99988
 11
-7.87433
 21
1.996
  0
LINE
  8
0
 10
-7.87433
 20
1.996
 11
-7.74914
 21
1.98399
  0
LINE
  8
0
 10
-7.74914
 20
1.98399
 11
-7.62512
 21
1.96422
  0
LINE
  8
0
 10
-7.62512
 20
1.96422
 11
-7.50226
 21
1.93709
  0
LINE
  8
0
 10
-7.50226
 20
1.93709
 11
-7.38172
 21
1.90182
  0
LINE
  8
0
 10
-7.38172
 20
1.90182
 11
-7.26351
 21
1.85919
  0
LINE
  8
0
 10
-7.26351
 20
1.85919
 11
-7.1484
 21
1.80958
  0
LINE
  8
0
 10
-7.1484
 20
1.80958
 11
-7.03639
 21
1.75261
  0
LINE
  8
0
 10
-7.03639
 20
1.75261
 11
-6.92826
 21
1.68827
  0
LINE
  8
0
 10
-6.92826
 20
1.68827
 11
-6.82439
 21
1.61773
  0
LINE
  8
0
 10
-6.82439
 20
1.61773
 11
-6.72478
 21
1.54099
  0
LINE
  8
0
 10
-6.72478
 20
1.54099
 11
-6.6306
 21
1.45766
  0
LINE
  8
0
 10
-6.6306
 20
1.45766
 11
-6.54185
 21
1.36891
  0
LINE
  8
0
 10
-6.54185
 20
1.36891
 11
-6.45891
 21
1.27473
  0
LINE
  8
0
 10
-6.45891
 20
1.27473
 11
-6.38178
 21
1.17551
  0
LINE
  8
0
 10
-6.38178
 20
1.17551
 11
-6.31124
 21
1.07164
  0
LINE
  8
0
 10
-6.31124
 20
1.07164
 11
-6.24729
 21
0.963507
  0
LINE
  8
0
 10
-6.24729
 20
0.963507
 11
-6.19032
 21
0.851498
  0
LINE
  8
0
 10
-6.19032
 20
0.851498
 11
-6.14032
 21
0.736002
  0
LINE
  8
0
 10
-6.14032
 20
0.736002
 11
-6.09769
 21
0.617792
  0
LINE
  8
0
 10
-6.09769
 20
0.617792
 11
-6.06281
 21
0.497256
  0
LINE
  8
0
 10
-6.06281
 20
0.497256
 11
-6.03529
 21
0.374396
  0
LINE
  8
0
 10
-6.03529
 20
0.374396
 11
-6.01552
 21
0.250372
  0
LINE
  8
0
 10
-6.01552
 20
0.250372
 11
-6.0039
 21
0.125574
  0
LINE
  8
0
 10
-6.0039
 20
0.125574
 11
-5.99963
 21
0
  0
LINE
  8
0
 10
-5.99963
 20
0
 11
-6.0039
 21
-0.125574
  0
LINE
  8
0
 10
-6.0039
 20
-0.125574
 11
-6.01552
 21
-0.250372
  0
LINE
  8
0
 10
-6.01552
 20
-0.250372
 11
-6.03529
 21
-0.374396
  0
LINE
  8
0
 10
-6.03529
 20
-0.374396
 11
-6.06281
 21
-0.497256
  0
LINE
  8
0
 10
-6.06281
 20
-0.497256
 11
-6.09769
 21
-0.617792
  0
LINE
  8
0
 10
-6.09769
 20
-0.617792
 11
-6.14032
 21
-0.736002
  0
LINE
  8
0
 10
-6.14032
 20
-0.736002
 11
-6.19032
 21
-0.851498
  0
LINE
  8
0
 10
-6.19032
 20
-0.851498
 11
-6.24729
 21
-0.963507
  0
LINE
  8
0
 10
-6.24729
 20
-0.963507
 11
-6.31124
 21
-1.07164
  0
LINE
  8
0
 10
-6.31124
 20
-1.07164
 11
-6.38178
 21
-1.17551
  0
LINE
  8
0
 10
-6.38178
 20
-1.17551
 11
-6.45891
 21
-1.27473
  0
LINE
  8
0
 10
-6.45891
 20
-1.27473
 11
-6.54185
 21
-1.36891
  0
LINE
  8
0
 10
-6.54185
 20
-1.36891
 11
-6.6306
 21
-1.45766
  0
LINE
  8
0
 10
-6.6306
 20
-1.45766
 11
-6.72478
 21
-1.54099
  0
LINE
  8
0
 10
-6.72478
 20
-1.54099
 11
-6.82439
 21
-1.61773
  0
LINE
  8
0
 10
-6.82439
 20
-1.61773
 11
-6.92826
 21
-1.68827
  0
LINE
  8
0
 10
-6.92826
 20
-1.68827
 11
-7.03639
 21
-1.75261
  0
LINE
  8
0
 10
-7.03639
 20
-1.75261
 11
-7.1484
 21
-1.80958
  0
LINE
  8
0
 10
-7.1484
 20
-1.80958
 11
-7.26351
 21
-1.85919
  0
LINE
  8
0
 10
-7.26351
 20
-1.85919
 11
-7.38172
 21
-1.90182
  0
LINE
  8
0
 10
-7.38172
 20
-1.90182
 11
-7.50226
 21
-1.93709
  0
LINE
  8
0
 10
-7.50226
 20
-1.93709
 11
-7.62512
 21
-1.96422
  0
LINE
  8
0
 10
-7.62512
 20
-1.96422
 11
-7.74914
 21
-1.98399
  0
LINE
  8
0
 10
-7.74914
 20
-1.98399
 11
-7.87433
 21
-1.996
  0
LINE
  8
0
 10
-7.87433
 20
-1.996
 11
-7.9999
 21
-1.99988
  0
LINE
  8
0
 10
-7.9999
 20
-1.99988
 11
-8.12547
 21
-1.996
  0
LINE
  8
0
 10
7.87433
 20
-1.996
 11
7.74914
 21
-1.98399
  0
LINE
  8
0
 10
7.74914
 20
-1.98399
 11
7.62512
 21
-1.96422
  0
LINE
  8
0
 10
7.62512
 20
-1.96422
 11
7.50226
 21
-1.93709
  0
LINE
  8
0
 10
7.50226
 20
-1.93709
 11
7.38172
 21
-1.90182
  0
LINE
  8
0
 10
7.38172
 20
-1.90182
 11
7.26351
 21
-1.85919
  0
LINE
  8
0
 10
7.26351
 20
-1.85919
 11
7.1484
 21
-1.80958
  0
LINE
  8
0
 10
7.1484
 20
-1.80958
 11
7.03639
 21
-1.75261
  0
LINE
  8
0
 10
7.03639
 20
-1.75261
 11
6.92826
 21
-1.68827
  0
LINE
  8
0
 10
6.92826
 20
-1.68827
 11
6.82439
 21
-1.61773
  0
LINE
  8
0
 10
6.82439
 20
-1.61773
 11
6.72478
 21
-1.54099
  0
LINE
  8
0
 10
6.72478
 20
-1.54099
 11
6.6306
 21
-1.45766
  0
LINE
  8
0
 10
6.6306
 20
-1.45766
 11
6.54185
 21
-1.36891
  0
LINE
  8
0
 10
6.54185
 20
-1.36891
 11
6.45891
 21
-1.27473
  0
LINE
  8
0
 10
6.45891
 20
-1.27473
 11
6.38178
 21
-1.17551
  0
LINE
  8
0
 10
6.38178
 20
-1.17551
 11
6.31124
 21
-1.07164
  0
LINE
  8
0
 10
6.31124
 20
-1.07164
 11
6.24729
 21
-0.963507
  0
LINE
  8
0
 10
6.24729
 20
-0.963507
 11
6.19032
 21
-0.851498
  0
LINE
  8
0
 10
6.19032
 20
-0.851498
 11
6.14032
 21
-0.736002
  0
LINE
  8
0
 10
6.14032
 20
-0.736002
 11
6.09769
 21
-0.617792
  0
LINE
  8
0
 10
6.09769
 20
-0.617792
 11
6.06281
 21
-0.497256
  0
LINE
  8
0
 10
6.06281
 20
-0.497256
 11
6.03529
 21
-0.374396
  0
LINE
  8
0
 10
6.03529
 20
-0.374396
 11
6.01552
 21
-0.250372
  0
LINE
  8
0
 10
6.01552
 20
-0.250372
 11
6.0039
 21
-0.125574
  0
LINE
  8
0
 10
6.0039
 20
-0.125574
 11
5.99963
 21
0
  0
LINE
  8
0
 10
5.99963
 20
0
 11
6.0039
 21
0.125574
  0
LINE
  8
0
 10
6.0039
 20
0.125574
 11
6.01552
 21
0.250372
  0
LINE
  8
0
 10
6.01552
 20
0.250372
 11
6.03529
 21
0.374396
  0
LINE
  8
0
 10
6.03529
 20
0.374396
 11
6.06281
 21
0.497256
  0
LINE
  8
0
 10
6.06281
 20
0.497256
 11
6.09769
 21
0.617792
  0
LINE
  8
0
 10
6.09769
 20
0.617792
 11
6.14032
 21
0.736002
  0
LINE
  8
0
 10
6.14032
 20
0.736002
 11
6.19032
 21
0.851498
  0
LINE
  8
0
 10
6.19032
 20
0.851498
 11
6.24729
 21
0.963507
  0
LINE
  8
0
 10
6.24729
 20
0.963507
 11
6.31124
 21
1.07164
  0
LINE
  8
0
 10
6.31124
 20
1.07164
 11
6.38178
 21
1.17551
  0
LINE
  8
0
 10
6.38178
 20
1.17551
 11
6.45891
 21
1.27473
  0
LINE
  8
0
 10
6.45891
 20
1.27473
 11
6.54185
 21
1.36891
  0
LINE
  8
0
 10
6.54185
 20
1.36891
 11
6.6306
 21
1.45766
  0
LINE
  8
0
 10
6.6306
 20
1.45766
 11
6.72478
 21
1.54099
  0
LINE
  8
0
 10
6.72478
 20
1.54099
 11
6.82439
 21
1.61773
  0
LINE
  8
0
 10
6.82439
 20
1.61773
 11
6.92826
 21
1.68827
  0
LINE
  8
0
 10
6.92826
 20
1.68827
 11
7.03639
 21
1.75261
  0
LINE
  8
0
 10
7.03639
 20
1.75261
 11
7.1484
 21
1.80958
  0
LINE
  8
0
 10
7.1484
 20
1.80958
 11
7.26351
 21
1.85919
  0
LINE
  8
0
 10
7.26351
 20
1.85919
 11
7.38172
 21
1.90182
  0
LINE
  8
0
 10
7.38172
 20
1.90182
 11
7.50226
 21
1.93709
  0
LINE
  8
0
 10
7.50226
 20
1.93709
 11
7.62512
 21
1.96422
  0
LINE
  8
0
 10
7.62512
 20
1.96422
 11
7.74914
 21
1.98399
  0
LINE
  8
0
 10
7.74914
 20
1.98399
 11
7.87433
 21
1.996
  0
LINE
  8
0
 10
7.87433
 20
1.996
 11
7.9999
 21
1.99988
  0
LINE
  8
0
 10
7.9999
 20
1.99988
 11
8.12547
 21
1.996
  0
LINE
  8
0
 10
8.12547
 20
1.996
 11
8.25066
 21
1.98399
  0
LINE
  8
0
 10
8.25066
 20
1.98399
 11
8.37468
 21
1.96422
  0
LINE
  8
0
 10
8.37468
 20
1.96422
 11
8.49716
 21
1.93709
  0
LINE
  8
0
 10
8.49716
 20
1.93709
 11
8.61769
 21
1.90182
  0
LINE
  8
0
 10
8.61769
 20
1.90182
 11
8.7359
 21
1.85919
  0
LINE
  8
0
 10
8.7359
 20
1.85919
 11
8.8514
 21
1.80958
  0
LINE
  8
0
 10
8.8514
 20
1.80958
 11
8.96341
 21
1.75261
  0
LINE
  8
0
 10
8.96341
 20
1.75261
 11
9.07154
 21
1.68827
  0
LINE
  8
0
 10
9.07154
 20
1.68827
 11
9.17541
 21
1.61773
  0
LINE
  8
0
 10
9.17541
 20
1.61773
 11
9.27463
 21
1.54099
  0
LINE
  8
0
 10
9.27463
 20
1.54099
 11
9.36881
 21
1.45766
  0
LINE
  8
0
 10
9.36881
 20
1.45766
 11
9.45756
 21
1.36891
  0
LINE
  8
0
 10
9.45756
 20
1.36891
 11
9.54089
 21
1.27473
  0
LINE
  8
0
 10
9.54089
 20
1.27473
 11
9.61802
 21
1.17551
  0
LINE
  8
0
 10
9.61802
 20
1.17551
 11
9.68856
 21
1.07164
  0
LINE
  8
0
 10
9.68856
 20
1.07164
 11
9.75251
 21
0.963507
  0
LINE
  8
0
 10
9.75251
 20
0.963507
 11
9.80948
 21
0.851498
  0
LINE
  8
0
 10
9.80948
 20
0.851498
 11
9.85948
 21
0.736002
  0
LINE
  8
0
 10
9.85948
 20
0.736002
 11
9.90211
 21
0.617792
  0
LINE
  8
0
 10
9.90211
 20
0.617792
 11
9.93699
 21
0.497256
  0
LINE
  8
0
 10
9.93699
 20
0.497256
 11
9.96451
 21
0.374396
  0
LINE
  8
0
 10
9.96451
 20
0.374396
 11
9.98389
 21
0.250372
  0
LINE
  8
0
 10
9.98389
 20
0.250372
 11
9.9959
 21
0.125574
  0
LINE
  8
0
 10
9.9959
 20
0.125574
 11
9.99978
 21
0
  0
LINE
  8
0
 10
9.99978
 20
0
 11
9.9959
 21
-0.125574
  0
LINE
  8
0
 10
9.9959
 20
-0.125574
 11
9.98389
 21
-0.250372
  0
LINE
  8
0
 10
9.98389
 20
-0.250372
 11
9.96451
 21
-0.374396
  0
LINE
  8
0
 10
9.96451
 20
-0.374396
 11
9.93699
 21
-0.497256
  0
LINE
  8
0
 10
9.93699
 20
-0.497256
 11
9.90211
 21
-0.617792
  0
LINE
  8
0
 10
9.90211
 20
-0.617792
 11
9.85948
 21
-0.736002
  0
LINE
  8
0
 10
9.85948
 20
-0.736002
 11
9.80948
 21
-0.851498
  0
LINE
  8
0
 10
9.80948
 20
-0.851498
 11
9.75251
 21
-0.963507
  0
LINE
  8
0
 10
9.75251
 20
-0.963507
 11
9.68856
 21
-1.07164
  0
LINE
  8
0
 10
9.68856
 20
-1.07164
 11
9.61802
 21
-1.17551
  0
LINE
  8
0
 10
9.61802
 20
-1.17551
 11
9.54089
 21
-1.27473
  0
LINE
  8
0
 10
9.54089
 20
-1.27473
 11
9.45756
 21
-1.36891
  0
LINE
  8
0
 10
9.45756
 20
-1.36891
 11
9.36881
 21
-1.45766
  0
LINE
  8
0
 10
9.36881
 20
-1.45766
 11
9.27463
 21
-1.54099
  0
LINE
  8
0
 10
9.27463
 20
-1.54099
 11
9.17541
 21
-1.61773
  0
LINE
  8
0
 10
9.17541
 20
-1.61773
 11
9.07154
 21
-1.68827
  0
LINE
  8
0
 10
9.07154
 20
-1.68827
 11
8.96341
 21
-1.75261
  0
LINE
  8
0
 10
8.96341
 20
-1.75261
 11
8.8514
 21
-1.80958
  0
LINE
  8
0
 10
8.8514
 20
-1.80958
 11
8.7359
 21
-1.85919
  0
LINE
  8
0
 10
8.7359
 20
-1.85919
 11
8.61769
 21
-1.90182
  0
LINE
  8
0
 10
8.61769
 20
-1.90182
 11
8.49716
 21
-1.93709
  0
LINE
  8
0
 10
8.49716
 20
-1.93709
 11
8.37468
 21
-1.96422
  0
LINE
  8
0
 10
8.37468
 20
-1.96422
 11
8.25066
 21
-1.98399
  0
LINE
  8
0
 10
8.25066
 20
-1.98399
 11
8.12547
 21
-1.996
  0
LINE
  8
0
 10
8.12547
 20
-1.996
 11
7.9999
 21
-1.99988
  0
LINE
  8
0
 10
7.9999
 20
-1.99988
 11
7.87433
 21
-1.996
  0
ENDSEC
  0
SECTION
  2
OBJECTS
  0
DICTIONARY
  0
ENDSEC
  0
EOF
