  0
SECTION
  2
BLOCKS
  0
ENDSEC
  0
SECTION
  2
ENTITIES
  0
LINE
  8
0
 10
-7
 20
0
 11
-6.98619
 21
-0.439533
  0
LINE
  8
0
 10
-6.98619
 20
-0.439533
 11
-6.9448
 21
-0.877332
  0
LINE
  8
0
 10
-6.9448
 20
-0.877332
 11
-6.87601
 21
-1.31167
  0
LINE
  8
0
 10
-6.87601
 20
-1.31167
 11
-6.78008
 21
-1.74083
  0
LINE
  8
0
 10
-6.78008
 20
-1.74083
 11
-6.6574
 21
-2.16312
  0
LINE
  8
0
 10
-6.6574
 20
-2.16312
 11
-6.50844
 21
-2.57687
  0
LINE
  8
0
 10
-6.50844
 20
-2.57687
 11
-6.33379
 21
-2.98045
  0
LINE
  8
0
 10
-6.33379
 20
-2.98045
 11
-6.13415
 21
-3.37228
  0
LINE
  8
0
 10
-6.13415
 20
-3.37228
 11
-5.91029
 21
-3.75079
  0
LINE
  8
0
 10
-5.91029
 20
-3.75079
 11
-5.66312
 21
-4.1145
  0
LINE
  8
0
 10
-5.66312
 20
-4.1145
 11
-5.39359
 21
-4.46197
  0
LINE
  8
0
 10
-5.39359
 20
-4.46197
 11
-5.10278
 21
-4.79183
  0
LINE
  8
0
 10
-5.10278
 20
-4.79183
 11
-4.79183
 21
-5.10278
  0
LINE
  8
0
 10
-4.79183
 20
-5.10278
 11
-4.46197
 21
-5.39359
  0
LINE
  8
0
 10
-4.46197
 20
-5.39359
 11
-4.1145
 21
-5.66312
  0
LINE
  8
0
 10
-4.1145
 20
-5.66312
 11
-3.75079
 21
-5.91029
  0
LINE
  8
0
 10
-3.75079
 20
-5.91029
 11
-3.37228
 21
-6.13415
  0
LINE
  8
0
 10
-3.37228
 20
-6.13415
 11
-2.98045
 21
-6.33379
  0
LINE
  8
0
 10
-2.98045
 20
-6.33379
 11
-2.57687
 21
-6.50844
  0
LINE
  8
0
 10
-2.57687
 20
-6.50844
 11
-2.16312
 21
-6.6574
  0
LINE
  8
0
 10
-2.16312
 20
-6.6574
 11
-1.74083
 21
-6.78008
  0
LINE
  8
0
 10
-1.74083
 20
-6.78008
 11
-1.31167
 21
-6.87601
  0
LINE
  8
0
 10
-1.31167
 20
-6.87601
 11
-0.877332
 21
-6.9448
  0
LINE
  8
0
 10
-0.877332
 20
-6.9448
 11
-0.439533
 21
-6.98619
  0
LINE
  8
0
 10
-0.439533
 20
-6.98619
 11
0
 21
-7
  0
LINE
  8
0
 10
0
 20
-7
 11
31
 21
-7
  0
LINE
  8
0
 10
31
 20
-7
 11
31.4395
 21
-6.98619
  0
LINE
  8
0
 10
31.4395
 20
-6.98619
 11
31.8773
 21
-6.9448
  0
LINE
  8
0
 10
31.8773
 20
-6.9448
 11
32.3117
 21
-6.87601
  0
LINE
  8
0
 10
32.3117
 20
-6.87601
 11
32.7408
 21
-6.78008
  0
LINE
  8
0
 10
32.7408
 20
-6.78008
 11
33.1631
 21
-6.6574
  0
LINE
  8
0
 10
33.1631
 20
-6.6574
 11
33.5769
 21
-6.50844
  0
LINE
  8
0
 10
33.5769
 20
-6.50844
 11
33.9805
 21
-6.33379
  0
LINE
  8
0
 10
33.9805
 20
-6.33379
 11
34.3723
 21
-6.13415
  0
LINE
  8
0
 10
34.3723
 20
-6.13415
 11
34.7508
 21
-5.91029
  0
LINE
  8
0
 10
34.7508
 20
-5.91029
 11
35.1145
 21
-5.66312
  0
LINE
  8
0
 10
35.1145
 20
-5.66312
 11
35.462
 21
-5.39359
  0
LINE
  8
0
 10
35.462
 20
-5.39359
 11
35.7918
 21
-5.10278
  0
LINE
  8
0
 10
35.7918
 20
-5.10278
 11
36.1028
 21
-4.79183
  0
LINE
  8
0
 10
36.1028
 20
-4.79183
 11
36.3936
 21
-4.46197
  0
LINE
  8
0
 10
36.3936
 20
-4.46197
 11
36.6631
 21
-4.1145
  0
LINE
  8
0
 10
36.6631
 20
-4.1145
 11
36.9103
 21
-3.75079
  0
LINE
  8
0
 10
36.9103
 20
-3.75079
 11
37.1341
 21
-3.37228
  0
LINE
  8
0
 10
37.1341
 20
-3.37228
 11
37.3338
 21
-2.98045
  0
LINE
  8
0
 10
37.3338
 20
-2.98045
 11
37.5084
 21
-2.57687
  0
LINE
  8
0
 10
37.5084
 20
-2.57687
 11
37.6574
 21
-2.16312
  0
LINE
  8
0
 10
37.6574
 20
-2.16312
 11
37.7801
 21
-1.74083
  0
LINE
  8
0
 10
37.7801
 20
-1.74083
 11
37.876
 21
-1.31167
  0
LINE
  8
0
 10
37.876
 20
-1.31167
 11
37.9448
 21
-0.877332
  0
LINE
  8
0
 10
37.9448
 20
-0.877332
 11
37.9862
 21
-0.439533
  0
LINE
  8
0
 10
37.9862
 20
-0.439533
 11
38
 21
0
  0
LINE
  8
0
 10
38
 20
0
 11
37.9862
 21
0.439533
  0
LINE
  8
0
 10
37.9862
 20
0.439533
 11
37.9448
 21
0.877332
  0
LINE
  8
0
 10
37.9448
 20
0.877332
 11
37.876
 21
1.31167
  0
LINE
  8
0
 10
37.876
 20
1.31167
 11
37.7801
 21
1.74083
  0
LINE
  8
0
 10
37.7801
 20
1.74083
 11
37.6574
 21
2.16312
  0
LINE
  8
0
 10
37.6574
 20
2.16312
 11
37.5084
 21
2.57687
  0
LINE
  8
0
 10
37.5084
 20
2.57687
 11
37.3338
 21
2.98045
  0
LINE
  8
0
 10
37.3338
 20
2.98045
 11
37.1341
 21
3.37228
  0
LINE
  8
0
 10
37.1341
 20
3.37228
 11
36.9103
 21
3.75079
  0
LINE
  8
0
 10
36.9103
 20
3.75079
 11
36.6631
 21
4.1145
  0
LINE
  8
0
 10
36.6631
 20
4.1145
 11
36.3936
 21
4.46197
  0
LINE
  8
0
 10
36.3936
 20
4.46197
 11
36.1028
 21
4.79183
  0
LINE
  8
0
 10
36.1028
 20
4.79183
 11
35.7918
 21
5.10278
  0
LINE
  8
0
 10
35.7918
 20
5.10278
 11
35.462
 21
5.39359
  0
LINE
  8
0
 10
35.462
 20
5.39359
 11
35.1145
 21
5.66312
  0
LINE
  8
0
 10
35.1145
 20
5.66312
 11
34.7508
 21
5.91029
  0
LINE
  8
0
 10
34.7508
 20
5.91029
 11
34.3723
 21
6.13415
  0
LINE
  8
0
 10
34.3723
 20
6.13415
 11
33.9805
 21
6.33379
  0
LINE
  8
0
 10
33.9805
 20
6.33379
 11
33.5769
 21
6.50844
  0
LINE
  8
0
 10
33.5769
 20
6.50844
 11
33.1631
 21
6.6574
  0
LINE
  8
0
 10
33.1631
 20
6.6574
 11
32.7408
 21
6.78008
  0
LINE
  8
0
 10
32.7408
 20
6.78008
 11
32.3117
 21
6.87601
  0
LINE
  8
0
 10
32.3117
 20
6.87601
 11
31.8773
 21
6.9448
  0
LINE
  8
0
 10
31.8773
 20
6.9448
 11
31.4395
 21
6.98619
  0
LINE
  8
0
 10
31.4395
 20
6.98619
 11
31
 21
7
  0
LINE
  8
0
 10
31
 20
7
 11
7
 21
7
  0
LINE
  8
0
 10
7
 20
7
 11
7
 21
51.5
  0
LINE
  8
0
 10
7
 20
51.5
 11
6.98619
 21
51.9395
  0
LINE
  8
0
 10
6.98619
 20
51.9395
 11
6.9448
 21
52.3773
  0
LINE
  8
0
 10
6.9448
 20
52.3773
 11
6.87601
 21
52.8117
  0
LINE
  8
0
 10
6.87601
 20
52.8117
 11
6.78008
 21
53.2408
  0
LINE
  8
0
 10
6.78008
 20
53.2408
 11
6.6574
 21
53.6631
  0
LINE
  8
0
 10
6.6574
 20
53.6631
 11
6.50844
 21
54.0769
  0
LINE
  8
0
 10
6.50844
 20
54.0769
 11
6.33379
 21
54.4805
  0
LINE
  8
0
 10
6.33379
 20
54.4805
 11
6.13415
 21
54.8723
  0
LINE
  8
0
 10
6.13415
 20
54.8723
 11
5.91029
 21
55.2508
  0
LINE
  8
0
 10
5.91029
 20
55.2508
 11
5.66312
 21
55.6145
  0
LINE
  8
0
 10
5.66312
 20
55.6145
 11
5.39359
 21
55.962
  0
LINE
  8
0
 10
5.39359
 20
55.962
 11
5.10278
 21
56.2918
  0
LINE
  8
0
 10
5.10278
 20
56.2918
 11
4.79183
 21
56.6028
  0
LINE
  8
0
 10
4.79183
 20
56.6028
 11
4.46197
 21
56.8936
  0
LINE
  8
0
 10
4.46197
 20
56.8936
 11
4.1145
 21
57.1631
  0
LINE
  8
0
 10
4.1145
 20
57.1631
 11
3.75079
 21
57.4103
  0
LINE
  8
0
 10
3.75079
 20
57.4103
 11
3.37228
 21
57.6341
  0
LINE
  8
0
 10
3.37228
 20
57.6341
 11
2.98045
 21
57.8338
  0
LINE
  8
0
 10
2.98045
 20
57.8338
 11
2.57687
 21
58.0084
  0
LINE
  8
0
 10
2.57687
 20
58.0084
 11
2.16312
 21
58.1574
  0
LINE
  8
0
 10
2.16312
 20
58.1574
 11
1.74083
 21
58.2801
  0
LINE
  8
0
 10
1.74083
 20
58.2801
 11
1.31167
 21
58.376
  0
LINE
  8
0
 10
1.31167
 20
58.376
 11
0.877332
 21
58.4448
  0
LINE
  8
0
 10
0.877332
 20
58.4448
 11
0.439533
 21
58.4862
  0
LINE
  8
0
 10
0.439533
 20
58.4862
 11
0
 21
58.5
  0
LINE
  8
0
 10
0
 20
58.5
 11
-0.439533
 21
58.4862
  0
LINE
  8
0
 10
-0.439533
 20
58.4862
 11
-0.877332
 21
58.4448
  0
LINE
  8
0
 10
-0.877332
 20
58.4448
 11
-1.31167
 21
58.376
  0
LINE
  8
0
 10
-1.31167
 20
58.376
 11
-1.74083
 21
58.2801
  0
LINE
  8
0
 10
-1.74083
 20
58.2801
 11
-2.16312
 21
58.1574
  0
LINE
  8
0
 10
-2.16312
 20
58.1574
 11
-2.57687
 21
58.0084
  0
LINE
  8
0
 10
-2.57687
 20
58.0084
 11
-2.98045
 21
57.8338
  0
LINE
  8
0
 10
-2.98045
 20
57.8338
 11
-3.37228
 21
57.6341
  0
LINE
  8
0
 10
-3.37228
 20
57.6341
 11
-3.75079
 21
57.4103
  0
LINE
  8
0
 10
-3.75079
 20
57.4103
 11
-4.1145
 21
57.1631
  0
LINE
  8
0
 10
-4.1145
 20
57.1631
 11
-4.46197
 21
56.8936
  0
LINE
  8
0
 10
-4.46197
 20
56.8936
 11
-4.79183
 21
56.6028
  0
LINE
  8
0
 10
-4.79183
 20
56.6028
 11
-5.10278
 21
56.2918
  0
LINE
  8
0
 10
-5.10278
 20
56.2918
 11
-5.39359
 21
55.962
  0
LINE
  8
0
 10
-5.39359
 20
55.962
 11
-5.66312
 21
55.6145
  0
LINE
  8
0
 10
-5.66312
 20
55.6145
 11
-5.91029
 21
55.2508
  0
LINE
  8
0
 10
-5.91029
 20
55.2508
 11
-6.13415
 21
54.8723
  0
LINE
  8
0
 10
-6.13415
 20
54.8723
 11
-6.33379
 21
54.4805
  0
LINE
  8
0
 10
-6.33379
 20
54.4805
 11
-6.50844
 21
54.0769
  0
LINE
  8
0
 10
-6.50844
 20
54.0769
 11
-6.6574
 21
53.6631
  0
LINE
  8
0
 10
-6.6574
 20
53.6631
 11
-6.78008
 21
53.2408
  0
LINE
  8
0
 10
-6.78008
 20
53.2408
 11
-6.87601
 21
52.8117
  0
LINE
  8
0
 10
-6.87601
 20
52.8117
 11
-6.9448
 21
52.3773
  0
LINE
  8
0
 10
-6.9448
 20
52.3773
 11
-6.98619
 21
51.9395
  0
LINE
  8
0
 10
-6.98619
 20
51.9395
 11
-7
 21
51.5
  0
LINE
  8
0
 10
-7
 20
51.5
 11
-7
 21
0
  0
LINE
  8
0
 10
-2.15
 20
0
 11
-2.14576
 21
0.134999
  0
LINE
  8
0
 10
-2.14576
 20
0.134999
 11
-2.13305
 21
0.269466
  0
LINE
  8
0
 10
-2.13305
 20
0.269466
 11
-2.11192
 21
0.402869
  0
LINE
  8
0
 10
-2.11192
 20
0.402869
 11
-2.08245
 21
0.534683
  0
LINE
  8
0
 10
-2.08245
 20
0.534683
 11
-2.04477
 21
0.664386
  0
LINE
  8
0
 10
-2.04477
 20
0.664386
 11
-1.99902
 21
0.791468
  0
LINE
  8
0
 10
-1.99902
 20
0.791468
 11
-1.94538
 21
0.915425
  0
LINE
  8
0
 10
-1.94538
 20
0.915425
 11
-1.88406
 21
1.03577
  0
LINE
  8
0
 10
-1.88406
 20
1.03577
 11
-1.8153
 21
1.15203
  0
LINE
  8
0
 10
-1.8153
 20
1.15203
 11
-1.73939
 21
1.26374
  0
LINE
  8
0
 10
-1.73939
 20
1.26374
 11
-1.6566
 21
1.37046
  0
LINE
  8
0
 10
-1.6566
 20
1.37046
 11
-1.56728
 21
1.47178
  0
LINE
  8
0
 10
-1.56728
 20
1.47178
 11
-1.47178
 21
1.56728
  0
LINE
  8
0
 10
-1.47178
 20
1.56728
 11
-1.37046
 21
1.6566
  0
LINE
  8
0
 10
-1.37046
 20
1.6566
 11
-1.26374
 21
1.73939
  0
LINE
  8
0
 10
-1.26374
 20
1.73939
 11
-1.15203
 21
1.8153
  0
LINE
  8
0
 10
-1.15203
 20
1.8153
 11
-1.03577
 21
1.88406
  0
LINE
  8
0
 10
-1.03577
 20
1.88406
 11
-0.915425
 21
1.94538
  0
LINE
  8
0
 10
-0.915425
 20
1.94538
 11
-0.791468
 21
1.99902
  0
LINE
  8
0
 10
-0.791468
 20
1.99902
 11
-0.664386
 21
2.04477
  0
LINE
  8
0
 10
-0.664386
 20
2.04477
 11
-0.534683
 21
2.08245
  0
LINE
  8
0
 10
-0.534683
 20
2.08245
 11
-0.402869
 21
2.11192
  0
LINE
  8
0
 10
-0.402869
 20
2.11192
 11
-0.269466
 21
2.13305
  0
LINE
  8
0
 10
-0.269466
 20
2.13305
 11
-0.134999
 21
2.14576
  0
LINE
  8
0
 10
-0.134999
 20
2.14576
 11
0
 21
2.15
  0
LINE
  8
0
 10
0
 20
2.15
 11
0.134999
 21
2.14576
  0
LINE
  8
0
 10
0.134999
 20
2.14576
 11
0.269466
 21
2.13305
  0
LINE
  8
0
 10
0.269466
 20
2.13305
 11
0.402869
 21
2.11192
  0
LINE
  8
0
 10
0.402869
 20
2.11192
 11
0.534683
 21
2.08245
  0
LINE
  8
0
 10
0.534683
 20
2.08245
 11
0.664386
 21
2.04477
  0
LINE
  8
0
 10
0.664386
 20
2.04477
 11
0.791468
 21
1.99902
  0
LINE
  8
0
 10
0.791468
 20
1.99902
 11
0.915425
 21
1.94538
  0
LINE
  8
0
 10
0.915425
 20
1.94538
 11
1.03577
 21
1.88406
  0
LINE
  8
0
 10
1.03577
 20
1.88406
 11
1.15203
 21
1.8153
  0
LINE
  8
0
 10
1.15203
 20
1.8153
 11
1.26374
 21
1.73939
  0
LINE
  8
0
 10
1.26374
 20
1.73939
 11
1.37046
 21
1.6566
  0
LINE
  8
0
 10
1.37046
 20
1.6566
 11
1.47178
 21
1.56728
  0
LINE
  8
0
 10
1.47178
 20
1.56728
 11
1.56728
 21
1.47178
  0
LINE
  8
0
 10
1.56728
 20
1.47178
 11
1.6566
 21
1.37046
  0
LINE
  8
0
 10
1.6566
 20
1.37046
 11
1.73939
 21
1.26374
  0
LINE
  8
0
 10
1.73939
 20
1.26374
 11
1.8153
 21
1.15203
  0
LINE
  8
0
 10
1.8153
 20
1.15203
 11
1.88406
 21
1.03577
  0
LINE
  8
0
 10
1.88406
 20
1.03577
 11
1.94538
 21
0.915425
  0
LINE
  8
0
 10
1.94538
 20
0.915425
 11
1.99902
 21
0.791468
  0
LINE
  8
0
 10
1.99902
 20
0.791468
 11
2.04477
 21
0.664386
  0
LINE
  8
0
 10
2.04477
 20
0.664386
 11
2.08245
 21
0.534683
  0
LINE
  8
0
 10
2.08245
 20
0.534683
 11
2.11192
 21
0.402869
  0
LINE
  8
0
 10
2.11192
 20
0.402869
 11
2.13305
 21
0.269466
  0
LINE
  8
0
 10
2.13305
 20
0.269466
 11
2.14576
 21
0.134999
  0
LINE
  8
0
 10
2.14576
 20
0.134999
 11
2.15
 21
0
  0
LINE
  8
0
 10
2.15
 20
0
 11
2.14576
 21
-0.134999
  0
LINE
  8
0
 10
2.14576
 20
-0.134999
 11
2.13305
 21
-0.269466
  0
LINE
  8
0
 10
2.13305
 20
-0.269466
 11
2.11192
 21
-0.402869
  0
LINE
  8
0
 10
2.11192
 20
-0.402869
 11
2.08245
 21
-0.534683
  0
LINE
  8
0
 10
2.08245
 20
-0.534683
 11
2.04477
 21
-0.664386
  0
LINE
  8
0
 10
2.04477
 20
-0.664386
 11
1.99902
 21
-0.791468
  0
LINE
  8
0
 10
1.99902
 20
-0.791468
 11
1.94538
 21
-0.915425
  0
LINE
  8
0
 10
1.94538
 20
-0.915425
 11
1.88406
 21
-1.03577
  0
LINE
  8
0
 10
1.88406
 20
-1.03577
 11
1.8153
 21
-1.15203
  0
LINE
  8
0
 10
1.8153
 20
-1.15203
 11
1.73939
 21
-1.26374
  0
LINE
  8
0
 10
1.73939
 20
-1.26374
 11
1.6566
 21
-1.37046
  0
LINE
  8
0
 10
1.6566
 20
-1.37046
 11
1.56728
 21
-1.47178
  0
LINE
  8
0
 10
1.56728
 20
-1.47178
 11
1.47178
 21
-1.56728
  0
LINE
  8
0
 10
1.47178
 20
-1.56728
 11
1.37046
 21
-1.6566
  0
LINE
  8
0
 10
1.37046
 20
-1.6566
 11
1.26374
 21
-1.73939
  0
LINE
  8
0
 10
1.26374
 20
-1.73939
 11
1.15203
 21
-1.8153
  0
LINE
  8
0
 10
1.15203
 20
-1.8153
 11
1.03577
 21
-1.88406
  0
LINE
  8
0
 10
1.03577
 20
-1.88406
 11
0.915425
 21
-1.94538
  0
LINE
  8
0
 10
0.915425
 20
-1.94538
 11
0.791468
 21
-1.99902
  0
LINE
  8
0
 10
0.791468
 20
-1.99902
 11
0.664386
 21
-2.04477
  0
LINE
  8
0
 10
0.664386
 20
-2.04477
 11
0.534683
 21
-2.08245
  0
LINE
  8
0
 10
0.534683
 20
-2.08245
 11
0.402869
 21
-2.11192
  0
LINE
  8
0
 10
0.402869
 20
-2.11192
 11
0.269466
 21
-2.13305
  0
LINE
  8
0
 10
0.269466
 20
-2.13305
 11
0.134999
 21
-2.14576
  0
LINE
  8
0
 10
0.134999
 20
-2.14576
 11
0
 21
-2.15
  0
LINE
  8
0
 10
0
 20
-2.15
 11
-0.134999
 21
-2.14576
  0
LINE
  8
0
 10
-0.134999
 20
-2.14576
 11
-0.269466
 21
-2.13305
  0
LINE
  8
0
 10
-0.269466
 20
-2.13305
 11
-0.402869
 21
-2.11192
  0
LINE
  8
0
 10
-0.402869
 20
-2.11192
 11
-0.534683
 21
-2.08245
  0
LINE
  8
0
 10
-0.534683
 20
-2.08245
 11
-0.664386
 21
-2.04477
  0
LINE
  8
0
 10
-0.664386
 20
-2.04477
 11
-0.791468
 21
-1.99902
  0
LINE
  8
0
 10
-0.791468
 20
-1.99902
 11
-0.915425
 21
-1.94538
  0
LINE
  8
0
 10
-0.915425
 20
-1.94538
 11
-1.03577
 21
-1.88406
  0
LINE
  8
0
 10
-1.03577
 20
-1.88406
 11
-1.15203
 21
-1.8153
  0
LINE
  8
0
 10
-1.15203
 20
-1.8153
 11
-1.26374
 21
-1.73939
  0
LINE
  8
0
 10
-1.26374
 20
-1.73939
 11
-1.37046
 21
-1.6566
  0
LINE
  8
0
 10
-1.37046
 20
-1.6566
 11
-1.47178
 21
-1.56728
  0
LINE
  8
0
 10
-1.47178
 20
-1.56728
 11
-1.56728
 21
-1.47178
  0
LINE
  8
0
 10
-1.56728
 20
-1.47178
 11
-1.6566
 21
-1.37046
  0
LINE
  8
0
 10
-1.6566
 20
-1.37046
 11
-1.73939
 21
-1.26374
  0
LINE
  8
0
 10
-1.73939
 20
-1.26374
 11
-1.8153
 21
-1.15203
  0
LINE
  8
0
 10
-1.8153
 20
-1.15203
 11
-1.88406
 21
-1.03577
  0
LINE
  8
0
 10
-1.88406
 20
-1.03577
 11
-1.94538
 21
-0.915425
  0
LINE
  8
0
 10
-1.94538
 20
-0.915425
 11
-1.99902
 21
-0.791468
  0
LINE
  8
0
 10
-1.99902
 20
-0.791468
 11
-2.04477
 21
-0.664386
  0
LINE
  8
0
 10
-2.04477
 20
-0.664386
 11
-2.08245
 21
-0.534683
  0
LINE
  8
0
 10
-2.08245
 20
-0.534683
 11
-2.11192
 21
-0.402869
  0
LINE
  8
0
 10
-2.11192
 20
-0.402869
 11
-2.13305
 21
-0.269466
  0
LINE
  8
0
 10
-2.13305
 20
-0.269466
 11
-2.14576
 21
-0.134999
  0
LINE
  8
0
 10
-2.14576
 20
-0.134999
 11
-2.15
 21
0
  0
LINE
  8
0
 10
-2.15
 20
51.5
 11
-2.14576
 21
51.635
  0
LINE
  8
0
 10
-2.14576
 20
51.635
 11
-2.13305
 21
51.7695
  0
LINE
  8
0
 10
-2.13305
 20
51.7695
 11
-2.11192
 21
51.9029
  0
LINE
  8
0
 10
-2.11192
 20
51.9029
 11
-2.08245
 21
52.0347
  0
LINE
  8
0
 10
-2.08245
 20
52.0347
 11
-2.04477
 21
52.1644
  0
LINE
  8
0
 10
-2.04477
 20
52.1644
 11
-1.99902
 21
52.2915
  0
LINE
  8
0
 10
-1.99902
 20
52.2915
 11
-1.94538
 21
52.4154
  0
LINE
  8
0
 10
-1.94538
 20
52.4154
 11
-1.88406
 21
52.5358
  0
LINE
  8
0
 10
-1.88406
 20
52.5358
 11
-1.8153
 21
52.652
  0
LINE
  8
0
 10
-1.8153
 20
52.652
 11
-1.73939
 21
52.7637
  0
LINE
  8
0
 10
-1.73939
 20
52.7637
 11
-1.6566
 21
52.8705
  0
LINE
  8
0
 10
-1.6566
 20
52.8705
 11
-1.56728
 21
52.9718
  0
LINE
  8
0
 10
-1.56728
 20
52.9718
 11
-1.47178
 21
53.0673
  0
LINE
  8
0
 10
-1.47178
 20
53.0673
 11
-1.37046
 21
53.1566
  0
LINE
  8
0
 10
-1.37046
 20
53.1566
 11
-1.26374
 21
53.2394
  0
LINE
  8
0
 10
-1.26374
 20
53.2394
 11
-1.15203
 21
53.3153
  0
LINE
  8
0
 10
-1.15203
 20
53.3153
 11
-1.03577
 21
53.3841
  0
LINE
  8
0
 10
-1.03577
 20
53.3841
 11
-0.915425
 21
53.4454
  0
LINE
  8
0
 10
-0.915425
 20
53.4454
 11
-0.791468
 21
53.499
  0
LINE
  8
0
 10
-0.791468
 20
53.499
 11
-0.664386
 21
53.5448
  0
LINE
  8
0
 10
-0.664386
 20
53.5448
 11
-0.534683
 21
53.5825
  0
LINE
  8
0
 10
-0.534683
 20
53.5825
 11
-0.402869
 21
53.6119
  0
LINE
  8
0
 10
-0.402869
 20
53.6119
 11
-0.269466
 21
53.633
  0
LINE
  8
0
 10
-0.269466
 20
53.633
 11
-0.134999
 21
53.6458
  0
LINE
  8
0
 10
-0.134999
 20
53.6458
 11
0
 21
53.65
  0
LINE
  8
0
 10
0
 20
53.65
 11
0.134999
 21
53.6458
  0
LINE
  8
0
 10
0.134999
 20
53.6458
 11
0.269466
 21
53.633
  0
LINE
  8
0
 10
0.269466
 20
53.633
 11
0.402869
 21
53.6119
  0
LINE
  8
0
 10
0.402869
 20
53.6119
 11
0.534683
 21
53.5825
  0
LINE
  8
0
 10
0.534683
 20
53.5825
 11
0.664386
 21
53.5448
  0
LINE
  8
0
 10
0.664386
 20
53.5448
 11
0.791468
 21
53.499
  0
LINE
  8
0
 10
0.791468
 20
53.499
 11
0.915425
 21
53.4454
  0
LINE
  8
0
 10
0.915425
 20
53.4454
 11
1.03577
 21
53.3841
  0
LINE
  8
0
 10
1.03577
 20
53.3841
 11
1.15203
 21
53.3153
  0
LINE
  8
0
 10
1.15203
 20
53.3153
 11
1.26374
 21
53.2394
  0
LINE
  8
0
 10
1.26374
 20
53.2394
 11
1.37046
 21
53.1566
  0
LINE
  8
0
 10
1.37046
 20
53.1566
 11
1.47178
 21
53.0673
  0
LINE
  8
0
 10
1.47178
 20
53.0673
 11
1.56728
 21
52.9718
  0
LINE
  8
0
 10
1.56728
 20
52.9718
 11
1.6566
 21
52.8705
  0
LINE
  8
0
 10
1.6566
 20
52.8705
 11
1.73939
 21
52.7637
  0
LINE
  8
0
 10
1.73939
 20
52.7637
 11
1.8153
 21
52.652
  0
LINE
  8
0
 10
1.8153
 20
52.652
 11
1.88406
 21
52.5358
  0
LINE
  8
0
 10
1.88406
 20
52.5358
 11
1.94538
 21
52.4154
  0
LINE
  8
0
 10
1.94538
 20
52.4154
 11
1.99902
 21
52.2915
  0
LINE
  8
0
 10
1.99902
 20
52.2915
 11
2.04477
 21
52.1644
  0
LINE
  8
0
 10
2.04477
 20
52.1644
 11
2.08245
 21
52.0347
  0
LINE
  8
0
 10
2.08245
 20
52.0347
 11
2.11192
 21
51.9029
  0
LINE
  8
0
 10
2.11192
 20
51.9029
 11
2.13305
 21
51.7695
  0
LINE
  8
0
 10
2.13305
 20
51.7695
 11
2.14576
 21
51.635
  0
LINE
  8
0
 10
2.14576
 20
51.635
 11
2.15
 21
51.5
  0
LINE
  8
0
 10
2.15
 20
51.5
 11
2.14576
 21
51.365
  0
LINE
  8
0
 10
2.14576
 20
51.365
 11
2.13305
 21
51.2305
  0
LINE
  8
0
 10
2.13305
 20
51.2305
 11
2.11192
 21
51.0971
  0
LINE
  8
0
 10
2.11192
 20
51.0971
 11
2.08245
 21
50.9653
  0
LINE
  8
0
 10
2.08245
 20
50.9653
 11
2.04477
 21
50.8356
  0
LINE
  8
0
 10
2.04477
 20
50.8356
 11
1.99902
 21
50.7085
  0
LINE
  8
0
 10
1.99902
 20
50.7085
 11
1.94538
 21
50.5846
  0
LINE
  8
0
 10
1.94538
 20
50.5846
 11
1.88406
 21
50.4642
  0
LINE
  8
0
 10
1.88406
 20
50.4642
 11
1.8153
 21
50.348
  0
LINE
  8
0
 10
1.8153
 20
50.348
 11
1.73939
 21
50.2363
  0
LINE
  8
0
 10
1.73939
 20
50.2363
 11
1.6566
 21
50.1295
  0
LINE
  8
0
 10
1.6566
 20
50.1295
 11
1.56728
 21
50.0282
  0
LINE
  8
0
 10
1.56728
 20
50.0282
 11
1.47178
 21
49.9327
  0
LINE
  8
0
 10
1.47178
 20
49.9327
 11
1.37046
 21
49.8434
  0
LINE
  8
0
 10
1.37046
 20
49.8434
 11
1.26374
 21
49.7606
  0
LINE
  8
0
 10
1.26374
 20
49.7606
 11
1.15203
 21
49.6847
  0
LINE
  8
0
 10
1.15203
 20
49.6847
 11
1.03577
 21
49.6159
  0
LINE
  8
0
 10
1.03577
 20
49.6159
 11
0.915425
 21
49.5546
  0
LINE
  8
0
 10
0.915425
 20
49.5546
 11
0.791468
 21
49.501
  0
LINE
  8
0
 10
0.791468
 20
49.501
 11
0.664386
 21
49.4552
  0
LINE
  8
0
 10
0.664386
 20
49.4552
 11
0.534683
 21
49.4175
  0
LINE
  8
0
 10
0.534683
 20
49.4175
 11
0.402869
 21
49.3881
  0
LINE
  8
0
 10
0.402869
 20
49.3881
 11
0.269466
 21
49.367
  0
LINE
  8
0
 10
0.269466
 20
49.367
 11
0.134999
 21
49.3542
  0
LINE
  8
0
 10
0.134999
 20
49.3542
 11
0
 21
49.35
  0
LINE
  8
0
 10
0
 20
49.35
 11
-0.134999
 21
49.3542
  0
LINE
  8
0
 10
-0.134999
 20
49.3542
 11
-0.269466
 21
49.367
  0
LINE
  8
0
 10
-0.269466
 20
49.367
 11
-0.402869
 21
49.3881
  0
LINE
  8
0
 10
-0.402869
 20
49.3881
 11
-0.534683
 21
49.4175
  0
LINE
  8
0
 10
-0.534683
 20
49.4175
 11
-0.664386
 21
49.4552
  0
LINE
  8
0
 10
-0.664386
 20
49.4552
 11
-0.791468
 21
49.501
  0
LINE
  8
0
 10
-0.791468
 20
49.501
 11
-0.915425
 21
49.5546
  0
LINE
  8
0
 10
-0.915425
 20
49.5546
 11
-1.03577
 21
49.6159
  0
LINE
  8
0
 10
-1.03577
 20
49.6159
 11
-1.15203
 21
49.6847
  0
LINE
  8
0
 10
-1.15203
 20
49.6847
 11
-1.26374
 21
49.7606
  0
LINE
  8
0
 10
-1.26374
 20
49.7606
 11
-1.37046
 21
49.8434
  0
LINE
  8
0
 10
-1.37046
 20
49.8434
 11
-1.47178
 21
49.9327
  0
LINE
  8
0
 10
-1.47178
 20
49.9327
 11
-1.56728
 21
50.0282
  0
LINE
  8
0
 10
-1.56728
 20
50.0282
 11
-1.6566
 21
50.1295
  0
LINE
  8
0
 10
-1.6566
 20
50.1295
 11
-1.73939
 21
50.2363
  0
LINE
  8
0
 10
-1.73939
 20
50.2363
 11
-1.8153
 21
50.348
  0
LINE
  8
0
 10
-1.8153
 20
50.348
 11
-1.88406
 21
50.4642
  0
LINE
  8
0
 10
-1.88406
 20
50.4642
 11
-1.94538
 21
50.5846
  0
LINE
  8
0
 10
-1.94538
 20
50.5846
 11
-1.99902
 21
50.7085
  0
LINE
  8
0
 10
-1.99902
 20
50.7085
 11
-2.04477
 21
50.8356
  0
LINE
  8
0
 10
-2.04477
 20
50.8356
 11
-2.08245
 21
50.9653
  0
LINE
  8
0
 10
-2.08245
 20
50.9653
 11
-2.11192
 21
51.0971
  0
LINE
  8
0
 10
-2.11192
 20
51.0971
 11
-2.13305
 21
51.2305
  0
LINE
  8
0
 10
-2.13305
 20
51.2305
 11
-2.14576
 21
51.365
  0
LINE
  8
0
 10
-2.14576
 20
51.365
 11
-2.15
 21
51.5
  0
LINE
  8
0
 10
13.4
 20
0
 11
13.4032
 21
0.100465
  0
LINE
  8
0
 10
13.4032
 20
0.100465
 11
13.4126
 21
0.200533
  0
LINE
  8
0
 10
13.4126
 20
0.200533
 11
13.4283
 21
0.299809
  0
LINE
  8
0
 10
13.4283
 20
0.299809
 11
13.4503
 21
0.397903
  0
LINE
  8
0
 10
13.4503
 20
0.397903
 11
13.4783
 21
0.494427
  0
LINE
  8
0
 10
13.4783
 20
0.494427
 11
13.5124
 21
0.588999
  0
LINE
  8
0
 10
13.5124
 20
0.588999
 11
13.5523
 21
0.681247
  0
LINE
  8
0
 10
13.5523
 20
0.681247
 11
13.5979
 21
0.770805
  0
LINE
  8
0
 10
13.5979
 20
0.770805
 11
13.6491
 21
0.857323
  0
LINE
  8
0
 10
13.6491
 20
0.857323
 11
13.7056
 21
0.940456
  0
LINE
  8
0
 10
13.7056
 20
0.940456
 11
13.7672
 21
1.01988
  0
LINE
  8
0
 10
13.7672
 20
1.01988
 11
13.8336
 21
1.09527
  0
LINE
  8
0
 10
13.8336
 20
1.09527
 11
13.9047
 21
1.16635
  0
LINE
  8
0
 10
13.9047
 20
1.16635
 11
13.9801
 21
1.23282
  0
LINE
  8
0
 10
13.9801
 20
1.23282
 11
14.0595
 21
1.29443
  0
LINE
  8
0
 10
14.0595
 20
1.29443
 11
14.1427
 21
1.35092
  0
LINE
  8
0
 10
14.1427
 20
1.35092
 11
14.2292
 21
1.40209
  0
LINE
  8
0
 10
14.2292
 20
1.40209
 11
14.3188
 21
1.44772
  0
LINE
  8
0
 10
14.3188
 20
1.44772
 11
14.411
 21
1.48764
  0
LINE
  8
0
 10
14.411
 20
1.48764
 11
14.5056
 21
1.52169
  0
LINE
  8
0
 10
14.5056
 20
1.52169
 11
14.6021
 21
1.54973
  0
LINE
  8
0
 10
14.6021
 20
1.54973
 11
14.7002
 21
1.57166
  0
LINE
  8
0
 10
14.7002
 20
1.57166
 11
14.7995
 21
1.58738
  0
LINE
  8
0
 10
14.7995
 20
1.58738
 11
14.8995
 21
1.59684
  0
LINE
  8
0
 10
14.8995
 20
1.59684
 11
15
 21
1.6
  0
LINE
  8
0
 10
15
 20
1.6
 11
15.1005
 21
1.59684
  0
LINE
  8
0
 10
15.1005
 20
1.59684
 11
15.2005
 21
1.58738
  0
LINE
  8
0
 10
15.2005
 20
1.58738
 11
15.2998
 21
1.57166
  0
LINE
  8
0
 10
15.2998
 20
1.57166
 11
15.3979
 21
1.54973
  0
LINE
  8
0
 10
15.3979
 20
1.54973
 11
15.4944
 21
1.52169
  0
LINE
  8
0
 10
15.4944
 20
1.52169
 11
15.589
 21
1.48764
  0
LINE
  8
0
 10
15.589
 20
1.48764
 11
15.6812
 21
1.44772
  0
LINE
  8
0
 10
15.6812
 20
1.44772
 11
15.7708
 21
1.40209
  0
LINE
  8
0
 10
15.7708
 20
1.40209
 11
15.8573
 21
1.35092
  0
LINE
  8
0
 10
15.8573
 20
1.35092
 11
15.9405
 21
1.29443
  0
LINE
  8
0
 10
15.9405
 20
1.29443
 11
16.0199
 21
1.23282
  0
LINE
  8
0
 10
16.0199
 20
1.23282
 11
16.0953
 21
1.16635
  0
LINE
  8
0
 10
16.0953
 20
1.16635
 11
16.1663
 21
1.09527
  0
LINE
  8
0
 10
16.1663
 20
1.09527
 11
16.2328
 21
1.01988
  0
LINE
  8
0
 10
16.2328
 20
1.01988
 11
16.2944
 21
0.940456
  0
LINE
  8
0
 10
16.2944
 20
0.940456
 11
16.3509
 21
0.857323
  0
LINE
  8
0
 10
16.3509
 20
0.857323
 11
16.4021
 21
0.770805
  0
LINE
  8
0
 10
16.4021
 20
0.770805
 11
16.4477
 21
0.681247
  0
LINE
  8
0
 10
16.4477
 20
0.681247
 11
16.4876
 21
0.588999
  0
LINE
  8
0
 10
16.4876
 20
0.588999
 11
16.5217
 21
0.494427
  0
LINE
  8
0
 10
16.5217
 20
0.494427
 11
16.5497
 21
0.397903
  0
LINE
  8
0
 10
16.5497
 20
0.397903
 11
16.5717
 21
0.299809
  0
LINE
  8
0
 10
16.5717
 20
0.299809
 11
16.5874
 21
0.200533
  0
LINE
  8
0
 10
16.5874
 20
0.200533
 11
16.5968
 21
0.100465
  0
LINE
  8
0
 10
16.5968
 20
0.100465
 11
16.6
 21
0
  0
LINE
  8
0
 10
16.6
 20
0
 11
16.5968
 21
-0.100465
  0
LINE
  8
0
 10
16.5968
 20
-0.100465
 11
16.5874
 21
-0.200533
  0
LINE
  8
0
 10
16.5874
 20
-0.200533
 11
16.5717
 21
-0.299809
  0
LINE
  8
0
 10
16.5717
 20
-0.299809
 11
16.5497
 21
-0.397903
  0
LINE
  8
0
 10
16.5497
 20
-0.397903
 11
16.5217
 21
-0.494427
  0
LINE
  8
0
 10
16.5217
 20
-0.494427
 11
16.4876
 21
-0.588999
  0
LINE
  8
0
 10
16.4876
 20
-0.588999
 11
16.4477
 21
-0.681247
  0
LINE
  8
0
 10
16.4477
 20
-0.681247
 11
16.4021
 21
-0.770805
  0
LINE
  8
0
 10
16.4021
 20
-0.770805
 11
16.3509
 21
-0.857323
  0
LINE
  8
0
 10
16.3509
 20
-0.857323
 11
16.2944
 21
-0.940456
  0
LINE
  8
0
 10
16.2944
 20
-0.940456
 11
16.2328
 21
-1.01988
  0
LINE
  8
0
 10
16.2328
 20
-1.01988
 11
16.1663
 21
-1.09527
  0
LINE
  8
0
 10
16.1663
 20
-1.09527
 11
16.0953
 21
-1.16635
  0
LINE
  8
0
 10
16.0953
 20
-1.16635
 11
16.0199
 21
-1.23282
  0
LINE
  8
0
 10
16.0199
 20
-1.23282
 11
15.9405
 21
-1.29443
  0
LINE
  8
0
 10
15.9405
 20
-1.29443
 11
15.8573
 21
-1.35092
  0
LINE
  8
0
 10
15.8573
 20
-1.35092
 11
15.7708
 21
-1.40209
  0
LINE
  8
0
 10
15.7708
 20
-1.40209
 11
15.6812
 21
-1.44772
  0
LINE
  8
0
 10
15.6812
 20
-1.44772
 11
15.589
 21
-1.48764
  0
LINE
  8
0
 10
15.589
 20
-1.48764
 11
15.4944
 21
-1.52169
  0
LINE
  8
0
 10
15.4944
 20
-1.52169
 11
15.3979
 21
-1.54973
  0
LINE
  8
0
 10
15.3979
 20
-1.54973
 11
15.2998
 21
-1.57166
  0
LINE
  8
0
 10
15.2998
 20
-1.57166
 11
15.2005
 21
-1.58738
  0
LINE
  8
0
 10
15.2005
 20
-1.58738
 11
15.1005
 21
-1.59684
  0
LINE
  8
0
 10
15.1005
 20
-1.59684
 11
15
 21
-1.6
  0
LINE
  8
0
 10
15
 20
-1.6
 11
14.8995
 21
-1.59684
  0
LINE
  8
0
 10
14.8995
 20
-1.59684
 11
14.7995
 21
-1.58738
  0
LINE
  8
0
 10
14.7995
 20
-1.58738
 11
14.7002
 21
-1.57166
  0
LINE
  8
0
 10
14.7002
 20
-1.57166
 11
14.6021
 21
-1.54973
  0
LINE
  8
0
 10
14.6021
 20
-1.54973
 11
14.5056
 21
-1.52169
  0
LINE
  8
0
 10
14.5056
 20
-1.52169
 11
14.411
 21
-1.48764
  0
LINE
  8
0
 10
14.411
 20
-1.48764
 11
14.3188
 21
-1.44772
  0
LINE
  8
0
 10
14.3188
 20
-1.44772
 11
14.2292
 21
-1.40209
  0
LINE
  8
0
 10
14.2292
 20
-1.40209
 11
14.1427
 21
-1.35092
  0
LINE
  8
0
 10
14.1427
 20
-1.35092
 11
14.0595
 21
-1.29443
  0
LINE
  8
0
 10
14.0595
 20
-1.29443
 11
13.9801
 21
-1.23282
  0
LINE
  8
0
 10
13.9801
 20
-1.23282
 11
13.9047
 21
-1.16635
  0
LINE
  8
0
 10
13.9047
 20
-1.16635
 11
13.8336
 21
-1.09527
  0
LINE
  8
0
 10
13.8336
 20
-1.09527
 11
13.7672
 21
-1.01988
  0
LINE
  8
0
 10
13.7672
 20
-1.01988
 11
13.7056
 21
-0.940456
  0
LINE
  8
0
 10
13.7056
 20
-0.940456
 11
13.6491
 21
-0.857323
  0
LINE
  8
0
 10
13.6491
 20
-0.857323
 11
13.5979
 21
-0.770805
  0
LINE
  8
0
 10
13.5979
 20
-0.770805
 11
13.5523
 21
-0.681247
  0
LINE
  8
0
 10
13.5523
 20
-0.681247
 11
13.5124
 21
-0.588999
  0
LINE
  8
0
 10
13.5124
 20
-0.588999
 11
13.4783
 21
-0.494427
  0
LINE
  8
0
 10
13.4783
 20
-0.494427
 11
13.4503
 21
-0.397903
  0
LINE
  8
0
 10
13.4503
 20
-0.397903
 11
13.4283
 21
-0.299809
  0
LINE
  8
0
 10
13.4283
 20
-0.299809
 11
13.4126
 21
-0.200533
  0
LINE
  8
0
 10
13.4126
 20
-0.200533
 11
13.4032
 21
-0.100465
  0
LINE
  8
0
 10
13.4032
 20
-0.100465
 11
13.4
 21
0
  0
LINE
  8
0
 10
29.4
 20
0
 11
29.4032
 21
0.100465
  0
LINE
  8
0
 10
29.4032
 20
0.100465
 11
29.4126
 21
0.200533
  0
LINE
  8
0
 10
29.4126
 20
0.200533
 11
29.4283
 21
0.299809
  0
LINE
  8
0
 10
29.4283
 20
0.299809
 11
29.4503
 21
0.397903
  0
LINE
  8
0
 10
29.4503
 20
0.397903
 11
29.4783
 21
0.494427
  0
LINE
  8
0
 10
29.4783
 20
0.494427
 11
29.5124
 21
0.588999
  0
LINE
  8
0
 10
29.5124
 20
0.588999
 11
29.5523
 21
0.681247
  0
LINE
  8
0
 10
29.5523
 20
0.681247
 11
29.5979
 21
0.770805
  0
LINE
  8
0
 10
29.5979
 20
0.770805
 11
29.6491
 21
0.857323
  0
LINE
  8
0
 10
29.6491
 20
0.857323
 11
29.7056
 21
0.940456
  0
LINE
  8
0
 10
29.7056
 20
0.940456
 11
29.7672
 21
1.01988
  0
LINE
  8
0
 10
29.7672
 20
1.01988
 11
29.8336
 21
1.09527
  0
LINE
  8
0
 10
29.8336
 20
1.09527
 11
29.9047
 21
1.16635
  0
LINE
  8
0
 10
29.9047
 20
1.16635
 11
29.9801
 21
1.23282
  0
LINE
  8
0
 10
29.9801
 20
1.23282
 11
30.0595
 21
1.29443
  0
LINE
  8
0
 10
30.0595
 20
1.29443
 11
30.1427
 21
1.35092
  0
LINE
  8
0
 10
30.1427
 20
1.35092
 11
30.2292
 21
1.40209
  0
LINE
  8
0
 10
30.2292
 20
1.40209
 11
30.3188
 21
1.44772
  0
LINE
  8
0
 10
30.3188
 20
1.44772
 11
30.411
 21
1.48764
  0
LINE
  8
0
 10
30.411
 20
1.48764
 11
30.5056
 21
1.52169
  0
LINE
  8
0
 10
30.5056
 20
1.52169
 11
30.6021
 21
1.54973
  0
LINE
  8
0
 10
30.6021
 20
1.54973
 11
30.7002
 21
1.57166
  0
LINE
  8
0
 10
30.7002
 20
1.57166
 11
30.7995
 21
1.58738
  0
LINE
  8
0
 10
30.7995
 20
1.58738
 11
30.8995
 21
1.59684
  0
LINE
  8
0
 10
30.8995
 20
1.59684
 11
31
 21
1.6
  0
LINE
  8
0
 10
31
 20
1.6
 11
31.1005
 21
1.59684
  0
LINE
  8
0
 10
31.1005
 20
1.59684
 11
31.2005
 21
1.58738
  0
LINE
  8
0
 10
31.2005
 20
1.58738
 11
31.2998
 21
1.57166
  0
LINE
  8
0
 10
31.2998
 20
1.57166
 11
31.3979
 21
1.54973
  0
LINE
  8
0
 10
31.3979
 20
1.54973
 11
31.4944
 21
1.52169
  0
LINE
  8
0
 10
31.4944
 20
1.52169
 11
31.589
 21
1.48764
  0
LINE
  8
0
 10
31.589
 20
1.48764
 11
31.6812
 21
1.44772
  0
LINE
  8
0
 10
31.6812
 20
1.44772
 11
31.7708
 21
1.40209
  0
LINE
  8
0
 10
31.7708
 20
1.40209
 11
31.8573
 21
1.35092
  0
LINE
  8
0
 10
31.8573
 20
1.35092
 11
31.9405
 21
1.29443
  0
LINE
  8
0
 10
31.9405
 20
1.29443
 11
32.0199
 21
1.23282
  0
LINE
  8
0
 10
32.0199
 20
1.23282
 11
32.0953
 21
1.16635
  0
LINE
  8
0
 10
32.0953
 20
1.16635
 11
32.1663
 21
1.09527
  0
LINE
  8
0
 10
32.1663
 20
1.09527
 11
32.2328
 21
1.01988
  0
LINE
  8
0
 10
32.2328
 20
1.01988
 11
32.2944
 21
0.940456
  0
LINE
  8
0
 10
32.2944
 20
0.940456
 11
32.3509
 21
0.857323
  0
LINE
  8
0
 10
32.3509
 20
0.857323
 11
32.4021
 21
0.770805
  0
LINE
  8
0
 10
32.4021
 20
0.770805
 11
32.4477
 21
0.681247
  0
LINE
  8
0
 10
32.4477
 20
0.681247
 11
32.4876
 21
0.588999
  0
LINE
  8
0
 10
32.4876
 20
0.588999
 11
32.5217
 21
0.494427
  0
LINE
  8
0
 10
32.5217
 20
0.494427
 11
32.5497
 21
0.397903
  0
LINE
  8
0
 10
32.5497
 20
0.397903
 11
32.5717
 21
0.299809
  0
LINE
  8
0
 10
32.5717
 20
0.299809
 11
32.5874
 21
0.200533
  0
LINE
  8
0
 10
32.5874
 20
0.200533
 11
32.5968
 21
0.100465
  0
LINE
  8
0
 10
32.5968
 20
0.100465
 11
32.6
 21
0
  0
LINE
  8
0
 10
32.6
 20
0
 11
32.5968
 21
-0.100465
  0
LINE
  8
0
 10
32.5968
 20
-0.100465
 11
32.5874
 21
-0.200533
  0
LINE
  8
0
 10
32.5874
 20
-0.200533
 11
32.5717
 21
-0.299809
  0
LINE
  8
0
 10
32.5717
 20
-0.299809
 11
32.5497
 21
-0.397903
  0
LINE
  8
0
 10
32.5497
 20
-0.397903
 11
32.5217
 21
-0.494427
  0
LINE
  8
0
 10
32.5217
 20
-0.494427
 11
32.4876
 21
-0.588999
  0
LINE
  8
0
 10
32.4876
 20
-0.588999
 11
32.4477
 21
-0.681247
  0
LINE
  8
0
 10
32.4477
 20
-0.681247
 11
32.4021
 21
-0.770805
  0
LINE
  8
0
 10
32.4021
 20
-0.770805
 11
32.3509
 21
-0.857323
  0
LINE
  8
0
 10
32.3509
 20
-0.857323
 11
32.2944
 21
-0.940456
  0
LINE
  8
0
 10
32.2944
 20
-0.940456
 11
32.2328
 21
-1.01988
  0
LINE
  8
0
 10
32.2328
 20
-1.01988
 11
32.1663
 21
-1.09527
  0
LINE
  8
0
 10
32.1663
 20
-1.09527
 11
32.0953
 21
-1.16635
  0
LINE
  8
0
 10
32.0953
 20
-1.16635
 11
32.0199
 21
-1.23282
  0
LINE
  8
0
 10
32.0199
 20
-1.23282
 11
31.9405
 21
-1.29443
  0
LINE
  8
0
 10
31.9405
 20
-1.29443
 11
31.8573
 21
-1.35092
  0
LINE
  8
0
 10
31.8573
 20
-1.35092
 11
31.7708
 21
-1.40209
  0
LINE
  8
0
 10
31.7708
 20
-1.40209
 11
31.6812
 21
-1.44772
  0
LINE
  8
0
 10
31.6812
 20
-1.44772
 11
31.589
 21
-1.48764
  0
LINE
  8
0
 10
31.589
 20
-1.48764
 11
31.4944
 21
-1.52169
  0
LINE
  8
0
 10
31.4944
 20
-1.52169
 11
31.3979
 21
-1.54973
  0
LINE
  8
0
 10
31.3979
 20
-1.54973
 11
31.2998
 21
-1.57166
  0
LINE
  8
0
 10
31.2998
 20
-1.57166
 11
31.2005
 21
-1.58738
  0
LINE
  8
0
 10
31.2005
 20
-1.58738
 11
31.1005
 21
-1.59684
  0
LINE
  8
0
 10
31.1005
 20
-1.59684
 11
31
 21
-1.6
  0
LINE
  8
0
 10
31
 20
-1.6
 11
30.8995
 21
-1.59684
  0
LINE
  8
0
 10
30.8995
 20
-1.59684
 11
30.7995
 21
-1.58738
  0
LINE
  8
0
 10
30.7995
 20
-1.58738
 11
30.7002
 21
-1.57166
  0
LINE
  8
0
 10
30.7002
 20
-1.57166
 11
30.6021
 21
-1.54973
  0
LINE
  8
0
 10
30.6021
 20
-1.54973
 11
30.5056
 21
-1.52169
  0
LINE
  8
0
 10
30.5056
 20
-1.52169
 11
30.411
 21
-1.48764
  0
LINE
  8
0
 10
30.411
 20
-1.48764
 11
30.3188
 21
-1.44772
  0
LINE
  8
0
 10
30.3188
 20
-1.44772
 11
30.2292
 21
-1.40209
  0
LINE
  8
0
 10
30.2292
 20
-1.40209
 11
30.1427
 21
-1.35092
  0
LINE
  8
0
 10
30.1427
 20
-1.35092
 11
30.0595
 21
-1.29443
  0
LINE
  8
0
 10
30.0595
 20
-1.29443
 11
29.9801
 21
-1.23282
  0
LINE
  8
0
 10
29.9801
 20
-1.23282
 11
29.9047
 21
-1.16635
  0
LINE
  8
0
 10
29.9047
 20
-1.16635
 11
29.8336
 21
-1.09527
  0
LINE
  8
0
 10
29.8336
 20
-1.09527
 11
29.7672
 21
-1.01988
  0
LINE
  8
0
 10
29.7672
 20
-1.01988
 11
29.7056
 21
-0.940456
  0
LINE
  8
0
 10
29.7056
 20
-0.940456
 11
29.6491
 21
-0.857323
  0
LINE
  8
0
 10
29.6491
 20
-0.857323
 11
29.5979
 21
-0.770805
  0
LINE
  8
0
 10
29.5979
 20
-0.770805
 11
29.5523
 21
-0.681247
  0
LINE
  8
0
 10
29.5523
 20
-0.681247
 11
29.5124
 21
-0.588999
  0
LINE
  8
0
 10
29.5124
 20
-0.588999
 11
29.4783
 21
-0.494427
  0
LINE
  8
0
 10
29.4783
 20
-0.494427
 11
29.4503
 21
-0.397903
  0
LINE
  8
0
 10
29.4503
 20
-0.397903
 11
29.4283
 21
-0.299809
  0
LINE
  8
0
 10
29.4283
 20
-0.299809
 11
29.4126
 21
-0.200533
  0
LINE
  8
0
 10
29.4126
 20
-0.200533
 11
29.4032
 21
-0.100465
  0
LINE
  8
0
 10
29.4032
 20
-0.100465
 11
29.4
 21
0
  0
ENDSEC
  0
SECTION
  2
OBJECTS
  0
DICTIONARY
  0
ENDSEC
  0
EOF
