999
DXF from OpenSCAD
  0
SECTION
  2
HEADER
  9
$ACADVER
  1
AC1006
  9
$INSBASE
 10
0.0
 20
0.0
 30
0.0
  9
$EXTMIN
 10
-109
 20
0
  9
$EXTMAX
 10
2.22507e-308
 20
184
  9
$LINMIN
 10
-109
 20
0
  9
$LINMAX
 10
2.22507e-308
 20
184
  0
ENDSEC
  0
SECTION
  2
TABLES
  0
TABLE
  2
LTYPE
 70
1
  0
LTYPE
  2
CONTINUOUS
 70
64
  3
Solid line
 72
65
 73
0
 40
0.000000
  0
ENDTAB
  0
TABLE
  2
LAYER
 70
6
  0
LAYER
  2
0
 70
64
 62
7
  6
CONTINUOUS
  0
ENDTAB
  0
TABLE
  2
STYLE
 70
0
  0
ENDTAB
  0
ENDSEC
  0
SECTION
  2
BLOCKS
  0
ENDSEC
  0
SECTION
  2
ENTITIES
  0
LWPOLYLINE
100
AcDbEntity
  8
0
100
AcDbPolyline
 90
104
 70
1
 10
-7.02907
 20
0.0147991
 10
-6.56
 20
0.0591393
 10
-6.09464
 20
0.132845
 10
-5.63483
 20
0.235626
 10
-5.18237
 20
0.367076
 10
-4.73907
 20
0.526676
 10
-4.30665
 20
0.713797
 10
-3.88685
 20
0.927699
 10
-3.4813
 20
1.16754
 10
-3.09161
 20
1.43237
 10
-2.71932
 20
1.72115
 10
-2.3659
 20
2.03273
 10
-2.03273
 20
2.3659
 10
-1.72115
 20
2.71932
 10
-1.43237
 20
3.09161
 10
-1.16754
 20
3.4813
 10
-0.927699
 20
3.88685
 10
-0.713797
 20
4.30665
 10
-0.526676
 20
4.73907
 10
-0.367076
 20
5.18237
 10
-0.235626
 20
5.63483
 10
-0.132845
 20
6.09464
 10
-0.0591393
 20
6.56
 10
-0.0147991
 20
7.02907
 10
0
 20
7.5
 10
0
 20
176.5
 10
-0.0147991
 20
176.971
 10
-0.0591393
 20
177.44
 10
-0.132845
 20
177.905
 10
-0.235626
 20
178.365
 10
-0.367076
 20
178.818
 10
-0.526676
 20
179.261
 10
-0.713797
 20
179.693
 10
-0.927699
 20
180.113
 10
-1.16754
 20
180.519
 10
-1.43237
 20
180.908
 10
-1.72115
 20
181.281
 10
-2.03273
 20
181.634
 10
-2.3659
 20
181.967
 10
-2.71932
 20
182.279
 10
-3.09161
 20
182.568
 10
-3.4813
 20
182.832
 10
-3.88685
 20
183.072
 10
-4.30665
 20
183.286
 10
-4.73907
 20
183.473
 10
-5.18237
 20
183.633
 10
-5.63483
 20
183.764
 10
-6.09464
 20
183.867
 10
-6.56
 20
183.941
 10
-7.02907
 20
183.985
 10
-7.5
 20
184
 10
-101.5
 20
184
 10
-101.971
 20
183.985
 10
-102.44
 20
183.941
 10
-102.905
 20
183.867
 10
-103.365
 20
183.764
 10
-103.818
 20
183.633
 10
-104.261
 20
183.473
 10
-104.693
 20
183.286
 10
-105.113
 20
183.072
 10
-105.519
 20
182.832
 10
-105.908
 20
182.568
 10
-106.281
 20
182.279
 10
-106.634
 20
181.967
 10
-106.967
 20
181.634
 10
-107.279
 20
181.281
 10
-107.568
 20
180.908
 10
-107.832
 20
180.519
 10
-108.072
 20
180.113
 10
-108.286
 20
179.693
 10
-108.473
 20
179.261
 10
-108.633
 20
178.818
 10
-108.764
 20
178.365
 10
-108.867
 20
177.905
 10
-108.941
 20
177.44
 10
-108.985
 20
176.971
 10
-109
 20
176.5
 10
-109
 20
61.7709
 10
-108.985
 20
61.3
 10
-108.941
 20
60.8309
 10
-108.867
 20
60.3656
 10
-108.764
 20
59.9058
 10
-108.633
 20
59.4533
 10
-108.473
 20
59.01
 10
-108.286
 20
58.5776
 10
-108.072
 20
58.1578
 10
-107.832
 20
57.7522
 10
-107.568
 20
57.3625
 10
-107.279
 20
56.9902
 10
-106.967
 20
56.6368
 10
-106.634
 20
56.3037
 10
-106.281
 20
55.9921
 10
-105.908
 20
55.7033
 10
-105.519
 20
55.4385
 10
-105.113
 20
55.1986
 10
-11.1132
 20
0.927699
 10
-10.6933
 20
0.713797
 10
-10.2609
 20
0.526676
 10
-9.81763
 20
0.367076
 10
-9.36517
 20
0.235626
 10
-8.90536
 20
0.132845
 10
-8.44
 20
0.0591393
 10
-7.97093
 20
0.0147991
 10
-7.5
 20
0
  0
LWPOLYLINE
100
AcDbEntity
  8
0
100
AcDbPolyline
 90
102
 70
1
 10
-104.126
 20
174.004
 10
-104.251
 20
174.016
 10
-104.375
 20
174.035
 10
-104.497
 20
174.063
 10
-104.618
 20
174.098
 10
-104.736
 20
174.14
 10
-104.852
 20
174.19
 10
-104.964
 20
174.247
 10
-105.072
 20
174.311
 10
-105.176
 20
174.382
 10
-105.275
 20
174.459
 10
-105.369
 20
174.542
 10
-105.458
 20
174.631
 10
-105.541
 20
174.725
 10
-105.618
 20
174.824
 10
-105.689
 20
174.928
 10
-105.725
 20
174.99
 10
-105.753
 20
175.036
 10
-105.81
 20
175.148
 10
-105.86
 20
175.264
 10
-105.902
 20
175.382
 10
-105.937
 20
175.503
 10
-105.965
 20
175.625
 10
-105.984
 20
175.749
 10
-105.996
 20
175.874
 10
-106
 20
176
 10
-105.996
 20
176.126
 10
-105.984
 20
176.251
 10
-105.965
 20
176.375
 10
-105.937
 20
176.497
 10
-105.902
 20
176.618
 10
-105.86
 20
176.736
 10
-105.81
 20
176.852
 10
-105.753
 20
176.964
 10
-105.689
 20
177.072
 10
-105.618
 20
177.176
 10
-105.541
 20
177.275
 10
-105.458
 20
177.369
 10
-105.369
 20
177.458
 10
-105.275
 20
177.541
 10
-105.176
 20
177.618
 10
-105.072
 20
177.689
 10
-104.964
 20
177.753
 10
-104.852
 20
177.81
 10
-104.736
 20
177.86
 10
-104.618
 20
177.902
 10
-104.497
 20
177.937
 10
-104.375
 20
177.965
 10
-104.251
 20
177.984
 10
-104.126
 20
177.996
 10
-104
 20
178
 10
-103.874
 20
177.996
 10
-103.803
 20
177.989
 10
-103.749
 20
177.984
 10
-103.625
 20
177.965
 10
-103.503
 20
177.937
 10
-103.382
 20
177.902
 10
-103.264
 20
177.86
 10
-103.148
 20
177.81
 10
-103.036
 20
177.753
 10
-102.928
 20
177.689
 10
-102.824
 20
177.618
 10
-102.725
 20
177.541
 10
-102.631
 20
177.458
 10
-102.542
 20
177.369
 10
-102.459
 20
177.275
 10
-102.382
 20
177.176
 10
-102.311
 20
177.072
 10
-102.247
 20
176.964
 10
-102.19
 20
176.852
 10
-102.14
 20
176.736
 10
-102.098
 20
176.618
 10
-102.063
 20
176.497
 10
-102.035
 20
176.375
 10
-102.016
 20
176.251
 10
-102.004
 20
176.126
 10
-102
 20
176
 10
-102.004
 20
175.874
 10
-102.016
 20
175.749
 10
-102.035
 20
175.625
 10
-102.063
 20
175.503
 10
-102.098
 20
175.382
 10
-102.14
 20
175.264
 10
-102.19
 20
175.148
 10
-102.247
 20
175.036
 10
-102.311
 20
174.928
 10
-102.382
 20
174.824
 10
-102.459
 20
174.725
 10
-102.542
 20
174.631
 10
-102.631
 20
174.542
 10
-102.725
 20
174.459
 10
-102.824
 20
174.382
 10
-102.928
 20
174.311
 10
-103.036
 20
174.247
 10
-103.148
 20
174.19
 10
-103.264
 20
174.14
 10
-103.382
 20
174.098
 10
-103.503
 20
174.063
 10
-103.625
 20
174.035
 10
-103.749
 20
174.016
 10
-103.874
 20
174.004
 10
-104
 20
174
  0
LWPOLYLINE
100
AcDbEntity
  8
0
100
AcDbPolyline
 90
100
 70
1
 10
-32.618
 20
174.098
 10
-32.7362
 20
174.14
 10
-32.8516
 20
174.19
 10
-32.9635
 20
174.247
 10
-33.0717
 20
174.311
 10
-33.1756
 20
174.382
 10
-33.2748
 20
174.459
 10
-33.3691
 20
174.542
 10
-33.4579
 20
174.631
 10
-33.541
 20
174.725
 10
-33.618
 20
174.824
 10
-33.6887
 20
174.928
 10
-33.7526
 20
175.036
 10
-33.8097
 20
175.148
 10
-33.8596
 20
175.264
 10
-33.9021
 20
175.382
 10
-33.9372
 20
175.503
 10
-33.9646
 20
175.625
 10
-33.9842
 20
175.749
 10
-33.9961
 20
175.874
 10
-34
 20
176
 10
-33.9961
 20
176.126
 10
-33.9842
 20
176.251
 10
-33.9646
 20
176.375
 10
-33.9372
 20
176.497
 10
-33.9021
 20
176.618
 10
-33.8596
 20
176.736
 10
-33.8097
 20
176.852
 10
-33.7526
 20
176.964
 10
-33.6887
 20
177.072
 10
-33.618
 20
177.176
 10
-33.541
 20
177.275
 10
-33.4579
 20
177.369
 10
-33.3691
 20
177.458
 10
-33.2748
 20
177.541
 10
-33.1756
 20
177.618
 10
-33.0717
 20
177.689
 10
-32.9635
 20
177.753
 10
-32.8516
 20
177.81
 10
-32.7362
 20
177.86
 10
-32.618
 20
177.902
 10
-32.4974
 20
177.937
 10
-32.3748
 20
177.965
 10
-32.2507
 20
177.984
 10
-32.1256
 20
177.996
 10
-32
 20
178
 10
-31.8744
 20
177.996
 10
-31.7493
 20
177.984
 10
-31.6252
 20
177.965
 10
-31.5026
 20
177.937
 10
-31.382
 20
177.902
 10
-31.2638
 20
177.86
 10
-31.1484
 20
177.81
 10
-31.0365
 20
177.753
 10
-30.9283
 20
177.689
 10
-30.8244
 20
177.618
 10
-30.7252
 20
177.541
 10
-30.6309
 20
177.458
 10
-30.5421
 20
177.369
 10
-30.459
 20
177.275
 10
-30.382
 20
177.176
 10
-30.3113
 20
177.072
 10
-30.2474
 20
176.964
 10
-30.1903
 20
176.852
 10
-30.1404
 20
176.736
 10
-30.0979
 20
176.618
 10
-30.0628
 20
176.497
 10
-30.0354
 20
176.375
 10
-30.0158
 20
176.251
 10
-30.0039
 20
176.126
 10
-30
 20
176
 10
-30.0039
 20
175.874
 10
-30.0158
 20
175.749
 10
-30.0354
 20
175.625
 10
-30.0628
 20
175.503
 10
-30.0979
 20
175.382
 10
-30.1404
 20
175.264
 10
-30.1903
 20
175.148
 10
-30.2474
 20
175.036
 10
-30.3113
 20
174.928
 10
-30.382
 20
174.824
 10
-30.459
 20
174.725
 10
-30.5421
 20
174.631
 10
-30.6309
 20
174.542
 10
-30.7252
 20
174.459
 10
-30.8244
 20
174.382
 10
-30.9283
 20
174.311
 10
-31.0365
 20
174.247
 10
-31.1484
 20
174.19
 10
-31.2638
 20
174.14
 10
-31.382
 20
174.098
 10
-31.5026
 20
174.063
 10
-31.6252
 20
174.035
 10
-31.7493
 20
174.016
 10
-31.8744
 20
174.004
 10
-32
 20
174
 10
-32.1256
 20
174.004
 10
-32.2507
 20
174.016
 10
-32.3748
 20
174.035
 10
-32.4974
 20
174.063
  0
LWPOLYLINE
100
AcDbEntity
  8
0
100
AcDbPolyline
 90
101
 70
1
 10
-8.12558
 20
174.004
 10
-8.25067
 20
174.016
 10
-8.37476
 20
174.035
 10
-8.49738
 20
174.063
 10
-8.61803
 20
174.098
 10
-8.73625
 20
174.14
 10
-8.85156
 20
174.19
 10
-8.96351
 20
174.247
 10
-9.07165
 20
174.311
 10
-9.17557
 20
174.382
 10
-9.27485
 20
174.459
 10
-9.36909
 20
174.542
 10
-9.45794
 20
174.631
 10
-9.54103
 20
174.725
 10
-9.61803
 20
174.824
 10
-9.68865
 20
174.928
 10
-9.75261
 20
175.036
 10
-9.80965
 20
175.148
 10
-9.85955
 20
175.264
 10
-9.90211
 20
175.382
 10
-9.93717
 20
175.503
 10
-9.96457
 20
175.625
 10
-9.98423
 20
175.749
 10
-9.99605
 20
175.874
 10
-10
 20
176
 10
-9.99605
 20
176.126
 10
-9.98423
 20
176.251
 10
-9.96457
 20
176.375
 10
-9.93717
 20
176.497
 10
-9.90211
 20
176.618
 10
-9.85955
 20
176.736
 10
-9.80965
 20
176.852
 10
-9.75261
 20
176.964
 10
-9.68865
 20
177.072
 10
-9.61803
 20
177.176
 10
-9.54103
 20
177.275
 10
-9.45794
 20
177.369
 10
-9.36909
 20
177.458
 10
-9.27485
 20
177.541
 10
-9.17557
 20
177.618
 10
-9.07165
 20
177.689
 10
-8.96351
 20
177.753
 10
-8.85156
 20
177.81
 10
-8.73625
 20
177.86
 10
-8.61803
 20
177.902
 10
-8.49738
 20
177.937
 10
-8.37476
 20
177.965
 10
-8.25067
 20
177.984
 10
-8.12558
 20
177.996
 10
-8
 20
178
 10
-7.87442
 20
177.996
 10
-7.74933
 20
177.984
 10
-7.62524
 20
177.965
 10
-7.50262
 20
177.937
 10
-7.38197
 20
177.902
 10
-7.26375
 20
177.86
 10
-7.14844
 20
177.81
 10
-7.03649
 20
177.753
 10
-6.92835
 20
177.689
 10
-6.82443
 20
177.618
 10
-6.72515
 20
177.541
 10
-6.63091
 20
177.458
 10
-6.54206
 20
177.369
 10
-6.45897
 20
177.275
 10
-6.38197
 20
177.176
 10
-6.31135
 20
177.072
 10
-6.24739
 20
176.964
 10
-6.19035
 20
176.852
 10
-6.14045
 20
176.736
 10
-6.09789
 20
176.618
 10
-6.06283
 20
176.497
 10
-6.06009
 20
176.485
 10
-6.03543
 20
176.375
 10
-6.01577
 20
176.251
 10
-6.00395
 20
176.126
 10
-6
 20
176
 10
-6.00395
 20
175.874
 10
-6.01577
 20
175.749
 10
-6.03543
 20
175.625
 10
-6.06283
 20
175.503
 10
-6.09789
 20
175.382
 10
-6.14045
 20
175.264
 10
-6.19035
 20
175.148
 10
-6.24739
 20
175.036
 10
-6.31135
 20
174.928
 10
-6.38197
 20
174.824
 10
-6.45897
 20
174.725
 10
-6.54206
 20
174.631
 10
-6.63091
 20
174.542
 10
-6.72515
 20
174.459
 10
-6.82443
 20
174.382
 10
-6.92835
 20
174.311
 10
-7.03649
 20
174.247
 10
-7.14844
 20
174.19
 10
-7.26375
 20
174.14
 10
-7.38197
 20
174.098
 10
-7.50262
 20
174.063
 10
-7.62524
 20
174.035
 10
-7.74933
 20
174.016
 10
-7.87442
 20
174.004
 10
-8
 20
174
  0
LWPOLYLINE
100
AcDbEntity
  8
0
100
AcDbPolyline
 90
103
 70
1
 10
-24.7023
 20
166.472
 10
-24.2866
 20
166.755
 10
-23.854
 20
167.01
 10
-23.4062
 20
167.239
 10
-22.945
 20
167.438
 10
-22.4721
 20
167.608
 10
-21.9895
 20
167.749
 10
-21.4991
 20
167.858
 10
-21.0027
 20
167.937
 10
-20.5023
 20
167.984
 10
-20
 20
168
 10
-19.4977
 20
167.984
 10
-18.9973
 20
167.937
 10
-18.5009
 20
167.858
 10
-18.0105
 20
167.749
 10
-17.5279
 20
167.608
 10
-17.055
 20
167.438
 10
-16.5938
 20
167.239
 10
-16.146
 20
167.01
 10
-15.7134
 20
166.755
 10
-15.2977
 20
166.472
 10
-14.9006
 20
166.164
 10
-14.5236
 20
165.832
 10
-14.1683
 20
165.476
 10
-13.8359
 20
165.099
 10
-13.8051
 20
165.06
 10
-13.5279
 20
164.702
 10
-13.2454
 20
164.287
 10
-12.9895
 20
163.854
 10
-12.7727
 20
163.429
 10
-12.7614
 20
163.406
 10
-12.7414
 20
163.36
 10
-12.5618
 20
162.945
 10
-12.3915
 20
162.472
 10
-12.2513
 20
161.99
 10
-12.1417
 20
161.499
 10
-12.0631
 20
161.003
 10
-12.0158
 20
160.502
 10
-12
 20
160
 10
-12.0158
 20
159.498
 10
-12.0631
 20
158.997
 10
-12.1417
 20
158.501
 10
-12.2513
 20
158.01
 10
-12.3915
 20
157.528
 10
-12.5618
 20
157.055
 10
-12.7614
 20
156.594
 10
-12.9895
 20
156.146
 10
-13.2454
 20
155.713
 10
-13.5279
 20
155.298
 10
-13.8359
 20
154.901
 10
-14.1683
 20
154.524
 10
-14.5236
 20
154.168
 10
-14.9006
 20
153.836
 10
-15.2977
 20
153.528
 10
-15.7134
 20
153.245
 10
-16.146
 20
152.99
 10
-16.5938
 20
152.761
 10
-17.055
 20
152.562
 10
-17.5279
 20
152.392
 10
-18.0105
 20
152.251
 10
-18.5009
 20
152.142
 10
-18.9973
 20
152.063
 10
-19.4977
 20
152.016
 10
-20
 20
152
 10
-20.5023
 20
152.016
 10
-21.0027
 20
152.063
 10
-21.4991
 20
152.142
 10
-21.9895
 20
152.251
 10
-22.4721
 20
152.392
 10
-22.945
 20
152.562
 10
-23.4062
 20
152.761
 10
-23.854
 20
152.99
 10
-24.2866
 20
153.245
 10
-24.7023
 20
153.528
 10
-25.0994
 20
153.836
 10
-25.4764
 20
154.168
 10
-25.8317
 20
154.524
 10
-26.1641
 20
154.901
 10
-26.4721
 20
155.298
 10
-26.7546
 20
155.713
 10
-27.0105
 20
156.146
 10
-27.2386
 20
156.594
 10
-27.4382
 20
157.055
 10
-27.6085
 20
157.528
 10
-27.7487
 20
158.01
 10
-27.8583
 20
158.501
 10
-27.9369
 20
158.997
 10
-27.9842
 20
159.498
 10
-28
 20
160
 10
-27.9842
 20
160.502
 10
-27.9369
 20
161.003
 10
-27.8583
 20
161.499
 10
-27.7487
 20
161.99
 10
-27.6085
 20
162.472
 10
-27.4382
 20
162.945
 10
-27.2386
 20
163.406
 10
-27.0105
 20
163.854
 10
-26.7546
 20
164.287
 10
-26.4721
 20
164.702
 10
-26.1641
 20
165.099
 10
-25.8317
 20
165.476
 10
-25.4764
 20
165.832
 10
-25.0994
 20
166.164
  0
LWPOLYLINE
100
AcDbEntity
  8
0
100
AcDbPolyline
 90
100
 70
1
 10
-45.0717
 20
142.311
 10
-45.1756
 20
142.382
 10
-45.2748
 20
142.459
 10
-45.3691
 20
142.542
 10
-45.4579
 20
142.631
 10
-45.541
 20
142.725
 10
-45.618
 20
142.824
 10
-45.6887
 20
142.928
 10
-45.7526
 20
143.036
 10
-45.8097
 20
143.148
 10
-45.8596
 20
143.264
 10
-45.9021
 20
143.382
 10
-45.9372
 20
143.503
 10
-45.9646
 20
143.625
 10
-45.9842
 20
143.749
 10
-45.9961
 20
143.874
 10
-46
 20
144
 10
-45.9961
 20
144.126
 10
-45.9842
 20
144.251
 10
-45.9646
 20
144.375
 10
-45.9372
 20
144.497
 10
-45.9021
 20
144.618
 10
-45.8596
 20
144.736
 10
-45.8097
 20
144.852
 10
-45.7526
 20
144.964
 10
-45.6887
 20
145.072
 10
-45.618
 20
145.176
 10
-45.541
 20
145.275
 10
-45.4579
 20
145.369
 10
-45.3691
 20
145.458
 10
-45.2748
 20
145.541
 10
-45.1756
 20
145.618
 10
-45.0717
 20
145.689
 10
-44.9635
 20
145.753
 10
-44.8516
 20
145.81
 10
-44.7362
 20
145.86
 10
-44.618
 20
145.902
 10
-44.4974
 20
145.937
 10
-44.3748
 20
145.965
 10
-44.2507
 20
145.984
 10
-44.1256
 20
145.996
 10
-44
 20
146
 10
-43.8744
 20
145.996
 10
-43.7493
 20
145.984
 10
-43.6252
 20
145.965
 10
-43.5026
 20
145.937
 10
-43.382
 20
145.902
 10
-43.2637
 20
145.86
 10
-43.1484
 20
145.81
 10
-43.0365
 20
145.753
 10
-42.9283
 20
145.689
 10
-42.8244
 20
145.618
 10
-42.7252
 20
145.541
 10
-42.6309
 20
145.458
 10
-42.5421
 20
145.369
 10
-42.459
 20
145.275
 10
-42.382
 20
145.176
 10
-42.3113
 20
145.072
 10
-42.2474
 20
144.964
 10
-42.1903
 20
144.852
 10
-42.1404
 20
144.736
 10
-42.0979
 20
144.618
 10
-42.0628
 20
144.497
 10
-42.0354
 20
144.375
 10
-42.0158
 20
144.251
 10
-42.0039
 20
144.126
 10
-42
 20
144
 10
-42.0039
 20
143.874
 10
-42.0158
 20
143.749
 10
-42.0354
 20
143.625
 10
-42.0554
 20
143.536
 10
-42.0948
 20
143.393
 10
-42.1404
 20
143.264
 10
-42.1903
 20
143.148
 10
-42.2474
 20
143.036
 10
-42.3113
 20
142.928
 10
-42.382
 20
142.824
 10
-42.459
 20
142.725
 10
-42.5421
 20
142.631
 10
-42.6309
 20
142.542
 10
-42.7252
 20
142.459
 10
-42.8244
 20
142.382
 10
-42.9283
 20
142.311
 10
-43.0365
 20
142.247
 10
-43.1484
 20
142.19
 10
-43.2637
 20
142.14
 10
-43.382
 20
142.098
 10
-43.5026
 20
142.063
 10
-43.6252
 20
142.035
 10
-43.7493
 20
142.016
 10
-43.8744
 20
142.004
 10
-44
 20
142
 10
-44.1256
 20
142.004
 10
-44.2507
 20
142.016
 10
-44.3748
 20
142.035
 10
-44.4974
 20
142.063
 10
-44.618
 20
142.098
 10
-44.7362
 20
142.14
 10
-44.8516
 20
142.19
 10
-44.9635
 20
142.247
  0
LWPOLYLINE
100
AcDbEntity
  8
0
100
AcDbPolyline
 90
101
 70
1
 10
-93.3691
 20
142.542
 10
-93.4579
 20
142.631
 10
-93.541
 20
142.725
 10
-93.618
 20
142.824
 10
-93.6887
 20
142.928
 10
-93.7526
 20
143.036
 10
-93.8097
 20
143.148
 10
-93.8596
 20
143.264
 10
-93.9021
 20
143.382
 10
-93.9372
 20
143.503
 10
-93.9646
 20
143.625
 10
-93.9842
 20
143.749
 10
-93.9961
 20
143.874
 10
-94
 20
144
 10
-93.9961
 20
144.126
 10
-93.9842
 20
144.251
 10
-93.9646
 20
144.375
 10
-93.9372
 20
144.497
 10
-93.9021
 20
144.618
 10
-93.8596
 20
144.736
 10
-93.8097
 20
144.852
 10
-93.7526
 20
144.964
 10
-93.6887
 20
145.072
 10
-93.618
 20
145.176
 10
-93.541
 20
145.275
 10
-93.4579
 20
145.369
 10
-93.3691
 20
145.458
 10
-93.2748
 20
145.541
 10
-93.1756
 20
145.618
 10
-93.0717
 20
145.689
 10
-92.9635
 20
145.753
 10
-92.8516
 20
145.81
 10
-92.7363
 20
145.86
 10
-92.618
 20
145.902
 10
-92.4974
 20
145.937
 10
-92.3748
 20
145.965
 10
-92.2507
 20
145.984
 10
-92.1256
 20
145.996
 10
-92
 20
146
 10
-91.8744
 20
145.996
 10
-91.7493
 20
145.984
 10
-91.6252
 20
145.965
 10
-91.5026
 20
145.937
 10
-91.382
 20
145.902
 10
-91.2637
 20
145.86
 10
-91.1484
 20
145.81
 10
-91.0365
 20
145.753
 10
-90.9283
 20
145.689
 10
-90.8244
 20
145.618
 10
-90.7252
 20
145.541
 10
-90.6309
 20
145.458
 10
-90.5421
 20
145.369
 10
-90.459
 20
145.275
 10
-90.382
 20
145.176
 10
-90.3417
 20
145.116
 10
-90.3113
 20
145.072
 10
-90.2474
 20
144.964
 10
-90.1903
 20
144.852
 10
-90.1404
 20
144.736
 10
-90.0979
 20
144.618
 10
-90.0628
 20
144.497
 10
-90.0354
 20
144.375
 10
-90.0158
 20
144.251
 10
-90.0039
 20
144.126
 10
-90
 20
144
 10
-90.0039
 20
143.874
 10
-90.0158
 20
143.749
 10
-90.0354
 20
143.625
 10
-90.0628
 20
143.503
 10
-90.0979
 20
143.382
 10
-90.1404
 20
143.264
 10
-90.1903
 20
143.148
 10
-90.2474
 20
143.036
 10
-90.3113
 20
142.928
 10
-90.382
 20
142.824
 10
-90.459
 20
142.725
 10
-90.5421
 20
142.631
 10
-90.6309
 20
142.542
 10
-90.7252
 20
142.459
 10
-90.8244
 20
142.382
 10
-90.9283
 20
142.311
 10
-91.0365
 20
142.247
 10
-91.1484
 20
142.19
 10
-91.2637
 20
142.14
 10
-91.382
 20
142.098
 10
-91.5026
 20
142.063
 10
-91.6252
 20
142.035
 10
-91.7493
 20
142.016
 10
-91.8744
 20
142.004
 10
-92
 20
142
 10
-92.1256
 20
142.004
 10
-92.2507
 20
142.016
 10
-92.3748
 20
142.035
 10
-92.4974
 20
142.063
 10
-92.618
 20
142.098
 10
-92.7363
 20
142.14
 10
-92.8516
 20
142.19
 10
-92.9635
 20
142.247
 10
-93.0717
 20
142.311
 10
-93.1756
 20
142.382
 10
-93.2748
 20
142.459
  0
LWPOLYLINE
100
AcDbEntity
  8
0
100
AcDbPolyline
 90
100
 70
1
 10
-9.85955
 20
144.736
 10
-9.80965
 20
144.852
 10
-9.75261
 20
144.964
 10
-9.68865
 20
145.072
 10
-9.61803
 20
145.176
 10
-9.54103
 20
145.275
 10
-9.45794
 20
145.369
 10
-9.36909
 20
145.458
 10
-9.27485
 20
145.541
 10
-9.17557
 20
145.618
 10
-9.07165
 20
145.689
 10
-8.96351
 20
145.753
 10
-8.85156
 20
145.81
 10
-8.73625
 20
145.86
 10
-8.61803
 20
145.902
 10
-8.49738
 20
145.937
 10
-8.37476
 20
145.965
 10
-8.25067
 20
145.984
 10
-8.12558
 20
145.996
 10
-8
 20
146
 10
-7.87442
 20
145.996
 10
-7.74933
 20
145.984
 10
-7.62524
 20
145.965
 10
-7.50262
 20
145.937
 10
-7.38197
 20
145.902
 10
-7.26375
 20
145.86
 10
-7.15948
 20
145.814
 10
-7.03649
 20
145.753
 10
-6.92835
 20
145.689
 10
-6.82443
 20
145.618
 10
-6.72515
 20
145.541
 10
-6.63091
 20
145.458
 10
-6.54206
 20
145.369
 10
-6.45897
 20
145.275
 10
-6.38197
 20
145.176
 10
-6.31135
 20
145.072
 10
-6.24739
 20
144.964
 10
-6.19035
 20
144.852
 10
-6.15113
 20
144.761
 10
-6.09789
 20
144.618
 10
-6.06283
 20
144.497
 10
-6.03543
 20
144.375
 10
-6.01577
 20
144.251
 10
-6.00395
 20
144.126
 10
-6
 20
144
 10
-6.00395
 20
143.874
 10
-6.01577
 20
143.749
 10
-6.03543
 20
143.625
 10
-6.06283
 20
143.503
 10
-6.09789
 20
143.382
 10
-6.14045
 20
143.264
 10
-6.19035
 20
143.148
 10
-6.24739
 20
143.036
 10
-6.31135
 20
142.928
 10
-6.38197
 20
142.824
 10
-6.45897
 20
142.725
 10
-6.54206
 20
142.631
 10
-6.63091
 20
142.542
 10
-6.72515
 20
142.459
 10
-6.82443
 20
142.382
 10
-6.92835
 20
142.311
 10
-7.03649
 20
142.247
 10
-7.14844
 20
142.19
 10
-7.26375
 20
142.14
 10
-7.38197
 20
142.098
 10
-7.50262
 20
142.063
 10
-7.62524
 20
142.035
 10
-7.74933
 20
142.016
 10
-7.87442
 20
142.004
 10
-8
 20
142
 10
-8.12558
 20
142.004
 10
-8.25067
 20
142.016
 10
-8.37476
 20
142.035
 10
-8.49738
 20
142.063
 10
-8.61803
 20
142.098
 10
-8.73625
 20
142.14
 10
-8.85156
 20
142.19
 10
-8.96351
 20
142.247
 10
-9.07165
 20
142.311
 10
-9.17557
 20
142.382
 10
-9.27485
 20
142.459
 10
-9.36909
 20
142.542
 10
-9.45794
 20
142.631
 10
-9.54103
 20
142.725
 10
-9.61803
 20
142.824
 10
-9.68865
 20
142.928
 10
-9.75261
 20
143.036
 10
-9.80965
 20
143.148
 10
-9.85955
 20
143.264
 10
-9.90211
 20
143.382
 10
-9.93717
 20
143.503
 10
-9.96457
 20
143.625
 10
-9.98423
 20
143.749
 10
-9.99605
 20
143.874
 10
-10
 20
144
 10
-9.99605
 20
144.126
 10
-9.98423
 20
144.251
 10
-9.96457
 20
144.375
 10
-9.93717
 20
144.497
 10
-9.90211
 20
144.618
  0
LWPOLYLINE
100
AcDbEntity
  8
0
100
AcDbPolyline
 90
101
 70
1
 10
-89.5724
 20
87.1528
 10
-89.6973
 20
87.1673
 10
-89.8209
 20
87.1895
 10
-89.9429
 20
87.2195
 10
-90.0628
 20
87.2571
 10
-90.1801
 20
87.3021
 10
-90.2944
 20
87.3544
 10
-90.4051
 20
87.4138
 10
-90.5119
 20
87.48
 10
-90.6143
 20
87.5528
 10
-90.7119
 20
87.6318
 10
-90.8044
 20
87.7169
 10
-90.8914
 20
87.8076
 10
-90.9725
 20
87.9035
 10
-91.0474
 20
88.0044
 10
-91.1158
 20
88.1098
 10
-91.1775
 20
88.2192
 10
-91.2322
 20
88.3324
 10
-91.2797
 20
88.4487
 10
-91.3197
 20
88.5678
 10
-91.3523
 20
88.6891
 10
-91.3771
 20
88.8123
 10
-91.3941
 20
88.9368
 10
-91.4033
 20
89.0621
 10
-91.4047
 20
89.1877
 10
-91.3981
 20
89.3132
 10
-91.3836
 20
89.438
 10
-91.3614
 20
89.5617
 10
-91.3314
 20
89.6837
 10
-91.2939
 20
89.8036
 10
-91.2488
 20
89.9209
 10
-91.1965
 20
90.0351
 10
-91.1372
 20
90.1458
 10
-91.0709
 20
90.2526
 10
-90.9982
 20
90.355
 10
-90.9191
 20
90.4527
 10
-90.834
 20
90.5452
 10
-90.7434
 20
90.6321
 10
-90.6474
 20
90.7132
 10
-90.604
 20
90.7454
 10
-90.5465
 20
90.7881
 10
-90.4412
 20
90.8566
 10
-90.3317
 20
90.9182
 10
-90.2186
 20
90.9729
 10
-90.1022
 20
91.0204
 10
-89.9832
 20
91.0605
 10
-89.8618
 20
91.093
 10
-89.7386
 20
91.1178
 10
-89.6142
 20
91.1349
 10
-89.4889
 20
91.1441
 10
-89.3632
 20
91.1454
 10
-89.2377
 20
91.1388
 10
-89.1129
 20
91.1244
 10
-88.9893
 20
91.1021
 10
-88.8673
 20
91.0722
 10
-88.7474
 20
91.0346
 10
-88.6301
 20
90.9895
 10
-88.5158
 20
90.9372
 10
-88.4051
 20
90.8779
 10
-88.2983
 20
90.8117
 10
-88.1959
 20
90.7389
 10
-88.0983
 20
90.6598
 10
-88.0058
 20
90.5748
 10
-87.9188
 20
90.4841
 10
-87.8377
 20
90.3881
 10
-87.7628
 20
90.2873
 10
-87.6944
 20
90.1819
 10
-87.6327
 20
90.0724
 10
-87.578
 20
89.9593
 10
-87.5305
 20
89.843
 10
-87.4905
 20
89.7239
 10
-87.4579
 20
89.6025
 10
-87.4331
 20
89.4794
 10
-87.4161
 20
89.3549
 10
-87.4069
 20
89.2296
 10
-87.4055
 20
89.1039
 10
-87.4121
 20
88.9785
 10
-87.4266
 20
88.8537
 10
-87.4488
 20
88.73
 10
-87.4788
 20
88.608
 10
-87.5163
 20
88.4881
 10
-87.5614
 20
88.3708
 10
-87.6137
 20
88.2566
 10
-87.673
 20
88.1458
 10
-87.7393
 20
88.039
 10
-87.812
 20
87.9366
 10
-87.8911
 20
87.839
 10
-87.9762
 20
87.7465
 10
-88.0668
 20
87.6595
 10
-88.1628
 20
87.5784
 10
-88.2637
 20
87.5035
 10
-88.369
 20
87.4351
 10
-88.4785
 20
87.3734
 10
-88.5916
 20
87.3187
 10
-88.7079
 20
87.2713
 10
-88.827
 20
87.2312
 10
-88.9484
 20
87.1987
 10
-89.0716
 20
87.1738
 10
-89.196
 20
87.1568
 10
-89.3214
 20
87.1476
 10
-89.447
 20
87.1463
  0
LWPOLYLINE
100
AcDbEntity
  8
0
100
AcDbPolyline
 90
100
 70
1
 10
-98.0745
 20
67.3175
 10
-98.5738
 20
67.3752
 10
-99.0684
 20
67.4642
 10
-99.5565
 20
67.5841
 10
-100.036
 20
67.7344
 10
-100.505
 20
67.9145
 10
-100.962
 20
68.1237
 10
-101.405
 20
68.3612
 10
-101.832
 20
68.6261
 10
-102.242
 20
68.9172
 10
-102.632
 20
69.2335
 10
-103.002
 20
69.5736
 10
-103.35
 20
69.9364
 10
-103.675
 20
70.3202
 10
-103.974
 20
70.7237
 10
-104.248
 20
71.1452
 10
-104.495
 20
71.5831
 10
-104.713
 20
72.0355
 10
-104.903
 20
72.5008
 10
-105.064
 20
72.9772
 10
-105.194
 20
73.4626
 10
-105.293
 20
73.9553
 10
-105.361
 20
74.4532
 10
-105.398
 20
74.9544
 10
-105.403
 20
75.457
 10
-105.377
 20
75.9588
 10
-105.319
 20
76.4581
 10
-105.23
 20
76.9527
 10
-105.11
 20
77.4408
 10
-104.96
 20
77.9204
 10
-104.78
 20
78.3895
 10
-104.571
 20
78.8465
 10
-104.333
 20
79.2894
 10
-104.068
 20
79.7166
 10
-103.777
 20
80.1262
 10
-103.461
 20
80.5168
 10
-103.121
 20
80.8867
 10
-102.758
 20
81.2346
 10
-102.374
 20
81.559
 10
-101.971
 20
81.8586
 10
-101.549
 20
82.1323
 10
-101.111
 20
82.379
 10
-100.659
 20
82.5978
 10
-100.177
 20
82.7931
 10
-99.7174
 20
82.948
 10
-99.2319
 20
83.078
 10
-98.7392
 20
83.1774
 10
-98.2413
 20
83.2456
 10
-97.7401
 20
83.2824
 10
-97.2376
 20
83.2877
 10
-96.7357
 20
83.2614
 10
-96.2364
 20
83.2036
 10
-95.7418
 20
83.1146
 10
-95.2537
 20
82.9947
 10
-94.7742
 20
82.8444
 10
-94.305
 20
82.6643
 10
-93.848
 20
82.4551
 10
-93.4051
 20
82.2176
 10
-92.978
 20
81.9528
 10
-92.5683
 20
81.6617
 10
-92.1777
 20
81.3454
 10
-91.8078
 20
81.0052
 10
-91.4599
 20
80.6425
 10
-91.1355
 20
80.2586
 10
-90.8359
 20
79.8551
 10
-90.5622
 20
79.4336
 10
-90.3155
 20
78.9958
 10
-90.0967
 20
78.5433
 10
-89.9068
 20
78.078
 10
-89.7465
 20
77.6017
 10
-89.6165
 20
77.1162
 10
-89.5171
 20
76.6236
 10
-89.4489
 20
76.1256
 10
-89.4121
 20
75.6244
 10
-89.4069
 20
75.1219
 10
-89.4332
 20
74.62
 10
-89.4909
 20
74.1208
 10
-89.5799
 20
73.6261
 10
-89.6998
 20
73.1381
 10
-89.8501
 20
72.6585
 10
-90.0302
 20
72.1893
 10
-90.2394
 20
71.7323
 10
-90.4769
 20
71.2894
 10
-90.7417
 20
70.8623
 10
-91.0329
 20
70.4526
 10
-91.3491
 20
70.0621
 10
-91.6893
 20
69.6921
 10
-92.0521
 20
69.3443
 10
-92.4359
 20
69.0199
 10
-92.8394
 20
68.7202
 10
-93.2609
 20
68.4465
 10
-93.6987
 20
68.1998
 10
-94.1512
 20
67.9811
 10
-94.6165
 20
67.7912
 10
-95.0928
 20
67.6309
 10
-95.5783
 20
67.5008
 10
-96.0709
 20
67.4015
 10
-96.5689
 20
67.3332
 10
-97.0701
 20
67.2964
 10
-97.5726
 20
67.2912
  0
LWPOLYLINE
100
AcDbEntity
  8
0
100
AcDbPolyline
 90
101
 70
1
 10
-68.7878
 20
75.1528
 10
-68.9127
 20
75.1673
 10
-69.0363
 20
75.1895
 10
-69.1583
 20
75.2195
 10
-69.2782
 20
75.2571
 10
-69.3955
 20
75.3021
 10
-69.5098
 20
75.3544
 10
-69.6205
 20
75.4138
 10
-69.7273
 20
75.48
 10
-69.8297
 20
75.5528
 10
-69.9273
 20
75.6318
 10
-70.0198
 20
75.7169
 10
-70.1068
 20
75.8076
 10
-70.1879
 20
75.9035
 10
-70.2628
 20
76.0044
 10
-70.3312
 20
76.1098
 10
-70.3929
 20
76.2192
 10
-70.4476
 20
76.3324
 10
-70.495
 20
76.4487
 10
-70.5351
 20
76.5678
 10
-70.5676
 20
76.6891
 10
-70.5925
 20
76.8123
 10
-70.6095
 20
76.9368
 10
-70.6187
 20
77.0621
 10
-70.62
 20
77.1877
 10
-70.6135
 20
77.3132
 10
-70.599
 20
77.438
 10
-70.5768
 20
77.5617
 10
-70.5468
 20
77.6837
 10
-70.5092
 20
77.8036
 10
-70.4642
 20
77.9209
 10
-70.4119
 20
78.0351
 10
-70.3525
 20
78.1458
 10
-70.2863
 20
78.2526
 10
-70.2135
 20
78.355
 10
-70.1345
 20
78.4527
 10
-70.0494
 20
78.5452
 10
-69.9587
 20
78.6321
 10
-69.8628
 20
78.7132
 10
-69.7619
 20
78.7881
 10
-69.6565
 20
78.8566
 10
-69.5471
 20
78.9182
 10
-69.434
 20
78.9729
 10
-69.3176
 20
79.0204
 10
-69.1986
 20
79.0605
 10
-69.0772
 20
79.093
 10
-68.954
 20
79.1178
 10
-68.8295
 20
79.1349
 10
-68.7042
 20
79.1441
 10
-68.585
 20
79.1453
 10
-68.4779
 20
79.14
 10
-68.3283
 20
79.1244
 10
-68.2047
 20
79.1021
 10
-68.0826
 20
79.0722
 10
-67.9742
 20
79.0382
 10
-67.8745
 20
79.0005
 10
-67.7551
 20
78.9478
 10
-67.673
 20
78.9059
 10
-67.5672
 20
78.8448
 10
-67.5137
 20
78.8117
 10
-67.4113
 20
78.7389
 10
-67.3137
 20
78.6598
 10
-67.2212
 20
78.5748
 10
-67.1342
 20
78.4841
 10
-67.0531
 20
78.3881
 10
-66.9782
 20
78.2873
 10
-66.9098
 20
78.1819
 10
-66.8481
 20
78.0724
 10
-66.7934
 20
77.9593
 10
-66.7459
 20
77.843
 10
-66.7058
 20
77.7239
 10
-66.6733
 20
77.6025
 10
-66.6485
 20
77.4794
 10
-66.6314
 20
77.3549
 10
-66.6222
 20
77.2296
 10
-66.6209
 20
77.1039
 10
-66.6275
 20
76.9785
 10
-66.6419
 20
76.8537
 10
-66.6642
 20
76.73
 10
-66.6942
 20
76.608
 10
-66.7317
 20
76.4881
 10
-66.7768
 20
76.3708
 10
-66.8291
 20
76.2566
 10
-66.8884
 20
76.1458
 10
-66.9546
 20
76.039
 10
-67.0274
 20
75.9366
 10
-67.1065
 20
75.839
 10
-67.1915
 20
75.7465
 10
-67.2822
 20
75.6595
 10
-67.3782
 20
75.5784
 10
-67.4791
 20
75.5035
 10
-67.5844
 20
75.4351
 10
-67.6939
 20
75.3734
 10
-67.807
 20
75.3187
 10
-67.9233
 20
75.2713
 10
-68.0424
 20
75.2312
 10
-68.1638
 20
75.1987
 10
-68.2869
 20
75.1738
 10
-68.4114
 20
75.1568
 10
-68.5367
 20
75.1476
 10
-68.6624
 20
75.1463
  0
LWPOLYLINE
100
AcDbEntity
  8
0
100
AcDbPolyline
 90
100
 70
1
 10
-77.2899
 20
55.3175
 10
-77.7891
 20
55.3752
 10
-78.2838
 20
55.4642
 10
-78.7719
 20
55.5841
 10
-79.2514
 20
55.7344
 10
-79.7206
 20
55.9145
 10
-80.1776
 20
56.1237
 10
-80.6205
 20
56.3612
 10
-81.0476
 20
56.6261
 10
-81.4573
 20
56.9172
 10
-81.8479
 20
57.2335
 10
-82.2178
 20
57.5736
 10
-82.5656
 20
57.9364
 10
-82.89
 20
58.3202
 10
-83.1897
 20
58.7237
 10
-83.4634
 20
59.1452
 10
-83.7101
 20
59.5831
 10
-83.9289
 20
60.0355
 10
-84.1187
 20
60.5008
 10
-84.2791
 20
60.9772
 10
-84.4091
 20
61.4626
 10
-84.5085
 20
61.9553
 10
-84.5767
 20
62.4532
 10
-84.6135
 20
62.9544
 10
-84.6187
 20
63.457
 10
-84.5924
 20
63.9588
 10
-84.5347
 20
64.4581
 10
-84.4457
 20
64.9527
 10
-84.3258
 20
65.4408
 10
-84.1755
 20
65.9204
 10
-83.9954
 20
66.3895
 10
-83.7862
 20
66.8465
 10
-83.5487
 20
67.2894
 10
-83.2839
 20
67.7166
 10
-82.9927
 20
68.1262
 10
-82.6765
 20
68.5168
 10
-82.3363
 20
68.8867
 10
-81.9735
 20
69.2346
 10
-81.5897
 20
69.559
 10
-81.1862
 20
69.8586
 10
-80.7647
 20
70.1323
 10
-80.3269
 20
70.379
 10
-79.8744
 20
70.5978
 10
-79.4091
 20
70.7877
 10
-78.9327
 20
70.948
 10
-78.4473
 20
71.078
 10
-77.9546
 20
71.1774
 10
-77.4567
 20
71.2456
 10
-76.9555
 20
71.2824
 10
-76.4529
 20
71.2877
 10
-75.9511
 20
71.2614
 10
-75.4518
 20
71.2036
 10
-74.9572
 20
71.1146
 10
-74.4691
 20
70.9947
 10
-73.9896
 20
70.8444
 10
-73.5204
 20
70.6643
 10
-73.0634
 20
70.4551
 10
-72.6205
 20
70.2176
 10
-72.1934
 20
69.9528
 10
-71.7837
 20
69.6617
 10
-71.3931
 20
69.3454
 10
-71.0232
 20
69.0052
 10
-70.6753
 20
68.6425
 10
-70.3509
 20
68.2586
 10
-70.0513
 20
67.8551
 10
-69.7776
 20
67.4336
 10
-69.5309
 20
66.9958
 10
-69.3121
 20
66.5433
 10
-69.1222
 20
66.078
 10
-68.9619
 20
65.6017
 10
-68.8319
 20
65.1162
 10
-68.7325
 20
64.6236
 10
-68.6643
 20
64.1256
 10
-68.6275
 20
63.6244
 10
-68.6222
 20
63.1219
 10
-68.6485
 20
62.62
 10
-68.7063
 20
62.1208
 10
-68.7953
 20
61.6261
 10
-68.9152
 20
61.1381
 10
-69.0655
 20
60.6585
 10
-69.2456
 20
60.1893
 10
-69.4548
 20
59.7323
 10
-69.6923
 20
59.2894
 10
-69.9571
 20
58.8623
 10
-70.2482
 20
58.4526
 10
-70.5645
 20
58.0621
 10
-70.9047
 20
57.6921
 10
-71.2674
 20
57.3443
 10
-71.6513
 20
57.0199
 10
-72.0548
 20
56.7202
 10
-72.4763
 20
56.4465
 10
-72.9141
 20
56.1998
 10
-73.3666
 20
55.9811
 10
-73.8319
 20
55.7912
 10
-74.3082
 20
55.6309
 10
-74.7937
 20
55.5008
 10
-75.2863
 20
55.4015
 10
-75.7843
 20
55.3332
 10
-76.2855
 20
55.2964
 10
-76.788
 20
55.2912
  0
LWPOLYLINE
100
AcDbEntity
  8
0
100
AcDbPolyline
 90
101
 70
1
 10
-48.0032
 20
63.1528
 10
-48.128
 20
63.1673
 10
-48.2517
 20
63.1895
 10
-48.3737
 20
63.2195
 10
-48.4936
 20
63.2571
 10
-48.6109
 20
63.3021
 10
-48.7252
 20
63.3544
 10
-48.8359
 20
63.4138
 10
-48.9427
 20
63.48
 10
-49.0451
 20
63.5528
 10
-49.1427
 20
63.6318
 10
-49.2352
 20
63.7169
 10
-49.3222
 20
63.8076
 10
-49.4033
 20
63.9035
 10
-49.4782
 20
64.0044
 10
-49.5466
 20
64.1098
 10
-49.6083
 20
64.2192
 10
-49.663
 20
64.3324
 10
-49.7104
 20
64.4487
 10
-49.7505
 20
64.5678
 10
-49.783
 20
64.6891
 10
-49.8079
 20
64.8123
 10
-49.8249
 20
64.9368
 10
-49.8341
 20
65.0621
 10
-49.8354
 20
65.1877
 10
-49.8289
 20
65.3132
 10
-49.8144
 20
65.438
 10
-49.7922
 20
65.5617
 10
-49.7622
 20
65.6837
 10
-49.7246
 20
65.8036
 10
-49.6796
 20
65.9209
 10
-49.6273
 20
66.0351
 10
-49.5679
 20
66.1458
 10
-49.5017
 20
66.2526
 10
-49.4289
 20
66.355
 10
-49.3499
 20
66.4527
 10
-49.2648
 20
66.5452
 10
-49.1741
 20
66.6321
 10
-49.0782
 20
66.7132
 10
-48.9773
 20
66.7881
 10
-48.8719
 20
66.8566
 10
-48.7625
 20
66.9182
 10
-48.6494
 20
66.9729
 10
-48.533
 20
67.0204
 10
-48.4139
 20
67.0605
 10
-48.2926
 20
67.093
 10
-48.1694
 20
67.1178
 10
-48.0449
 20
67.1349
 10
-47.9196
 20
67.1441
 10
-47.8004
 20
67.1453
 10
-47.6934
 20
67.14
 10
-47.5697
 20
67.1271
 10
-47.4201
 20
67.1021
 10
-47.298
 20
67.0722
 10
-47.1896
 20
67.0382
 10
-47.0899
 20
67.0005
 10
-46.9841
 20
66.9538
 10
-46.858
 20
66.8895
 10
-46.8359
 20
66.8779
 10
-46.7291
 20
66.8117
 10
-46.6267
 20
66.7389
 10
-46.529
 20
66.6598
 10
-46.4366
 20
66.5748
 10
-46.3496
 20
66.4841
 10
-46.2685
 20
66.3881
 10
-46.1936
 20
66.2873
 10
-46.1251
 20
66.1819
 10
-46.0635
 20
66.0724
 10
-46.0088
 20
65.9593
 10
-45.9613
 20
65.843
 10
-45.9212
 20
65.7239
 10
-45.8887
 20
65.6025
 10
-45.8639
 20
65.4794
 10
-45.8468
 20
65.3549
 10
-45.8376
 20
65.2296
 10
-45.8363
 20
65.1039
 10
-45.8429
 20
64.9785
 10
-45.8573
 20
64.8537
 10
-45.8796
 20
64.73
 10
-45.9096
 20
64.608
 10
-45.9471
 20
64.4881
 10
-45.9922
 20
64.3708
 10
-46.0445
 20
64.2566
 10
-46.1038
 20
64.1458
 10
-46.17
 20
64.039
 10
-46.2428
 20
63.9366
 10
-46.3219
 20
63.839
 10
-46.4069
 20
63.7465
 10
-46.4976
 20
63.6595
 10
-46.5936
 20
63.5784
 10
-46.6945
 20
63.5035
 10
-46.7998
 20
63.4351
 10
-46.9093
 20
63.3734
 10
-47.0224
 20
63.3187
 10
-47.1387
 20
63.2713
 10
-47.2578
 20
63.2312
 10
-47.3792
 20
63.1987
 10
-47.5023
 20
63.1738
 10
-47.6268
 20
63.1568
 10
-47.7521
 20
63.1476
 10
-47.8778
 20
63.1463
  0
LWPOLYLINE
100
AcDbEntity
  8
0
100
AcDbPolyline
 90
103
 70
1
 10
-105.572
 20
59.44
 10
-105.697
 20
59.4545
 10
-105.821
 20
59.4767
 10
-105.943
 20
59.5067
 10
-106.063
 20
59.5443
 10
-106.18
 20
59.5893
 10
-106.294
 20
59.6416
 10
-106.342
 20
59.6671
 10
-106.405
 20
59.701
 10
-106.512
 20
59.7672
 10
-106.614
 20
59.84
 10
-106.712
 20
59.919
 10
-106.804
 20
60.0041
 10
-106.891
 20
60.0947
 10
-106.899
 20
60.1043
 10
-106.972
 20
60.1907
 10
-107.04
 20
60.2815
 10
-107.047
 20
60.2916
 10
-107.116
 20
60.397
 10
-107.178
 20
60.5064
 10
-107.232
 20
60.6195
 10
-107.28
 20
60.7359
 10
-107.32
 20
60.8549
 10
-107.352
 20
60.9763
 10
-107.377
 20
61.0995
 10
-107.394
 20
61.224
 10
-107.403
 20
61.3493
 10
-107.405
 20
61.4749
 10
-107.398
 20
61.6004
 10
-107.384
 20
61.7252
 10
-107.361
 20
61.8488
 10
-107.331
 20
61.9709
 10
-107.294
 20
62.0907
 10
-107.249
 20
62.208
 10
-107.197
 20
62.3223
 10
-107.137
 20
62.433
 10
-107.071
 20
62.5398
 10
-106.998
 20
62.6422
 10
-106.919
 20
62.7399
 10
-106.834
 20
62.8323
 10
-106.743
 20
62.9193
 10
-106.647
 20
63.0004
 10
-106.547
 20
63.0753
 10
-106.441
 20
63.1437
 10
-106.322
 20
63.2097
 10
-106.186
 20
63.2735
 10
-106.102
 20
63.3076
 10
-105.983
 20
63.3477
 10
-105.862
 20
63.3802
 10
-105.739
 20
63.405
 10
-105.614
 20
63.4221
 10
-105.489
 20
63.4313
 10
-105.363
 20
63.4326
 10
-105.238
 20
63.426
 10
-105.113
 20
63.4116
 10
-104.989
 20
63.3893
 10
-104.867
 20
63.3593
 10
-104.747
 20
63.3218
 10
-104.63
 20
63.2767
 10
-104.516
 20
63.2244
 10
-104.405
 20
63.1651
 10
-104.298
 20
63.0989
 10
-104.196
 20
63.0261
 10
-104.098
 20
62.947
 10
-104.006
 20
62.862
 10
-103.919
 20
62.7713
 10
-103.838
 20
62.6753
 10
-103.763
 20
62.5744
 10
-103.694
 20
62.4691
 10
-103.633
 20
62.3596
 10
-103.578
 20
62.2465
 10
-103.531
 20
62.1302
 10
-103.49
 20
62.0111
 10
-103.458
 20
61.8897
 10
-103.433
 20
61.7665
 10
-103.416
 20
61.6421
 10
-103.407
 20
61.5168
 10
-103.406
 20
61.3911
 10
-103.412
 20
61.2657
 10
-103.427
 20
61.1408
 10
-103.449
 20
61.0172
 10
-103.479
 20
60.8952
 10
-103.516
 20
60.7753
 10
-103.561
 20
60.658
 10
-103.614
 20
60.5437
 10
-103.673
 20
60.433
 10
-103.739
 20
60.3262
 10
-103.812
 20
60.2238
 10
-103.891
 20
60.1262
 10
-103.976
 20
60.0337
 10
-104.067
 20
59.9467
 10
-104.163
 20
59.8656
 10
-104.264
 20
59.7907
 10
-104.369
 20
59.7223
 10
-104.479
 20
59.6606
 10
-104.592
 20
59.6059
 10
-104.708
 20
59.5584
 10
-104.827
 20
59.5184
 10
-104.948
 20
59.4859
 10
-105.072
 20
59.461
 10
-105.196
 20
59.444
 10
-105.321
 20
59.4348
 10
-105.447
 20
59.4334
  0
LWPOLYLINE
100
AcDbEntity
  8
0
100
AcDbPolyline
 90
100
 70
1
 10
-56.5053
 20
43.3175
 10
-57.0045
 20
43.3752
 10
-57.4992
 20
43.4642
 10
-57.9872
 20
43.5841
 10
-58.4668
 20
43.7344
 10
-58.936
 20
43.9145
 10
-59.393
 20
44.1237
 10
-59.8359
 20
44.3612
 10
-60.263
 20
44.626
 10
-60.6727
 20
44.9172
 10
-61.0632
 20
45.2335
 10
-61.4332
 20
45.5736
 10
-61.781
 20
45.9364
 10
-62.1054
 20
46.3202
 10
-62.4051
 20
46.7237
 10
-62.6788
 20
47.1452
 10
-62.9255
 20
47.5831
 10
-63.1442
 20
48.0355
 10
-63.3341
 20
48.5008
 10
-63.4944
 20
48.9772
 10
-63.6245
 20
49.4626
 10
-63.7238
 20
49.9553
 10
-63.7921
 20
50.4532
 10
-63.8289
 20
50.9544
 10
-63.8341
 20
51.457
 10
-63.8078
 20
51.9588
 10
-63.7501
 20
52.4581
 10
-63.6611
 20
52.9527
 10
-63.5412
 20
53.4408
 10
-63.3909
 20
53.9204
 10
-63.2108
 20
54.3895
 10
-63.0016
 20
54.8465
 10
-62.7641
 20
55.2894
 10
-62.4993
 20
55.7166
 10
-62.2081
 20
56.1262
 10
-61.8918
 20
56.5168
 10
-61.5517
 20
56.8867
 10
-61.1889
 20
57.2346
 10
-60.8051
 20
57.559
 10
-60.4016
 20
57.8586
 10
-59.9801
 20
58.1323
 10
-59.5423
 20
58.379
 10
-59.0898
 20
58.5978
 10
-58.6245
 20
58.7877
 10
-58.1481
 20
58.948
 10
-57.6627
 20
59.078
 10
-57.17
 20
59.1774
 10
-56.6721
 20
59.2456
 10
-56.1709
 20
59.2824
 10
-55.6683
 20
59.2877
 10
-55.1665
 20
59.2614
 10
-54.6672
 20
59.2036
 10
-54.1726
 20
59.1146
 10
-53.6845
 20
58.9947
 10
-53.2049
 20
58.8444
 10
-52.7358
 20
58.6643
 10
-52.2788
 20
58.4551
 10
-51.8359
 20
58.2176
 10
-51.4087
 20
57.9528
 10
-50.9991
 20
57.6617
 10
-50.6085
 20
57.3454
 10
-50.2386
 20
57.0052
 10
-49.8907
 20
56.6425
 10
-49.5663
 20
56.2586
 10
-49.2667
 20
55.8551
 10
-48.993
 20
55.4336
 10
-48.7463
 20
54.9958
 10
-48.5275
 20
54.5433
 10
-48.3376
 20
54.078
 10
-48.1773
 20
53.6017
 10
-48.0472
 20
53.1162
 10
-47.9479
 20
52.6236
 10
-47.8797
 20
52.1256
 10
-47.8429
 20
51.6244
 10
-47.8376
 20
51.1219
 10
-47.8639
 20
50.62
 10
-47.9217
 20
50.1208
 10
-48.0107
 20
49.6261
 10
-48.1306
 20
49.1381
 10
-48.2809
 20
48.6585
 10
-48.461
 20
48.1893
 10
-48.6702
 20
47.7323
 10
-48.9077
 20
47.2894
 10
-49.1725
 20
46.8623
 10
-49.4636
 20
46.4526
 10
-49.7799
 20
46.0621
 10
-50.1201
 20
45.6921
 10
-50.4828
 20
45.3443
 10
-50.8667
 20
45.0199
 10
-51.2702
 20
44.7202
 10
-51.6917
 20
44.4465
 10
-52.1295
 20
44.1998
 10
-52.582
 20
43.9811
 10
-53.0473
 20
43.7912
 10
-53.5236
 20
43.6309
 10
-54.0091
 20
43.5008
 10
-54.5017
 20
43.4015
 10
-54.9996
 20
43.3332
 10
-55.5009
 20
43.2964
 10
-56.0034
 20
43.2912
  0
LWPOLYLINE
100
AcDbEntity
  8
0
100
AcDbPolyline
 90
103
 70
1
 10
-27.2186
 20
51.1528
 10
-27.3434
 20
51.1673
 10
-27.4671
 20
51.1895
 10
-27.5891
 20
51.2195
 10
-27.709
 20
51.2571
 10
-27.8263
 20
51.3021
 10
-27.9405
 20
51.3544
 10
-28.0513
 20
51.4138
 10
-28.1581
 20
51.48
 10
-28.2605
 20
51.5528
 10
-28.3581
 20
51.6318
 10
-28.4506
 20
51.7169
 10
-28.5376
 20
51.8076
 10
-28.6187
 20
51.9035
 10
-28.6936
 20
52.0044
 10
-28.762
 20
52.1098
 10
-28.8237
 20
52.2192
 10
-28.8784
 20
52.3324
 10
-28.9258
 20
52.4487
 10
-28.9659
 20
52.5678
 10
-28.9984
 20
52.6891
 10
-29.0233
 20
52.8123
 10
-29.0403
 20
52.9368
 10
-29.0495
 20
53.0621
 10
-29.0508
 20
53.1877
 10
-29.0443
 20
53.3132
 10
-29.036
 20
53.3843
 10
-29.0298
 20
53.438
 10
-29.0076
 20
53.5616
 10
-28.9776
 20
53.6837
 10
-28.9562
 20
53.752
 10
-28.94
 20
53.8036
 10
-28.895
 20
53.9209
 10
-28.8427
 20
54.0351
 10
-28.7833
 20
54.1458
 10
-28.7171
 20
54.2526
 10
-28.6443
 20
54.355
 10
-28.5653
 20
54.4527
 10
-28.4802
 20
54.5452
 10
-28.3895
 20
54.6321
 10
-28.2936
 20
54.7132
 10
-28.1927
 20
54.7881
 10
-28.0873
 20
54.8566
 10
-27.9779
 20
54.9182
 10
-27.8647
 20
54.9729
 10
-27.7484
 20
55.0204
 10
-27.6293
 20
55.0605
 10
-27.508
 20
55.093
 10
-27.3848
 20
55.1178
 10
-27.2603
 20
55.1349
 10
-27.135
 20
55.1441
 10
-27.0158
 20
55.1453
 10
-26.9088
 20
55.14
 10
-26.7851
 20
55.1271
 10
-26.6354
 20
55.1021
 10
-26.5134
 20
55.0722
 10
-26.4049
 20
55.0382
 10
-26.3024
 20
54.9994
 10
-26.2022
 20
54.9552
 10
-26.0931
 20
54.8995
 10
-25.9925
 20
54.8414
 10
-25.9445
 20
54.8117
 10
-25.8421
 20
54.7389
 10
-25.7444
 20
54.6598
 10
-25.6519
 20
54.5748
 10
-25.565
 20
54.4841
 10
-25.4839
 20
54.3881
 10
-25.409
 20
54.2873
 10
-25.3405
 20
54.1819
 10
-25.2789
 20
54.0724
 10
-25.2242
 20
53.9593
 10
-25.1767
 20
53.843
 10
-25.1366
 20
53.7239
 10
-25.1041
 20
53.6025
 10
-25.0793
 20
53.4794
 10
-25.0622
 20
53.3549
 10
-25.053
 20
53.2296
 10
-25.0517
 20
53.1039
 10
-25.0583
 20
52.9785
 10
-25.0727
 20
52.8537
 10
-25.095
 20
52.73
 10
-25.1249
 20
52.608
 10
-25.1625
 20
52.4881
 10
-25.2075
 20
52.3708
 10
-25.2598
 20
52.2566
 10
-25.3192
 20
52.1458
 10
-25.3854
 20
52.039
 10
-25.4582
 20
51.9366
 10
-25.5373
 20
51.839
 10
-25.6223
 20
51.7465
 10
-25.713
 20
51.6595
 10
-25.809
 20
51.5784
 10
-25.9098
 20
51.5035
 10
-26.0152
 20
51.4351
 10
-26.1247
 20
51.3734
 10
-26.2378
 20
51.3187
 10
-26.3541
 20
51.2713
 10
-26.4732
 20
51.2312
 10
-26.5946
 20
51.1987
 10
-26.7177
 20
51.1738
 10
-26.8422
 20
51.1568
 10
-26.9675
 20
51.1476
 10
-27.0932
 20
51.1463
  0
LWPOLYLINE
100
AcDbEntity
  8
0
100
AcDbPolyline
 90
103
 70
1
 10
-84.7878
 20
47.44
 10
-84.9127
 20
47.4545
 10
-85.0363
 20
47.4767
 10
-85.1583
 20
47.5067
 10
-85.2782
 20
47.5443
 10
-85.3955
 20
47.5893
 10
-85.5098
 20
47.6416
 10
-85.6205
 20
47.701
 10
-85.7273
 20
47.7672
 10
-85.8297
 20
47.84
 10
-85.9273
 20
47.919
 10
-86.0198
 20
48.0041
 10
-86.1068
 20
48.0947
 10
-86.1879
 20
48.1907
 10
-86.2628
 20
48.2916
 10
-86.3312
 20
48.397
 10
-86.3929
 20
48.5064
 10
-86.4476
 20
48.6195
 10
-86.4951
 20
48.7359
 10
-86.5123
 20
48.7871
 10
-86.5351
 20
48.8549
 10
-86.5676
 20
48.9763
 10
-86.5859
 20
49.067
 10
-86.5925
 20
49.0995
 10
-86.6022
 20
49.1704
 10
-86.6095
 20
49.224
 10
-86.6187
 20
49.3493
 10
-86.62
 20
49.4749
 10
-86.6135
 20
49.6004
 10
-86.599
 20
49.7252
 10
-86.5768
 20
49.8488
 10
-86.5468
 20
49.9709
 10
-86.5092
 20
50.0907
 10
-86.4642
 20
50.208
 10
-86.4119
 20
50.3223
 10
-86.3525
 20
50.433
 10
-86.2863
 20
50.5398
 10
-86.2135
 20
50.6422
 10
-86.1345
 20
50.7399
 10
-86.0494
 20
50.8323
 10
-85.9588
 20
50.9193
 10
-85.8628
 20
51.0004
 10
-85.7619
 20
51.0753
 10
-85.6565
 20
51.1437
 10
-85.5379
 20
51.2097
 10
-85.4011
 20
51.2735
 10
-85.3176
 20
51.3076
 10
-85.1986
 20
51.3477
 10
-85.0772
 20
51.3802
 10
-84.954
 20
51.405
 10
-84.8295
 20
51.4221
 10
-84.7042
 20
51.4313
 10
-84.5786
 20
51.4326
 10
-84.4531
 20
51.426
 10
-84.3283
 20
51.4116
 10
-84.2047
 20
51.3893
 10
-84.0826
 20
51.3593
 10
-83.9628
 20
51.3218
 10
-83.8455
 20
51.2767
 10
-83.7312
 20
51.2244
 10
-83.6205
 20
51.1651
 10
-83.5137
 20
51.0989
 10
-83.4113
 20
51.0261
 10
-83.3137
 20
50.947
 10
-83.2212
 20
50.862
 10
-83.1342
 20
50.7713
 10
-83.0531
 20
50.6753
 10
-82.9782
 20
50.5744
 10
-82.9098
 20
50.4691
 10
-82.8481
 20
50.3596
 10
-82.7934
 20
50.2465
 10
-82.7459
 20
50.1302
 10
-82.7058
 20
50.0111
 10
-82.6733
 20
49.8897
 10
-82.6485
 20
49.7665
 10
-82.6314
 20
49.6421
 10
-82.6222
 20
49.5168
 10
-82.6209
 20
49.3911
 10
-82.6275
 20
49.2657
 10
-82.6419
 20
49.1408
 10
-82.6642
 20
49.0172
 10
-82.6942
 20
48.8952
 10
-82.7317
 20
48.7753
 10
-82.7768
 20
48.658
 10
-82.8291
 20
48.5437
 10
-82.8884
 20
48.433
 10
-82.9547
 20
48.3262
 10
-83.0274
 20
48.2238
 10
-83.1065
 20
48.1262
 10
-83.1915
 20
48.0337
 10
-83.2822
 20
47.9467
 10
-83.3782
 20
47.8656
 10
-83.4791
 20
47.7907
 10
-83.5844
 20
47.7223
 10
-83.6939
 20
47.6606
 10
-83.807
 20
47.6059
 10
-83.9233
 20
47.5584
 10
-84.0424
 20
47.5184
 10
-84.1638
 20
47.4859
 10
-84.2869
 20
47.461
 10
-84.4114
 20
47.444
 10
-84.5367
 20
47.4348
 10
-84.6624
 20
47.4334
  0
LWPOLYLINE
100
AcDbEntity
  8
0
100
AcDbPolyline
 90
100
 70
1
 10
-35.7207
 20
31.3175
 10
-36.2199
 20
31.3752
 10
-36.7146
 20
31.4642
 10
-37.2026
 20
31.5841
 10
-37.6822
 20
31.7344
 10
-38.1514
 20
31.9145
 10
-38.6084
 20
32.1237
 10
-39.0513
 20
32.3612
 10
-39.4784
 20
32.626
 10
-39.8881
 20
32.9172
 10
-40.2786
 20
33.2335
 10
-40.6486
 20
33.5736
 10
-40.9964
 20
33.9364
 10
-41.3208
 20
34.3202
 10
-41.6205
 20
34.7237
 10
-41.8942
 20
35.1452
 10
-42.1409
 20
35.5831
 10
-42.3596
 20
36.0355
 10
-42.5495
 20
36.5008
 10
-42.7098
 20
36.9772
 10
-42.8399
 20
37.4626
 10
-42.9392
 20
37.9553
 10
-43.0074
 20
38.4532
 10
-43.0443
 20
38.9544
 10
-43.0495
 20
39.457
 10
-43.0232
 20
39.9588
 10
-42.9654
 20
40.4581
 10
-42.8764
 20
40.9527
 10
-42.7566
 20
41.4408
 10
-42.6063
 20
41.9204
 10
-42.4262
 20
42.3895
 10
-42.217
 20
42.8465
 10
-41.9795
 20
43.2894
 10
-41.7146
 20
43.7166
 10
-41.4235
 20
44.1262
 10
-41.1072
 20
44.5168
 10
-40.7671
 20
44.8867
 10
-40.4043
 20
45.2346
 10
-40.0205
 20
45.559
 10
-39.617
 20
45.8586
 10
-39.1955
 20
46.1323
 10
-38.7576
 20
46.379
 10
-38.3052
 20
46.5978
 10
-37.8398
 20
46.7877
 10
-37.3635
 20
46.948
 10
-36.8781
 20
47.078
 10
-36.3854
 20
47.1774
 10
-35.8875
 20
47.2456
 10
-35.3863
 20
47.2824
 10
-34.8837
 20
47.2877
 10
-34.3818
 20
47.2614
 10
-33.8826
 20
47.2036
 10
-33.388
 20
47.1146
 10
-32.8999
 20
46.9947
 10
-32.4203
 20
46.8444
 10
-31.9511
 20
46.6643
 10
-31.4942
 20
46.4551
 10
-31.0513
 20
46.2176
 10
-30.6241
 20
45.9528
 10
-30.2145
 20
45.6617
 10
-29.8239
 20
45.3454
 10
-29.454
 20
45.0052
 10
-29.1061
 20
44.6425
 10
-28.7817
 20
44.2586
 10
-28.4821
 20
43.8551
 10
-28.2084
 20
43.4336
 10
-27.9616
 20
42.9958
 10
-27.7429
 20
42.5433
 10
-27.553
 20
42.078
 10
-27.3927
 20
41.6017
 10
-27.2626
 20
41.1162
 10
-27.1633
 20
40.6236
 10
-27.0951
 20
40.1256
 10
-27.0583
 20
39.6244
 10
-27.053
 20
39.1219
 10
-27.0793
 20
38.62
 10
-27.1371
 20
38.1208
 10
-27.2261
 20
37.6261
 10
-27.346
 20
37.1381
 10
-27.4963
 20
36.6585
 10
-27.6764
 20
36.1893
 10
-27.8856
 20
35.7323
 10
-28.1231
 20
35.2894
 10
-28.3879
 20
34.8623
 10
-28.679
 20
34.4526
 10
-28.9953
 20
34.0621
 10
-29.3355
 20
33.6921
 10
-29.6982
 20
33.3443
 10
-30.0821
 20
33.0199
 10
-30.4856
 20
32.7202
 10
-30.9071
 20
32.4465
 10
-31.3449
 20
32.1998
 10
-31.7974
 20
31.9811
 10
-32.2627
 20
31.7912
 10
-32.739
 20
31.6309
 10
-33.2245
 20
31.5008
 10
-33.7171
 20
31.4015
 10
-34.215
 20
31.3332
 10
-34.7163
 20
31.2964
 10
-35.2188
 20
31.2912
  0
LWPOLYLINE
100
AcDbEntity
  8
0
100
AcDbPolyline
 90
101
 70
1
 10
-6.43402
 20
39.1528
 10
-6.55883
 20
39.1673
 10
-6.68248
 20
39.1895
 10
-6.8045
 20
39.2195
 10
-6.92439
 20
39.2571
 10
-7.04169
 20
39.3021
 10
-7.15593
 20
39.3544
 10
-7.26666
 20
39.4138
 10
-7.37344
 20
39.48
 10
-7.47586
 20
39.5528
 10
-7.5735
 20
39.6318
 10
-7.66599
 20
39.7169
 10
-7.75295
 20
39.8076
 10
-7.83405
 20
39.9035
 10
-7.90896
 20
40.0044
 10
-7.97739
 20
40.1098
 10
-8.03907
 20
40.2192
 10
-8.09375
 20
40.3324
 10
-8.14122
 20
40.4487
 10
-8.1813
 20
40.5678
 10
-8.21382
 20
40.6891
 10
-8.23865
 20
40.8123
 10
-8.2557
 20
40.9368
 10
-8.26491
 20
41.0621
 10
-8.26622
 20
41.1877
 10
-8.25965
 20
41.3132
 10
-8.2452
 20
41.438
 10
-8.22296
 20
41.5616
 10
-8.19299
 20
41.6837
 10
-8.15541
 20
41.8036
 10
-8.11039
 20
41.9209
 10
-8.05808
 20
42.0351
 10
-7.99871
 20
42.1458
 10
-7.9325
 20
42.2526
 10
-7.85972
 20
42.355
 10
-7.78065
 20
42.4527
 10
-7.69561
 20
42.5452
 10
-7.60492
 20
42.6321
 10
-7.50896
 20
42.7132
 10
-7.40809
 20
42.7881
 10
-7.30271
 20
42.8566
 10
-7.19325
 20
42.9182
 10
-7.08013
 20
42.9729
 10
-6.96381
 20
43.0204
 10
-6.84472
 20
43.0605
 10
-6.72336
 20
43.093
 10
-6.6002
 20
43.1178
 10
-6.47572
 20
43.1349
 10
-6.35041
 20
43.1441
 10
-6.23116
 20
43.1453
 10
-6.12422
 20
43.14
 10
-6.00052
 20
43.1271
 10
-5.85084
 20
43.1021
 10
-5.72882
 20
43.0722
 10
-5.62034
 20
43.0382
 10
-5.52072
 20
43.0005
 10
-5.41488
 20
42.9538
 10
-5.28883
 20
42.8895
 10
-5.26666
 20
42.8779
 10
-5.15988
 20
42.8117
 10
-5.05746
 20
42.7389
 10
-4.95982
 20
42.6598
 10
-4.86733
 20
42.5748
 10
-4.78037
 20
42.4841
 10
-4.69927
 20
42.3881
 10
-4.62436
 20
42.2873
 10
-4.55593
 20
42.1819
 10
-4.49425
 20
42.0724
 10
-4.43957
 20
41.9593
 10
-4.3921
 20
41.843
 10
-4.35202
 20
41.7239
 10
-4.3195
 20
41.6025
 10
-4.29467
 20
41.4794
 10
-4.27762
 20
41.3549
 10
-4.26842
 20
41.2296
 10
-4.2671
 20
41.1039
 10
-4.27368
 20
40.9785
 10
-4.28812
 20
40.8537
 10
-4.31037
 20
40.73
 10
-4.34034
 20
40.608
 10
-4.37791
 20
40.4881
 10
-4.42294
 20
40.3708
 10
-4.47524
 20
40.2566
 10
-4.53461
 20
40.1458
 10
-4.60082
 20
40.039
 10
-4.6736
 20
39.9366
 10
-4.75267
 20
39.839
 10
-4.83772
 20
39.7465
 10
-4.9284
 20
39.6595
 10
-5.02437
 20
39.5784
 10
-5.12523
 20
39.5035
 10
-5.23061
 20
39.4351
 10
-5.34007
 20
39.3734
 10
-5.45319
 20
39.3187
 10
-5.56952
 20
39.2713
 10
-5.6886
 20
39.2312
 10
-5.80996
 20
39.1987
 10
-5.93312
 20
39.1738
 10
-6.0576
 20
39.1568
 10
-6.18291
 20
39.1476
 10
-6.30855
 20
39.1463
  0
LWPOLYLINE
100
AcDbEntity
  8
0
100
AcDbPolyline
 90
103
 70
1
 10
-64.0032
 20
35.44
 10
-64.128
 20
35.4545
 10
-64.2517
 20
35.4767
 10
-64.3737
 20
35.5067
 10
-64.4936
 20
35.5443
 10
-64.6109
 20
35.5893
 10
-64.7252
 20
35.6416
 10
-64.8359
 20
35.701
 10
-64.9427
 20
35.7672
 10
-65.0451
 20
35.84
 10
-65.1427
 20
35.919
 10
-65.2352
 20
36.0041
 10
-65.3222
 20
36.0948
 10
-65.4033
 20
36.1907
 10
-65.4782
 20
36.2916
 10
-65.5466
 20
36.397
 10
-65.6083
 20
36.5064
 10
-65.663
 20
36.6195
 10
-65.7104
 20
36.7359
 10
-65.7505
 20
36.8549
 10
-65.783
 20
36.9763
 10
-65.8079
 20
37.0995
 10
-65.8249
 20
37.224
 10
-65.8341
 20
37.3493
 10
-65.8349
 20
37.4209
 10
-65.8354
 20
37.4749
 10
-65.8289
 20
37.6004
 10
-65.8159
 20
37.7127
 10
-65.8144
 20
37.7252
 10
-65.8049
 20
37.7784
 10
-65.7922
 20
37.8488
 10
-65.7622
 20
37.9709
 10
-65.7246
 20
38.0907
 10
-65.6796
 20
38.208
 10
-65.6273
 20
38.3223
 10
-65.5679
 20
38.433
 10
-65.5017
 20
38.5398
 10
-65.4289
 20
38.6422
 10
-65.3499
 20
38.7399
 10
-65.2648
 20
38.8323
 10
-65.1741
 20
38.9193
 10
-65.0782
 20
39.0004
 10
-64.9773
 20
39.0753
 10
-64.8719
 20
39.1437
 10
-64.7625
 20
39.2054
 10
-64.6165
 20
39.2735
 10
-64.533
 20
39.3076
 10
-64.4139
 20
39.3477
 10
-64.2926
 20
39.3802
 10
-64.1694
 20
39.405
 10
-64.0449
 20
39.4221
 10
-63.9196
 20
39.4313
 10
-63.794
 20
39.4326
 10
-63.6685
 20
39.426
 10
-63.5437
 20
39.4116
 10
-63.4201
 20
39.3893
 10
-63.298
 20
39.3593
 10
-63.1781
 20
39.3218
 10
-63.0608
 20
39.2767
 10
-62.9466
 20
39.2244
 10
-62.8359
 20
39.1651
 10
-62.7291
 20
39.0989
 10
-62.6267
 20
39.0261
 10
-62.529
 20
38.947
 10
-62.4366
 20
38.862
 10
-62.3496
 20
38.7713
 10
-62.2685
 20
38.6753
 10
-62.1936
 20
38.5744
 10
-62.1252
 20
38.4691
 10
-62.0635
 20
38.3596
 10
-62.0088
 20
38.2465
 10
-61.9613
 20
38.1302
 10
-61.9212
 20
38.0111
 10
-61.8887
 20
37.8897
 10
-61.8639
 20
37.7665
 10
-61.8468
 20
37.6421
 10
-61.8376
 20
37.5168
 10
-61.8363
 20
37.3911
 10
-61.8429
 20
37.2657
 10
-61.8573
 20
37.1408
 10
-61.8796
 20
37.0172
 10
-61.9096
 20
36.8952
 10
-61.9471
 20
36.7753
 10
-61.9922
 20
36.658
 10
-62.0448
 20
36.5431
 10
-62.1038
 20
36.433
 10
-62.17
 20
36.3262
 10
-62.2428
 20
36.2238
 10
-62.3219
 20
36.1262
 10
-62.4069
 20
36.0337
 10
-62.4976
 20
35.9467
 10
-62.5936
 20
35.8656
 10
-62.6932
 20
35.7917
 10
-62.7998
 20
35.7223
 10
-62.9093
 20
35.6606
 10
-63.0224
 20
35.6059
 10
-63.1387
 20
35.5584
 10
-63.2578
 20
35.5184
 10
-63.3792
 20
35.4859
 10
-63.5023
 20
35.461
 10
-63.6268
 20
35.444
 10
-63.7521
 20
35.4348
 10
-63.8778
 20
35.4335
  0
LWPOLYLINE
100
AcDbEntity
  8
0
100
AcDbPolyline
 90
100
 70
1
 10
-14.9361
 20
19.3175
 10
-15.4353
 20
19.3752
 10
-15.93
 20
19.4642
 10
-16.418
 20
19.5841
 10
-16.8976
 20
19.7344
 10
-17.3668
 20
19.9145
 10
-17.8237
 20
20.1237
 10
-18.2667
 20
20.3612
 10
-18.6938
 20
20.626
 10
-19.1035
 20
20.9172
 10
-19.494
 20
21.2335
 10
-19.864
 20
21.5736
 10
-20.2118
 20
21.9364
 10
-20.5362
 20
22.3202
 10
-20.8359
 20
22.7237
 10
-21.1096
 20
23.1452
 10
-21.3563
 20
23.5831
 10
-21.575
 20
24.0355
 10
-21.7649
 20
24.5008
 10
-21.9252
 20
24.9772
 10
-22.0553
 20
25.4626
 10
-22.1546
 20
25.9553
 10
-22.2228
 20
26.4532
 10
-22.2596
 20
26.9544
 10
-22.2649
 20
27.457
 10
-22.2386
 20
27.9588
 10
-22.1808
 20
28.4581
 10
-22.0918
 20
28.9527
 10
-21.972
 20
29.4408
 10
-21.8217
 20
29.9204
 10
-21.6416
 20
30.3895
 10
-21.4324
 20
30.8465
 10
-21.1949
 20
31.2894
 10
-20.93
 20
31.7166
 10
-20.6389
 20
32.1262
 10
-20.3226
 20
32.5168
 10
-19.9824
 20
32.8867
 10
-19.6197
 20
33.2346
 10
-19.2358
 20
33.559
 10
-18.8324
 20
33.8586
 10
-18.4109
 20
34.1323
 10
-17.973
 20
34.379
 10
-17.5206
 20
34.5978
 10
-17.0552
 20
34.7877
 10
-16.5789
 20
34.948
 10
-16.0935
 20
35.078
 10
-15.6008
 20
35.1774
 10
-15.1029
 20
35.2456
 10
-14.6017
 20
35.2824
 10
-14.0991
 20
35.2877
 10
-13.5972
 20
35.2614
 10
-13.098
 20
35.2036
 10
-12.6034
 20
35.1146
 10
-12.1153
 20
34.9947
 10
-11.6357
 20
34.8444
 10
-11.1665
 20
34.6643
 10
-10.7096
 20
34.4551
 10
-10.2667
 20
34.2176
 10
-9.83953
 20
33.9528
 10
-9.42987
 20
33.6617
 10
-9.0393
 20
33.3454
 10
-8.66936
 20
33.0052
 10
-8.3215
 20
32.6425
 10
-7.99711
 20
32.2586
 10
-7.69747
 20
31.8551
 10
-7.42375
 20
31.4336
 10
-7.17703
 20
30.9958
 10
-6.9583
 20
30.5433
 10
-6.76841
 20
30.078
 10
-6.60811
 20
29.6017
 10
-6.47803
 20
29.1162
 10
-6.37869
 20
28.6236
 10
-6.31049
 20
28.1256
 10
-6.27368
 20
27.6244
 10
-6.26842
 20
27.1219
 10
-6.29472
 20
26.62
 10
-6.35248
 20
26.1208
 10
-6.44148
 20
25.6261
 10
-6.56136
 20
25.1381
 10
-6.71165
 20
24.6585
 10
-6.89176
 20
24.1893
 10
-7.10097
 20
23.7323
 10
-7.33846
 20
23.2894
 10
-7.60329
 20
22.8623
 10
-7.89442
 20
22.4526
 10
-8.2107
 20
22.0621
 10
-8.55088
 20
21.6921
 10
-8.91362
 20
21.3443
 10
-9.29748
 20
21.0199
 10
-9.70095
 20
20.7202
 10
-10.1224
 20
20.4465
 10
-10.5603
 20
20.1998
 10
-11.0128
 20
19.9811
 10
-11.4781
 20
19.7912
 10
-11.9544
 20
19.6309
 10
-12.4399
 20
19.5008
 10
-12.9325
 20
19.4015
 10
-13.4304
 20
19.3332
 10
-13.9317
 20
19.2964
 10
-14.4342
 20
19.2912
  0
LWPOLYLINE
100
AcDbEntity
  8
0
100
AcDbPolyline
 90
101
 70
1
 10
-43.2186
 20
23.44
 10
-43.3434
 20
23.4545
 10
-43.4671
 20
23.4767
 10
-43.5891
 20
23.5067
 10
-43.709
 20
23.5443
 10
-43.8263
 20
23.5893
 10
-43.9405
 20
23.6416
 10
-44.0513
 20
23.701
 10
-44.1581
 20
23.7672
 10
-44.2605
 20
23.84
 10
-44.3581
 20
23.919
 10
-44.4506
 20
24.0041
 10
-44.5376
 20
24.0948
 10
-44.6187
 20
24.1907
 10
-44.6936
 20
24.2916
 10
-44.762
 20
24.397
 10
-44.8237
 20
24.5064
 10
-44.8784
 20
24.6195
 10
-44.9258
 20
24.7359
 10
-44.9659
 20
24.8549
 10
-44.9984
 20
24.9763
 10
-45.0233
 20
25.0995
 10
-45.0403
 20
25.224
 10
-45.0495
 20
25.3493
 10
-45.0508
 20
25.4749
 10
-45.0443
 20
25.6004
 10
-45.0298
 20
25.7252
 10
-45.0076
 20
25.8488
 10
-44.9776
 20
25.9709
 10
-44.94
 20
26.0907
 10
-44.895
 20
26.208
 10
-44.8427
 20
26.3223
 10
-44.7833
 20
26.433
 10
-44.7171
 20
26.5398
 10
-44.6443
 20
26.6422
 10
-44.6103
 20
26.6842
 10
-44.5653
 20
26.7399
 10
-44.4802
 20
26.8323
 10
-44.3895
 20
26.9193
 10
-44.2936
 20
27.0004
 10
-44.1927
 20
27.0753
 10
-44.0873
 20
27.1437
 10
-43.9779
 20
27.2054
 10
-43.8647
 20
27.2601
 10
-43.7484
 20
27.3076
 10
-43.6293
 20
27.3477
 10
-43.508
 20
27.3802
 10
-43.3848
 20
27.405
 10
-43.2603
 20
27.4221
 10
-43.135
 20
27.4313
 10
-43.0094
 20
27.4326
 10
-42.8839
 20
27.426
 10
-42.7591
 20
27.4116
 10
-42.6354
 20
27.3893
 10
-42.5134
 20
27.3593
 10
-42.3935
 20
27.3218
 10
-42.2762
 20
27.2767
 10
-42.162
 20
27.2244
 10
-42.0513
 20
27.1651
 10
-41.9445
 20
27.0989
 10
-41.8421
 20
27.0261
 10
-41.7444
 20
26.947
 10
-41.6519
 20
26.862
 10
-41.565
 20
26.7713
 10
-41.4839
 20
26.6753
 10
-41.409
 20
26.5744
 10
-41.3405
 20
26.4691
 10
-41.2789
 20
26.3596
 10
-41.2242
 20
26.2465
 10
-41.1767
 20
26.1302
 10
-41.1366
 20
26.0111
 10
-41.1041
 20
25.8897
 10
-41.0793
 20
25.7665
 10
-41.0622
 20
25.6421
 10
-41.053
 20
25.5154
 10
-41.0517
 20
25.3911
 10
-41.0583
 20
25.2657
 10
-41.0727
 20
25.1408
 10
-41.095
 20
25.0172
 10
-41.1249
 20
24.8952
 10
-41.1625
 20
24.7753
 10
-41.2075
 20
24.658
 10
-41.2598
 20
24.5437
 10
-41.3192
 20
24.433
 10
-41.3854
 20
24.3262
 10
-41.4582
 20
24.2238
 10
-41.5373
 20
24.1262
 10
-41.6223
 20
24.0337
 10
-41.713
 20
23.9467
 10
-41.809
 20
23.8656
 10
-41.9098
 20
23.7907
 10
-42.0152
 20
23.7223
 10
-42.1247
 20
23.6606
 10
-42.2378
 20
23.6059
 10
-42.3541
 20
23.5584
 10
-42.4732
 20
23.5184
 10
-42.5946
 20
23.4859
 10
-42.7177
 20
23.461
 10
-42.8422
 20
23.444
 10
-42.9675
 20
23.4348
 10
-43.0932
 20
23.4335
  0
LWPOLYLINE
100
AcDbEntity
  8
0
100
AcDbPolyline
 90
102
 70
1
 10
-22.434
 20
11.44
 10
-22.5588
 20
11.4545
 10
-22.6825
 20
11.4767
 10
-22.8045
 20
11.5067
 10
-22.9244
 20
11.5443
 10
-23.0417
 20
11.5893
 10
-23.1559
 20
11.6416
 10
-23.2667
 20
11.701
 10
-23.3734
 20
11.7672
 10
-23.4759
 20
11.84
 10
-23.5735
 20
11.919
 10
-23.6133
 20
11.9556
 10
-23.666
 20
12.0041
 10
-23.7529
 20
12.0948
 10
-23.834
 20
12.1907
 10
-23.909
 20
12.2916
 10
-23.9774
 20
12.397
 10
-24.0391
 20
12.5064
 10
-24.0938
 20
12.6195
 10
-24.1412
 20
12.7359
 10
-24.1813
 20
12.8549
 10
-24.2138
 20
12.9763
 10
-24.2387
 20
13.0995
 10
-24.2557
 20
13.224
 10
-24.2649
 20
13.3493
 10
-24.265
 20
13.3618
 10
-24.2662
 20
13.4749
 10
-24.2596
 20
13.6004
 10
-24.2452
 20
13.7252
 10
-24.223
 20
13.8488
 10
-24.193
 20
13.9709
 10
-24.1554
 20
14.0907
 10
-24.1104
 20
14.208
 10
-24.0581
 20
14.3223
 10
-23.9987
 20
14.433
 10
-23.9325
 20
14.5398
 10
-23.8597
 20
14.6422
 10
-23.7807
 20
14.7399
 10
-23.6956
 20
14.8323
 10
-23.6049
 20
14.9193
 10
-23.509
 20
15.0004
 10
-23.4081
 20
15.0753
 10
-23.3027
 20
15.1437
 10
-23.1933
 20
15.2054
 10
-23.0801
 20
15.2601
 10
-22.9638
 20
15.3076
 10
-22.8447
 20
15.3477
 10
-22.7234
 20
15.3802
 10
-22.6002
 20
15.405
 10
-22.4757
 20
15.4221
 10
-22.3504
 20
15.4313
 10
-22.2248
 20
15.4326
 10
-22.0993
 20
15.426
 10
-21.9745
 20
15.4116
 10
-21.8508
 20
15.3893
 10
-21.7288
 20
15.3593
 10
-21.6204
 20
15.3254
 10
-21.4916
 20
15.2767
 10
-21.3774
 20
15.2244
 10
-21.2667
 20
15.1651
 10
-21.1599
 20
15.0989
 10
-21.0575
 20
15.0261
 10
-20.9598
 20
14.947
 10
-20.8673
 20
14.862
 10
-20.7804
 20
14.7713
 10
-20.6993
 20
14.6753
 10
-20.6244
 20
14.5744
 10
-20.5559
 20
14.4691
 10
-20.4943
 20
14.3596
 10
-20.4396
 20
14.2465
 10
-20.3921
 20
14.1302
 10
-20.352
 20
14.0111
 10
-20.3195
 20
13.8897
 10
-20.2947
 20
13.7666
 10
-20.2776
 20
13.6421
 10
-20.2684
 20
13.5168
 10
-20.2671
 20
13.3911
 10
-20.2737
 20
13.2657
 10
-20.2881
 20
13.1408
 10
-20.3104
 20
13.0172
 10
-20.3403
 20
12.8952
 10
-20.3779
 20
12.7753
 10
-20.4229
 20
12.658
 10
-20.4752
 20
12.5437
 10
-20.5346
 20
12.433
 10
-20.6008
 20
12.3262
 10
-20.6736
 20
12.2238
 10
-20.7527
 20
12.1262
 10
-20.8377
 20
12.0337
 10
-20.9284
 20
11.9467
 10
-21.0244
 20
11.8656
 10
-21.1252
 20
11.7907
 10
-21.2306
 20
11.7223
 10
-21.3401
 20
11.6606
 10
-21.4532
 20
11.6059
 10
-21.5695
 20
11.5585
 10
-21.6886
 20
11.5184
 10
-21.81
 20
11.4859
 10
-21.9331
 20
11.461
 10
-22.0576
 20
11.444
 10
-22.1829
 20
11.4348
 10
-22.3085
 20
11.4335
  0
LWPOLYLINE
100
AcDbEntity
  8
0
100
AcDbPolyline
 90
100
 70
1
 10
-81.9372
 20
176.497
 10
-81.9021
 20
176.618
 10
-81.8596
 20
176.736
 10
-81.8097
 20
176.852
 10
-81.7526
 20
176.964
 10
-81.6887
 20
177.072
 10
-81.618
 20
177.176
 10
-81.541
 20
177.275
 10
-81.4579
 20
177.369
 10
-81.3691
 20
177.458
 10
-81.2748
 20
177.541
 10
-81.1756
 20
177.618
 10
-81.0717
 20
177.689
 10
-80.9635
 20
177.753
 10
-80.8516
 20
177.81
 10
-80.7363
 20
177.86
 10
-80.618
 20
177.902
 10
-80.4974
 20
177.937
 10
-80.3748
 20
177.965
 10
-80.2507
 20
177.984
 10
-80.1256
 20
177.996
 10
-80
 20
178
 10
-79.8744
 20
177.996
 10
-79.7493
 20
177.984
 10
-79.6252
 20
177.965
 10
-79.5026
 20
177.937
 10
-79.382
 20
177.902
 10
-79.2637
 20
177.86
 10
-79.1484
 20
177.81
 10
-79.0365
 20
177.753
 10
-78.9283
 20
177.689
 10
-78.8244
 20
177.618
 10
-78.7252
 20
177.541
 10
-78.6309
 20
177.458
 10
-78.5421
 20
177.369
 10
-78.459
 20
177.275
 10
-78.382
 20
177.176
 10
-78.3113
 20
177.072
 10
-78.2474
 20
176.964
 10
-78.1903
 20
176.852
 10
-78.1404
 20
176.736
 10
-78.0979
 20
176.618
 10
-78.0628
 20
176.497
 10
-78.0354
 20
176.375
 10
-78.0158
 20
176.251
 10
-78.0039
 20
176.126
 10
-78
 20
176
 10
-78.0039
 20
175.874
 10
-78.0158
 20
175.749
 10
-78.0354
 20
175.625
 10
-78.0628
 20
175.503
 10
-78.0979
 20
175.382
 10
-78.1404
 20
175.264
 10
-78.1903
 20
175.148
 10
-78.2474
 20
175.036
 10
-78.3113
 20
174.928
 10
-78.382
 20
174.824
 10
-78.459
 20
174.725
 10
-78.5421
 20
174.631
 10
-78.6309
 20
174.542
 10
-78.7252
 20
174.459
 10
-78.8244
 20
174.382
 10
-78.9283
 20
174.311
 10
-79.0365
 20
174.247
 10
-79.1484
 20
174.19
 10
-79.2637
 20
174.14
 10
-79.382
 20
174.098
 10
-79.5026
 20
174.063
 10
-79.6252
 20
174.035
 10
-79.7493
 20
174.016
 10
-79.8744
 20
174.004
 10
-80
 20
174
 10
-80.1256
 20
174.004
 10
-80.2507
 20
174.016
 10
-80.3748
 20
174.035
 10
-80.4974
 20
174.063
 10
-80.618
 20
174.098
 10
-80.7363
 20
174.14
 10
-80.8516
 20
174.19
 10
-80.9635
 20
174.247
 10
-81.0717
 20
174.311
 10
-81.1756
 20
174.382
 10
-81.2748
 20
174.459
 10
-81.3691
 20
174.542
 10
-81.4579
 20
174.631
 10
-81.541
 20
174.725
 10
-81.618
 20
174.824
 10
-81.6887
 20
174.928
 10
-81.7526
 20
175.036
 10
-81.8097
 20
175.148
 10
-81.8596
 20
175.264
 10
-81.9021
 20
175.382
 10
-81.9372
 20
175.503
 10
-81.9646
 20
175.625
 10
-81.9842
 20
175.749
 10
-81.9961
 20
175.874
 10
-82
 20
176
 10
-81.9961
 20
176.126
 10
-81.9842
 20
176.251
 10
-81.9646
 20
176.375
  0
LWPOLYLINE
100
AcDbEntity
  8
0
100
AcDbPolyline
 90
100
 70
1
 10
-56.7362
 20
174.14
 10
-56.8516
 20
174.19
 10
-56.9635
 20
174.247
 10
-57.0717
 20
174.311
 10
-57.1756
 20
174.382
 10
-57.2748
 20
174.459
 10
-57.3691
 20
174.542
 10
-57.4579
 20
174.631
 10
-57.541
 20
174.725
 10
-57.618
 20
174.824
 10
-57.6887
 20
174.928
 10
-57.7526
 20
175.036
 10
-57.8097
 20
175.148
 10
-57.8596
 20
175.264
 10
-57.9021
 20
175.382
 10
-57.9372
 20
175.503
 10
-57.9646
 20
175.625
 10
-57.9842
 20
175.749
 10
-57.9961
 20
175.874
 10
-58
 20
176
 10
-57.9961
 20
176.126
 10
-57.9842
 20
176.251
 10
-57.9646
 20
176.375
 10
-57.9372
 20
176.497
 10
-57.9021
 20
176.618
 10
-57.8596
 20
176.736
 10
-57.8097
 20
176.852
 10
-57.7526
 20
176.964
 10
-57.6887
 20
177.072
 10
-57.618
 20
177.176
 10
-57.541
 20
177.275
 10
-57.4579
 20
177.369
 10
-57.3691
 20
177.458
 10
-57.2748
 20
177.541
 10
-57.1756
 20
177.618
 10
-57.0717
 20
177.689
 10
-56.9635
 20
177.753
 10
-56.8516
 20
177.81
 10
-56.7362
 20
177.86
 10
-56.618
 20
177.902
 10
-56.4974
 20
177.937
 10
-56.3748
 20
177.965
 10
-56.2507
 20
177.984
 10
-56.1256
 20
177.996
 10
-56
 20
178
 10
-55.8744
 20
177.996
 10
-55.7493
 20
177.984
 10
-55.6252
 20
177.965
 10
-55.5026
 20
177.937
 10
-55.382
 20
177.902
 10
-55.2637
 20
177.86
 10
-55.1484
 20
177.81
 10
-55.0365
 20
177.753
 10
-54.9283
 20
177.689
 10
-54.8244
 20
177.618
 10
-54.7252
 20
177.541
 10
-54.6309
 20
177.458
 10
-54.5421
 20
177.369
 10
-54.459
 20
177.275
 10
-54.382
 20
177.176
 10
-54.3113
 20
177.072
 10
-54.2474
 20
176.964
 10
-54.1903
 20
176.852
 10
-54.1404
 20
176.736
 10
-54.0979
 20
176.618
 10
-54.0628
 20
176.497
 10
-54.0354
 20
176.375
 10
-54.0158
 20
176.251
 10
-54.0039
 20
176.126
 10
-54
 20
176
 10
-54.0039
 20
175.874
 10
-54.0158
 20
175.749
 10
-54.0354
 20
175.625
 10
-54.0628
 20
175.503
 10
-54.0979
 20
175.382
 10
-54.1404
 20
175.264
 10
-54.1903
 20
175.148
 10
-54.2474
 20
175.036
 10
-54.3113
 20
174.928
 10
-54.382
 20
174.824
 10
-54.459
 20
174.725
 10
-54.5421
 20
174.631
 10
-54.6309
 20
174.542
 10
-54.7252
 20
174.459
 10
-54.8244
 20
174.382
 10
-54.9283
 20
174.311
 10
-55.0365
 20
174.247
 10
-55.1484
 20
174.19
 10
-55.2637
 20
174.14
 10
-55.382
 20
174.098
 10
-55.5026
 20
174.063
 10
-55.6252
 20
174.035
 10
-55.7493
 20
174.016
 10
-55.8744
 20
174.004
 10
-56
 20
174
 10
-56.1256
 20
174.004
 10
-56.2507
 20
174.016
 10
-56.3748
 20
174.035
 10
-56.4974
 20
174.063
 10
-56.618
 20
174.098
  0
LWPOLYLINE
100
AcDbEntity
  8
0
100
AcDbPolyline
 90
100
 70
1
 10
-44.9635
 20
174.247
 10
-45.0717
 20
174.311
 10
-45.1756
 20
174.382
 10
-45.2748
 20
174.459
 10
-45.3691
 20
174.542
 10
-45.4579
 20
174.631
 10
-45.541
 20
174.725
 10
-45.618
 20
174.824
 10
-45.6887
 20
174.928
 10
-45.7526
 20
175.036
 10
-45.8097
 20
175.148
 10
-45.8596
 20
175.264
 10
-45.9021
 20
175.382
 10
-45.9372
 20
175.503
 10
-45.9646
 20
175.625
 10
-45.9842
 20
175.749
 10
-45.9961
 20
175.874
 10
-46
 20
176
 10
-45.9961
 20
176.126
 10
-45.9842
 20
176.251
 10
-45.9646
 20
176.375
 10
-45.9372
 20
176.497
 10
-45.9021
 20
176.618
 10
-45.8596
 20
176.736
 10
-45.8097
 20
176.852
 10
-45.7526
 20
176.964
 10
-45.6887
 20
177.072
 10
-45.618
 20
177.176
 10
-45.541
 20
177.275
 10
-45.4579
 20
177.369
 10
-45.3691
 20
177.458
 10
-45.2748
 20
177.541
 10
-45.1756
 20
177.618
 10
-45.0717
 20
177.689
 10
-44.9635
 20
177.753
 10
-44.8516
 20
177.81
 10
-44.7362
 20
177.86
 10
-44.618
 20
177.902
 10
-44.4974
 20
177.937
 10
-44.3748
 20
177.965
 10
-44.2507
 20
177.984
 10
-44.1256
 20
177.996
 10
-44
 20
178
 10
-43.8744
 20
177.996
 10
-43.7493
 20
177.984
 10
-43.6252
 20
177.965
 10
-43.5026
 20
177.937
 10
-43.382
 20
177.902
 10
-43.2637
 20
177.86
 10
-43.1484
 20
177.81
 10
-43.0365
 20
177.753
 10
-42.9283
 20
177.689
 10
-42.8244
 20
177.618
 10
-42.7252
 20
177.541
 10
-42.6309
 20
177.458
 10
-42.5421
 20
177.369
 10
-42.459
 20
177.275
 10
-42.382
 20
177.176
 10
-42.3113
 20
177.072
 10
-42.2474
 20
176.964
 10
-42.1903
 20
176.852
 10
-42.1404
 20
176.736
 10
-42.0979
 20
176.618
 10
-42.0628
 20
176.497
 10
-42.0354
 20
176.375
 10
-42.0158
 20
176.251
 10
-42.0039
 20
176.126
 10
-42
 20
176
 10
-42.0039
 20
175.874
 10
-42.0158
 20
175.749
 10
-42.0354
 20
175.625
 10
-42.0628
 20
175.503
 10
-42.0979
 20
175.382
 10
-42.1404
 20
175.264
 10
-42.1903
 20
175.148
 10
-42.2474
 20
175.036
 10
-42.3113
 20
174.928
 10
-42.382
 20
174.824
 10
-42.459
 20
174.725
 10
-42.5421
 20
174.631
 10
-42.6309
 20
174.542
 10
-42.7252
 20
174.459
 10
-42.8244
 20
174.382
 10
-42.9283
 20
174.311
 10
-43.0365
 20
174.247
 10
-43.1484
 20
174.19
 10
-43.2637
 20
174.14
 10
-43.382
 20
174.098
 10
-43.5026
 20
174.063
 10
-43.6252
 20
174.035
 10
-43.7493
 20
174.016
 10
-43.8744
 20
174.004
 10
-44
 20
174
 10
-44.1256
 20
174.004
 10
-44.2507
 20
174.016
 10
-44.3748
 20
174.035
 10
-44.4974
 20
174.063
 10
-44.618
 20
174.098
 10
-44.7362
 20
174.14
 10
-44.8516
 20
174.19
  0
LWPOLYLINE
100
AcDbEntity
  8
0
100
AcDbPolyline
 90
100
 70
1
 10
-91.1484
 20
177.81
 10
-91.0365
 20
177.753
 10
-90.9283
 20
177.689
 10
-90.8244
 20
177.618
 10
-90.7252
 20
177.541
 10
-90.6309
 20
177.458
 10
-90.5421
 20
177.369
 10
-90.459
 20
177.275
 10
-90.382
 20
177.176
 10
-90.3113
 20
177.072
 10
-90.2474
 20
176.964
 10
-90.1903
 20
176.852
 10
-90.1404
 20
176.736
 10
-90.0979
 20
176.618
 10
-90.0628
 20
176.497
 10
-90.0354
 20
176.375
 10
-90.0158
 20
176.251
 10
-90.0039
 20
176.126
 10
-90
 20
176
 10
-90.0039
 20
175.874
 10
-90.0158
 20
175.749
 10
-90.0354
 20
175.625
 10
-90.0628
 20
175.503
 10
-90.0979
 20
175.382
 10
-90.1404
 20
175.264
 10
-90.1903
 20
175.148
 10
-90.2474
 20
175.036
 10
-90.3113
 20
174.928
 10
-90.382
 20
174.824
 10
-90.459
 20
174.725
 10
-90.5421
 20
174.631
 10
-90.6309
 20
174.542
 10
-90.7252
 20
174.459
 10
-90.8244
 20
174.382
 10
-90.9283
 20
174.311
 10
-91.0365
 20
174.247
 10
-91.1484
 20
174.19
 10
-91.2637
 20
174.14
 10
-91.382
 20
174.098
 10
-91.5026
 20
174.063
 10
-91.6252
 20
174.035
 10
-91.7493
 20
174.016
 10
-91.8744
 20
174.004
 10
-92
 20
174
 10
-92.1256
 20
174.004
 10
-92.2507
 20
174.016
 10
-92.3748
 20
174.035
 10
-92.4974
 20
174.063
 10
-92.618
 20
174.098
 10
-92.7363
 20
174.14
 10
-92.8516
 20
174.19
 10
-92.9635
 20
174.247
 10
-93.0717
 20
174.311
 10
-93.1756
 20
174.382
 10
-93.2748
 20
174.459
 10
-93.3691
 20
174.542
 10
-93.4579
 20
174.631
 10
-93.541
 20
174.725
 10
-93.618
 20
174.824
 10
-93.6887
 20
174.928
 10
-93.7526
 20
175.036
 10
-93.8097
 20
175.148
 10
-93.8596
 20
175.264
 10
-93.9021
 20
175.382
 10
-93.9372
 20
175.503
 10
-93.9646
 20
175.625
 10
-93.9842
 20
175.749
 10
-93.9961
 20
175.874
 10
-94
 20
176
 10
-93.9961
 20
176.126
 10
-93.9842
 20
176.251
 10
-93.9646
 20
176.375
 10
-93.9372
 20
176.497
 10
-93.9021
 20
176.618
 10
-93.8596
 20
176.736
 10
-93.8097
 20
176.852
 10
-93.7526
 20
176.964
 10
-93.6887
 20
177.072
 10
-93.618
 20
177.176
 10
-93.541
 20
177.275
 10
-93.4579
 20
177.369
 10
-93.3691
 20
177.458
 10
-93.2748
 20
177.541
 10
-93.1756
 20
177.618
 10
-93.0717
 20
177.689
 10
-92.9635
 20
177.753
 10
-92.8516
 20
177.81
 10
-92.7363
 20
177.86
 10
-92.618
 20
177.902
 10
-92.4974
 20
177.937
 10
-92.3748
 20
177.965
 10
-92.2507
 20
177.984
 10
-92.1256
 20
177.996
 10
-92
 20
178
 10
-91.8744
 20
177.996
 10
-91.7493
 20
177.984
 10
-91.6252
 20
177.965
 10
-91.5026
 20
177.937
 10
-91.382
 20
177.902
 10
-91.2637
 20
177.86
  0
LWPOLYLINE
100
AcDbEntity
  8
0
100
AcDbPolyline
 90
100
 70
1
 10
-69.3691
 20
174.542
 10
-69.4579
 20
174.631
 10
-69.541
 20
174.725
 10
-69.618
 20
174.824
 10
-69.6887
 20
174.928
 10
-69.7526
 20
175.036
 10
-69.8097
 20
175.148
 10
-69.8596
 20
175.264
 10
-69.9021
 20
175.382
 10
-69.9372
 20
175.503
 10
-69.9646
 20
175.625
 10
-69.9842
 20
175.749
 10
-69.996
 20
175.874
 10
-70
 20
176
 10
-69.996
 20
176.126
 10
-69.9842
 20
176.251
 10
-69.9646
 20
176.375
 10
-69.9372
 20
176.497
 10
-69.9021
 20
176.618
 10
-69.8596
 20
176.736
 10
-69.8097
 20
176.852
 10
-69.7526
 20
176.964
 10
-69.6887
 20
177.072
 10
-69.618
 20
177.176
 10
-69.541
 20
177.275
 10
-69.4579
 20
177.369
 10
-69.3691
 20
177.458
 10
-69.2748
 20
177.541
 10
-69.1756
 20
177.618
 10
-69.0717
 20
177.689
 10
-68.9635
 20
177.753
 10
-68.8516
 20
177.81
 10
-68.7363
 20
177.86
 10
-68.618
 20
177.902
 10
-68.4974
 20
177.937
 10
-68.3748
 20
177.965
 10
-68.2507
 20
177.984
 10
-68.1256
 20
177.996
 10
-68
 20
178
 10
-67.8744
 20
177.996
 10
-67.7493
 20
177.984
 10
-67.6252
 20
177.965
 10
-67.5026
 20
177.937
 10
-67.382
 20
177.902
 10
-67.2637
 20
177.86
 10
-67.1484
 20
177.81
 10
-67.0365
 20
177.753
 10
-66.9283
 20
177.689
 10
-66.8244
 20
177.618
 10
-66.7252
 20
177.541
 10
-66.6309
 20
177.458
 10
-66.5421
 20
177.369
 10
-66.459
 20
177.275
 10
-66.382
 20
177.176
 10
-66.3113
 20
177.072
 10
-66.2474
 20
176.964
 10
-66.1903
 20
176.852
 10
-66.1404
 20
176.736
 10
-66.0979
 20
176.618
 10
-66.0628
 20
176.497
 10
-66.0354
 20
176.375
 10
-66.0158
 20
176.251
 10
-66.0039
 20
176.126
 10
-66
 20
176
 10
-66.0039
 20
175.874
 10
-66.0158
 20
175.749
 10
-66.0354
 20
175.625
 10
-66.0628
 20
175.503
 10
-66.0979
 20
175.382
 10
-66.1404
 20
175.264
 10
-66.1903
 20
175.148
 10
-66.2474
 20
175.036
 10
-66.3113
 20
174.928
 10
-66.382
 20
174.824
 10
-66.459
 20
174.725
 10
-66.5421
 20
174.631
 10
-66.6309
 20
174.542
 10
-66.7252
 20
174.459
 10
-66.8244
 20
174.382
 10
-66.9283
 20
174.311
 10
-67.0365
 20
174.247
 10
-67.1484
 20
174.19
 10
-67.2637
 20
174.14
 10
-67.382
 20
174.098
 10
-67.5026
 20
174.063
 10
-67.6252
 20
174.035
 10
-67.7493
 20
174.016
 10
-67.8744
 20
174.004
 10
-68
 20
174
 10
-68.1256
 20
174.004
 10
-68.2507
 20
174.016
 10
-68.3748
 20
174.035
 10
-68.4974
 20
174.063
 10
-68.618
 20
174.098
 10
-68.7363
 20
174.14
 10
-68.8516
 20
174.19
 10
-68.9635
 20
174.247
 10
-69.0717
 20
174.311
 10
-69.1756
 20
174.382
 10
-69.2748
 20
174.459
  0
LWPOLYLINE
100
AcDbEntity
  8
0
100
AcDbPolyline
 90
100
 70
1
 10
-20.9635
 20
174.247
 10
-21.0717
 20
174.311
 10
-21.1756
 20
174.382
 10
-21.2748
 20
174.459
 10
-21.3691
 20
174.542
 10
-21.4579
 20
174.631
 10
-21.541
 20
174.725
 10
-21.618
 20
174.824
 10
-21.6887
 20
174.928
 10
-21.7526
 20
175.036
 10
-21.8097
 20
175.148
 10
-21.8596
 20
175.264
 10
-21.9021
 20
175.382
 10
-21.9372
 20
175.503
 10
-21.9646
 20
175.625
 10
-21.9842
 20
175.749
 10
-21.9961
 20
175.874
 10
-22
 20
176
 10
-21.9961
 20
176.126
 10
-21.9842
 20
176.251
 10
-21.9646
 20
176.375
 10
-21.9372
 20
176.497
 10
-21.9021
 20
176.618
 10
-21.8596
 20
176.736
 10
-21.8097
 20
176.852
 10
-21.7526
 20
176.964
 10
-21.6887
 20
177.072
 10
-21.618
 20
177.176
 10
-21.541
 20
177.275
 10
-21.4579
 20
177.369
 10
-21.3691
 20
177.458
 10
-21.2748
 20
177.541
 10
-21.1756
 20
177.618
 10
-21.0717
 20
177.689
 10
-20.9635
 20
177.753
 10
-20.8516
 20
177.81
 10
-20.7362
 20
177.86
 10
-20.618
 20
177.902
 10
-20.4974
 20
177.937
 10
-20.3748
 20
177.965
 10
-20.2507
 20
177.984
 10
-20.1256
 20
177.996
 10
-20
 20
178
 10
-19.8744
 20
177.996
 10
-19.7493
 20
177.984
 10
-19.6252
 20
177.965
 10
-19.5026
 20
177.937
 10
-19.382
 20
177.902
 10
-19.2638
 20
177.86
 10
-19.1484
 20
177.81
 10
-19.0365
 20
177.753
 10
-18.9283
 20
177.689
 10
-18.8244
 20
177.618
 10
-18.7252
 20
177.541
 10
-18.6309
 20
177.458
 10
-18.5421
 20
177.369
 10
-18.459
 20
177.275
 10
-18.382
 20
177.176
 10
-18.3113
 20
177.072
 10
-18.2474
 20
176.964
 10
-18.1903
 20
176.852
 10
-18.1404
 20
176.736
 10
-18.0979
 20
176.618
 10
-18.0628
 20
176.497
 10
-18.0354
 20
176.375
 10
-18.0158
 20
176.251
 10
-18.0039
 20
176.126
 10
-18
 20
176
 10
-18.0039
 20
175.874
 10
-18.0158
 20
175.749
 10
-18.0354
 20
175.625
 10
-18.0628
 20
175.503
 10
-18.0979
 20
175.382
 10
-18.1404
 20
175.264
 10
-18.1903
 20
175.148
 10
-18.2474
 20
175.036
 10
-18.3113
 20
174.928
 10
-18.382
 20
174.824
 10
-18.459
 20
174.725
 10
-18.5421
 20
174.631
 10
-18.6309
 20
174.542
 10
-18.7252
 20
174.459
 10
-18.8244
 20
174.382
 10
-18.9283
 20
174.311
 10
-19.0365
 20
174.247
 10
-19.1484
 20
174.19
 10
-19.2638
 20
174.14
 10
-19.382
 20
174.098
 10
-19.5026
 20
174.063
 10
-19.6252
 20
174.035
 10
-19.7493
 20
174.016
 10
-19.8744
 20
174.004
 10
-20
 20
174
 10
-20.1256
 20
174.004
 10
-20.2507
 20
174.016
 10
-20.3748
 20
174.035
 10
-20.4974
 20
174.063
 10
-20.618
 20
174.098
 10
-20.7362
 20
174.14
 10
-20.8516
 20
174.19
  0
LWPOLYLINE
100
AcDbEntity
  8
0
100
AcDbPolyline
 90
100
 70
1
 10
-50.1641
 20
154.901
 10
-50.4721
 20
155.298
 10
-50.7546
 20
155.713
 10
-51.0105
 20
156.146
 10
-51.2386
 20
156.594
 10
-51.4382
 20
157.055
 10
-51.6085
 20
157.528
 10
-51.7487
 20
158.01
 10
-51.8583
 20
158.501
 10
-51.9369
 20
158.997
 10
-51.9842
 20
159.498
 10
-52
 20
160
 10
-51.9842
 20
160.502
 10
-51.9369
 20
161.003
 10
-51.8583
 20
161.499
 10
-51.7487
 20
161.99
 10
-51.6085
 20
162.472
 10
-51.4382
 20
162.945
 10
-51.2386
 20
163.406
 10
-51.0105
 20
163.854
 10
-50.7546
 20
164.287
 10
-50.4721
 20
164.702
 10
-50.1641
 20
165.099
 10
-49.8317
 20
165.476
 10
-49.4764
 20
165.832
 10
-49.0994
 20
166.164
 10
-48.7023
 20
166.472
 10
-48.2866
 20
166.755
 10
-47.854
 20
167.01
 10
-47.4062
 20
167.239
 10
-46.945
 20
167.438
 10
-46.4721
 20
167.608
 10
-45.9895
 20
167.749
 10
-45.4991
 20
167.858
 10
-45.0027
 20
167.937
 10
-44.5023
 20
167.984
 10
-44
 20
168
 10
-43.4977
 20
167.984
 10
-42.9973
 20
167.937
 10
-42.5009
 20
167.858
 10
-42.0105
 20
167.749
 10
-41.5279
 20
167.608
 10
-41.055
 20
167.438
 10
-40.5938
 20
167.239
 10
-40.146
 20
167.01
 10
-39.7134
 20
166.755
 10
-39.2977
 20
166.472
 10
-38.9006
 20
166.164
 10
-38.5236
 20
165.832
 10
-38.1683
 20
165.476
 10
-37.8359
 20
165.099
 10
-37.5279
 20
164.702
 10
-37.2454
 20
164.287
 10
-36.9895
 20
163.854
 10
-36.7614
 20
163.406
 10
-36.5618
 20
162.945
 10
-36.3915
 20
162.472
 10
-36.2513
 20
161.99
 10
-36.1417
 20
161.499
 10
-36.0631
 20
161.003
 10
-36.0158
 20
160.502
 10
-36
 20
160
 10
-36.0158
 20
159.498
 10
-36.0631
 20
158.997
 10
-36.1417
 20
158.501
 10
-36.2513
 20
158.01
 10
-36.3915
 20
157.528
 10
-36.5618
 20
157.055
 10
-36.7614
 20
156.594
 10
-36.9895
 20
156.146
 10
-37.2454
 20
155.713
 10
-37.5279
 20
155.298
 10
-37.8359
 20
154.901
 10
-38.1683
 20
154.524
 10
-38.5236
 20
154.168
 10
-38.9006
 20
153.836
 10
-39.2977
 20
153.528
 10
-39.7134
 20
153.245
 10
-40.146
 20
152.99
 10
-40.5938
 20
152.761
 10
-41.055
 20
152.562
 10
-41.5279
 20
152.392
 10
-42.0105
 20
152.251
 10
-42.5009
 20
152.142
 10
-42.9973
 20
152.063
 10
-43.4977
 20
152.016
 10
-44
 20
152
 10
-44.5023
 20
152.016
 10
-45.0027
 20
152.063
 10
-45.4991
 20
152.142
 10
-45.9895
 20
152.251
 10
-46.4721
 20
152.392
 10
-46.945
 20
152.562
 10
-47.4062
 20
152.761
 10
-47.854
 20
152.99
 10
-48.2866
 20
153.245
 10
-48.7023
 20
153.528
 10
-49.0994
 20
153.836
 10
-49.4764
 20
154.168
 10
-49.8317
 20
154.524
  0
LWPOLYLINE
100
AcDbEntity
  8
0
100
AcDbPolyline
 90
100
 70
1
 10
-84.3915
 20
162.472
 10
-84.2513
 20
161.99
 10
-84.1417
 20
161.499
 10
-84.0631
 20
161.003
 10
-84.0158
 20
160.502
 10
-84
 20
160
 10
-84.0158
 20
159.498
 10
-84.0631
 20
158.997
 10
-84.1417
 20
158.501
 10
-84.2513
 20
158.01
 10
-84.3915
 20
157.528
 10
-84.5618
 20
157.055
 10
-84.7614
 20
156.594
 10
-84.9895
 20
156.146
 10
-85.2454
 20
155.713
 10
-85.5279
 20
155.298
 10
-85.8359
 20
154.901
 10
-86.1683
 20
154.524
 10
-86.5236
 20
154.168
 10
-86.9006
 20
153.836
 10
-87.2977
 20
153.528
 10
-87.7134
 20
153.245
 10
-88.146
 20
152.99
 10
-88.5938
 20
152.761
 10
-89.055
 20
152.562
 10
-89.5279
 20
152.392
 10
-90.0105
 20
152.251
 10
-90.5009
 20
152.142
 10
-90.9973
 20
152.063
 10
-91.4977
 20
152.016
 10
-92
 20
152
 10
-92.5023
 20
152.016
 10
-93.0027
 20
152.063
 10
-93.4991
 20
152.142
 10
-93.9895
 20
152.251
 10
-94.4721
 20
152.392
 10
-94.945
 20
152.562
 10
-95.4062
 20
152.761
 10
-95.854
 20
152.99
 10
-96.2866
 20
153.245
 10
-96.7023
 20
153.528
 10
-97.0994
 20
153.836
 10
-97.4764
 20
154.168
 10
-97.8317
 20
154.524
 10
-98.1641
 20
154.901
 10
-98.4721
 20
155.298
 10
-98.7546
 20
155.713
 10
-99.0105
 20
156.146
 10
-99.2386
 20
156.594
 10
-99.4382
 20
157.055
 10
-99.6085
 20
157.528
 10
-99.7487
 20
158.01
 10
-99.8583
 20
158.501
 10
-99.9369
 20
158.997
 10
-99.9842
 20
159.498
 10
-100
 20
160
 10
-99.9842
 20
160.502
 10
-99.9369
 20
161.003
 10
-99.8583
 20
161.499
 10
-99.7487
 20
161.99
 10
-99.6085
 20
162.472
 10
-99.4382
 20
162.945
 10
-99.2386
 20
163.406
 10
-99.0105
 20
163.854
 10
-98.7546
 20
164.287
 10
-98.4721
 20
164.702
 10
-98.1641
 20
165.099
 10
-97.8317
 20
165.476
 10
-97.4764
 20
165.832
 10
-97.0988
 20
166.165
 10
-96.7023
 20
166.472
 10
-96.2866
 20
166.755
 10
-95.854
 20
167.01
 10
-95.4062
 20
167.239
 10
-94.945
 20
167.438
 10
-94.4721
 20
167.608
 10
-93.9895
 20
167.749
 10
-93.4991
 20
167.858
 10
-93.0027
 20
167.937
 10
-92.5023
 20
167.984
 10
-92
 20
168
 10
-91.4977
 20
167.984
 10
-90.9973
 20
167.937
 10
-90.5009
 20
167.858
 10
-90.0105
 20
167.749
 10
-89.5279
 20
167.608
 10
-89.055
 20
167.438
 10
-88.5938
 20
167.239
 10
-88.146
 20
167.01
 10
-87.7134
 20
166.755
 10
-87.2977
 20
166.472
 10
-86.9006
 20
166.164
 10
-86.5236
 20
165.832
 10
-86.1683
 20
165.476
 10
-85.8359
 20
165.099
 10
-85.5279
 20
164.702
 10
-85.2454
 20
164.287
 10
-84.9895
 20
163.854
 10
-84.7614
 20
163.406
 10
-84.5618
 20
162.945
  0
LWPOLYLINE
100
AcDbEntity
  8
0
100
AcDbPolyline
 90
100
 70
1
 10
-75.9369
 20
161.003
 10
-75.8583
 20
161.499
 10
-75.7487
 20
161.99
 10
-75.6085
 20
162.472
 10
-75.4382
 20
162.945
 10
-75.2386
 20
163.406
 10
-75.0105
 20
163.854
 10
-74.7546
 20
164.287
 10
-74.4721
 20
164.702
 10
-74.1641
 20
165.099
 10
-73.8317
 20
165.476
 10
-73.4764
 20
165.832
 10
-73.0994
 20
166.164
 10
-72.7023
 20
166.472
 10
-72.2866
 20
166.755
 10
-71.854
 20
167.01
 10
-71.4062
 20
167.239
 10
-70.945
 20
167.438
 10
-70.4721
 20
167.608
 10
-69.9895
 20
167.749
 10
-69.4991
 20
167.858
 10
-69.0027
 20
167.937
 10
-68.5023
 20
167.984
 10
-68
 20
168
 10
-67.4977
 20
167.984
 10
-66.9973
 20
167.937
 10
-66.5009
 20
167.858
 10
-66.0105
 20
167.749
 10
-65.5279
 20
167.608
 10
-65.055
 20
167.438
 10
-64.5938
 20
167.239
 10
-64.146
 20
167.01
 10
-63.7134
 20
166.755
 10
-63.2977
 20
166.472
 10
-62.9006
 20
166.164
 10
-62.5236
 20
165.832
 10
-62.1683
 20
165.476
 10
-61.8359
 20
165.099
 10
-61.5279
 20
164.702
 10
-61.2454
 20
164.287
 10
-60.9895
 20
163.854
 10
-60.7614
 20
163.406
 10
-60.5618
 20
162.945
 10
-60.3915
 20
162.472
 10
-60.2513
 20
161.99
 10
-60.1417
 20
161.499
 10
-60.0631
 20
161.003
 10
-60.0158
 20
160.502
 10
-60
 20
160
 10
-60.0158
 20
159.498
 10
-60.0631
 20
158.997
 10
-60.1417
 20
158.501
 10
-60.2513
 20
158.01
 10
-60.3915
 20
157.528
 10
-60.5618
 20
157.055
 10
-60.7614
 20
156.594
 10
-60.9895
 20
156.146
 10
-61.2454
 20
155.713
 10
-61.5279
 20
155.298
 10
-61.8359
 20
154.901
 10
-62.1683
 20
154.524
 10
-62.5236
 20
154.168
 10
-62.9006
 20
153.836
 10
-63.2977
 20
153.528
 10
-63.7134
 20
153.245
 10
-64.146
 20
152.99
 10
-64.5938
 20
152.761
 10
-65.055
 20
152.562
 10
-65.5279
 20
152.392
 10
-66.0105
 20
152.251
 10
-66.5009
 20
152.142
 10
-66.9973
 20
152.063
 10
-67.4977
 20
152.016
 10
-68
 20
152
 10
-68.5023
 20
152.016
 10
-69.0027
 20
152.063
 10
-69.4991
 20
152.142
 10
-69.9895
 20
152.251
 10
-70.4721
 20
152.392
 10
-70.945
 20
152.562
 10
-71.4062
 20
152.761
 10
-71.854
 20
152.99
 10
-72.2866
 20
153.245
 10
-72.7023
 20
153.528
 10
-73.0994
 20
153.836
 10
-73.4764
 20
154.168
 10
-73.8317
 20
154.524
 10
-74.1641
 20
154.901
 10
-74.4721
 20
155.298
 10
-74.7546
 20
155.713
 10
-75.0105
 20
156.146
 10
-75.2386
 20
156.594
 10
-75.4382
 20
157.055
 10
-75.6085
 20
157.528
 10
-75.7487
 20
158.01
 10
-75.8583
 20
158.501
 10
-75.9369
 20
158.997
 10
-75.9842
 20
159.498
 10
-76
 20
160
 10
-75.9842
 20
160.502
  0
LWPOLYLINE
100
AcDbEntity
  8
0
100
AcDbPolyline
 90
103
 70
1
 10
-30
 20
144
 10
-30.0039
 20
143.874
 10
-30.0158
 20
143.749
 10
-30.0354
 20
143.625
 10
-30.0628
 20
143.503
 10
-30.0979
 20
143.382
 10
-30.1404
 20
143.264
 10
-30.1903
 20
143.148
 10
-30.2474
 20
143.036
 10
-30.3113
 20
142.928
 10
-30.382
 20
142.824
 10
-30.459
 20
142.725
 10
-30.5421
 20
142.631
 10
-30.6309
 20
142.542
 10
-30.7252
 20
142.459
 10
-30.8244
 20
142.382
 10
-30.9283
 20
142.311
 10
-31.0365
 20
142.247
 10
-31.1484
 20
142.19
 10
-31.2638
 20
142.14
 10
-31.382
 20
142.098
 10
-31.5026
 20
142.063
 10
-31.6252
 20
142.035
 10
-31.7493
 20
142.016
 10
-31.8744
 20
142.004
 10
-32
 20
142
 10
-32.1256
 20
142.004
 10
-32.2507
 20
142.016
 10
-32.3748
 20
142.035
 10
-32.4974
 20
142.063
 10
-32.618
 20
142.098
 10
-32.7362
 20
142.14
 10
-32.8516
 20
142.19
 10
-32.9635
 20
142.247
 10
-33.0717
 20
142.311
 10
-33.1756
 20
142.382
 10
-33.2748
 20
142.459
 10
-33.3691
 20
142.542
 10
-33.4579
 20
142.631
 10
-33.541
 20
142.725
 10
-33.618
 20
142.824
 10
-33.6887
 20
142.928
 10
-33.7526
 20
143.036
 10
-33.8097
 20
143.148
 10
-33.8596
 20
143.264
 10
-33.9021
 20
143.382
 10
-33.9372
 20
143.503
 10
-33.9646
 20
143.625
 10
-33.9842
 20
143.749
 10
-33.9961
 20
143.874
 10
-34
 20
144
 10
-33.9961
 20
144.126
 10
-33.9842
 20
144.251
 10
-33.9646
 20
144.375
 10
-33.9372
 20
144.497
 10
-33.9021
 20
144.618
 10
-33.8596
 20
144.736
 10
-33.8097
 20
144.852
 10
-33.7526
 20
144.964
 10
-33.6887
 20
145.072
 10
-33.618
 20
145.176
 10
-33.541
 20
145.275
 10
-33.4579
 20
145.369
 10
-33.3691
 20
145.458
 10
-33.2748
 20
145.541
 10
-33.1756
 20
145.618
 10
-33.0717
 20
145.689
 10
-32.9635
 20
145.753
 10
-32.8516
 20
145.81
 10
-32.7362
 20
145.86
 10
-32.618
 20
145.902
 10
-32.4974
 20
145.937
 10
-32.3748
 20
145.965
 10
-32.2507
 20
145.984
 10
-32.1256
 20
145.996
 10
-32
 20
146
 10
-31.9874
 20
146
 10
-31.8744
 20
145.996
 10
-31.7493
 20
145.984
 10
-31.6252
 20
145.965
 10
-31.613
 20
145.962
 10
-31.5026
 20
145.937
 10
-31.382
 20
145.902
 10
-31.2638
 20
145.86
 10
-31.1484
 20
145.81
 10
-31.0365
 20
145.753
 10
-30.9283
 20
145.689
 10
-30.8244
 20
145.618
 10
-30.7252
 20
145.541
 10
-30.6309
 20
145.458
 10
-30.5421
 20
145.369
 10
-30.459
 20
145.275
 10
-30.382
 20
145.176
 10
-30.3113
 20
145.072
 10
-30.2474
 20
144.964
 10
-30.2417
 20
144.952
 10
-30.1903
 20
144.852
 10
-30.1404
 20
144.736
 10
-30.0979
 20
144.618
 10
-30.0628
 20
144.497
 10
-30.0354
 20
144.375
 10
-30.0158
 20
144.251
 10
-30.0039
 20
144.126
  0
LWPOLYLINE
100
AcDbEntity
  8
0
100
AcDbPolyline
 90
100
 70
1
 10
-79.2637
 20
145.86
 10
-79.1484
 20
145.81
 10
-79.0365
 20
145.753
 10
-78.9283
 20
145.689
 10
-78.8244
 20
145.618
 10
-78.7252
 20
145.541
 10
-78.6309
 20
145.458
 10
-78.5421
 20
145.369
 10
-78.459
 20
145.275
 10
-78.382
 20
145.176
 10
-78.3113
 20
145.072
 10
-78.2474
 20
144.964
 10
-78.1903
 20
144.852
 10
-78.1404
 20
144.736
 10
-78.0979
 20
144.618
 10
-78.0628
 20
144.497
 10
-78.0354
 20
144.375
 10
-78.0158
 20
144.251
 10
-78.0039
 20
144.126
 10
-78
 20
144
 10
-78.0039
 20
143.874
 10
-78.0158
 20
143.749
 10
-78.0354
 20
143.625
 10
-78.0628
 20
143.503
 10
-78.0979
 20
143.382
 10
-78.1404
 20
143.264
 10
-78.1903
 20
143.148
 10
-78.2474
 20
143.036
 10
-78.3113
 20
142.928
 10
-78.382
 20
142.824
 10
-78.459
 20
142.725
 10
-78.5421
 20
142.631
 10
-78.6309
 20
142.542
 10
-78.7252
 20
142.459
 10
-78.8244
 20
142.382
 10
-78.9283
 20
142.311
 10
-79.0365
 20
142.247
 10
-79.1484
 20
142.19
 10
-79.2637
 20
142.14
 10
-79.382
 20
142.098
 10
-79.5026
 20
142.063
 10
-79.6252
 20
142.035
 10
-79.7493
 20
142.016
 10
-79.8744
 20
142.004
 10
-80.0014
 20
142
 10
-80.1256
 20
142.004
 10
-80.2507
 20
142.016
 10
-80.3748
 20
142.035
 10
-80.4974
 20
142.063
 10
-80.618
 20
142.098
 10
-80.7363
 20
142.14
 10
-80.8516
 20
142.19
 10
-80.9635
 20
142.247
 10
-81.0717
 20
142.311
 10
-81.1756
 20
142.382
 10
-81.2748
 20
142.459
 10
-81.3691
 20
142.542
 10
-81.4579
 20
142.631
 10
-81.541
 20
142.725
 10
-81.618
 20
142.824
 10
-81.6887
 20
142.928
 10
-81.7526
 20
143.036
 10
-81.8097
 20
143.148
 10
-81.8596
 20
143.264
 10
-81.9021
 20
143.382
 10
-81.9372
 20
143.503
 10
-81.9646
 20
143.625
 10
-81.9842
 20
143.749
 10
-81.9961
 20
143.874
 10
-82
 20
144
 10
-81.9961
 20
144.126
 10
-81.9842
 20
144.251
 10
-81.9646
 20
144.375
 10
-81.9372
 20
144.497
 10
-81.9021
 20
144.618
 10
-81.8596
 20
144.736
 10
-81.8097
 20
144.852
 10
-81.7526
 20
144.964
 10
-81.6887
 20
145.072
 10
-81.618
 20
145.176
 10
-81.541
 20
145.275
 10
-81.4579
 20
145.369
 10
-81.3691
 20
145.458
 10
-81.2748
 20
145.541
 10
-81.1756
 20
145.618
 10
-81.0717
 20
145.689
 10
-80.9635
 20
145.753
 10
-80.8516
 20
145.81
 10
-80.7363
 20
145.86
 10
-80.618
 20
145.902
 10
-80.4974
 20
145.937
 10
-80.3748
 20
145.965
 10
-80.2507
 20
145.984
 10
-80.1256
 20
145.996
 10
-80
 20
146
 10
-79.8744
 20
145.996
 10
-79.7493
 20
145.984
 10
-79.6252
 20
145.965
 10
-79.5026
 20
145.937
 10
-79.382
 20
145.902
  0
LWPOLYLINE
100
AcDbEntity
  8
0
100
AcDbPolyline
 90
100
 70
1
 10
-69.9372
 20
143.503
 10
-69.9646
 20
143.625
 10
-69.9842
 20
143.749
 10
-69.996
 20
143.874
 10
-70
 20
144
 10
-69.996
 20
144.126
 10
-69.9842
 20
144.251
 10
-69.9646
 20
144.375
 10
-69.9372
 20
144.497
 10
-69.9021
 20
144.618
 10
-69.8596
 20
144.736
 10
-69.8097
 20
144.852
 10
-69.7526
 20
144.964
 10
-69.6887
 20
145.072
 10
-69.618
 20
145.176
 10
-69.541
 20
145.275
 10
-69.4579
 20
145.369
 10
-69.3691
 20
145.458
 10
-69.2748
 20
145.541
 10
-69.1756
 20
145.618
 10
-69.0717
 20
145.689
 10
-68.9635
 20
145.753
 10
-68.8516
 20
145.81
 10
-68.7363
 20
145.86
 10
-68.618
 20
145.902
 10
-68.4974
 20
145.937
 10
-68.3748
 20
145.965
 10
-68.2507
 20
145.984
 10
-68.1256
 20
145.996
 10
-68
 20
146
 10
-67.8744
 20
145.996
 10
-67.7493
 20
145.984
 10
-67.6252
 20
145.965
 10
-67.5026
 20
145.937
 10
-67.382
 20
145.902
 10
-67.2637
 20
145.86
 10
-67.1484
 20
145.81
 10
-67.0365
 20
145.753
 10
-66.9283
 20
145.689
 10
-66.8244
 20
145.618
 10
-66.7252
 20
145.541
 10
-66.6309
 20
145.458
 10
-66.5421
 20
145.369
 10
-66.459
 20
145.275
 10
-66.382
 20
145.176
 10
-66.3113
 20
145.072
 10
-66.2474
 20
144.964
 10
-66.1903
 20
144.852
 10
-66.1404
 20
144.736
 10
-66.0979
 20
144.618
 10
-66.0628
 20
144.497
 10
-66.0354
 20
144.375
 10
-66.0158
 20
144.251
 10
-66.0039
 20
144.126
 10
-66
 20
144
 10
-66.0039
 20
143.874
 10
-66.0158
 20
143.749
 10
-66.0354
 20
143.625
 10
-66.0628
 20
143.503
 10
-66.0979
 20
143.382
 10
-66.1404
 20
143.264
 10
-66.1903
 20
143.148
 10
-66.2474
 20
143.036
 10
-66.3113
 20
142.928
 10
-66.382
 20
142.824
 10
-66.459
 20
142.725
 10
-66.5421
 20
142.631
 10
-66.6309
 20
142.542
 10
-66.7252
 20
142.459
 10
-66.8244
 20
142.382
 10
-66.9283
 20
142.311
 10
-67.0365
 20
142.247
 10
-67.1484
 20
142.19
 10
-67.2637
 20
142.14
 10
-67.382
 20
142.098
 10
-67.5026
 20
142.063
 10
-67.6252
 20
142.035
 10
-67.7493
 20
142.016
 10
-67.8744
 20
142.004
 10
-68
 20
142
 10
-68.1256
 20
142.004
 10
-68.2507
 20
142.016
 10
-68.3748
 20
142.035
 10
-68.4974
 20
142.063
 10
-68.618
 20
142.098
 10
-68.7363
 20
142.14
 10
-68.8516
 20
142.19
 10
-68.9635
 20
142.247
 10
-69.0717
 20
142.311
 10
-69.1756
 20
142.382
 10
-69.2748
 20
142.459
 10
-69.3691
 20
142.542
 10
-69.4579
 20
142.631
 10
-69.541
 20
142.725
 10
-69.618
 20
142.824
 10
-69.6887
 20
142.928
 10
-69.7526
 20
143.036
 10
-69.8097
 20
143.148
 10
-69.8596
 20
143.264
 10
-69.9021
 20
143.382
  0
LWPOLYLINE
100
AcDbEntity
  8
0
100
AcDbPolyline
 90
100
 70
1
 10
-21.9372
 20
144.497
 10
-21.9021
 20
144.618
 10
-21.8596
 20
144.736
 10
-21.8097
 20
144.852
 10
-21.7526
 20
144.964
 10
-21.6887
 20
145.072
 10
-21.618
 20
145.176
 10
-21.541
 20
145.275
 10
-21.4579
 20
145.369
 10
-21.3691
 20
145.458
 10
-21.2748
 20
145.541
 10
-21.1756
 20
145.618
 10
-21.0717
 20
145.689
 10
-20.9635
 20
145.753
 10
-20.8516
 20
145.81
 10
-20.7362
 20
145.86
 10
-20.618
 20
145.902
 10
-20.4974
 20
145.937
 10
-20.3748
 20
145.965
 10
-20.2507
 20
145.984
 10
-20.1256
 20
145.996
 10
-20
 20
146
 10
-19.8744
 20
145.996
 10
-19.7493
 20
145.984
 10
-19.6252
 20
145.965
 10
-19.5026
 20
145.937
 10
-19.382
 20
145.902
 10
-19.2638
 20
145.86
 10
-19.1484
 20
145.81
 10
-19.0365
 20
145.753
 10
-18.9283
 20
145.689
 10
-18.8244
 20
145.618
 10
-18.7252
 20
145.541
 10
-18.6309
 20
145.458
 10
-18.5421
 20
145.369
 10
-18.459
 20
145.275
 10
-18.382
 20
145.176
 10
-18.3113
 20
145.072
 10
-18.2474
 20
144.964
 10
-18.1903
 20
144.852
 10
-18.1404
 20
144.736
 10
-18.0979
 20
144.618
 10
-18.0628
 20
144.497
 10
-18.0354
 20
144.375
 10
-18.0158
 20
144.251
 10
-18.0039
 20
144.126
 10
-18
 20
144
 10
-18.0039
 20
143.874
 10
-18.0158
 20
143.749
 10
-18.0354
 20
143.625
 10
-18.0628
 20
143.503
 10
-18.0979
 20
143.382
 10
-18.1404
 20
143.264
 10
-18.1903
 20
143.148
 10
-18.2474
 20
143.036
 10
-18.3113
 20
142.928
 10
-18.382
 20
142.824
 10
-18.459
 20
142.725
 10
-18.5421
 20
142.631
 10
-18.6309
 20
142.542
 10
-18.7252
 20
142.459
 10
-18.8244
 20
142.382
 10
-18.9283
 20
142.311
 10
-19.0365
 20
142.247
 10
-19.1484
 20
142.19
 10
-19.2638
 20
142.14
 10
-19.382
 20
142.098
 10
-19.5026
 20
142.063
 10
-19.6252
 20
142.035
 10
-19.7493
 20
142.016
 10
-19.8744
 20
142.004
 10
-20
 20
142
 10
-20.1256
 20
142.004
 10
-20.2507
 20
142.016
 10
-20.3748
 20
142.035
 10
-20.4974
 20
142.063
 10
-20.618
 20
142.098
 10
-20.7362
 20
142.14
 10
-20.8516
 20
142.19
 10
-20.9635
 20
142.247
 10
-21.0717
 20
142.311
 10
-21.1756
 20
142.382
 10
-21.2748
 20
142.459
 10
-21.3691
 20
142.542
 10
-21.4579
 20
142.631
 10
-21.541
 20
142.725
 10
-21.618
 20
142.824
 10
-21.6887
 20
142.928
 10
-21.7526
 20
143.036
 10
-21.8097
 20
143.148
 10
-21.8596
 20
143.264
 10
-21.9021
 20
143.382
 10
-21.9372
 20
143.503
 10
-21.9646
 20
143.625
 10
-21.9842
 20
143.749
 10
-21.9961
 20
143.874
 10
-22
 20
144
 10
-21.9961
 20
144.126
 10
-21.9842
 20
144.251
 10
-21.9646
 20
144.375
  0
LWPOLYLINE
100
AcDbEntity
  8
0
100
AcDbPolyline
 90
100
 70
1
 10
-103.036
 20
145.753
 10
-102.928
 20
145.689
 10
-102.824
 20
145.618
 10
-102.725
 20
145.541
 10
-102.631
 20
145.458
 10
-102.542
 20
145.369
 10
-102.459
 20
145.275
 10
-102.382
 20
145.176
 10
-102.311
 20
145.072
 10
-102.247
 20
144.964
 10
-102.19
 20
144.852
 10
-102.14
 20
144.736
 10
-102.098
 20
144.618
 10
-102.063
 20
144.497
 10
-102.035
 20
144.375
 10
-102.016
 20
144.251
 10
-102.004
 20
144.126
 10
-102
 20
144
 10
-102.004
 20
143.874
 10
-102.016
 20
143.749
 10
-102.035
 20
143.625
 10
-102.063
 20
143.503
 10
-102.098
 20
143.382
 10
-102.14
 20
143.264
 10
-102.19
 20
143.148
 10
-102.247
 20
143.036
 10
-102.311
 20
142.928
 10
-102.382
 20
142.824
 10
-102.459
 20
142.725
 10
-102.542
 20
142.631
 10
-102.631
 20
142.542
 10
-102.725
 20
142.459
 10
-102.824
 20
142.382
 10
-102.928
 20
142.311
 10
-103.036
 20
142.247
 10
-103.148
 20
142.19
 10
-103.264
 20
142.14
 10
-103.382
 20
142.098
 10
-103.503
 20
142.063
 10
-103.625
 20
142.035
 10
-103.749
 20
142.016
 10
-103.874
 20
142.004
 10
-104
 20
142
 10
-104.126
 20
142.004
 10
-104.251
 20
142.016
 10
-104.375
 20
142.035
 10
-104.497
 20
142.063
 10
-104.618
 20
142.098
 10
-104.736
 20
142.14
 10
-104.852
 20
142.19
 10
-104.964
 20
142.247
 10
-105.072
 20
142.311
 10
-105.176
 20
142.382
 10
-105.275
 20
142.459
 10
-105.369
 20
142.542
 10
-105.458
 20
142.631
 10
-105.541
 20
142.725
 10
-105.618
 20
142.824
 10
-105.689
 20
142.928
 10
-105.753
 20
143.036
 10
-105.81
 20
143.148
 10
-105.86
 20
143.264
 10
-105.902
 20
143.382
 10
-105.937
 20
143.503
 10
-105.965
 20
143.625
 10
-105.984
 20
143.749
 10
-105.996
 20
143.874
 10
-106
 20
144
 10
-105.996
 20
144.126
 10
-105.984
 20
144.251
 10
-105.965
 20
144.375
 10
-105.937
 20
144.497
 10
-105.902
 20
144.618
 10
-105.849
 20
144.761
 10
-105.81
 20
144.852
 10
-105.753
 20
144.964
 10
-105.689
 20
145.072
 10
-105.618
 20
145.176
 10
-105.541
 20
145.275
 10
-105.458
 20
145.369
 10
-105.369
 20
145.458
 10
-105.275
 20
145.541
 10
-105.176
 20
145.618
 10
-105.072
 20
145.689
 10
-104.964
 20
145.753
 10
-104.852
 20
145.81
 10
-104.736
 20
145.86
 10
-104.618
 20
145.902
 10
-104.497
 20
145.937
 10
-104.375
 20
145.965
 10
-104.251
 20
145.984
 10
-104.126
 20
145.996
 10
-104
 20
146
 10
-103.874
 20
145.996
 10
-103.749
 20
145.984
 10
-103.625
 20
145.965
 10
-103.503
 20
145.937
 10
-103.382
 20
145.902
 10
-103.264
 20
145.86
 10
-103.148
 20
145.81
  0
LWPOLYLINE
100
AcDbEntity
  8
0
100
AcDbPolyline
 90
100
 70
1
 10
-57.1756
 20
142.382
 10
-57.2748
 20
142.459
 10
-57.3691
 20
142.542
 10
-57.4579
 20
142.631
 10
-57.541
 20
142.725
 10
-57.618
 20
142.824
 10
-57.6887
 20
142.928
 10
-57.7526
 20
143.036
 10
-57.8097
 20
143.148
 10
-57.8596
 20
143.264
 10
-57.9021
 20
143.382
 10
-57.9372
 20
143.503
 10
-57.9646
 20
143.625
 10
-57.9842
 20
143.749
 10
-57.9961
 20
143.874
 10
-58
 20
144
 10
-57.9961
 20
144.126
 10
-57.9842
 20
144.251
 10
-57.9646
 20
144.375
 10
-57.9372
 20
144.497
 10
-57.9021
 20
144.618
 10
-57.8596
 20
144.736
 10
-57.8097
 20
144.852
 10
-57.7526
 20
144.964
 10
-57.6887
 20
145.072
 10
-57.618
 20
145.176
 10
-57.541
 20
145.275
 10
-57.4579
 20
145.369
 10
-57.3691
 20
145.458
 10
-57.2748
 20
145.541
 10
-57.1756
 20
145.618
 10
-57.0717
 20
145.689
 10
-56.9635
 20
145.753
 10
-56.8516
 20
145.81
 10
-56.7362
 20
145.86
 10
-56.618
 20
145.902
 10
-56.4974
 20
145.937
 10
-56.3748
 20
145.965
 10
-56.2507
 20
145.984
 10
-56.1256
 20
145.996
 10
-56
 20
146
 10
-55.8744
 20
145.996
 10
-55.7493
 20
145.984
 10
-55.6252
 20
145.965
 10
-55.5026
 20
145.937
 10
-55.382
 20
145.902
 10
-55.2637
 20
145.86
 10
-55.1484
 20
145.81
 10
-55.0365
 20
145.753
 10
-54.9283
 20
145.689
 10
-54.8244
 20
145.618
 10
-54.7252
 20
145.541
 10
-54.6309
 20
145.458
 10
-54.5421
 20
145.369
 10
-54.459
 20
145.275
 10
-54.382
 20
145.176
 10
-54.3113
 20
145.072
 10
-54.2474
 20
144.964
 10
-54.1903
 20
144.852
 10
-54.1404
 20
144.736
 10
-54.0979
 20
144.618
 10
-54.0628
 20
144.497
 10
-54.0354
 20
144.375
 10
-54.0158
 20
144.251
 10
-54.0039
 20
144.126
 10
-54
 20
144
 10
-54.0039
 20
143.874
 10
-54.0158
 20
143.749
 10
-54.0354
 20
143.625
 10
-54.0628
 20
143.503
 10
-54.0979
 20
143.382
 10
-54.1404
 20
143.264
 10
-54.1903
 20
143.148
 10
-54.2474
 20
143.036
 10
-54.3113
 20
142.928
 10
-54.382
 20
142.824
 10
-54.459
 20
142.725
 10
-54.5421
 20
142.631
 10
-54.6309
 20
142.542
 10
-54.7252
 20
142.459
 10
-54.8244
 20
142.382
 10
-54.9283
 20
142.311
 10
-55.0365
 20
142.247
 10
-55.1484
 20
142.19
 10
-55.2637
 20
142.14
 10
-55.382
 20
142.098
 10
-55.5026
 20
142.063
 10
-55.6252
 20
142.035
 10
-55.7493
 20
142.016
 10
-55.8744
 20
142.004
 10
-56
 20
142
 10
-56.1256
 20
142.004
 10
-56.2507
 20
142.016
 10
-56.3748
 20
142.035
 10
-56.4974
 20
142.063
 10
-56.618
 20
142.098
 10
-56.7362
 20
142.14
 10
-56.8516
 20
142.19
 10
-56.9635
 20
142.247
 10
-57.0717
 20
142.311
  0
ENDSEC
  0
EOF
