  0
SECTION
  2
BLOCKS
  0
ENDSEC
  0
SECTION
  2
ENTITIES
  0
LINE
  8
0
 10
24.4395
 20
-6.98618
 11
24.8773
 21
-6.94479
  0
LINE
  8
0
 10
24.8773
 20
-6.94479
 11
25.3117
 21
-6.87601
  0
LINE
  8
0
 10
25.3117
 20
-6.87601
 11
25.7408
 21
-6.78008
  0
LINE
  8
0
 10
25.7408
 20
-6.78008
 11
26.1631
 21
-6.65739
  0
LINE
  8
0
 10
26.1631
 20
-6.65739
 11
26.5769
 21
-6.50842
  0
LINE
  8
0
 10
26.5769
 20
-6.50842
 11
26.9805
 21
-6.33379
  0
LINE
  8
0
 10
26.9805
 20
-6.33379
 11
27.3723
 21
-6.13414
  0
LINE
  8
0
 10
27.3723
 20
-6.13414
 11
27.7508
 21
-5.91029
  0
LINE
  8
0
 10
27.7508
 20
-5.91029
 11
28.1145
 21
-5.66312
  0
LINE
  8
0
 10
28.1145
 20
-5.66312
 11
28.462
 21
-5.39359
  0
LINE
  8
0
 10
28.462
 20
-5.39359
 11
28.7918
 21
-5.10277
  0
LINE
  8
0
 10
28.7918
 20
-5.10277
 11
29.1028
 21
-4.79182
  0
LINE
  8
0
 10
29.1028
 20
-4.79182
 11
29.3936
 21
-4.46196
  0
LINE
  8
0
 10
29.3936
 20
-4.46196
 11
29.6631
 21
-4.11449
  0
LINE
  8
0
 10
29.6631
 20
-4.11449
 11
29.9103
 21
-3.75078
  0
LINE
  8
0
 10
29.9103
 20
-3.75078
 11
30.1341
 21
-3.37227
  0
LINE
  8
0
 10
30.1341
 20
-3.37227
 11
30.3338
 21
-2.98045
  0
LINE
  8
0
 10
30.3338
 20
-2.98045
 11
30.5084
 21
-2.57686
  0
LINE
  8
0
 10
30.5084
 20
-2.57686
 11
30.6574
 21
-2.16312
  0
LINE
  8
0
 10
30.6574
 20
-2.16312
 11
30.7801
 21
-1.74081
  0
LINE
  8
0
 10
30.7801
 20
-1.74081
 11
30.876
 21
-1.31166
  0
LINE
  8
0
 10
30.876
 20
-1.31166
 11
30.9448
 21
-0.877319
  0
LINE
  8
0
 10
30.9448
 20
-0.877319
 11
30.9862
 21
-0.439529
  0
LINE
  8
0
 10
30.9862
 20
-0.439529
 11
31
 21
0
  0
LINE
  8
0
 10
31
 20
0
 11
30.9862
 21
0.439529
  0
LINE
  8
0
 10
30.9862
 20
0.439529
 11
30.9448
 21
0.877319
  0
LINE
  8
0
 10
30.9448
 20
0.877319
 11
30.876
 21
1.31166
  0
LINE
  8
0
 10
30.876
 20
1.31166
 11
30.7801
 21
1.74081
  0
LINE
  8
0
 10
30.7801
 20
1.74081
 11
30.6574
 21
2.16312
  0
LINE
  8
0
 10
30.6574
 20
2.16312
 11
30.5084
 21
2.57686
  0
LINE
  8
0
 10
30.5084
 20
2.57686
 11
30.3338
 21
2.98045
  0
LINE
  8
0
 10
30.3338
 20
2.98045
 11
30.1341
 21
3.37227
  0
LINE
  8
0
 10
30.1341
 20
3.37227
 11
29.9103
 21
3.75078
  0
LINE
  8
0
 10
29.9103
 20
3.75078
 11
29.6631
 21
4.11449
  0
LINE
  8
0
 10
29.6631
 20
4.11449
 11
29.3936
 21
4.46196
  0
LINE
  8
0
 10
29.3936
 20
4.46196
 11
29.1028
 21
4.79182
  0
LINE
  8
0
 10
29.1028
 20
4.79182
 11
28.7918
 21
5.10277
  0
LINE
  8
0
 10
28.7918
 20
5.10277
 11
28.462
 21
5.39359
  0
LINE
  8
0
 10
28.462
 20
5.39359
 11
28.1145
 21
5.66312
  0
LINE
  8
0
 10
28.1145
 20
5.66312
 11
27.7508
 21
5.91029
  0
LINE
  8
0
 10
27.7508
 20
5.91029
 11
27.3723
 21
6.13414
  0
LINE
  8
0
 10
27.3723
 20
6.13414
 11
26.9805
 21
6.33379
  0
LINE
  8
0
 10
26.9805
 20
6.33379
 11
26.5769
 21
6.50842
  0
LINE
  8
0
 10
26.5769
 20
6.50842
 11
26.1631
 21
6.65739
  0
LINE
  8
0
 10
26.1631
 20
6.65739
 11
25.7408
 21
6.78008
  0
LINE
  8
0
 10
25.7408
 20
6.78008
 11
25.3117
 21
6.87601
  0
LINE
  8
0
 10
25.3117
 20
6.87601
 11
24.8773
 21
6.94479
  0
LINE
  8
0
 10
24.8773
 20
6.94479
 11
24.4395
 21
6.98618
  0
LINE
  8
0
 10
24.4395
 20
6.98618
 11
24
 21
7
  0
LINE
  8
0
 10
24
 20
7
 11
11.3632
 21
7
  0
LINE
  8
0
 10
11.3632
 20
7
 11
7
 21
12.4539
  0
LINE
  8
0
 10
7
 20
12.4539
 11
7
 21
27.8017
  0
LINE
  8
0
 10
7
 20
27.8017
 11
20.6631
 21
47.3855
  0
LINE
  8
0
 10
20.6631
 20
47.3855
 11
20.9103
 21
47.7492
  0
LINE
  8
0
 10
20.9103
 20
47.7492
 11
21.1341
 21
48.1277
  0
LINE
  8
0
 10
21.1341
 20
48.1277
 11
21.3338
 21
48.5195
  0
LINE
  8
0
 10
21.3338
 20
48.5195
 11
21.5084
 21
48.9231
  0
LINE
  8
0
 10
21.5084
 20
48.9231
 11
21.6574
 21
49.3369
  0
LINE
  8
0
 10
21.6574
 20
49.3369
 11
21.7801
 21
49.7592
  0
LINE
  8
0
 10
21.7801
 20
49.7592
 11
21.876
 21
50.1883
  0
LINE
  8
0
 10
21.876
 20
50.1883
 11
21.9448
 21
50.6227
  0
LINE
  8
0
 10
21.9448
 20
50.6227
 11
21.9862
 21
51.0605
  0
LINE
  8
0
 10
21.9862
 20
51.0605
 11
22
 21
51.5
  0
LINE
  8
0
 10
22
 20
51.5
 11
21.9862
 21
51.9395
  0
LINE
  8
0
 10
21.9862
 20
51.9395
 11
21.9448
 21
52.3773
  0
LINE
  8
0
 10
21.9448
 20
52.3773
 11
21.876
 21
52.8117
  0
LINE
  8
0
 10
21.876
 20
52.8117
 11
21.7801
 21
53.2408
  0
LINE
  8
0
 10
21.7801
 20
53.2408
 11
21.6574
 21
53.6631
  0
LINE
  8
0
 10
21.6574
 20
53.6631
 11
21.5084
 21
54.0769
  0
LINE
  8
0
 10
21.5084
 20
54.0769
 11
21.3338
 21
54.4805
  0
LINE
  8
0
 10
21.3338
 20
54.4805
 11
21.1341
 21
54.8723
  0
LINE
  8
0
 10
21.1341
 20
54.8723
 11
20.9103
 21
55.2508
  0
LINE
  8
0
 10
20.9103
 20
55.2508
 11
20.6631
 21
55.6145
  0
LINE
  8
0
 10
20.6631
 20
55.6145
 11
20.3936
 21
55.962
  0
LINE
  8
0
 10
20.3936
 20
55.962
 11
20.1028
 21
56.2918
  0
LINE
  8
0
 10
20.1028
 20
56.2918
 11
19.7918
 21
56.6028
  0
LINE
  8
0
 10
19.7918
 20
56.6028
 11
19.462
 21
56.8936
  0
LINE
  8
0
 10
19.462
 20
56.8936
 11
19.1145
 21
57.1631
  0
LINE
  8
0
 10
19.1145
 20
57.1631
 11
18.7508
 21
57.4103
  0
LINE
  8
0
 10
18.7508
 20
57.4103
 11
18.3723
 21
57.6341
  0
LINE
  8
0
 10
18.3723
 20
57.6341
 11
17.9805
 21
57.8338
  0
LINE
  8
0
 10
17.9805
 20
57.8338
 11
17.5769
 21
58.0084
  0
LINE
  8
0
 10
17.5769
 20
58.0084
 11
17.1631
 21
58.1574
  0
LINE
  8
0
 10
17.1631
 20
58.1574
 11
16.7408
 21
58.2801
  0
LINE
  8
0
 10
16.7408
 20
58.2801
 11
16.3117
 21
58.376
  0
LINE
  8
0
 10
16.3117
 20
58.376
 11
15.8773
 21
58.4448
  0
LINE
  8
0
 10
15.8773
 20
58.4448
 11
15.4395
 21
58.4862
  0
LINE
  8
0
 10
15.4395
 20
58.4862
 11
15
 21
58.5
  0
LINE
  8
0
 10
15
 20
58.5
 11
14.5605
 21
58.4862
  0
LINE
  8
0
 10
14.5605
 20
58.4862
 11
14.1227
 21
58.4448
  0
LINE
  8
0
 10
14.1227
 20
58.4448
 11
13.6883
 21
58.376
  0
LINE
  8
0
 10
13.6883
 20
58.376
 11
13.2592
 21
58.2801
  0
LINE
  8
0
 10
13.2592
 20
58.2801
 11
12.8369
 21
58.1574
  0
LINE
  8
0
 10
12.8369
 20
58.1574
 11
12.4231
 21
58.0084
  0
LINE
  8
0
 10
12.4231
 20
58.0084
 11
12.0195
 21
57.8338
  0
LINE
  8
0
 10
12.0195
 20
57.8338
 11
11.6277
 21
57.6341
  0
LINE
  8
0
 10
11.6277
 20
57.6341
 11
11.2492
 21
57.4103
  0
LINE
  8
0
 10
11.2492
 20
57.4103
 11
10.8855
 21
57.1631
  0
LINE
  8
0
 10
10.8855
 20
57.1631
 11
10.538
 21
56.8936
  0
LINE
  8
0
 10
10.538
 20
56.8936
 11
10.2082
 21
56.6028
  0
LINE
  8
0
 10
10.2082
 20
56.6028
 11
9.89722
 21
56.2918
  0
LINE
  8
0
 10
9.89722
 20
56.2918
 11
9.6064
 21
55.962
  0
LINE
  8
0
 10
9.6064
 20
55.962
 11
9.33687
 21
55.6145
  0
LINE
  8
0
 10
9.33687
 20
55.6145
 11
-5.66312
 21
34.1145
  0
LINE
  8
0
 10
-5.66312
 20
34.1145
 11
-5.91029
 21
33.7508
  0
LINE
  8
0
 10
-5.91029
 20
33.7508
 11
-6.13414
 21
33.3723
  0
LINE
  8
0
 10
-6.13414
 20
33.3723
 11
-6.33379
 21
32.9805
  0
LINE
  8
0
 10
-6.33379
 20
32.9805
 11
-6.50842
 21
32.5769
  0
LINE
  8
0
 10
-6.50842
 20
32.5769
 11
-6.65739
 21
32.1631
  0
LINE
  8
0
 10
-6.65739
 20
32.1631
 11
-6.78008
 21
31.7408
  0
LINE
  8
0
 10
-6.78008
 20
31.7408
 11
-6.87601
 21
31.3117
  0
LINE
  8
0
 10
-6.87601
 20
31.3117
 11
-6.94479
 21
30.8773
  0
LINE
  8
0
 10
-6.94479
 20
30.8773
 11
-6.98618
 21
30.4395
  0
LINE
  8
0
 10
-6.98618
 20
30.4395
 11
-7
 21
30
  0
LINE
  8
0
 10
-7
 20
30
 11
-7
 21
10
  0
LINE
  8
0
 10
-7
 20
10
 11
-6.98618
 21
9.56046
  0
LINE
  8
0
 10
-6.98618
 20
9.56046
 11
-6.94479
 21
9.12267
  0
LINE
  8
0
 10
-6.94479
 20
9.12267
 11
-6.87601
 21
8.68832
  0
LINE
  8
0
 10
-6.87601
 20
8.68832
 11
-6.78008
 21
8.25917
  0
LINE
  8
0
 10
-6.78008
 20
8.25917
 11
-6.65739
 21
7.83687
  0
LINE
  8
0
 10
-6.65739
 20
7.83687
 11
-6.50842
 21
7.42313
  0
LINE
  8
0
 10
-6.50842
 20
7.42313
 11
-6.33379
 21
7.01953
  0
LINE
  8
0
 10
-6.33379
 20
7.01953
 11
-6.13414
 21
6.62772
  0
LINE
  8
0
 10
-6.13414
 20
6.62772
 11
-5.91029
 21
6.24921
  0
LINE
  8
0
 10
-5.91029
 20
6.24921
 11
-5.66312
 21
5.8855
  0
LINE
  8
0
 10
-5.66312
 20
5.8855
 11
-5.39359
 21
5.53802
  0
LINE
  8
0
 10
-5.39359
 20
5.53802
 11
2.6064
 21
-4.46196
  0
LINE
  8
0
 10
2.6064
 20
-4.46196
 11
2.89722
 21
-4.79182
  0
LINE
  8
0
 10
2.89722
 20
-4.79182
 11
3.20816
 21
-5.10277
  0
LINE
  8
0
 10
3.20816
 20
-5.10277
 11
3.53802
 21
-5.39359
  0
LINE
  8
0
 10
3.53802
 20
-5.39359
 11
3.8855
 21
-5.66312
  0
LINE
  8
0
 10
3.8855
 20
-5.66312
 11
4.24921
 21
-5.91029
  0
LINE
  8
0
 10
4.24921
 20
-5.91029
 11
4.62772
 21
-6.13414
  0
LINE
  8
0
 10
4.62772
 20
-6.13414
 11
5.01953
 21
-6.33379
  0
LINE
  8
0
 10
5.01953
 20
-6.33379
 11
5.42313
 21
-6.50842
  0
LINE
  8
0
 10
5.42313
 20
-6.50842
 11
5.83687
 21
-6.65739
  0
LINE
  8
0
 10
5.83687
 20
-6.65739
 11
6.25917
 21
-6.78008
  0
LINE
  8
0
 10
6.25917
 20
-6.78008
 11
6.68832
 21
-6.87601
  0
LINE
  8
0
 10
6.68832
 20
-6.87601
 11
7.12267
 21
-6.94479
  0
LINE
  8
0
 10
7.12267
 20
-6.94479
 11
7.56046
 21
-6.98618
  0
LINE
  8
0
 10
7.56046
 20
-6.98618
 11
8
 21
-7
  0
LINE
  8
0
 10
8
 20
-7
 11
24
 21
-7
  0
LINE
  8
0
 10
24
 20
-7
 11
24.4395
 21
-6.98618
  0
LINE
  8
0
 10
14.865
 20
49.3542
 11
14.7305
 21
49.3669
  0
LINE
  8
0
 10
14.7305
 20
49.3669
 11
14.5971
 21
49.3881
  0
LINE
  8
0
 10
14.5971
 20
49.3881
 11
14.4653
 21
49.4175
  0
LINE
  8
0
 10
14.4653
 20
49.4175
 11
14.3356
 21
49.4552
  0
LINE
  8
0
 10
14.3356
 20
49.4552
 11
14.2085
 21
49.501
  0
LINE
  8
0
 10
14.2085
 20
49.501
 11
14.0846
 21
49.5546
  0
LINE
  8
0
 10
14.0846
 20
49.5546
 11
13.9642
 21
49.6159
  0
LINE
  8
0
 10
13.9642
 20
49.6159
 11
13.848
 21
49.6847
  0
LINE
  8
0
 10
13.848
 20
49.6847
 11
13.7363
 21
49.7606
  0
LINE
  8
0
 10
13.7363
 20
49.7606
 11
13.6295
 21
49.8434
  0
LINE
  8
0
 10
13.6295
 20
49.8434
 11
13.5282
 21
49.9327
  0
LINE
  8
0
 10
13.5282
 20
49.9327
 11
13.4327
 21
50.0282
  0
LINE
  8
0
 10
13.4327
 20
50.0282
 11
13.3434
 21
50.1295
  0
LINE
  8
0
 10
13.3434
 20
50.1295
 11
13.2606
 21
50.2363
  0
LINE
  8
0
 10
13.2606
 20
50.2363
 11
13.1847
 21
50.348
  0
LINE
  8
0
 10
13.1847
 20
50.348
 11
13.1159
 21
50.4642
  0
LINE
  8
0
 10
13.1159
 20
50.4642
 11
13.0546
 21
50.5846
  0
LINE
  8
0
 10
13.0546
 20
50.5846
 11
13.001
 21
50.7085
  0
LINE
  8
0
 10
13.001
 20
50.7085
 11
12.9552
 21
50.8356
  0
LINE
  8
0
 10
12.9552
 20
50.8356
 11
12.9175
 21
50.9653
  0
LINE
  8
0
 10
12.9175
 20
50.9653
 11
12.8881
 21
51.0971
  0
LINE
  8
0
 10
12.8881
 20
51.0971
 11
12.8669
 21
51.2305
  0
LINE
  8
0
 10
12.8669
 20
51.2305
 11
12.8542
 21
51.365
  0
LINE
  8
0
 10
12.8542
 20
51.365
 11
12.85
 21
51.5
  0
LINE
  8
0
 10
12.85
 20
51.5
 11
12.8542
 21
51.635
  0
LINE
  8
0
 10
12.8542
 20
51.635
 11
12.8669
 21
51.7695
  0
LINE
  8
0
 10
12.8669
 20
51.7695
 11
12.8881
 21
51.9029
  0
LINE
  8
0
 10
12.8881
 20
51.9029
 11
12.9175
 21
52.0347
  0
LINE
  8
0
 10
12.9175
 20
52.0347
 11
12.9552
 21
52.1644
  0
LINE
  8
0
 10
12.9552
 20
52.1644
 11
13.001
 21
52.2915
  0
LINE
  8
0
 10
13.001
 20
52.2915
 11
13.0546
 21
52.4154
  0
LINE
  8
0
 10
13.0546
 20
52.4154
 11
13.1159
 21
52.5358
  0
LINE
  8
0
 10
13.1159
 20
52.5358
 11
13.1847
 21
52.652
  0
LINE
  8
0
 10
13.1847
 20
52.652
 11
13.2606
 21
52.7637
  0
LINE
  8
0
 10
13.2606
 20
52.7637
 11
13.3434
 21
52.8705
  0
LINE
  8
0
 10
13.3434
 20
52.8705
 11
13.4327
 21
52.9718
  0
LINE
  8
0
 10
13.4327
 20
52.9718
 11
13.5282
 21
53.0673
  0
LINE
  8
0
 10
13.5282
 20
53.0673
 11
13.6295
 21
53.1566
  0
LINE
  8
0
 10
13.6295
 20
53.1566
 11
13.7363
 21
53.2394
  0
LINE
  8
0
 10
13.7363
 20
53.2394
 11
13.848
 21
53.3153
  0
LINE
  8
0
 10
13.848
 20
53.3153
 11
13.9642
 21
53.384
  0
LINE
  8
0
 10
13.9642
 20
53.384
 11
14.0846
 21
53.4454
  0
LINE
  8
0
 10
14.0846
 20
53.4454
 11
14.2085
 21
53.499
  0
LINE
  8
0
 10
14.2085
 20
53.499
 11
14.3356
 21
53.5448
  0
LINE
  8
0
 10
14.3356
 20
53.5448
 11
14.4653
 21
53.5824
  0
LINE
  8
0
 10
14.4653
 20
53.5824
 11
14.5971
 21
53.6119
  0
LINE
  8
0
 10
14.5971
 20
53.6119
 11
14.7305
 21
53.633
  0
LINE
  8
0
 10
14.7305
 20
53.633
 11
14.865
 21
53.6458
  0
LINE
  8
0
 10
14.865
 20
53.6458
 11
15
 21
53.65
  0
LINE
  8
0
 10
15
 20
53.65
 11
15.135
 21
53.6458
  0
LINE
  8
0
 10
15.135
 20
53.6458
 11
15.2695
 21
53.633
  0
LINE
  8
0
 10
15.2695
 20
53.633
 11
15.4029
 21
53.6119
  0
LINE
  8
0
 10
15.4029
 20
53.6119
 11
15.5347
 21
53.5824
  0
LINE
  8
0
 10
15.5347
 20
53.5824
 11
15.6644
 21
53.5448
  0
LINE
  8
0
 10
15.6644
 20
53.5448
 11
15.7915
 21
53.499
  0
LINE
  8
0
 10
15.7915
 20
53.499
 11
15.9154
 21
53.4454
  0
LINE
  8
0
 10
15.9154
 20
53.4454
 11
16.0358
 21
53.384
  0
LINE
  8
0
 10
16.0358
 20
53.384
 11
16.152
 21
53.3153
  0
LINE
  8
0
 10
16.152
 20
53.3153
 11
16.2637
 21
53.2394
  0
LINE
  8
0
 10
16.2637
 20
53.2394
 11
16.3705
 21
53.1566
  0
LINE
  8
0
 10
16.3705
 20
53.1566
 11
16.4718
 21
53.0673
  0
LINE
  8
0
 10
16.4718
 20
53.0673
 11
16.5673
 21
52.9718
  0
LINE
  8
0
 10
16.5673
 20
52.9718
 11
16.6566
 21
52.8705
  0
LINE
  8
0
 10
16.6566
 20
52.8705
 11
16.7394
 21
52.7637
  0
LINE
  8
0
 10
16.7394
 20
52.7637
 11
16.8153
 21
52.652
  0
LINE
  8
0
 10
16.8153
 20
52.652
 11
16.884
 21
52.5358
  0
LINE
  8
0
 10
16.884
 20
52.5358
 11
16.9454
 21
52.4154
  0
LINE
  8
0
 10
16.9454
 20
52.4154
 11
16.999
 21
52.2915
  0
LINE
  8
0
 10
16.999
 20
52.2915
 11
17.0448
 21
52.1644
  0
LINE
  8
0
 10
17.0448
 20
52.1644
 11
17.0824
 21
52.0347
  0
LINE
  8
0
 10
17.0824
 20
52.0347
 11
17.1119
 21
51.9029
  0
LINE
  8
0
 10
17.1119
 20
51.9029
 11
17.133
 21
51.7695
  0
LINE
  8
0
 10
17.133
 20
51.7695
 11
17.1458
 21
51.635
  0
LINE
  8
0
 10
17.1458
 20
51.635
 11
17.15
 21
51.5
  0
LINE
  8
0
 10
17.15
 20
51.5
 11
17.1458
 21
51.365
  0
LINE
  8
0
 10
17.1458
 20
51.365
 11
17.133
 21
51.2305
  0
LINE
  8
0
 10
17.133
 20
51.2305
 11
17.1119
 21
51.0971
  0
LINE
  8
0
 10
17.1119
 20
51.0971
 11
17.0824
 21
50.9653
  0
LINE
  8
0
 10
17.0824
 20
50.9653
 11
17.0448
 21
50.8356
  0
LINE
  8
0
 10
17.0448
 20
50.8356
 11
16.999
 21
50.7085
  0
LINE
  8
0
 10
16.999
 20
50.7085
 11
16.9454
 21
50.5846
  0
LINE
  8
0
 10
16.9454
 20
50.5846
 11
16.884
 21
50.4642
  0
LINE
  8
0
 10
16.884
 20
50.4642
 11
16.8153
 21
50.348
  0
LINE
  8
0
 10
16.8153
 20
50.348
 11
16.7394
 21
50.2363
  0
LINE
  8
0
 10
16.7394
 20
50.2363
 11
16.6566
 21
50.1295
  0
LINE
  8
0
 10
16.6566
 20
50.1295
 11
16.5673
 21
50.0282
  0
LINE
  8
0
 10
16.5673
 20
50.0282
 11
16.4718
 21
49.9327
  0
LINE
  8
0
 10
16.4718
 20
49.9327
 11
16.3705
 21
49.8434
  0
LINE
  8
0
 10
16.3705
 20
49.8434
 11
16.2637
 21
49.7606
  0
LINE
  8
0
 10
16.2637
 20
49.7606
 11
16.152
 21
49.6847
  0
LINE
  8
0
 10
16.152
 20
49.6847
 11
16.0358
 21
49.6159
  0
LINE
  8
0
 10
16.0358
 20
49.6159
 11
15.9154
 21
49.5546
  0
LINE
  8
0
 10
15.9154
 20
49.5546
 11
15.7915
 21
49.501
  0
LINE
  8
0
 10
15.7915
 20
49.501
 11
15.6644
 21
49.4552
  0
LINE
  8
0
 10
15.6644
 20
49.4552
 11
15.5347
 21
49.4175
  0
LINE
  8
0
 10
15.5347
 20
49.4175
 11
15.4029
 21
49.3881
  0
LINE
  8
0
 10
15.4029
 20
49.3881
 11
15.2695
 21
49.3669
  0
LINE
  8
0
 10
15.2695
 20
49.3669
 11
15.135
 21
49.3542
  0
LINE
  8
0
 10
15.135
 20
49.3542
 11
15
 21
49.35
  0
LINE
  8
0
 10
15
 20
49.35
 11
14.865
 21
49.3542
  0
LINE
  8
0
 10
-0.134995
 20
7.85423
 11
-0.269455
 21
7.86694
  0
LINE
  8
0
 10
-0.269455
 20
7.86694
 11
-0.402863
 21
7.88808
  0
LINE
  8
0
 10
-0.402863
 20
7.88808
 11
-0.534683
 21
7.91754
  0
LINE
  8
0
 10
-0.534683
 20
7.91754
 11
-0.664383
 21
7.95522
  0
LINE
  8
0
 10
-0.664383
 20
7.95522
 11
-0.791458
 21
8.00098
  0
LINE
  8
0
 10
-0.791458
 20
8.00098
 11
-0.915421
 21
8.05461
  0
LINE
  8
0
 10
-0.915421
 20
8.05461
 11
-1.03577
 21
8.11594
  0
LINE
  8
0
 10
-1.03577
 20
8.11594
 11
-1.15202
 21
8.18469
  0
LINE
  8
0
 10
-1.15202
 20
8.18469
 11
-1.26373
 21
8.2606
  0
LINE
  8
0
 10
-1.26373
 20
8.2606
 11
-1.37045
 21
8.34338
  0
LINE
  8
0
 10
-1.37045
 20
8.34338
 11
-1.47177
 21
8.43271
  0
LINE
  8
0
 10
-1.47177
 20
8.43271
 11
-1.56728
 21
8.52821
  0
LINE
  8
0
 10
-1.56728
 20
8.52821
 11
-1.6566
 21
8.62953
  0
LINE
  8
0
 10
-1.6566
 20
8.62953
 11
-1.73938
 21
8.73625
  0
LINE
  8
0
 10
-1.73938
 20
8.73625
 11
-1.81529
 21
8.84796
  0
LINE
  8
0
 10
-1.81529
 20
8.84796
 11
-1.88405
 21
8.96422
  0
LINE
  8
0
 10
-1.88405
 20
8.96422
 11
-1.94537
 21
9.08456
  0
LINE
  8
0
 10
-1.94537
 20
9.08456
 11
-1.99901
 21
9.20853
  0
LINE
  8
0
 10
-1.99901
 20
9.20853
 11
-2.04477
 21
9.3356
  0
LINE
  8
0
 10
-2.04477
 20
9.3356
 11
-2.08244
 21
9.4653
  0
LINE
  8
0
 10
-2.08244
 20
9.4653
 11
-2.11191
 21
9.59712
  0
LINE
  8
0
 10
-2.11191
 20
9.59712
 11
-2.13304
 21
9.73053
  0
LINE
  8
0
 10
-2.13304
 20
9.73053
 11
-2.14575
 21
9.86499
  0
LINE
  8
0
 10
-2.14575
 20
9.86499
 11
-2.14999
 21
10
  0
LINE
  8
0
 10
-2.14999
 20
10
 11
-2.14575
 21
10.135
  0
LINE
  8
0
 10
-2.14575
 20
10.135
 11
-2.13304
 21
10.2695
  0
LINE
  8
0
 10
-2.13304
 20
10.2695
 11
-2.11191
 21
10.4029
  0
LINE
  8
0
 10
-2.11191
 20
10.4029
 11
-2.08244
 21
10.5347
  0
LINE
  8
0
 10
-2.08244
 20
10.5347
 11
-2.04477
 21
10.6644
  0
LINE
  8
0
 10
-2.04477
 20
10.6644
 11
-1.99901
 21
10.7915
  0
LINE
  8
0
 10
-1.99901
 20
10.7915
 11
-1.94537
 21
10.9154
  0
LINE
  8
0
 10
-1.94537
 20
10.9154
 11
-1.88405
 21
11.0358
  0
LINE
  8
0
 10
-1.88405
 20
11.0358
 11
-1.81529
 21
11.152
  0
LINE
  8
0
 10
-1.81529
 20
11.152
 11
-1.73938
 21
11.2637
  0
LINE
  8
0
 10
-1.73938
 20
11.2637
 11
-1.6566
 21
11.3705
  0
LINE
  8
0
 10
-1.6566
 20
11.3705
 11
-1.56728
 21
11.4718
  0
LINE
  8
0
 10
-1.56728
 20
11.4718
 11
-1.47177
 21
11.5673
  0
LINE
  8
0
 10
-1.47177
 20
11.5673
 11
-1.37045
 21
11.6566
  0
LINE
  8
0
 10
-1.37045
 20
11.6566
 11
-1.26373
 21
11.7394
  0
LINE
  8
0
 10
-1.26373
 20
11.7394
 11
-1.15202
 21
11.8153
  0
LINE
  8
0
 10
-1.15202
 20
11.8153
 11
-1.03577
 21
11.884
  0
LINE
  8
0
 10
-1.03577
 20
11.884
 11
-0.915421
 21
11.9454
  0
LINE
  8
0
 10
-0.915421
 20
11.9454
 11
-0.791458
 21
11.999
  0
LINE
  8
0
 10
-0.791458
 20
11.999
 11
-0.664383
 21
12.0448
  0
LINE
  8
0
 10
-0.664383
 20
12.0448
 11
-0.534683
 21
12.0824
  0
LINE
  8
0
 10
-0.534683
 20
12.0824
 11
-0.402863
 21
12.1119
  0
LINE
  8
0
 10
-0.402863
 20
12.1119
 11
-0.269455
 21
12.133
  0
LINE
  8
0
 10
-0.269455
 20
12.133
 11
-0.134995
 21
12.1458
  0
LINE
  8
0
 10
-0.134995
 20
12.1458
 11
0
 21
12.15
  0
LINE
  8
0
 10
0
 20
12.15
 11
0.134995
 21
12.1458
  0
LINE
  8
0
 10
0.134995
 20
12.1458
 11
0.269455
 21
12.133
  0
LINE
  8
0
 10
0.269455
 20
12.133
 11
0.402863
 21
12.1119
  0
LINE
  8
0
 10
0.402863
 20
12.1119
 11
0.534683
 21
12.0824
  0
LINE
  8
0
 10
0.534683
 20
12.0824
 11
0.664383
 21
12.0448
  0
LINE
  8
0
 10
0.664383
 20
12.0448
 11
0.791458
 21
11.999
  0
LINE
  8
0
 10
0.791458
 20
11.999
 11
0.915421
 21
11.9454
  0
LINE
  8
0
 10
0.915421
 20
11.9454
 11
1.03577
 21
11.884
  0
LINE
  8
0
 10
1.03577
 20
11.884
 11
1.15202
 21
11.8153
  0
LINE
  8
0
 10
1.15202
 20
11.8153
 11
1.26373
 21
11.7394
  0
LINE
  8
0
 10
1.26373
 20
11.7394
 11
1.37045
 21
11.6566
  0
LINE
  8
0
 10
1.37045
 20
11.6566
 11
1.47177
 21
11.5673
  0
LINE
  8
0
 10
1.47177
 20
11.5673
 11
1.56728
 21
11.4718
  0
LINE
  8
0
 10
1.56728
 20
11.4718
 11
1.6566
 21
11.3705
  0
LINE
  8
0
 10
1.6566
 20
11.3705
 11
1.73938
 21
11.2637
  0
LINE
  8
0
 10
1.73938
 20
11.2637
 11
1.81529
 21
11.152
  0
LINE
  8
0
 10
1.81529
 20
11.152
 11
1.88405
 21
11.0358
  0
LINE
  8
0
 10
1.88405
 20
11.0358
 11
1.94537
 21
10.9154
  0
LINE
  8
0
 10
1.94537
 20
10.9154
 11
1.99901
 21
10.7915
  0
LINE
  8
0
 10
1.99901
 20
10.7915
 11
2.04477
 21
10.6644
  0
LINE
  8
0
 10
2.04477
 20
10.6644
 11
2.08244
 21
10.5347
  0
LINE
  8
0
 10
2.08244
 20
10.5347
 11
2.11191
 21
10.4029
  0
LINE
  8
0
 10
2.11191
 20
10.4029
 11
2.13304
 21
10.2695
  0
LINE
  8
0
 10
2.13304
 20
10.2695
 11
2.14575
 21
10.135
  0
LINE
  8
0
 10
2.14575
 20
10.135
 11
2.14999
 21
10
  0
LINE
  8
0
 10
2.14999
 20
10
 11
2.14575
 21
9.86499
  0
LINE
  8
0
 10
2.14575
 20
9.86499
 11
2.13304
 21
9.73053
  0
LINE
  8
0
 10
2.13304
 20
9.73053
 11
2.11191
 21
9.59712
  0
LINE
  8
0
 10
2.11191
 20
9.59712
 11
2.08244
 21
9.4653
  0
LINE
  8
0
 10
2.08244
 20
9.4653
 11
2.04477
 21
9.3356
  0
LINE
  8
0
 10
2.04477
 20
9.3356
 11
1.99901
 21
9.20853
  0
LINE
  8
0
 10
1.99901
 20
9.20853
 11
1.94537
 21
9.08456
  0
LINE
  8
0
 10
1.94537
 20
9.08456
 11
1.88405
 21
8.96422
  0
LINE
  8
0
 10
1.88405
 20
8.96422
 11
1.81529
 21
8.84796
  0
LINE
  8
0
 10
1.81529
 20
8.84796
 11
1.73938
 21
8.73625
  0
LINE
  8
0
 10
1.73938
 20
8.73625
 11
1.6566
 21
8.62953
  0
LINE
  8
0
 10
1.6566
 20
8.62953
 11
1.56728
 21
8.52821
  0
LINE
  8
0
 10
1.56728
 20
8.52821
 11
1.47177
 21
8.43271
  0
LINE
  8
0
 10
1.47177
 20
8.43271
 11
1.37045
 21
8.34338
  0
LINE
  8
0
 10
1.37045
 20
8.34338
 11
1.26373
 21
8.2606
  0
LINE
  8
0
 10
1.26373
 20
8.2606
 11
1.15202
 21
8.18469
  0
LINE
  8
0
 10
1.15202
 20
8.18469
 11
1.03577
 21
8.11594
  0
LINE
  8
0
 10
1.03577
 20
8.11594
 11
0.915421
 21
8.05461
  0
LINE
  8
0
 10
0.915421
 20
8.05461
 11
0.791458
 21
8.00098
  0
LINE
  8
0
 10
0.791458
 20
8.00098
 11
0.664383
 21
7.95522
  0
LINE
  8
0
 10
0.664383
 20
7.95522
 11
0.534683
 21
7.91754
  0
LINE
  8
0
 10
0.534683
 20
7.91754
 11
0.402863
 21
7.88808
  0
LINE
  8
0
 10
0.402863
 20
7.88808
 11
0.269455
 21
7.86694
  0
LINE
  8
0
 10
0.269455
 20
7.86694
 11
0.134995
 21
7.85423
  0
LINE
  8
0
 10
0.134995
 20
7.85423
 11
0
 21
7.84999
  0
LINE
  8
0
 10
0
 20
7.84999
 11
-0.134995
 21
7.85423
  0
LINE
  8
0
 10
7.89952
 20
-1.59683
 11
7.79945
 21
-1.58737
  0
LINE
  8
0
 10
7.79945
 20
-1.58737
 11
7.70018
 21
-1.57166
  0
LINE
  8
0
 10
7.70018
 20
-1.57166
 11
7.60208
 21
-1.54973
  0
LINE
  8
0
 10
7.60208
 20
-1.54973
 11
7.50557
 21
-1.52168
  0
LINE
  8
0
 10
7.50557
 20
-1.52168
 11
7.411
 21
-1.48764
  0
LINE
  8
0
 10
7.411
 20
-1.48764
 11
7.31874
 21
-1.44771
  0
LINE
  8
0
 10
7.31874
 20
-1.44771
 11
7.22919
 21
-1.40208
  0
LINE
  8
0
 10
7.22919
 20
-1.40208
 11
7.14267
 21
-1.35092
  0
LINE
  8
0
 10
7.14267
 20
-1.35092
 11
7.05954
 21
-1.29442
  0
LINE
  8
0
 10
7.05954
 20
-1.29442
 11
6.98012
 21
-1.23282
  0
LINE
  8
0
 10
6.98012
 20
-1.23282
 11
6.90472
 21
-1.16634
  0
LINE
  8
0
 10
6.90472
 20
-1.16634
 11
6.83365
 21
-1.09526
  0
LINE
  8
0
 10
6.83365
 20
-1.09526
 11
6.76717
 21
-1.01987
  0
LINE
  8
0
 10
6.76717
 20
-1.01987
 11
6.70557
 21
-0.940445
  0
LINE
  8
0
 10
6.70557
 20
-0.940445
 11
6.64906
 21
-0.857315
  0
LINE
  8
0
 10
6.64906
 20
-0.857315
 11
6.5979
 21
-0.770798
  0
LINE
  8
0
 10
6.5979
 20
-0.770798
 11
6.55228
 21
-0.681244
  0
LINE
  8
0
 10
6.55228
 20
-0.681244
 11
6.51234
 21
-0.588989
  0
LINE
  8
0
 10
6.51234
 20
-0.588989
 11
6.4783
 21
-0.494415
  0
LINE
  8
0
 10
6.4783
 20
-0.494415
 11
6.45026
 21
-0.397903
  0
LINE
  8
0
 10
6.45026
 20
-0.397903
 11
6.42833
 21
-0.299805
  0
LINE
  8
0
 10
6.42833
 20
-0.299805
 11
6.41261
 21
-0.200531
  0
LINE
  8
0
 10
6.41261
 20
-0.200531
 11
6.40315
 21
-0.100464
  0
LINE
  8
0
 10
6.40315
 20
-0.100464
 11
6.39999
 21
0
  0
LINE
  8
0
 10
6.39999
 20
0
 11
6.40315
 21
0.100464
  0
LINE
  8
0
 10
6.40315
 20
0.100464
 11
6.41261
 21
0.200531
  0
LINE
  8
0
 10
6.41261
 20
0.200531
 11
6.42833
 21
0.299805
  0
LINE
  8
0
 10
6.42833
 20
0.299805
 11
6.45026
 21
0.397903
  0
LINE
  8
0
 10
6.45026
 20
0.397903
 11
6.4783
 21
0.494415
  0
LINE
  8
0
 10
6.4783
 20
0.494415
 11
6.51234
 21
0.588989
  0
LINE
  8
0
 10
6.51234
 20
0.588989
 11
6.55228
 21
0.681244
  0
LINE
  8
0
 10
6.55228
 20
0.681244
 11
6.5979
 21
0.770798
  0
LINE
  8
0
 10
6.5979
 20
0.770798
 11
6.64906
 21
0.857315
  0
LINE
  8
0
 10
6.64906
 20
0.857315
 11
6.70557
 21
0.940445
  0
LINE
  8
0
 10
6.70557
 20
0.940445
 11
6.76717
 21
1.01987
  0
LINE
  8
0
 10
6.76717
 20
1.01987
 11
6.83365
 21
1.09526
  0
LINE
  8
0
 10
6.83365
 20
1.09526
 11
6.90472
 21
1.16634
  0
LINE
  8
0
 10
6.90472
 20
1.16634
 11
6.98012
 21
1.23282
  0
LINE
  8
0
 10
6.98012
 20
1.23282
 11
7.05954
 21
1.29442
  0
LINE
  8
0
 10
7.05954
 20
1.29442
 11
7.14267
 21
1.35092
  0
LINE
  8
0
 10
7.14267
 20
1.35092
 11
7.22919
 21
1.40208
  0
LINE
  8
0
 10
7.22919
 20
1.40208
 11
7.31874
 21
1.44771
  0
LINE
  8
0
 10
7.31874
 20
1.44771
 11
7.411
 21
1.48764
  0
LINE
  8
0
 10
7.411
 20
1.48764
 11
7.50557
 21
1.52168
  0
LINE
  8
0
 10
7.50557
 20
1.52168
 11
7.60208
 21
1.54973
  0
LINE
  8
0
 10
7.60208
 20
1.54973
 11
7.70018
 21
1.57166
  0
LINE
  8
0
 10
7.70018
 20
1.57166
 11
7.79945
 21
1.58737
  0
LINE
  8
0
 10
7.79945
 20
1.58737
 11
7.89952
 21
1.59683
  0
LINE
  8
0
 10
7.89952
 20
1.59683
 11
8
 21
1.59999
  0
LINE
  8
0
 10
8
 20
1.59999
 11
8.10046
 21
1.59683
  0
LINE
  8
0
 10
8.10046
 20
1.59683
 11
8.20053
 21
1.58737
  0
LINE
  8
0
 10
8.20053
 20
1.58737
 11
8.2998
 21
1.57166
  0
LINE
  8
0
 10
8.2998
 20
1.57166
 11
8.3979
 21
1.54973
  0
LINE
  8
0
 10
8.3979
 20
1.54973
 11
8.49442
 21
1.52168
  0
LINE
  8
0
 10
8.49442
 20
1.52168
 11
8.58899
 21
1.48764
  0
LINE
  8
0
 10
8.58899
 20
1.48764
 11
8.68124
 21
1.44771
  0
LINE
  8
0
 10
8.68124
 20
1.44771
 11
8.7708
 21
1.40208
  0
LINE
  8
0
 10
8.7708
 20
1.40208
 11
8.85732
 21
1.35092
  0
LINE
  8
0
 10
8.85732
 20
1.35092
 11
8.94044
 21
1.29442
  0
LINE
  8
0
 10
8.94044
 20
1.29442
 11
9.01987
 21
1.23282
  0
LINE
  8
0
 10
9.01987
 20
1.23282
 11
9.09526
 21
1.16634
  0
LINE
  8
0
 10
9.09526
 20
1.16634
 11
9.16634
 21
1.09526
  0
LINE
  8
0
 10
9.16634
 20
1.09526
 11
9.23282
 21
1.01987
  0
LINE
  8
0
 10
9.23282
 20
1.01987
 11
9.29442
 21
0.940445
  0
LINE
  8
0
 10
9.29442
 20
0.940445
 11
9.35092
 21
0.857315
  0
LINE
  8
0
 10
9.35092
 20
0.857315
 11
9.40208
 21
0.770798
  0
LINE
  8
0
 10
9.40208
 20
0.770798
 11
9.44771
 21
0.681244
  0
LINE
  8
0
 10
9.44771
 20
0.681244
 11
9.48764
 21
0.588989
  0
LINE
  8
0
 10
9.48764
 20
0.588989
 11
9.52168
 21
0.494415
  0
LINE
  8
0
 10
9.52168
 20
0.494415
 11
9.54973
 21
0.397903
  0
LINE
  8
0
 10
9.54973
 20
0.397903
 11
9.57166
 21
0.299805
  0
LINE
  8
0
 10
9.57166
 20
0.299805
 11
9.58737
 21
0.200531
  0
LINE
  8
0
 10
9.58737
 20
0.200531
 11
9.59683
 21
0.100464
  0
LINE
  8
0
 10
9.59683
 20
0.100464
 11
9.59999
 21
0
  0
LINE
  8
0
 10
9.59999
 20
0
 11
9.59683
 21
-0.100464
  0
LINE
  8
0
 10
9.59683
 20
-0.100464
 11
9.58737
 21
-0.200531
  0
LINE
  8
0
 10
9.58737
 20
-0.200531
 11
9.57166
 21
-0.299805
  0
LINE
  8
0
 10
9.57166
 20
-0.299805
 11
9.54973
 21
-0.397903
  0
LINE
  8
0
 10
9.54973
 20
-0.397903
 11
9.52168
 21
-0.494415
  0
LINE
  8
0
 10
9.52168
 20
-0.494415
 11
9.48764
 21
-0.588989
  0
LINE
  8
0
 10
9.48764
 20
-0.588989
 11
9.44771
 21
-0.681244
  0
LINE
  8
0
 10
9.44771
 20
-0.681244
 11
9.40208
 21
-0.770798
  0
LINE
  8
0
 10
9.40208
 20
-0.770798
 11
9.35092
 21
-0.857315
  0
LINE
  8
0
 10
9.35092
 20
-0.857315
 11
9.29442
 21
-0.940445
  0
LINE
  8
0
 10
9.29442
 20
-0.940445
 11
9.23282
 21
-1.01987
  0
LINE
  8
0
 10
9.23282
 20
-1.01987
 11
9.16634
 21
-1.09526
  0
LINE
  8
0
 10
9.16634
 20
-1.09526
 11
9.09526
 21
-1.16634
  0
LINE
  8
0
 10
9.09526
 20
-1.16634
 11
9.01987
 21
-1.23282
  0
LINE
  8
0
 10
9.01987
 20
-1.23282
 11
8.94044
 21
-1.29442
  0
LINE
  8
0
 10
8.94044
 20
-1.29442
 11
8.85732
 21
-1.35092
  0
LINE
  8
0
 10
8.85732
 20
-1.35092
 11
8.7708
 21
-1.40208
  0
LINE
  8
0
 10
8.7708
 20
-1.40208
 11
8.68124
 21
-1.44771
  0
LINE
  8
0
 10
8.68124
 20
-1.44771
 11
8.58899
 21
-1.48764
  0
LINE
  8
0
 10
8.58899
 20
-1.48764
 11
8.49442
 21
-1.52168
  0
LINE
  8
0
 10
8.49442
 20
-1.52168
 11
8.3979
 21
-1.54973
  0
LINE
  8
0
 10
8.3979
 20
-1.54973
 11
8.2998
 21
-1.57166
  0
LINE
  8
0
 10
8.2998
 20
-1.57166
 11
8.20053
 21
-1.58737
  0
LINE
  8
0
 10
8.20053
 20
-1.58737
 11
8.10046
 21
-1.59683
  0
LINE
  8
0
 10
8.10046
 20
-1.59683
 11
8
 21
-1.59999
  0
LINE
  8
0
 10
8
 20
-1.59999
 11
7.89952
 21
-1.59683
  0
LINE
  8
0
 10
23.8995
 20
-1.59683
 11
23.7995
 21
-1.58737
  0
LINE
  8
0
 10
23.7995
 20
-1.58737
 11
23.7002
 21
-1.57166
  0
LINE
  8
0
 10
23.7002
 20
-1.57166
 11
23.6021
 21
-1.54973
  0
LINE
  8
0
 10
23.6021
 20
-1.54973
 11
23.5056
 21
-1.52168
  0
LINE
  8
0
 10
23.5056
 20
-1.52168
 11
23.411
 21
-1.48764
  0
LINE
  8
0
 10
23.411
 20
-1.48764
 11
23.3187
 21
-1.44771
  0
LINE
  8
0
 10
23.3187
 20
-1.44771
 11
23.2292
 21
-1.40208
  0
LINE
  8
0
 10
23.2292
 20
-1.40208
 11
23.1427
 21
-1.35092
  0
LINE
  8
0
 10
23.1427
 20
-1.35092
 11
23.0595
 21
-1.29442
  0
LINE
  8
0
 10
23.0595
 20
-1.29442
 11
22.9801
 21
-1.23282
  0
LINE
  8
0
 10
22.9801
 20
-1.23282
 11
22.9047
 21
-1.16634
  0
LINE
  8
0
 10
22.9047
 20
-1.16634
 11
22.8336
 21
-1.09526
  0
LINE
  8
0
 10
22.8336
 20
-1.09526
 11
22.7672
 21
-1.01987
  0
LINE
  8
0
 10
22.7672
 20
-1.01987
 11
22.7056
 21
-0.940445
  0
LINE
  8
0
 10
22.7056
 20
-0.940445
 11
22.6491
 21
-0.857315
  0
LINE
  8
0
 10
22.6491
 20
-0.857315
 11
22.5979
 21
-0.770798
  0
LINE
  8
0
 10
22.5979
 20
-0.770798
 11
22.5523
 21
-0.681244
  0
LINE
  8
0
 10
22.5523
 20
-0.681244
 11
22.5123
 21
-0.588989
  0
LINE
  8
0
 10
22.5123
 20
-0.588989
 11
22.4783
 21
-0.494415
  0
LINE
  8
0
 10
22.4783
 20
-0.494415
 11
22.4503
 21
-0.397903
  0
LINE
  8
0
 10
22.4503
 20
-0.397903
 11
22.4283
 21
-0.299805
  0
LINE
  8
0
 10
22.4283
 20
-0.299805
 11
22.4126
 21
-0.200531
  0
LINE
  8
0
 10
22.4126
 20
-0.200531
 11
22.4032
 21
-0.100464
  0
LINE
  8
0
 10
22.4032
 20
-0.100464
 11
22.4
 21
0
  0
LINE
  8
0
 10
22.4
 20
0
 11
22.4032
 21
0.100464
  0
LINE
  8
0
 10
22.4032
 20
0.100464
 11
22.4126
 21
0.200531
  0
LINE
  8
0
 10
22.4126
 20
0.200531
 11
22.4283
 21
0.299805
  0
LINE
  8
0
 10
22.4283
 20
0.299805
 11
22.4503
 21
0.397903
  0
LINE
  8
0
 10
22.4503
 20
0.397903
 11
22.4783
 21
0.494415
  0
LINE
  8
0
 10
22.4783
 20
0.494415
 11
22.5123
 21
0.588989
  0
LINE
  8
0
 10
22.5123
 20
0.588989
 11
22.5523
 21
0.681244
  0
LINE
  8
0
 10
22.5523
 20
0.681244
 11
22.5979
 21
0.770798
  0
LINE
  8
0
 10
22.5979
 20
0.770798
 11
22.6491
 21
0.857315
  0
LINE
  8
0
 10
22.6491
 20
0.857315
 11
22.7056
 21
0.940445
  0
LINE
  8
0
 10
22.7056
 20
0.940445
 11
22.7672
 21
1.01987
  0
LINE
  8
0
 10
22.7672
 20
1.01987
 11
22.8336
 21
1.09526
  0
LINE
  8
0
 10
22.8336
 20
1.09526
 11
22.9047
 21
1.16634
  0
LINE
  8
0
 10
22.9047
 20
1.16634
 11
22.9801
 21
1.23282
  0
LINE
  8
0
 10
22.9801
 20
1.23282
 11
23.0595
 21
1.29442
  0
LINE
  8
0
 10
23.0595
 20
1.29442
 11
23.1427
 21
1.35092
  0
LINE
  8
0
 10
23.1427
 20
1.35092
 11
23.2292
 21
1.40208
  0
LINE
  8
0
 10
23.2292
 20
1.40208
 11
23.3187
 21
1.44771
  0
LINE
  8
0
 10
23.3187
 20
1.44771
 11
23.411
 21
1.48764
  0
LINE
  8
0
 10
23.411
 20
1.48764
 11
23.5056
 21
1.52168
  0
LINE
  8
0
 10
23.5056
 20
1.52168
 11
23.6021
 21
1.54973
  0
LINE
  8
0
 10
23.6021
 20
1.54973
 11
23.7002
 21
1.57166
  0
LINE
  8
0
 10
23.7002
 20
1.57166
 11
23.7995
 21
1.58737
  0
LINE
  8
0
 10
23.7995
 20
1.58737
 11
23.8995
 21
1.59683
  0
LINE
  8
0
 10
23.8995
 20
1.59683
 11
24
 21
1.59999
  0
LINE
  8
0
 10
24
 20
1.59999
 11
24.1005
 21
1.59683
  0
LINE
  8
0
 10
24.1005
 20
1.59683
 11
24.2005
 21
1.58737
  0
LINE
  8
0
 10
24.2005
 20
1.58737
 11
24.2998
 21
1.57166
  0
LINE
  8
0
 10
24.2998
 20
1.57166
 11
24.3979
 21
1.54973
  0
LINE
  8
0
 10
24.3979
 20
1.54973
 11
24.4944
 21
1.52168
  0
LINE
  8
0
 10
24.4944
 20
1.52168
 11
24.589
 21
1.48764
  0
LINE
  8
0
 10
24.589
 20
1.48764
 11
24.6812
 21
1.44771
  0
LINE
  8
0
 10
24.6812
 20
1.44771
 11
24.7708
 21
1.40208
  0
LINE
  8
0
 10
24.7708
 20
1.40208
 11
24.8573
 21
1.35092
  0
LINE
  8
0
 10
24.8573
 20
1.35092
 11
24.9404
 21
1.29442
  0
LINE
  8
0
 10
24.9404
 20
1.29442
 11
25.0199
 21
1.23282
  0
LINE
  8
0
 10
25.0199
 20
1.23282
 11
25.0953
 21
1.16634
  0
LINE
  8
0
 10
25.0953
 20
1.16634
 11
25.1663
 21
1.09526
  0
LINE
  8
0
 10
25.1663
 20
1.09526
 11
25.2328
 21
1.01987
  0
LINE
  8
0
 10
25.2328
 20
1.01987
 11
25.2944
 21
0.940445
  0
LINE
  8
0
 10
25.2944
 20
0.940445
 11
25.3509
 21
0.857315
  0
LINE
  8
0
 10
25.3509
 20
0.857315
 11
25.4021
 21
0.770798
  0
LINE
  8
0
 10
25.4021
 20
0.770798
 11
25.4477
 21
0.681244
  0
LINE
  8
0
 10
25.4477
 20
0.681244
 11
25.4876
 21
0.588989
  0
LINE
  8
0
 10
25.4876
 20
0.588989
 11
25.5217
 21
0.494415
  0
LINE
  8
0
 10
25.5217
 20
0.494415
 11
25.5497
 21
0.397903
  0
LINE
  8
0
 10
25.5497
 20
0.397903
 11
25.5717
 21
0.299805
  0
LINE
  8
0
 10
25.5717
 20
0.299805
 11
25.5874
 21
0.200531
  0
LINE
  8
0
 10
25.5874
 20
0.200531
 11
25.5968
 21
0.100464
  0
LINE
  8
0
 10
25.5968
 20
0.100464
 11
25.6
 21
0
  0
LINE
  8
0
 10
25.6
 20
0
 11
25.5968
 21
-0.100464
  0
LINE
  8
0
 10
25.5968
 20
-0.100464
 11
25.5874
 21
-0.200531
  0
LINE
  8
0
 10
25.5874
 20
-0.200531
 11
25.5717
 21
-0.299805
  0
LINE
  8
0
 10
25.5717
 20
-0.299805
 11
25.5497
 21
-0.397903
  0
LINE
  8
0
 10
25.5497
 20
-0.397903
 11
25.5217
 21
-0.494415
  0
LINE
  8
0
 10
25.5217
 20
-0.494415
 11
25.4876
 21
-0.588989
  0
LINE
  8
0
 10
25.4876
 20
-0.588989
 11
25.4477
 21
-0.681244
  0
LINE
  8
0
 10
25.4477
 20
-0.681244
 11
25.4021
 21
-0.770798
  0
LINE
  8
0
 10
25.4021
 20
-0.770798
 11
25.3509
 21
-0.857315
  0
LINE
  8
0
 10
25.3509
 20
-0.857315
 11
25.2944
 21
-0.940445
  0
LINE
  8
0
 10
25.2944
 20
-0.940445
 11
25.2328
 21
-1.01987
  0
LINE
  8
0
 10
25.2328
 20
-1.01987
 11
25.1663
 21
-1.09526
  0
LINE
  8
0
 10
25.1663
 20
-1.09526
 11
25.0953
 21
-1.16634
  0
LINE
  8
0
 10
25.0953
 20
-1.16634
 11
25.0199
 21
-1.23282
  0
LINE
  8
0
 10
25.0199
 20
-1.23282
 11
24.9404
 21
-1.29442
  0
LINE
  8
0
 10
24.9404
 20
-1.29442
 11
24.8573
 21
-1.35092
  0
LINE
  8
0
 10
24.8573
 20
-1.35092
 11
24.7708
 21
-1.40208
  0
LINE
  8
0
 10
24.7708
 20
-1.40208
 11
24.6812
 21
-1.44771
  0
LINE
  8
0
 10
24.6812
 20
-1.44771
 11
24.589
 21
-1.48764
  0
LINE
  8
0
 10
24.589
 20
-1.48764
 11
24.4944
 21
-1.52168
  0
LINE
  8
0
 10
24.4944
 20
-1.52168
 11
24.3979
 21
-1.54973
  0
LINE
  8
0
 10
24.3979
 20
-1.54973
 11
24.2998
 21
-1.57166
  0
LINE
  8
0
 10
24.2998
 20
-1.57166
 11
24.2005
 21
-1.58737
  0
LINE
  8
0
 10
24.2005
 20
-1.58737
 11
24.1005
 21
-1.59683
  0
LINE
  8
0
 10
24.1005
 20
-1.59683
 11
24
 21
-1.59999
  0
LINE
  8
0
 10
24
 20
-1.59999
 11
23.8995
 21
-1.59683
  0
ENDSEC
  0
SECTION
  2
OBJECTS
  0
DICTIONARY
  0
ENDSEC
  0
EOF
