  0
SECTION
  2
BLOCKS
  0
ENDSEC
  0
SECTION
  2
ENTITIES
  0
LINE
  8
0
 10
0.565109
 20
-398.982
 11
1.12799
 21
-398.929
  0
LINE
  8
0
 10
1.12799
 20
-398.929
 11
1.68642
 21
-398.841
  0
LINE
  8
0
 10
1.68642
 20
-398.841
 11
2.2382
 21
-398.717
  0
LINE
  8
0
 10
2.2382
 20
-398.717
 11
2.78114
 21
-398.56
  0
LINE
  8
0
 10
2.78114
 20
-398.56
 11
3.31311
 21
-398.368
  0
LINE
  8
0
 10
3.31311
 20
-398.368
 11
3.832
 21
-398.143
  0
LINE
  8
0
 10
3.832
 20
-398.143
 11
4.33577
 21
-397.887
  0
LINE
  8
0
 10
4.33577
 20
-397.887
 11
4.82243
 21
-397.599
  0
LINE
  8
0
 10
4.82243
 20
-397.599
 11
5.29005
 21
-397.281
  0
LINE
  8
0
 10
5.29005
 20
-397.281
 11
5.7368
 21
-396.935
  0
LINE
  8
0
 10
5.7368
 20
-396.935
 11
6.16092
 21
-396.561
  0
LINE
  8
0
 10
6.16092
 20
-396.561
 11
6.56071
 21
-396.161
  0
LINE
  8
0
 10
6.56071
 20
-396.161
 11
6.93462
 21
-395.737
  0
LINE
  8
0
 10
6.93462
 20
-395.737
 11
7.28114
 21
-395.29
  0
LINE
  8
0
 10
7.28114
 20
-395.29
 11
7.59894
 21
-394.822
  0
LINE
  8
0
 10
7.59894
 20
-394.822
 11
7.88675
 21
-394.336
  0
LINE
  8
0
 10
7.88675
 20
-394.336
 11
8.14343
 21
-393.832
  0
LINE
  8
0
 10
8.14343
 20
-393.832
 11
8.36798
 21
-393.313
  0
LINE
  8
0
 10
8.36798
 20
-393.313
 11
8.55949
 21
-392.781
  0
LINE
  8
0
 10
8.55949
 20
-392.781
 11
8.71724
 21
-392.238
  0
LINE
  8
0
 10
8.71724
 20
-392.238
 11
8.84058
 21
-391.686
  0
LINE
  8
0
 10
8.84058
 20
-391.686
 11
8.92903
 21
-391.128
  0
LINE
  8
0
 10
8.92903
 20
-391.128
 11
8.98224
 21
-390.565
  0
LINE
  8
0
 10
8.98224
 20
-390.565
 11
9
 21
-390
  0
LINE
  8
0
 10
9
 20
-390
 11
11
 21
0
  0
LINE
  8
0
 10
11
 20
0
 11
10.9783
 21
0.690689
  0
LINE
  8
0
 10
10.9783
 20
0.690689
 11
10.9133
 21
1.37866
  0
LINE
  8
0
 10
10.9133
 20
1.37866
 11
10.8051
 21
2.06119
  0
LINE
  8
0
 10
10.8051
 20
2.06119
 11
10.6544
 21
2.73558
  0
LINE
  8
0
 10
10.6544
 20
2.73558
 11
10.4616
 21
3.39919
  0
LINE
  8
0
 10
10.4616
 20
3.39919
 11
10.2275
 21
4.04936
  0
LINE
  8
0
 10
10.2275
 20
4.04936
 11
9.95309
 21
4.68356
  0
LINE
  8
0
 10
9.95309
 20
4.68356
 11
9.63936
 21
5.29929
  0
LINE
  8
0
 10
9.63936
 20
5.29929
 11
9.2876
 21
5.89409
  0
LINE
  8
0
 10
9.2876
 20
5.89409
 11
8.89919
 21
6.46564
  0
LINE
  8
0
 10
8.89919
 20
6.46564
 11
8.47563
 21
7.01166
  0
LINE
  8
0
 10
8.47563
 20
7.01166
 11
8.01865
 21
7.53001
  0
LINE
  8
0
 10
8.01865
 20
7.53001
 11
7.53001
 21
8.01865
  0
LINE
  8
0
 10
7.53001
 20
8.01865
 11
7.01166
 21
8.47563
  0
LINE
  8
0
 10
7.01166
 20
8.47563
 11
6.46564
 21
8.89919
  0
LINE
  8
0
 10
6.46564
 20
8.89919
 11
5.89409
 21
9.2876
  0
LINE
  8
0
 10
5.89409
 20
9.2876
 11
5.29929
 21
9.63936
  0
LINE
  8
0
 10
5.29929
 20
9.63936
 11
4.68356
 21
9.95309
  0
LINE
  8
0
 10
4.68356
 20
9.95309
 11
4.04936
 21
10.2275
  0
LINE
  8
0
 10
4.04936
 20
10.2275
 11
3.39919
 21
10.4616
  0
LINE
  8
0
 10
3.39919
 20
10.4616
 11
2.73558
 21
10.6544
  0
LINE
  8
0
 10
2.73558
 20
10.6544
 11
2.06119
 21
10.8051
  0
LINE
  8
0
 10
2.06119
 20
10.8051
 11
1.37866
 21
10.9133
  0
LINE
  8
0
 10
1.37866
 20
10.9133
 11
0.690689
 21
10.9783
  0
LINE
  8
0
 10
0.690689
 20
10.9783
 11
0
 21
11
  0
LINE
  8
0
 10
0
 20
11
 11
-0.690689
 21
10.9783
  0
LINE
  8
0
 10
-0.690689
 20
10.9783
 11
-1.37866
 21
10.9133
  0
LINE
  8
0
 10
-1.37866
 20
10.9133
 11
-2.06119
 21
10.8051
  0
LINE
  8
0
 10
-2.06119
 20
10.8051
 11
-2.73558
 21
10.6544
  0
LINE
  8
0
 10
-2.73558
 20
10.6544
 11
-3.39919
 21
10.4616
  0
LINE
  8
0
 10
-3.39919
 20
10.4616
 11
-4.04936
 21
10.2275
  0
LINE
  8
0
 10
-4.04936
 20
10.2275
 11
-4.68356
 21
9.95309
  0
LINE
  8
0
 10
-4.68356
 20
9.95309
 11
-5.29929
 21
9.63936
  0
LINE
  8
0
 10
-5.29929
 20
9.63936
 11
-5.89409
 21
9.2876
  0
LINE
  8
0
 10
-5.89409
 20
9.2876
 11
-6.46564
 21
8.89919
  0
LINE
  8
0
 10
-6.46564
 20
8.89919
 11
-7.01166
 21
8.47563
  0
LINE
  8
0
 10
-7.01166
 20
8.47563
 11
-7.53001
 21
8.01865
  0
LINE
  8
0
 10
-7.53001
 20
8.01865
 11
-8.01865
 21
7.53001
  0
LINE
  8
0
 10
-8.01865
 20
7.53001
 11
-8.47563
 21
7.01166
  0
LINE
  8
0
 10
-8.47563
 20
7.01166
 11
-8.89919
 21
6.46564
  0
LINE
  8
0
 10
-8.89919
 20
6.46564
 11
-9.2876
 21
5.89409
  0
LINE
  8
0
 10
-9.2876
 20
5.89409
 11
-9.63936
 21
5.29929
  0
LINE
  8
0
 10
-9.63936
 20
5.29929
 11
-9.95309
 21
4.68356
  0
LINE
  8
0
 10
-9.95309
 20
4.68356
 11
-10.2275
 21
4.04936
  0
LINE
  8
0
 10
-10.2275
 20
4.04936
 11
-10.4616
 21
3.39919
  0
LINE
  8
0
 10
-10.4616
 20
3.39919
 11
-10.6544
 21
2.73558
  0
LINE
  8
0
 10
-10.6544
 20
2.73558
 11
-10.8051
 21
2.06119
  0
LINE
  8
0
 10
-10.8051
 20
2.06119
 11
-10.9133
 21
1.37866
  0
LINE
  8
0
 10
-10.9133
 20
1.37866
 11
-10.9783
 21
0.690689
  0
LINE
  8
0
 10
-10.9783
 20
0.690689
 11
-11
 21
0
  0
LINE
  8
0
 10
-11
 20
0
 11
-9
 21
-390
  0
LINE
  8
0
 10
-9
 20
-390
 11
-8.98224
 21
-390.565
  0
LINE
  8
0
 10
-8.98224
 20
-390.565
 11
-8.92903
 21
-391.128
  0
LINE
  8
0
 10
-8.92903
 20
-391.128
 11
-8.84058
 21
-391.686
  0
LINE
  8
0
 10
-8.84058
 20
-391.686
 11
-8.71724
 21
-392.238
  0
LINE
  8
0
 10
-8.71724
 20
-392.238
 11
-8.55949
 21
-392.781
  0
LINE
  8
0
 10
-8.55949
 20
-392.781
 11
-8.36798
 21
-393.313
  0
LINE
  8
0
 10
-8.36798
 20
-393.313
 11
-8.14343
 21
-393.832
  0
LINE
  8
0
 10
-8.14343
 20
-393.832
 11
-7.88675
 21
-394.336
  0
LINE
  8
0
 10
-7.88675
 20
-394.336
 11
-7.59894
 21
-394.822
  0
LINE
  8
0
 10
-7.59894
 20
-394.822
 11
-7.28114
 21
-395.29
  0
LINE
  8
0
 10
-7.28114
 20
-395.29
 11
-6.93462
 21
-395.737
  0
LINE
  8
0
 10
-6.93462
 20
-395.737
 11
-6.56071
 21
-396.161
  0
LINE
  8
0
 10
-6.56071
 20
-396.161
 11
-6.16092
 21
-396.561
  0
LINE
  8
0
 10
-6.16092
 20
-396.561
 11
-5.7368
 21
-396.935
  0
LINE
  8
0
 10
-5.7368
 20
-396.935
 11
-5.29005
 21
-397.281
  0
LINE
  8
0
 10
-5.29005
 20
-397.281
 11
-4.82243
 21
-397.599
  0
LINE
  8
0
 10
-4.82243
 20
-397.599
 11
-4.33577
 21
-397.887
  0
LINE
  8
0
 10
-4.33577
 20
-397.887
 11
-3.832
 21
-398.143
  0
LINE
  8
0
 10
-3.832
 20
-398.143
 11
-3.31311
 21
-398.368
  0
LINE
  8
0
 10
-3.31311
 20
-398.368
 11
-2.78114
 21
-398.56
  0
LINE
  8
0
 10
-2.78114
 20
-398.56
 11
-2.2382
 21
-398.717
  0
LINE
  8
0
 10
-2.2382
 20
-398.717
 11
-1.68642
 21
-398.841
  0
LINE
  8
0
 10
-1.68642
 20
-398.841
 11
-1.12799
 21
-398.929
  0
LINE
  8
0
 10
-1.12799
 20
-398.929
 11
-0.565109
 21
-398.982
  0
LINE
  8
0
 10
-0.565109
 20
-398.982
 11
0
 21
-399
  0
LINE
  8
0
 10
0
 20
-399
 11
0.565109
 21
-398.982
  0
LINE
  8
0
 10
-0.439529
 20
-6.98618
 11
-0.877319
 21
-6.94479
  0
LINE
  8
0
 10
-0.877319
 20
-6.94479
 11
-1.31166
 21
-6.87601
  0
LINE
  8
0
 10
-1.31166
 20
-6.87601
 11
-1.74081
 21
-6.78008
  0
LINE
  8
0
 10
-1.74081
 20
-6.78008
 11
-2.16312
 21
-6.65739
  0
LINE
  8
0
 10
-2.16312
 20
-6.65739
 11
-2.57686
 21
-6.50842
  0
LINE
  8
0
 10
-2.57686
 20
-6.50842
 11
-2.98045
 21
-6.33379
  0
LINE
  8
0
 10
-2.98045
 20
-6.33379
 11
-3.37227
 21
-6.13414
  0
LINE
  8
0
 10
-3.37227
 20
-6.13414
 11
-3.75078
 21
-5.91029
  0
LINE
  8
0
 10
-3.75078
 20
-5.91029
 11
-4.11449
 21
-5.66312
  0
LINE
  8
0
 10
-4.11449
 20
-5.66312
 11
-4.46196
 21
-5.39359
  0
LINE
  8
0
 10
-4.46196
 20
-5.39359
 11
-4.79182
 21
-5.10277
  0
LINE
  8
0
 10
-4.79182
 20
-5.10277
 11
-5.10277
 21
-4.79182
  0
LINE
  8
0
 10
-5.10277
 20
-4.79182
 11
-5.39359
 21
-4.46196
  0
LINE
  8
0
 10
-5.39359
 20
-4.46196
 11
-5.66312
 21
-4.11449
  0
LINE
  8
0
 10
-5.66312
 20
-4.11449
 11
-5.91029
 21
-3.75078
  0
LINE
  8
0
 10
-5.91029
 20
-3.75078
 11
-6.13414
 21
-3.37227
  0
LINE
  8
0
 10
-6.13414
 20
-3.37227
 11
-6.33379
 21
-2.98045
  0
LINE
  8
0
 10
-6.33379
 20
-2.98045
 11
-6.50842
 21
-2.57686
  0
LINE
  8
0
 10
-6.50842
 20
-2.57686
 11
-6.65739
 21
-2.16312
  0
LINE
  8
0
 10
-6.65739
 20
-2.16312
 11
-6.78008
 21
-1.74081
  0
LINE
  8
0
 10
-6.78008
 20
-1.74081
 11
-6.87601
 21
-1.31166
  0
LINE
  8
0
 10
-6.87601
 20
-1.31166
 11
-6.94479
 21
-0.877319
  0
LINE
  8
0
 10
-6.94479
 20
-0.877319
 11
-6.98618
 21
-0.439529
  0
LINE
  8
0
 10
-6.98618
 20
-0.439529
 11
-7
 21
0
  0
LINE
  8
0
 10
-7
 20
0
 11
-6.98618
 21
0.439529
  0
LINE
  8
0
 10
-6.98618
 20
0.439529
 11
-6.94479
 21
0.877319
  0
LINE
  8
0
 10
-6.94479
 20
0.877319
 11
-6.87601
 21
1.31166
  0
LINE
  8
0
 10
-6.87601
 20
1.31166
 11
-6.78008
 21
1.74081
  0
LINE
  8
0
 10
-6.78008
 20
1.74081
 11
-6.65739
 21
2.16312
  0
LINE
  8
0
 10
-6.65739
 20
2.16312
 11
-6.50842
 21
2.57686
  0
LINE
  8
0
 10
-6.50842
 20
2.57686
 11
-6.33379
 21
2.98045
  0
LINE
  8
0
 10
-6.33379
 20
2.98045
 11
-6.13414
 21
3.37227
  0
LINE
  8
0
 10
-6.13414
 20
3.37227
 11
-5.91029
 21
3.75078
  0
LINE
  8
0
 10
-5.91029
 20
3.75078
 11
-5.66312
 21
4.11449
  0
LINE
  8
0
 10
-5.66312
 20
4.11449
 11
-5.39359
 21
4.46196
  0
LINE
  8
0
 10
-5.39359
 20
4.46196
 11
-5.10277
 21
4.79182
  0
LINE
  8
0
 10
-5.10277
 20
4.79182
 11
-4.79182
 21
5.10277
  0
LINE
  8
0
 10
-4.79182
 20
5.10277
 11
-4.46196
 21
5.39359
  0
LINE
  8
0
 10
-4.46196
 20
5.39359
 11
-4.11449
 21
5.66312
  0
LINE
  8
0
 10
-4.11449
 20
5.66312
 11
-3.75078
 21
5.91029
  0
LINE
  8
0
 10
-3.75078
 20
5.91029
 11
-3.37227
 21
6.13414
  0
LINE
  8
0
 10
-3.37227
 20
6.13414
 11
-2.98045
 21
6.33379
  0
LINE
  8
0
 10
-2.98045
 20
6.33379
 11
-2.57686
 21
6.50842
  0
LINE
  8
0
 10
-2.57686
 20
6.50842
 11
-2.16312
 21
6.65739
  0
LINE
  8
0
 10
-2.16312
 20
6.65739
 11
-1.74081
 21
6.78008
  0
LINE
  8
0
 10
-1.74081
 20
6.78008
 11
-1.31166
 21
6.87601
  0
LINE
  8
0
 10
-1.31166
 20
6.87601
 11
-0.877319
 21
6.94479
  0
LINE
  8
0
 10
-0.877319
 20
6.94479
 11
-0.439529
 21
6.98618
  0
LINE
  8
0
 10
-0.439529
 20
6.98618
 11
0
 21
7
  0
LINE
  8
0
 10
0
 20
7
 11
0.439529
 21
6.98618
  0
LINE
  8
0
 10
0.439529
 20
6.98618
 11
0.877319
 21
6.94479
  0
LINE
  8
0
 10
0.877319
 20
6.94479
 11
1.31166
 21
6.87601
  0
LINE
  8
0
 10
1.31166
 20
6.87601
 11
1.74081
 21
6.78008
  0
LINE
  8
0
 10
1.74081
 20
6.78008
 11
2.16312
 21
6.65739
  0
LINE
  8
0
 10
2.16312
 20
6.65739
 11
2.57686
 21
6.50842
  0
LINE
  8
0
 10
2.57686
 20
6.50842
 11
2.98045
 21
6.33379
  0
LINE
  8
0
 10
2.98045
 20
6.33379
 11
3.37227
 21
6.13414
  0
LINE
  8
0
 10
3.37227
 20
6.13414
 11
3.75078
 21
5.91029
  0
LINE
  8
0
 10
3.75078
 20
5.91029
 11
4.11449
 21
5.66312
  0
LINE
  8
0
 10
4.11449
 20
5.66312
 11
4.46196
 21
5.39359
  0
LINE
  8
0
 10
4.46196
 20
5.39359
 11
4.79182
 21
5.10277
  0
LINE
  8
0
 10
4.79182
 20
5.10277
 11
5.10277
 21
4.79182
  0
LINE
  8
0
 10
5.10277
 20
4.79182
 11
5.39359
 21
4.46196
  0
LINE
  8
0
 10
5.39359
 20
4.46196
 11
5.66312
 21
4.11449
  0
LINE
  8
0
 10
5.66312
 20
4.11449
 11
5.91029
 21
3.75078
  0
LINE
  8
0
 10
5.91029
 20
3.75078
 11
6.13414
 21
3.37227
  0
LINE
  8
0
 10
6.13414
 20
3.37227
 11
6.33379
 21
2.98045
  0
LINE
  8
0
 10
6.33379
 20
2.98045
 11
6.50842
 21
2.57686
  0
LINE
  8
0
 10
6.50842
 20
2.57686
 11
6.65739
 21
2.16312
  0
LINE
  8
0
 10
6.65739
 20
2.16312
 11
6.78008
 21
1.74081
  0
LINE
  8
0
 10
6.78008
 20
1.74081
 11
6.87601
 21
1.31166
  0
LINE
  8
0
 10
6.87601
 20
1.31166
 11
6.94479
 21
0.877319
  0
LINE
  8
0
 10
6.94479
 20
0.877319
 11
6.98618
 21
0.439529
  0
LINE
  8
0
 10
6.98618
 20
0.439529
 11
7
 21
0
  0
LINE
  8
0
 10
7
 20
0
 11
6.98618
 21
-0.439529
  0
LINE
  8
0
 10
6.98618
 20
-0.439529
 11
6.94479
 21
-0.877319
  0
LINE
  8
0
 10
6.94479
 20
-0.877319
 11
6.87601
 21
-1.31166
  0
LINE
  8
0
 10
6.87601
 20
-1.31166
 11
6.78008
 21
-1.74081
  0
LINE
  8
0
 10
6.78008
 20
-1.74081
 11
6.65739
 21
-2.16312
  0
LINE
  8
0
 10
6.65739
 20
-2.16312
 11
6.50842
 21
-2.57686
  0
LINE
  8
0
 10
6.50842
 20
-2.57686
 11
6.33379
 21
-2.98045
  0
LINE
  8
0
 10
6.33379
 20
-2.98045
 11
6.13414
 21
-3.37227
  0
LINE
  8
0
 10
6.13414
 20
-3.37227
 11
5.91029
 21
-3.75078
  0
LINE
  8
0
 10
5.91029
 20
-3.75078
 11
5.66312
 21
-4.11449
  0
LINE
  8
0
 10
5.66312
 20
-4.11449
 11
5.39359
 21
-4.46196
  0
LINE
  8
0
 10
5.39359
 20
-4.46196
 11
5.10277
 21
-4.79182
  0
LINE
  8
0
 10
5.10277
 20
-4.79182
 11
4.79182
 21
-5.10277
  0
LINE
  8
0
 10
4.79182
 20
-5.10277
 11
4.46196
 21
-5.39359
  0
LINE
  8
0
 10
4.46196
 20
-5.39359
 11
4.11449
 21
-5.66312
  0
LINE
  8
0
 10
4.11449
 20
-5.66312
 11
3.75078
 21
-5.91029
  0
LINE
  8
0
 10
3.75078
 20
-5.91029
 11
3.37227
 21
-6.13414
  0
LINE
  8
0
 10
3.37227
 20
-6.13414
 11
2.98045
 21
-6.33379
  0
LINE
  8
0
 10
2.98045
 20
-6.33379
 11
2.57686
 21
-6.50842
  0
LINE
  8
0
 10
2.57686
 20
-6.50842
 11
2.16312
 21
-6.65739
  0
LINE
  8
0
 10
2.16312
 20
-6.65739
 11
1.74081
 21
-6.78008
  0
LINE
  8
0
 10
1.74081
 20
-6.78008
 11
1.31166
 21
-6.87601
  0
LINE
  8
0
 10
1.31166
 20
-6.87601
 11
0.877319
 21
-6.94479
  0
LINE
  8
0
 10
0.877319
 20
-6.94479
 11
0.439529
 21
-6.98618
  0
LINE
  8
0
 10
0.439529
 20
-6.98618
 11
0
 21
-7
  0
LINE
  8
0
 10
0
 20
-7
 11
-0.439529
 21
-6.98618
  0
LINE
  8
0
 10
-0.100464
 20
-57.3111
 11
-0.200531
 21
-57.3017
  0
LINE
  8
0
 10
-0.200531
 20
-57.3017
 11
-0.299805
 21
-57.2859
  0
LINE
  8
0
 10
-0.299805
 20
-57.2859
 11
-0.397903
 21
-57.264
  0
LINE
  8
0
 10
-0.397903
 20
-57.264
 11
-0.494415
 21
-57.236
  0
LINE
  8
0
 10
-0.494415
 20
-57.236
 11
-0.588989
 21
-57.2019
  0
LINE
  8
0
 10
-0.588989
 20
-57.2019
 11
-0.681244
 21
-57.162
  0
LINE
  8
0
 10
-0.681244
 20
-57.162
 11
-0.770798
 21
-57.1164
  0
LINE
  8
0
 10
-0.770798
 20
-57.1164
 11
-0.857315
 21
-57.0652
  0
LINE
  8
0
 10
-0.857315
 20
-57.0652
 11
-0.940445
 21
-57.0087
  0
LINE
  8
0
 10
-0.940445
 20
-57.0087
 11
-1.01987
 21
-56.9471
  0
LINE
  8
0
 10
-1.01987
 20
-56.9471
 11
-1.09526
 21
-56.8806
  0
LINE
  8
0
 10
-1.09526
 20
-56.8806
 11
-1.16634
 21
-56.8096
  0
LINE
  8
0
 10
-1.16634
 20
-56.8096
 11
-1.23282
 21
-56.7342
  0
LINE
  8
0
 10
-1.23282
 20
-56.7342
 11
-1.29442
 21
-56.6547
  0
LINE
  8
0
 10
-1.29442
 20
-56.6547
 11
-1.35092
 21
-56.5716
  0
LINE
  8
0
 10
-1.35092
 20
-56.5716
 11
-1.40208
 21
-56.4851
  0
LINE
  8
0
 10
-1.40208
 20
-56.4851
 11
-1.44771
 21
-56.3955
  0
LINE
  8
0
 10
-1.44771
 20
-56.3955
 11
-1.48764
 21
-56.3033
  0
LINE
  8
0
 10
-1.48764
 20
-56.3033
 11
-1.52168
 21
-56.2087
  0
LINE
  8
0
 10
-1.52168
 20
-56.2087
 11
-1.54973
 21
-56.1122
  0
LINE
  8
0
 10
-1.54973
 20
-56.1122
 11
-1.57166
 21
-56.0141
  0
LINE
  8
0
 10
-1.57166
 20
-56.0141
 11
-1.58737
 21
-55.9148
  0
LINE
  8
0
 10
-1.58737
 20
-55.9148
 11
-1.59683
 21
-55.8147
  0
LINE
  8
0
 10
-1.59683
 20
-55.8147
 11
-1.59999
 21
-55.7143
  0
LINE
  8
0
 10
-1.59999
 20
-55.7143
 11
-1.59683
 21
-55.6138
  0
LINE
  8
0
 10
-1.59683
 20
-55.6138
 11
-1.58737
 21
-55.5137
  0
LINE
  8
0
 10
-1.58737
 20
-55.5137
 11
-1.57166
 21
-55.4145
  0
LINE
  8
0
 10
-1.57166
 20
-55.4145
 11
-1.54973
 21
-55.3164
  0
LINE
  8
0
 10
-1.54973
 20
-55.3164
 11
-1.52168
 21
-55.2198
  0
LINE
  8
0
 10
-1.52168
 20
-55.2198
 11
-1.48764
 21
-55.1253
  0
LINE
  8
0
 10
-1.48764
 20
-55.1253
 11
-1.44771
 21
-55.033
  0
LINE
  8
0
 10
-1.44771
 20
-55.033
 11
-1.40208
 21
-54.9435
  0
LINE
  8
0
 10
-1.40208
 20
-54.9435
 11
-1.35092
 21
-54.857
  0
LINE
  8
0
 10
-1.35092
 20
-54.857
 11
-1.29442
 21
-54.7738
  0
LINE
  8
0
 10
-1.29442
 20
-54.7738
 11
-1.23282
 21
-54.6944
  0
LINE
  8
0
 10
-1.23282
 20
-54.6944
 11
-1.16634
 21
-54.619
  0
LINE
  8
0
 10
-1.16634
 20
-54.619
 11
-1.09526
 21
-54.5479
  0
LINE
  8
0
 10
-1.09526
 20
-54.5479
 11
-1.01987
 21
-54.4815
  0
LINE
  8
0
 10
-1.01987
 20
-54.4815
 11
-0.940445
 21
-54.4198
  0
LINE
  8
0
 10
-0.940445
 20
-54.4198
 11
-0.857315
 21
-54.3634
  0
LINE
  8
0
 10
-0.857315
 20
-54.3634
 11
-0.770798
 21
-54.3122
  0
LINE
  8
0
 10
-0.770798
 20
-54.3122
 11
-0.681244
 21
-54.2666
  0
LINE
  8
0
 10
-0.681244
 20
-54.2666
 11
-0.588989
 21
-54.2266
  0
LINE
  8
0
 10
-0.588989
 20
-54.2266
 11
-0.494415
 21
-54.1926
  0
LINE
  8
0
 10
-0.494415
 20
-54.1926
 11
-0.397903
 21
-54.1646
  0
LINE
  8
0
 10
-0.397903
 20
-54.1646
 11
-0.299805
 21
-54.1426
  0
LINE
  8
0
 10
-0.299805
 20
-54.1426
 11
-0.200531
 21
-54.1269
  0
LINE
  8
0
 10
-0.200531
 20
-54.1269
 11
-0.100464
 21
-54.1174
  0
LINE
  8
0
 10
-0.100464
 20
-54.1174
 11
0
 21
-54.1143
  0
LINE
  8
0
 10
0
 20
-54.1143
 11
0.100464
 21
-54.1174
  0
LINE
  8
0
 10
0.100464
 20
-54.1174
 11
0.200531
 21
-54.1269
  0
LINE
  8
0
 10
0.200531
 20
-54.1269
 11
0.299805
 21
-54.1426
  0
LINE
  8
0
 10
0.299805
 20
-54.1426
 11
0.397903
 21
-54.1646
  0
LINE
  8
0
 10
0.397903
 20
-54.1646
 11
0.494415
 21
-54.1926
  0
LINE
  8
0
 10
0.494415
 20
-54.1926
 11
0.588989
 21
-54.2266
  0
LINE
  8
0
 10
0.588989
 20
-54.2266
 11
0.681244
 21
-54.2666
  0
LINE
  8
0
 10
0.681244
 20
-54.2666
 11
0.770798
 21
-54.3122
  0
LINE
  8
0
 10
0.770798
 20
-54.3122
 11
0.857315
 21
-54.3634
  0
LINE
  8
0
 10
0.857315
 20
-54.3634
 11
0.940445
 21
-54.4198
  0
LINE
  8
0
 10
0.940445
 20
-54.4198
 11
1.01987
 21
-54.4815
  0
LINE
  8
0
 10
1.01987
 20
-54.4815
 11
1.09526
 21
-54.5479
  0
LINE
  8
0
 10
1.09526
 20
-54.5479
 11
1.16634
 21
-54.619
  0
LINE
  8
0
 10
1.16634
 20
-54.619
 11
1.23282
 21
-54.6944
  0
LINE
  8
0
 10
1.23282
 20
-54.6944
 11
1.29442
 21
-54.7738
  0
LINE
  8
0
 10
1.29442
 20
-54.7738
 11
1.35092
 21
-54.857
  0
LINE
  8
0
 10
1.35092
 20
-54.857
 11
1.40208
 21
-54.9435
  0
LINE
  8
0
 10
1.40208
 20
-54.9435
 11
1.44771
 21
-55.033
  0
LINE
  8
0
 10
1.44771
 20
-55.033
 11
1.48764
 21
-55.1253
  0
LINE
  8
0
 10
1.48764
 20
-55.1253
 11
1.52168
 21
-55.2198
  0
LINE
  8
0
 10
1.52168
 20
-55.2198
 11
1.54973
 21
-55.3164
  0
LINE
  8
0
 10
1.54973
 20
-55.3164
 11
1.57166
 21
-55.4145
  0
LINE
  8
0
 10
1.57166
 20
-55.4145
 11
1.58737
 21
-55.5137
  0
LINE
  8
0
 10
1.58737
 20
-55.5137
 11
1.59683
 21
-55.6138
  0
LINE
  8
0
 10
1.59683
 20
-55.6138
 11
1.59999
 21
-55.7143
  0
LINE
  8
0
 10
1.59999
 20
-55.7143
 11
1.59683
 21
-55.8147
  0
LINE
  8
0
 10
1.59683
 20
-55.8147
 11
1.58737
 21
-55.9148
  0
LINE
  8
0
 10
1.58737
 20
-55.9148
 11
1.57166
 21
-56.0141
  0
LINE
  8
0
 10
1.57166
 20
-56.0141
 11
1.54973
 21
-56.1122
  0
LINE
  8
0
 10
1.54973
 20
-56.1122
 11
1.52168
 21
-56.2087
  0
LINE
  8
0
 10
1.52168
 20
-56.2087
 11
1.48764
 21
-56.3033
  0
LINE
  8
0
 10
1.48764
 20
-56.3033
 11
1.44771
 21
-56.3955
  0
LINE
  8
0
 10
1.44771
 20
-56.3955
 11
1.40208
 21
-56.4851
  0
LINE
  8
0
 10
1.40208
 20
-56.4851
 11
1.35092
 21
-56.5716
  0
LINE
  8
0
 10
1.35092
 20
-56.5716
 11
1.29442
 21
-56.6547
  0
LINE
  8
0
 10
1.29442
 20
-56.6547
 11
1.23282
 21
-56.7342
  0
LINE
  8
0
 10
1.23282
 20
-56.7342
 11
1.16634
 21
-56.8096
  0
LINE
  8
0
 10
1.16634
 20
-56.8096
 11
1.09526
 21
-56.8806
  0
LINE
  8
0
 10
1.09526
 20
-56.8806
 11
1.01987
 21
-56.9471
  0
LINE
  8
0
 10
1.01987
 20
-56.9471
 11
0.940445
 21
-57.0087
  0
LINE
  8
0
 10
0.940445
 20
-57.0087
 11
0.857315
 21
-57.0652
  0
LINE
  8
0
 10
0.857315
 20
-57.0652
 11
0.770798
 21
-57.1164
  0
LINE
  8
0
 10
0.770798
 20
-57.1164
 11
0.681244
 21
-57.162
  0
LINE
  8
0
 10
0.681244
 20
-57.162
 11
0.588989
 21
-57.2019
  0
LINE
  8
0
 10
0.588989
 20
-57.2019
 11
0.494415
 21
-57.236
  0
LINE
  8
0
 10
0.494415
 20
-57.236
 11
0.397903
 21
-57.264
  0
LINE
  8
0
 10
0.397903
 20
-57.264
 11
0.299805
 21
-57.2859
  0
LINE
  8
0
 10
0.299805
 20
-57.2859
 11
0.200531
 21
-57.3017
  0
LINE
  8
0
 10
0.200531
 20
-57.3017
 11
0.100464
 21
-57.3111
  0
LINE
  8
0
 10
0.100464
 20
-57.3111
 11
0
 21
-57.3143
  0
LINE
  8
0
 10
0
 20
-57.3143
 11
-0.100464
 21
-57.3111
  0
LINE
  8
0
 10
-0.100464
 20
-113.025
 11
-0.200531
 21
-113.016
  0
LINE
  8
0
 10
-0.200531
 20
-113.016
 11
-0.299805
 21
-113
  0
LINE
  8
0
 10
-0.299805
 20
-113
 11
-0.397903
 21
-112.978
  0
LINE
  8
0
 10
-0.397903
 20
-112.978
 11
-0.494415
 21
-112.95
  0
LINE
  8
0
 10
-0.494415
 20
-112.95
 11
-0.588989
 21
-112.916
  0
LINE
  8
0
 10
-0.588989
 20
-112.916
 11
-0.681244
 21
-112.876
  0
LINE
  8
0
 10
-0.681244
 20
-112.876
 11
-0.770798
 21
-112.831
  0
LINE
  8
0
 10
-0.770798
 20
-112.831
 11
-0.857315
 21
-112.779
  0
LINE
  8
0
 10
-0.857315
 20
-112.779
 11
-0.940445
 21
-112.723
  0
LINE
  8
0
 10
-0.940445
 20
-112.723
 11
-1.01987
 21
-112.661
  0
LINE
  8
0
 10
-1.01987
 20
-112.661
 11
-1.09526
 21
-112.595
  0
LINE
  8
0
 10
-1.09526
 20
-112.595
 11
-1.16634
 21
-112.524
  0
LINE
  8
0
 10
-1.16634
 20
-112.524
 11
-1.23282
 21
-112.448
  0
LINE
  8
0
 10
-1.23282
 20
-112.448
 11
-1.29442
 21
-112.369
  0
LINE
  8
0
 10
-1.29442
 20
-112.369
 11
-1.35092
 21
-112.286
  0
LINE
  8
0
 10
-1.35092
 20
-112.286
 11
-1.40208
 21
-112.199
  0
LINE
  8
0
 10
-1.40208
 20
-112.199
 11
-1.44771
 21
-112.11
  0
LINE
  8
0
 10
-1.44771
 20
-112.11
 11
-1.48764
 21
-112.018
  0
LINE
  8
0
 10
-1.48764
 20
-112.018
 11
-1.52168
 21
-111.923
  0
LINE
  8
0
 10
-1.52168
 20
-111.923
 11
-1.54973
 21
-111.826
  0
LINE
  8
0
 10
-1.54973
 20
-111.826
 11
-1.57166
 21
-111.728
  0
LINE
  8
0
 10
-1.57166
 20
-111.728
 11
-1.58737
 21
-111.629
  0
LINE
  8
0
 10
-1.58737
 20
-111.629
 11
-1.59683
 21
-111.529
  0
LINE
  8
0
 10
-1.59683
 20
-111.529
 11
-1.59999
 21
-111.429
  0
LINE
  8
0
 10
-1.59999
 20
-111.429
 11
-1.59683
 21
-111.328
  0
LINE
  8
0
 10
-1.59683
 20
-111.328
 11
-1.58737
 21
-111.228
  0
LINE
  8
0
 10
-1.58737
 20
-111.228
 11
-1.57166
 21
-111.129
  0
LINE
  8
0
 10
-1.57166
 20
-111.129
 11
-1.54973
 21
-111.031
  0
LINE
  8
0
 10
-1.54973
 20
-111.031
 11
-1.52168
 21
-110.934
  0
LINE
  8
0
 10
-1.52168
 20
-110.934
 11
-1.48764
 21
-110.84
  0
LINE
  8
0
 10
-1.48764
 20
-110.84
 11
-1.44771
 21
-110.747
  0
LINE
  8
0
 10
-1.44771
 20
-110.747
 11
-1.40208
 21
-110.658
  0
LINE
  8
0
 10
-1.40208
 20
-110.658
 11
-1.35092
 21
-110.571
  0
LINE
  8
0
 10
-1.35092
 20
-110.571
 11
-1.29442
 21
-110.488
  0
LINE
  8
0
 10
-1.29442
 20
-110.488
 11
-1.23282
 21
-110.409
  0
LINE
  8
0
 10
-1.23282
 20
-110.409
 11
-1.16634
 21
-110.333
  0
LINE
  8
0
 10
-1.16634
 20
-110.333
 11
-1.09526
 21
-110.262
  0
LINE
  8
0
 10
-1.09526
 20
-110.262
 11
-1.01987
 21
-110.196
  0
LINE
  8
0
 10
-1.01987
 20
-110.196
 11
-0.940445
 21
-110.134
  0
LINE
  8
0
 10
-0.940445
 20
-110.134
 11
-0.857315
 21
-110.078
  0
LINE
  8
0
 10
-0.857315
 20
-110.078
 11
-0.770798
 21
-110.026
  0
LINE
  8
0
 10
-0.770798
 20
-110.026
 11
-0.681244
 21
-109.981
  0
LINE
  8
0
 10
-0.681244
 20
-109.981
 11
-0.588989
 21
-109.941
  0
LINE
  8
0
 10
-0.588989
 20
-109.941
 11
-0.494415
 21
-109.907
  0
LINE
  8
0
 10
-0.494415
 20
-109.907
 11
-0.397903
 21
-109.879
  0
LINE
  8
0
 10
-0.397903
 20
-109.879
 11
-0.299805
 21
-109.857
  0
LINE
  8
0
 10
-0.299805
 20
-109.857
 11
-0.200531
 21
-109.841
  0
LINE
  8
0
 10
-0.200531
 20
-109.841
 11
-0.100464
 21
-109.832
  0
LINE
  8
0
 10
-0.100464
 20
-109.832
 11
0
 21
-109.829
  0
LINE
  8
0
 10
0
 20
-109.829
 11
0.100464
 21
-109.832
  0
LINE
  8
0
 10
0.100464
 20
-109.832
 11
0.200531
 21
-109.841
  0
LINE
  8
0
 10
0.200531
 20
-109.841
 11
0.299805
 21
-109.857
  0
LINE
  8
0
 10
0.299805
 20
-109.857
 11
0.397903
 21
-109.879
  0
LINE
  8
0
 10
0.397903
 20
-109.879
 11
0.494415
 21
-109.907
  0
LINE
  8
0
 10
0.494415
 20
-109.907
 11
0.588989
 21
-109.941
  0
LINE
  8
0
 10
0.588989
 20
-109.941
 11
0.681244
 21
-109.981
  0
LINE
  8
0
 10
0.681244
 20
-109.981
 11
0.770798
 21
-110.026
  0
LINE
  8
0
 10
0.770798
 20
-110.026
 11
0.857315
 21
-110.078
  0
LINE
  8
0
 10
0.857315
 20
-110.078
 11
0.940445
 21
-110.134
  0
LINE
  8
0
 10
0.940445
 20
-110.134
 11
1.01987
 21
-110.196
  0
LINE
  8
0
 10
1.01987
 20
-110.196
 11
1.09526
 21
-110.262
  0
LINE
  8
0
 10
1.09526
 20
-110.262
 11
1.16634
 21
-110.333
  0
LINE
  8
0
 10
1.16634
 20
-110.333
 11
1.23282
 21
-110.409
  0
LINE
  8
0
 10
1.23282
 20
-110.409
 11
1.29442
 21
-110.488
  0
LINE
  8
0
 10
1.29442
 20
-110.488
 11
1.35092
 21
-110.571
  0
LINE
  8
0
 10
1.35092
 20
-110.571
 11
1.40208
 21
-110.658
  0
LINE
  8
0
 10
1.40208
 20
-110.658
 11
1.44771
 21
-110.747
  0
LINE
  8
0
 10
1.44771
 20
-110.747
 11
1.48764
 21
-110.84
  0
LINE
  8
0
 10
1.48764
 20
-110.84
 11
1.52168
 21
-110.934
  0
LINE
  8
0
 10
1.52168
 20
-110.934
 11
1.54973
 21
-111.031
  0
LINE
  8
0
 10
1.54973
 20
-111.031
 11
1.57166
 21
-111.129
  0
LINE
  8
0
 10
1.57166
 20
-111.129
 11
1.58737
 21
-111.228
  0
LINE
  8
0
 10
1.58737
 20
-111.228
 11
1.59683
 21
-111.328
  0
LINE
  8
0
 10
1.59683
 20
-111.328
 11
1.59999
 21
-111.429
  0
LINE
  8
0
 10
1.59999
 20
-111.429
 11
1.59683
 21
-111.529
  0
LINE
  8
0
 10
1.59683
 20
-111.529
 11
1.58737
 21
-111.629
  0
LINE
  8
0
 10
1.58737
 20
-111.629
 11
1.57166
 21
-111.728
  0
LINE
  8
0
 10
1.57166
 20
-111.728
 11
1.54973
 21
-111.826
  0
LINE
  8
0
 10
1.54973
 20
-111.826
 11
1.52168
 21
-111.923
  0
LINE
  8
0
 10
1.52168
 20
-111.923
 11
1.48764
 21
-112.018
  0
LINE
  8
0
 10
1.48764
 20
-112.018
 11
1.44771
 21
-112.11
  0
LINE
  8
0
 10
1.44771
 20
-112.11
 11
1.40208
 21
-112.199
  0
LINE
  8
0
 10
1.40208
 20
-112.199
 11
1.35092
 21
-112.286
  0
LINE
  8
0
 10
1.35092
 20
-112.286
 11
1.29442
 21
-112.369
  0
LINE
  8
0
 10
1.29442
 20
-112.369
 11
1.23282
 21
-112.448
  0
LINE
  8
0
 10
1.23282
 20
-112.448
 11
1.16634
 21
-112.524
  0
LINE
  8
0
 10
1.16634
 20
-112.524
 11
1.09526
 21
-112.595
  0
LINE
  8
0
 10
1.09526
 20
-112.595
 11
1.01987
 21
-112.661
  0
LINE
  8
0
 10
1.01987
 20
-112.661
 11
0.940445
 21
-112.723
  0
LINE
  8
0
 10
0.940445
 20
-112.723
 11
0.857315
 21
-112.779
  0
LINE
  8
0
 10
0.857315
 20
-112.779
 11
0.770798
 21
-112.831
  0
LINE
  8
0
 10
0.770798
 20
-112.831
 11
0.681244
 21
-112.876
  0
LINE
  8
0
 10
0.681244
 20
-112.876
 11
0.588989
 21
-112.916
  0
LINE
  8
0
 10
0.588989
 20
-112.916
 11
0.494415
 21
-112.95
  0
LINE
  8
0
 10
0.494415
 20
-112.95
 11
0.397903
 21
-112.978
  0
LINE
  8
0
 10
0.397903
 20
-112.978
 11
0.299805
 21
-113
  0
LINE
  8
0
 10
0.299805
 20
-113
 11
0.200531
 21
-113.016
  0
LINE
  8
0
 10
0.200531
 20
-113.016
 11
0.100464
 21
-113.025
  0
LINE
  8
0
 10
0.100464
 20
-113.025
 11
0
 21
-113.029
  0
LINE
  8
0
 10
0
 20
-113.029
 11
-0.100464
 21
-113.025
  0
LINE
  8
0
 10
-0.100464
 20
-168.74
 11
-0.200531
 21
-168.73
  0
LINE
  8
0
 10
-0.200531
 20
-168.73
 11
-0.299805
 21
-168.715
  0
LINE
  8
0
 10
-0.299805
 20
-168.715
 11
-0.397903
 21
-168.693
  0
LINE
  8
0
 10
-0.397903
 20
-168.693
 11
-0.494415
 21
-168.665
  0
LINE
  8
0
 10
-0.494415
 20
-168.665
 11
-0.588989
 21
-168.63
  0
LINE
  8
0
 10
-0.588989
 20
-168.63
 11
-0.681244
 21
-168.591
  0
LINE
  8
0
 10
-0.681244
 20
-168.591
 11
-0.770798
 21
-168.545
  0
LINE
  8
0
 10
-0.770798
 20
-168.545
 11
-0.857315
 21
-168.494
  0
LINE
  8
0
 10
-0.857315
 20
-168.494
 11
-0.940445
 21
-168.437
  0
LINE
  8
0
 10
-0.940445
 20
-168.437
 11
-1.01987
 21
-168.376
  0
LINE
  8
0
 10
-1.01987
 20
-168.376
 11
-1.09526
 21
-168.309
  0
LINE
  8
0
 10
-1.09526
 20
-168.309
 11
-1.16634
 21
-168.238
  0
LINE
  8
0
 10
-1.16634
 20
-168.238
 11
-1.23282
 21
-168.163
  0
LINE
  8
0
 10
-1.23282
 20
-168.163
 11
-1.29442
 21
-168.083
  0
LINE
  8
0
 10
-1.29442
 20
-168.083
 11
-1.35092
 21
-168
  0
LINE
  8
0
 10
-1.35092
 20
-168
 11
-1.40208
 21
-167.914
  0
LINE
  8
0
 10
-1.40208
 20
-167.914
 11
-1.44771
 21
-167.824
  0
LINE
  8
0
 10
-1.44771
 20
-167.824
 11
-1.48764
 21
-167.732
  0
LINE
  8
0
 10
-1.48764
 20
-167.732
 11
-1.52168
 21
-167.637
  0
LINE
  8
0
 10
-1.52168
 20
-167.637
 11
-1.54973
 21
-167.541
  0
LINE
  8
0
 10
-1.54973
 20
-167.541
 11
-1.57166
 21
-167.443
  0
LINE
  8
0
 10
-1.57166
 20
-167.443
 11
-1.58737
 21
-167.343
  0
LINE
  8
0
 10
-1.58737
 20
-167.343
 11
-1.59683
 21
-167.243
  0
LINE
  8
0
 10
-1.59683
 20
-167.243
 11
-1.59999
 21
-167.143
  0
LINE
  8
0
 10
-1.59999
 20
-167.143
 11
-1.59683
 21
-167.042
  0
LINE
  8
0
 10
-1.59683
 20
-167.042
 11
-1.58737
 21
-166.942
  0
LINE
  8
0
 10
-1.58737
 20
-166.942
 11
-1.57166
 21
-166.843
  0
LINE
  8
0
 10
-1.57166
 20
-166.843
 11
-1.54973
 21
-166.745
  0
LINE
  8
0
 10
-1.54973
 20
-166.745
 11
-1.52168
 21
-166.648
  0
LINE
  8
0
 10
-1.52168
 20
-166.648
 11
-1.48764
 21
-166.554
  0
LINE
  8
0
 10
-1.48764
 20
-166.554
 11
-1.44771
 21
-166.462
  0
LINE
  8
0
 10
-1.44771
 20
-166.462
 11
-1.40208
 21
-166.372
  0
LINE
  8
0
 10
-1.40208
 20
-166.372
 11
-1.35092
 21
-166.286
  0
LINE
  8
0
 10
-1.35092
 20
-166.286
 11
-1.29442
 21
-166.202
  0
LINE
  8
0
 10
-1.29442
 20
-166.202
 11
-1.23282
 21
-166.123
  0
LINE
  8
0
 10
-1.23282
 20
-166.123
 11
-1.16634
 21
-166.048
  0
LINE
  8
0
 10
-1.16634
 20
-166.048
 11
-1.09526
 21
-165.977
  0
LINE
  8
0
 10
-1.09526
 20
-165.977
 11
-1.01987
 21
-165.91
  0
LINE
  8
0
 10
-1.01987
 20
-165.91
 11
-0.940445
 21
-165.848
  0
LINE
  8
0
 10
-0.940445
 20
-165.848
 11
-0.857315
 21
-165.792
  0
LINE
  8
0
 10
-0.857315
 20
-165.792
 11
-0.770798
 21
-165.741
  0
LINE
  8
0
 10
-0.770798
 20
-165.741
 11
-0.681244
 21
-165.695
  0
LINE
  8
0
 10
-0.681244
 20
-165.695
 11
-0.588989
 21
-165.655
  0
LINE
  8
0
 10
-0.588989
 20
-165.655
 11
-0.494415
 21
-165.621
  0
LINE
  8
0
 10
-0.494415
 20
-165.621
 11
-0.397903
 21
-165.593
  0
LINE
  8
0
 10
-0.397903
 20
-165.593
 11
-0.299805
 21
-165.571
  0
LINE
  8
0
 10
-0.299805
 20
-165.571
 11
-0.200531
 21
-165.555
  0
LINE
  8
0
 10
-0.200531
 20
-165.555
 11
-0.100464
 21
-165.546
  0
LINE
  8
0
 10
-0.100464
 20
-165.546
 11
0
 21
-165.543
  0
LINE
  8
0
 10
0
 20
-165.543
 11
0.100464
 21
-165.546
  0
LINE
  8
0
 10
0.100464
 20
-165.546
 11
0.200531
 21
-165.555
  0
LINE
  8
0
 10
0.200531
 20
-165.555
 11
0.299805
 21
-165.571
  0
LINE
  8
0
 10
0.299805
 20
-165.571
 11
0.397903
 21
-165.593
  0
LINE
  8
0
 10
0.397903
 20
-165.593
 11
0.494415
 21
-165.621
  0
LINE
  8
0
 10
0.494415
 20
-165.621
 11
0.588989
 21
-165.655
  0
LINE
  8
0
 10
0.588989
 20
-165.655
 11
0.681244
 21
-165.695
  0
LINE
  8
0
 10
0.681244
 20
-165.695
 11
0.770798
 21
-165.741
  0
LINE
  8
0
 10
0.770798
 20
-165.741
 11
0.857315
 21
-165.792
  0
LINE
  8
0
 10
0.857315
 20
-165.792
 11
0.940445
 21
-165.848
  0
LINE
  8
0
 10
0.940445
 20
-165.848
 11
1.01987
 21
-165.91
  0
LINE
  8
0
 10
1.01987
 20
-165.91
 11
1.09526
 21
-165.977
  0
LINE
  8
0
 10
1.09526
 20
-165.977
 11
1.16634
 21
-166.048
  0
LINE
  8
0
 10
1.16634
 20
-166.048
 11
1.23282
 21
-166.123
  0
LINE
  8
0
 10
1.23282
 20
-166.123
 11
1.29442
 21
-166.202
  0
LINE
  8
0
 10
1.29442
 20
-166.202
 11
1.35092
 21
-166.286
  0
LINE
  8
0
 10
1.35092
 20
-166.286
 11
1.40208
 21
-166.372
  0
LINE
  8
0
 10
1.40208
 20
-166.372
 11
1.44771
 21
-166.462
  0
LINE
  8
0
 10
1.44771
 20
-166.462
 11
1.48764
 21
-166.554
  0
LINE
  8
0
 10
1.48764
 20
-166.554
 11
1.52168
 21
-166.648
  0
LINE
  8
0
 10
1.52168
 20
-166.648
 11
1.54973
 21
-166.745
  0
LINE
  8
0
 10
1.54973
 20
-166.745
 11
1.57166
 21
-166.843
  0
LINE
  8
0
 10
1.57166
 20
-166.843
 11
1.58737
 21
-166.942
  0
LINE
  8
0
 10
1.58737
 20
-166.942
 11
1.59683
 21
-167.042
  0
LINE
  8
0
 10
1.59683
 20
-167.042
 11
1.59999
 21
-167.143
  0
LINE
  8
0
 10
1.59999
 20
-167.143
 11
1.59683
 21
-167.243
  0
LINE
  8
0
 10
1.59683
 20
-167.243
 11
1.58737
 21
-167.343
  0
LINE
  8
0
 10
1.58737
 20
-167.343
 11
1.57166
 21
-167.443
  0
LINE
  8
0
 10
1.57166
 20
-167.443
 11
1.54973
 21
-167.541
  0
LINE
  8
0
 10
1.54973
 20
-167.541
 11
1.52168
 21
-167.637
  0
LINE
  8
0
 10
1.52168
 20
-167.637
 11
1.48764
 21
-167.732
  0
LINE
  8
0
 10
1.48764
 20
-167.732
 11
1.44771
 21
-167.824
  0
LINE
  8
0
 10
1.44771
 20
-167.824
 11
1.40208
 21
-167.914
  0
LINE
  8
0
 10
1.40208
 20
-167.914
 11
1.35092
 21
-168
  0
LINE
  8
0
 10
1.35092
 20
-168
 11
1.29442
 21
-168.083
  0
LINE
  8
0
 10
1.29442
 20
-168.083
 11
1.23282
 21
-168.163
  0
LINE
  8
0
 10
1.23282
 20
-168.163
 11
1.16634
 21
-168.238
  0
LINE
  8
0
 10
1.16634
 20
-168.238
 11
1.09526
 21
-168.309
  0
LINE
  8
0
 10
1.09526
 20
-168.309
 11
1.01987
 21
-168.376
  0
LINE
  8
0
 10
1.01987
 20
-168.376
 11
0.940445
 21
-168.437
  0
LINE
  8
0
 10
0.940445
 20
-168.437
 11
0.857315
 21
-168.494
  0
LINE
  8
0
 10
0.857315
 20
-168.494
 11
0.770798
 21
-168.545
  0
LINE
  8
0
 10
0.770798
 20
-168.545
 11
0.681244
 21
-168.591
  0
LINE
  8
0
 10
0.681244
 20
-168.591
 11
0.588989
 21
-168.63
  0
LINE
  8
0
 10
0.588989
 20
-168.63
 11
0.494415
 21
-168.665
  0
LINE
  8
0
 10
0.494415
 20
-168.665
 11
0.397903
 21
-168.693
  0
LINE
  8
0
 10
0.397903
 20
-168.693
 11
0.299805
 21
-168.715
  0
LINE
  8
0
 10
0.299805
 20
-168.715
 11
0.200531
 21
-168.73
  0
LINE
  8
0
 10
0.200531
 20
-168.73
 11
0.100464
 21
-168.74
  0
LINE
  8
0
 10
0.100464
 20
-168.74
 11
0
 21
-168.743
  0
LINE
  8
0
 10
0
 20
-168.743
 11
-0.100464
 21
-168.74
  0
LINE
  8
0
 10
-0.100464
 20
-224.454
 11
-0.200531
 21
-224.445
  0
LINE
  8
0
 10
-0.200531
 20
-224.445
 11
-0.299805
 21
-224.429
  0
LINE
  8
0
 10
-0.299805
 20
-224.429
 11
-0.397903
 21
-224.407
  0
LINE
  8
0
 10
-0.397903
 20
-224.407
 11
-0.494415
 21
-224.379
  0
LINE
  8
0
 10
-0.494415
 20
-224.379
 11
-0.588989
 21
-224.345
  0
LINE
  8
0
 10
-0.588989
 20
-224.345
 11
-0.681244
 21
-224.305
  0
LINE
  8
0
 10
-0.681244
 20
-224.305
 11
-0.770798
 21
-224.259
  0
LINE
  8
0
 10
-0.770798
 20
-224.259
 11
-0.857315
 21
-224.208
  0
LINE
  8
0
 10
-0.857315
 20
-224.208
 11
-0.940445
 21
-224.152
  0
LINE
  8
0
 10
-0.940445
 20
-224.152
 11
-1.01987
 21
-224.09
  0
LINE
  8
0
 10
-1.01987
 20
-224.09
 11
-1.09526
 21
-224.023
  0
LINE
  8
0
 10
-1.09526
 20
-224.023
 11
-1.16634
 21
-223.952
  0
LINE
  8
0
 10
-1.16634
 20
-223.952
 11
-1.23282
 21
-223.877
  0
LINE
  8
0
 10
-1.23282
 20
-223.877
 11
-1.29442
 21
-223.798
  0
LINE
  8
0
 10
-1.29442
 20
-223.798
 11
-1.35092
 21
-223.714
  0
LINE
  8
0
 10
-1.35092
 20
-223.714
 11
-1.40208
 21
-223.628
  0
LINE
  8
0
 10
-1.40208
 20
-223.628
 11
-1.44771
 21
-223.538
  0
LINE
  8
0
 10
-1.44771
 20
-223.538
 11
-1.48764
 21
-223.446
  0
LINE
  8
0
 10
-1.48764
 20
-223.446
 11
-1.52168
 21
-223.352
  0
LINE
  8
0
 10
-1.52168
 20
-223.352
 11
-1.54973
 21
-223.255
  0
LINE
  8
0
 10
-1.54973
 20
-223.255
 11
-1.57166
 21
-223.157
  0
LINE
  8
0
 10
-1.57166
 20
-223.157
 11
-1.58737
 21
-223.058
  0
LINE
  8
0
 10
-1.58737
 20
-223.058
 11
-1.59683
 21
-222.958
  0
LINE
  8
0
 10
-1.59683
 20
-222.958
 11
-1.59999
 21
-222.857
  0
LINE
  8
0
 10
-1.59999
 20
-222.857
 11
-1.59683
 21
-222.757
  0
LINE
  8
0
 10
-1.59683
 20
-222.757
 11
-1.58737
 21
-222.657
  0
LINE
  8
0
 10
-1.58737
 20
-222.657
 11
-1.57166
 21
-222.557
  0
LINE
  8
0
 10
-1.57166
 20
-222.557
 11
-1.54973
 21
-222.459
  0
LINE
  8
0
 10
-1.54973
 20
-222.459
 11
-1.52168
 21
-222.363
  0
LINE
  8
0
 10
-1.52168
 20
-222.363
 11
-1.48764
 21
-222.268
  0
LINE
  8
0
 10
-1.48764
 20
-222.268
 11
-1.44771
 21
-222.176
  0
LINE
  8
0
 10
-1.44771
 20
-222.176
 11
-1.40208
 21
-222.086
  0
LINE
  8
0
 10
-1.40208
 20
-222.086
 11
-1.35092
 21
-222
  0
LINE
  8
0
 10
-1.35092
 20
-222
 11
-1.29442
 21
-221.917
  0
LINE
  8
0
 10
-1.29442
 20
-221.917
 11
-1.23282
 21
-221.837
  0
LINE
  8
0
 10
-1.23282
 20
-221.837
 11
-1.16634
 21
-221.762
  0
LINE
  8
0
 10
-1.16634
 20
-221.762
 11
-1.09526
 21
-221.691
  0
LINE
  8
0
 10
-1.09526
 20
-221.691
 11
-1.01987
 21
-221.624
  0
LINE
  8
0
 10
-1.01987
 20
-221.624
 11
-0.940445
 21
-221.563
  0
LINE
  8
0
 10
-0.940445
 20
-221.563
 11
-0.857315
 21
-221.506
  0
LINE
  8
0
 10
-0.857315
 20
-221.506
 11
-0.770798
 21
-221.455
  0
LINE
  8
0
 10
-0.770798
 20
-221.455
 11
-0.681244
 21
-221.409
  0
LINE
  8
0
 10
-0.681244
 20
-221.409
 11
-0.588989
 21
-221.37
  0
LINE
  8
0
 10
-0.588989
 20
-221.37
 11
-0.494415
 21
-221.335
  0
LINE
  8
0
 10
-0.494415
 20
-221.335
 11
-0.397903
 21
-221.307
  0
LINE
  8
0
 10
-0.397903
 20
-221.307
 11
-0.299805
 21
-221.285
  0
LINE
  8
0
 10
-0.299805
 20
-221.285
 11
-0.200531
 21
-221.27
  0
LINE
  8
0
 10
-0.200531
 20
-221.27
 11
-0.100464
 21
-221.26
  0
LINE
  8
0
 10
-0.100464
 20
-221.26
 11
0
 21
-221.257
  0
LINE
  8
0
 10
0
 20
-221.257
 11
0.100464
 21
-221.26
  0
LINE
  8
0
 10
0.100464
 20
-221.26
 11
0.200531
 21
-221.27
  0
LINE
  8
0
 10
0.200531
 20
-221.27
 11
0.299805
 21
-221.285
  0
LINE
  8
0
 10
0.299805
 20
-221.285
 11
0.397903
 21
-221.307
  0
LINE
  8
0
 10
0.397903
 20
-221.307
 11
0.494415
 21
-221.335
  0
LINE
  8
0
 10
0.494415
 20
-221.335
 11
0.588989
 21
-221.37
  0
LINE
  8
0
 10
0.588989
 20
-221.37
 11
0.681244
 21
-221.409
  0
LINE
  8
0
 10
0.681244
 20
-221.409
 11
0.770798
 21
-221.455
  0
LINE
  8
0
 10
0.770798
 20
-221.455
 11
0.857315
 21
-221.506
  0
LINE
  8
0
 10
0.857315
 20
-221.506
 11
0.940445
 21
-221.563
  0
LINE
  8
0
 10
0.940445
 20
-221.563
 11
1.01987
 21
-221.624
  0
LINE
  8
0
 10
1.01987
 20
-221.624
 11
1.09526
 21
-221.691
  0
LINE
  8
0
 10
1.09526
 20
-221.691
 11
1.16634
 21
-221.762
  0
LINE
  8
0
 10
1.16634
 20
-221.762
 11
1.23282
 21
-221.837
  0
LINE
  8
0
 10
1.23282
 20
-221.837
 11
1.29442
 21
-221.917
  0
LINE
  8
0
 10
1.29442
 20
-221.917
 11
1.35092
 21
-222
  0
LINE
  8
0
 10
1.35092
 20
-222
 11
1.40208
 21
-222.086
  0
LINE
  8
0
 10
1.40208
 20
-222.086
 11
1.44771
 21
-222.176
  0
LINE
  8
0
 10
1.44771
 20
-222.176
 11
1.48764
 21
-222.268
  0
LINE
  8
0
 10
1.48764
 20
-222.268
 11
1.52168
 21
-222.363
  0
LINE
  8
0
 10
1.52168
 20
-222.363
 11
1.54973
 21
-222.459
  0
LINE
  8
0
 10
1.54973
 20
-222.459
 11
1.57166
 21
-222.557
  0
LINE
  8
0
 10
1.57166
 20
-222.557
 11
1.58737
 21
-222.657
  0
LINE
  8
0
 10
1.58737
 20
-222.657
 11
1.59683
 21
-222.757
  0
LINE
  8
0
 10
1.59683
 20
-222.757
 11
1.59999
 21
-222.857
  0
LINE
  8
0
 10
1.59999
 20
-222.857
 11
1.59683
 21
-222.958
  0
LINE
  8
0
 10
1.59683
 20
-222.958
 11
1.58737
 21
-223.058
  0
LINE
  8
0
 10
1.58737
 20
-223.058
 11
1.57166
 21
-223.157
  0
LINE
  8
0
 10
1.57166
 20
-223.157
 11
1.54973
 21
-223.255
  0
LINE
  8
0
 10
1.54973
 20
-223.255
 11
1.52168
 21
-223.352
  0
LINE
  8
0
 10
1.52168
 20
-223.352
 11
1.48764
 21
-223.446
  0
LINE
  8
0
 10
1.48764
 20
-223.446
 11
1.44771
 21
-223.538
  0
LINE
  8
0
 10
1.44771
 20
-223.538
 11
1.40208
 21
-223.628
  0
LINE
  8
0
 10
1.40208
 20
-223.628
 11
1.35092
 21
-223.714
  0
LINE
  8
0
 10
1.35092
 20
-223.714
 11
1.29442
 21
-223.798
  0
LINE
  8
0
 10
1.29442
 20
-223.798
 11
1.23282
 21
-223.877
  0
LINE
  8
0
 10
1.23282
 20
-223.877
 11
1.16634
 21
-223.952
  0
LINE
  8
0
 10
1.16634
 20
-223.952
 11
1.09526
 21
-224.023
  0
LINE
  8
0
 10
1.09526
 20
-224.023
 11
1.01987
 21
-224.09
  0
LINE
  8
0
 10
1.01987
 20
-224.09
 11
0.940445
 21
-224.152
  0
LINE
  8
0
 10
0.940445
 20
-224.152
 11
0.857315
 21
-224.208
  0
LINE
  8
0
 10
0.857315
 20
-224.208
 11
0.770798
 21
-224.259
  0
LINE
  8
0
 10
0.770798
 20
-224.259
 11
0.681244
 21
-224.305
  0
LINE
  8
0
 10
0.681244
 20
-224.305
 11
0.588989
 21
-224.345
  0
LINE
  8
0
 10
0.588989
 20
-224.345
 11
0.494415
 21
-224.379
  0
LINE
  8
0
 10
0.494415
 20
-224.379
 11
0.397903
 21
-224.407
  0
LINE
  8
0
 10
0.397903
 20
-224.407
 11
0.299805
 21
-224.429
  0
LINE
  8
0
 10
0.299805
 20
-224.429
 11
0.200531
 21
-224.445
  0
LINE
  8
0
 10
0.200531
 20
-224.445
 11
0.100464
 21
-224.454
  0
LINE
  8
0
 10
0.100464
 20
-224.454
 11
0
 21
-224.457
  0
LINE
  8
0
 10
0
 20
-224.457
 11
-0.100464
 21
-224.454
  0
LINE
  8
0
 10
-0.100464
 20
-280.168
 11
-0.200531
 21
-280.159
  0
LINE
  8
0
 10
-0.200531
 20
-280.159
 11
-0.299805
 21
-280.143
  0
LINE
  8
0
 10
-0.299805
 20
-280.143
 11
-0.397903
 21
-280.121
  0
LINE
  8
0
 10
-0.397903
 20
-280.121
 11
-0.494415
 21
-280.093
  0
LINE
  8
0
 10
-0.494415
 20
-280.093
 11
-0.588989
 21
-280.059
  0
LINE
  8
0
 10
-0.588989
 20
-280.059
 11
-0.681244
 21
-280.019
  0
LINE
  8
0
 10
-0.681244
 20
-280.019
 11
-0.770798
 21
-279.974
  0
LINE
  8
0
 10
-0.770798
 20
-279.974
 11
-0.857315
 21
-279.922
  0
LINE
  8
0
 10
-0.857315
 20
-279.922
 11
-0.940445
 21
-279.866
  0
LINE
  8
0
 10
-0.940445
 20
-279.866
 11
-1.01987
 21
-279.804
  0
LINE
  8
0
 10
-1.01987
 20
-279.804
 11
-1.09526
 21
-279.738
  0
LINE
  8
0
 10
-1.09526
 20
-279.738
 11
-1.16634
 21
-279.667
  0
LINE
  8
0
 10
-1.16634
 20
-279.667
 11
-1.23282
 21
-279.591
  0
LINE
  8
0
 10
-1.23282
 20
-279.591
 11
-1.29442
 21
-279.512
  0
LINE
  8
0
 10
-1.29442
 20
-279.512
 11
-1.35092
 21
-279.429
  0
LINE
  8
0
 10
-1.35092
 20
-279.429
 11
-1.40208
 21
-279.342
  0
LINE
  8
0
 10
-1.40208
 20
-279.342
 11
-1.44771
 21
-279.253
  0
LINE
  8
0
 10
-1.44771
 20
-279.253
 11
-1.48764
 21
-279.16
  0
LINE
  8
0
 10
-1.48764
 20
-279.16
 11
-1.52168
 21
-279.066
  0
LINE
  8
0
 10
-1.52168
 20
-279.066
 11
-1.54973
 21
-278.969
  0
LINE
  8
0
 10
-1.54973
 20
-278.969
 11
-1.57166
 21
-278.871
  0
LINE
  8
0
 10
-1.57166
 20
-278.871
 11
-1.58737
 21
-278.772
  0
LINE
  8
0
 10
-1.58737
 20
-278.772
 11
-1.59683
 21
-278.672
  0
LINE
  8
0
 10
-1.59683
 20
-278.672
 11
-1.59999
 21
-278.571
  0
LINE
  8
0
 10
-1.59999
 20
-278.571
 11
-1.59683
 21
-278.471
  0
LINE
  8
0
 10
-1.59683
 20
-278.471
 11
-1.58737
 21
-278.371
  0
LINE
  8
0
 10
-1.58737
 20
-278.371
 11
-1.57166
 21
-278.272
  0
LINE
  8
0
 10
-1.57166
 20
-278.272
 11
-1.54973
 21
-278.174
  0
LINE
  8
0
 10
-1.54973
 20
-278.174
 11
-1.52168
 21
-278.077
  0
LINE
  8
0
 10
-1.52168
 20
-278.077
 11
-1.48764
 21
-277.982
  0
LINE
  8
0
 10
-1.48764
 20
-277.982
 11
-1.44771
 21
-277.89
  0
LINE
  8
0
 10
-1.44771
 20
-277.89
 11
-1.40208
 21
-277.801
  0
LINE
  8
0
 10
-1.40208
 20
-277.801
 11
-1.35092
 21
-277.714
  0
LINE
  8
0
 10
-1.35092
 20
-277.714
 11
-1.29442
 21
-277.631
  0
LINE
  8
0
 10
-1.29442
 20
-277.631
 11
-1.23282
 21
-277.552
  0
LINE
  8
0
 10
-1.23282
 20
-277.552
 11
-1.16634
 21
-277.476
  0
LINE
  8
0
 10
-1.16634
 20
-277.476
 11
-1.09526
 21
-277.405
  0
LINE
  8
0
 10
-1.09526
 20
-277.405
 11
-1.01987
 21
-277.339
  0
LINE
  8
0
 10
-1.01987
 20
-277.339
 11
-0.940445
 21
-277.277
  0
LINE
  8
0
 10
-0.940445
 20
-277.277
 11
-0.857315
 21
-277.22
  0
LINE
  8
0
 10
-0.857315
 20
-277.22
 11
-0.770798
 21
-277.169
  0
LINE
  8
0
 10
-0.770798
 20
-277.169
 11
-0.681244
 21
-277.124
  0
LINE
  8
0
 10
-0.681244
 20
-277.124
 11
-0.588989
 21
-277.084
  0
LINE
  8
0
 10
-0.588989
 20
-277.084
 11
-0.494415
 21
-277.05
  0
LINE
  8
0
 10
-0.494415
 20
-277.05
 11
-0.397903
 21
-277.022
  0
LINE
  8
0
 10
-0.397903
 20
-277.022
 11
-0.299805
 21
-277
  0
LINE
  8
0
 10
-0.299805
 20
-277
 11
-0.200531
 21
-276.984
  0
LINE
  8
0
 10
-0.200531
 20
-276.984
 11
-0.100464
 21
-276.975
  0
LINE
  8
0
 10
-0.100464
 20
-276.975
 11
0
 21
-276.971
  0
LINE
  8
0
 10
0
 20
-276.971
 11
0.100464
 21
-276.975
  0
LINE
  8
0
 10
0.100464
 20
-276.975
 11
0.200531
 21
-276.984
  0
LINE
  8
0
 10
0.200531
 20
-276.984
 11
0.299805
 21
-277
  0
LINE
  8
0
 10
0.299805
 20
-277
 11
0.397903
 21
-277.022
  0
LINE
  8
0
 10
0.397903
 20
-277.022
 11
0.494415
 21
-277.05
  0
LINE
  8
0
 10
0.494415
 20
-277.05
 11
0.588989
 21
-277.084
  0
LINE
  8
0
 10
0.588989
 20
-277.084
 11
0.681244
 21
-277.124
  0
LINE
  8
0
 10
0.681244
 20
-277.124
 11
0.770798
 21
-277.169
  0
LINE
  8
0
 10
0.770798
 20
-277.169
 11
0.857315
 21
-277.22
  0
LINE
  8
0
 10
0.857315
 20
-277.22
 11
0.940445
 21
-277.277
  0
LINE
  8
0
 10
0.940445
 20
-277.277
 11
1.01987
 21
-277.339
  0
LINE
  8
0
 10
1.01987
 20
-277.339
 11
1.09526
 21
-277.405
  0
LINE
  8
0
 10
1.09526
 20
-277.405
 11
1.16634
 21
-277.476
  0
LINE
  8
0
 10
1.16634
 20
-277.476
 11
1.23282
 21
-277.552
  0
LINE
  8
0
 10
1.23282
 20
-277.552
 11
1.29442
 21
-277.631
  0
LINE
  8
0
 10
1.29442
 20
-277.631
 11
1.35092
 21
-277.714
  0
LINE
  8
0
 10
1.35092
 20
-277.714
 11
1.40208
 21
-277.801
  0
LINE
  8
0
 10
1.40208
 20
-277.801
 11
1.44771
 21
-277.89
  0
LINE
  8
0
 10
1.44771
 20
-277.89
 11
1.48764
 21
-277.982
  0
LINE
  8
0
 10
1.48764
 20
-277.982
 11
1.52168
 21
-278.077
  0
LINE
  8
0
 10
1.52168
 20
-278.077
 11
1.54973
 21
-278.174
  0
LINE
  8
0
 10
1.54973
 20
-278.174
 11
1.57166
 21
-278.272
  0
LINE
  8
0
 10
1.57166
 20
-278.272
 11
1.58737
 21
-278.371
  0
LINE
  8
0
 10
1.58737
 20
-278.371
 11
1.59683
 21
-278.471
  0
LINE
  8
0
 10
1.59683
 20
-278.471
 11
1.59999
 21
-278.571
  0
LINE
  8
0
 10
1.59999
 20
-278.571
 11
1.59683
 21
-278.672
  0
LINE
  8
0
 10
1.59683
 20
-278.672
 11
1.58737
 21
-278.772
  0
LINE
  8
0
 10
1.58737
 20
-278.772
 11
1.57166
 21
-278.871
  0
LINE
  8
0
 10
1.57166
 20
-278.871
 11
1.54973
 21
-278.969
  0
LINE
  8
0
 10
1.54973
 20
-278.969
 11
1.52168
 21
-279.066
  0
LINE
  8
0
 10
1.52168
 20
-279.066
 11
1.48764
 21
-279.16
  0
LINE
  8
0
 10
1.48764
 20
-279.16
 11
1.44771
 21
-279.253
  0
LINE
  8
0
 10
1.44771
 20
-279.253
 11
1.40208
 21
-279.342
  0
LINE
  8
0
 10
1.40208
 20
-279.342
 11
1.35092
 21
-279.429
  0
LINE
  8
0
 10
1.35092
 20
-279.429
 11
1.29442
 21
-279.512
  0
LINE
  8
0
 10
1.29442
 20
-279.512
 11
1.23282
 21
-279.591
  0
LINE
  8
0
 10
1.23282
 20
-279.591
 11
1.16634
 21
-279.667
  0
LINE
  8
0
 10
1.16634
 20
-279.667
 11
1.09526
 21
-279.738
  0
LINE
  8
0
 10
1.09526
 20
-279.738
 11
1.01987
 21
-279.804
  0
LINE
  8
0
 10
1.01987
 20
-279.804
 11
0.940445
 21
-279.866
  0
LINE
  8
0
 10
0.940445
 20
-279.866
 11
0.857315
 21
-279.922
  0
LINE
  8
0
 10
0.857315
 20
-279.922
 11
0.770798
 21
-279.974
  0
LINE
  8
0
 10
0.770798
 20
-279.974
 11
0.681244
 21
-280.019
  0
LINE
  8
0
 10
0.681244
 20
-280.019
 11
0.588989
 21
-280.059
  0
LINE
  8
0
 10
0.588989
 20
-280.059
 11
0.494415
 21
-280.093
  0
LINE
  8
0
 10
0.494415
 20
-280.093
 11
0.397903
 21
-280.121
  0
LINE
  8
0
 10
0.397903
 20
-280.121
 11
0.299805
 21
-280.143
  0
LINE
  8
0
 10
0.299805
 20
-280.143
 11
0.200531
 21
-280.159
  0
LINE
  8
0
 10
0.200531
 20
-280.159
 11
0.100464
 21
-280.168
  0
LINE
  8
0
 10
0.100464
 20
-280.168
 11
0
 21
-280.171
  0
LINE
  8
0
 10
0
 20
-280.171
 11
-0.100464
 21
-280.168
  0
LINE
  8
0
 10
-0.100464
 20
-335.883
 11
-0.200531
 21
-335.873
  0
LINE
  8
0
 10
-0.200531
 20
-335.873
 11
-0.299805
 21
-335.857
  0
LINE
  8
0
 10
-0.299805
 20
-335.857
 11
-0.397903
 21
-335.835
  0
LINE
  8
0
 10
-0.397903
 20
-335.835
 11
-0.494415
 21
-335.807
  0
LINE
  8
0
 10
-0.494415
 20
-335.807
 11
-0.588989
 21
-335.773
  0
LINE
  8
0
 10
-0.588989
 20
-335.773
 11
-0.681244
 21
-335.733
  0
LINE
  8
0
 10
-0.681244
 20
-335.733
 11
-0.770798
 21
-335.688
  0
LINE
  8
0
 10
-0.770798
 20
-335.688
 11
-0.857315
 21
-335.637
  0
LINE
  8
0
 10
-0.857315
 20
-335.637
 11
-0.940445
 21
-335.58
  0
LINE
  8
0
 10
-0.940445
 20
-335.58
 11
-1.01987
 21
-335.519
  0
LINE
  8
0
 10
-1.01987
 20
-335.519
 11
-1.09526
 21
-335.452
  0
LINE
  8
0
 10
-1.09526
 20
-335.452
 11
-1.16634
 21
-335.381
  0
LINE
  8
0
 10
-1.16634
 20
-335.381
 11
-1.23282
 21
-335.306
  0
LINE
  8
0
 10
-1.23282
 20
-335.306
 11
-1.29442
 21
-335.226
  0
LINE
  8
0
 10
-1.29442
 20
-335.226
 11
-1.35092
 21
-335.143
  0
LINE
  8
0
 10
-1.35092
 20
-335.143
 11
-1.40208
 21
-335.057
  0
LINE
  8
0
 10
-1.40208
 20
-335.057
 11
-1.44771
 21
-334.967
  0
LINE
  8
0
 10
-1.44771
 20
-334.967
 11
-1.48764
 21
-334.875
  0
LINE
  8
0
 10
-1.48764
 20
-334.875
 11
-1.52168
 21
-334.78
  0
LINE
  8
0
 10
-1.52168
 20
-334.78
 11
-1.54973
 21
-334.684
  0
LINE
  8
0
 10
-1.54973
 20
-334.684
 11
-1.57166
 21
-334.586
  0
LINE
  8
0
 10
-1.57166
 20
-334.586
 11
-1.58737
 21
-334.486
  0
LINE
  8
0
 10
-1.58737
 20
-334.486
 11
-1.59683
 21
-334.386
  0
LINE
  8
0
 10
-1.59683
 20
-334.386
 11
-1.59999
 21
-334.286
  0
LINE
  8
0
 10
-1.59999
 20
-334.286
 11
-1.59683
 21
-334.185
  0
LINE
  8
0
 10
-1.59683
 20
-334.185
 11
-1.58737
 21
-334.085
  0
LINE
  8
0
 10
-1.58737
 20
-334.085
 11
-1.57166
 21
-333.986
  0
LINE
  8
0
 10
-1.57166
 20
-333.986
 11
-1.54973
 21
-333.888
  0
LINE
  8
0
 10
-1.54973
 20
-333.888
 11
-1.52168
 21
-333.791
  0
LINE
  8
0
 10
-1.52168
 20
-333.791
 11
-1.48764
 21
-333.697
  0
LINE
  8
0
 10
-1.48764
 20
-333.697
 11
-1.44771
 21
-333.604
  0
LINE
  8
0
 10
-1.44771
 20
-333.604
 11
-1.40208
 21
-333.515
  0
LINE
  8
0
 10
-1.40208
 20
-333.515
 11
-1.35092
 21
-333.428
  0
LINE
  8
0
 10
-1.35092
 20
-333.428
 11
-1.29442
 21
-333.345
  0
LINE
  8
0
 10
-1.29442
 20
-333.345
 11
-1.23282
 21
-333.266
  0
LINE
  8
0
 10
-1.23282
 20
-333.266
 11
-1.16634
 21
-333.19
  0
LINE
  8
0
 10
-1.16634
 20
-333.19
 11
-1.09526
 21
-333.119
  0
LINE
  8
0
 10
-1.09526
 20
-333.119
 11
-1.01987
 21
-333.053
  0
LINE
  8
0
 10
-1.01987
 20
-333.053
 11
-0.940445
 21
-332.991
  0
LINE
  8
0
 10
-0.940445
 20
-332.991
 11
-0.857315
 21
-332.935
  0
LINE
  8
0
 10
-0.857315
 20
-332.935
 11
-0.770798
 21
-332.884
  0
LINE
  8
0
 10
-0.770798
 20
-332.884
 11
-0.681244
 21
-332.838
  0
LINE
  8
0
 10
-0.681244
 20
-332.838
 11
-0.588989
 21
-332.798
  0
LINE
  8
0
 10
-0.588989
 20
-332.798
 11
-0.494415
 21
-332.764
  0
LINE
  8
0
 10
-0.494415
 20
-332.764
 11
-0.397903
 21
-332.736
  0
LINE
  8
0
 10
-0.397903
 20
-332.736
 11
-0.299805
 21
-332.714
  0
LINE
  8
0
 10
-0.299805
 20
-332.714
 11
-0.200531
 21
-332.698
  0
LINE
  8
0
 10
-0.200531
 20
-332.698
 11
-0.100464
 21
-332.689
  0
LINE
  8
0
 10
-0.100464
 20
-332.689
 11
0
 21
-332.686
  0
LINE
  8
0
 10
0
 20
-332.686
 11
0.100464
 21
-332.689
  0
LINE
  8
0
 10
0.100464
 20
-332.689
 11
0.200531
 21
-332.698
  0
LINE
  8
0
 10
0.200531
 20
-332.698
 11
0.299805
 21
-332.714
  0
LINE
  8
0
 10
0.299805
 20
-332.714
 11
0.397903
 21
-332.736
  0
LINE
  8
0
 10
0.397903
 20
-332.736
 11
0.494415
 21
-332.764
  0
LINE
  8
0
 10
0.494415
 20
-332.764
 11
0.588989
 21
-332.798
  0
LINE
  8
0
 10
0.588989
 20
-332.798
 11
0.681244
 21
-332.838
  0
LINE
  8
0
 10
0.681244
 20
-332.838
 11
0.770798
 21
-332.884
  0
LINE
  8
0
 10
0.770798
 20
-332.884
 11
0.857315
 21
-332.935
  0
LINE
  8
0
 10
0.857315
 20
-332.935
 11
0.940445
 21
-332.991
  0
LINE
  8
0
 10
0.940445
 20
-332.991
 11
1.01987
 21
-333.053
  0
LINE
  8
0
 10
1.01987
 20
-333.053
 11
1.09526
 21
-333.119
  0
LINE
  8
0
 10
1.09526
 20
-333.119
 11
1.16634
 21
-333.19
  0
LINE
  8
0
 10
1.16634
 20
-333.19
 11
1.23282
 21
-333.266
  0
LINE
  8
0
 10
1.23282
 20
-333.266
 11
1.29442
 21
-333.345
  0
LINE
  8
0
 10
1.29442
 20
-333.345
 11
1.35092
 21
-333.428
  0
LINE
  8
0
 10
1.35092
 20
-333.428
 11
1.40208
 21
-333.515
  0
LINE
  8
0
 10
1.40208
 20
-333.515
 11
1.44771
 21
-333.604
  0
LINE
  8
0
 10
1.44771
 20
-333.604
 11
1.48764
 21
-333.697
  0
LINE
  8
0
 10
1.48764
 20
-333.697
 11
1.52168
 21
-333.791
  0
LINE
  8
0
 10
1.52168
 20
-333.791
 11
1.54973
 21
-333.888
  0
LINE
  8
0
 10
1.54973
 20
-333.888
 11
1.57166
 21
-333.986
  0
LINE
  8
0
 10
1.57166
 20
-333.986
 11
1.58737
 21
-334.085
  0
LINE
  8
0
 10
1.58737
 20
-334.085
 11
1.59683
 21
-334.185
  0
LINE
  8
0
 10
1.59683
 20
-334.185
 11
1.59999
 21
-334.286
  0
LINE
  8
0
 10
1.59999
 20
-334.286
 11
1.59683
 21
-334.386
  0
LINE
  8
0
 10
1.59683
 20
-334.386
 11
1.58737
 21
-334.486
  0
LINE
  8
0
 10
1.58737
 20
-334.486
 11
1.57166
 21
-334.586
  0
LINE
  8
0
 10
1.57166
 20
-334.586
 11
1.54973
 21
-334.684
  0
LINE
  8
0
 10
1.54973
 20
-334.684
 11
1.52168
 21
-334.78
  0
LINE
  8
0
 10
1.52168
 20
-334.78
 11
1.48764
 21
-334.875
  0
LINE
  8
0
 10
1.48764
 20
-334.875
 11
1.44771
 21
-334.967
  0
LINE
  8
0
 10
1.44771
 20
-334.967
 11
1.40208
 21
-335.057
  0
LINE
  8
0
 10
1.40208
 20
-335.057
 11
1.35092
 21
-335.143
  0
LINE
  8
0
 10
1.35092
 20
-335.143
 11
1.29442
 21
-335.226
  0
LINE
  8
0
 10
1.29442
 20
-335.226
 11
1.23282
 21
-335.306
  0
LINE
  8
0
 10
1.23282
 20
-335.306
 11
1.16634
 21
-335.381
  0
LINE
  8
0
 10
1.16634
 20
-335.381
 11
1.09526
 21
-335.452
  0
LINE
  8
0
 10
1.09526
 20
-335.452
 11
1.01987
 21
-335.519
  0
LINE
  8
0
 10
1.01987
 20
-335.519
 11
0.940445
 21
-335.58
  0
LINE
  8
0
 10
0.940445
 20
-335.58
 11
0.857315
 21
-335.637
  0
LINE
  8
0
 10
0.857315
 20
-335.637
 11
0.770798
 21
-335.688
  0
LINE
  8
0
 10
0.770798
 20
-335.688
 11
0.681244
 21
-335.733
  0
LINE
  8
0
 10
0.681244
 20
-335.733
 11
0.588989
 21
-335.773
  0
LINE
  8
0
 10
0.588989
 20
-335.773
 11
0.494415
 21
-335.807
  0
LINE
  8
0
 10
0.494415
 20
-335.807
 11
0.397903
 21
-335.835
  0
LINE
  8
0
 10
0.397903
 20
-335.835
 11
0.299805
 21
-335.857
  0
LINE
  8
0
 10
0.299805
 20
-335.857
 11
0.200531
 21
-335.873
  0
LINE
  8
0
 10
0.200531
 20
-335.873
 11
0.100464
 21
-335.883
  0
LINE
  8
0
 10
0.100464
 20
-335.883
 11
0
 21
-335.886
  0
LINE
  8
0
 10
0
 20
-335.886
 11
-0.100464
 21
-335.883
  0
LINE
  8
0
 10
-0.439529
 20
-396.986
 11
-0.877319
 21
-396.945
  0
LINE
  8
0
 10
-0.877319
 20
-396.945
 11
-1.31166
 21
-396.876
  0
LINE
  8
0
 10
-1.31166
 20
-396.876
 11
-1.74081
 21
-396.78
  0
LINE
  8
0
 10
-1.74081
 20
-396.78
 11
-2.16312
 21
-396.657
  0
LINE
  8
0
 10
-2.16312
 20
-396.657
 11
-2.57686
 21
-396.508
  0
LINE
  8
0
 10
-2.57686
 20
-396.508
 11
-2.98045
 21
-396.334
  0
LINE
  8
0
 10
-2.98045
 20
-396.334
 11
-3.37227
 21
-396.134
  0
LINE
  8
0
 10
-3.37227
 20
-396.134
 11
-3.75078
 21
-395.91
  0
LINE
  8
0
 10
-3.75078
 20
-395.91
 11
-4.11449
 21
-395.663
  0
LINE
  8
0
 10
-4.11449
 20
-395.663
 11
-4.46196
 21
-395.394
  0
LINE
  8
0
 10
-4.46196
 20
-395.394
 11
-4.79182
 21
-395.103
  0
LINE
  8
0
 10
-4.79182
 20
-395.103
 11
-5.10277
 21
-394.792
  0
LINE
  8
0
 10
-5.10277
 20
-394.792
 11
-5.39359
 21
-394.462
  0
LINE
  8
0
 10
-5.39359
 20
-394.462
 11
-5.66312
 21
-394.115
  0
LINE
  8
0
 10
-5.66312
 20
-394.115
 11
-5.91029
 21
-393.751
  0
LINE
  8
0
 10
-5.91029
 20
-393.751
 11
-6.13414
 21
-393.372
  0
LINE
  8
0
 10
-6.13414
 20
-393.372
 11
-6.33379
 21
-392.98
  0
LINE
  8
0
 10
-6.33379
 20
-392.98
 11
-6.50842
 21
-392.577
  0
LINE
  8
0
 10
-6.50842
 20
-392.577
 11
-6.65739
 21
-392.163
  0
LINE
  8
0
 10
-6.65739
 20
-392.163
 11
-6.78008
 21
-391.741
  0
LINE
  8
0
 10
-6.78008
 20
-391.741
 11
-6.87601
 21
-391.312
  0
LINE
  8
0
 10
-6.87601
 20
-391.312
 11
-6.94479
 21
-390.877
  0
LINE
  8
0
 10
-6.94479
 20
-390.877
 11
-6.98618
 21
-390.44
  0
LINE
  8
0
 10
-6.98618
 20
-390.44
 11
-7
 21
-390
  0
LINE
  8
0
 10
-7
 20
-390
 11
-6.98618
 21
-389.56
  0
LINE
  8
0
 10
-6.98618
 20
-389.56
 11
-6.94479
 21
-389.123
  0
LINE
  8
0
 10
-6.94479
 20
-389.123
 11
-6.87601
 21
-388.688
  0
LINE
  8
0
 10
-6.87601
 20
-388.688
 11
-6.78008
 21
-388.259
  0
LINE
  8
0
 10
-6.78008
 20
-388.259
 11
-6.65739
 21
-387.837
  0
LINE
  8
0
 10
-6.65739
 20
-387.837
 11
-6.50842
 21
-387.423
  0
LINE
  8
0
 10
-6.50842
 20
-387.423
 11
-6.33379
 21
-387.02
  0
LINE
  8
0
 10
-6.33379
 20
-387.02
 11
-6.13414
 21
-386.628
  0
LINE
  8
0
 10
-6.13414
 20
-386.628
 11
-5.91029
 21
-386.249
  0
LINE
  8
0
 10
-5.91029
 20
-386.249
 11
-5.66312
 21
-385.885
  0
LINE
  8
0
 10
-5.66312
 20
-385.885
 11
-5.39359
 21
-385.538
  0
LINE
  8
0
 10
-5.39359
 20
-385.538
 11
-5.10277
 21
-385.208
  0
LINE
  8
0
 10
-5.10277
 20
-385.208
 11
-4.79182
 21
-384.897
  0
LINE
  8
0
 10
-4.79182
 20
-384.897
 11
-4.46196
 21
-384.606
  0
LINE
  8
0
 10
-4.46196
 20
-384.606
 11
-4.11449
 21
-384.337
  0
LINE
  8
0
 10
-4.11449
 20
-384.337
 11
-3.75078
 21
-384.09
  0
LINE
  8
0
 10
-3.75078
 20
-384.09
 11
-3.37227
 21
-383.866
  0
LINE
  8
0
 10
-3.37227
 20
-383.866
 11
-2.98045
 21
-383.666
  0
LINE
  8
0
 10
-2.98045
 20
-383.666
 11
-2.57686
 21
-383.492
  0
LINE
  8
0
 10
-2.57686
 20
-383.492
 11
-2.16312
 21
-383.343
  0
LINE
  8
0
 10
-2.16312
 20
-383.343
 11
-1.74081
 21
-383.22
  0
LINE
  8
0
 10
-1.74081
 20
-383.22
 11
-1.31166
 21
-383.124
  0
LINE
  8
0
 10
-1.31166
 20
-383.124
 11
-0.877319
 21
-383.055
  0
LINE
  8
0
 10
-0.877319
 20
-383.055
 11
-0.439529
 21
-383.014
  0
LINE
  8
0
 10
-0.439529
 20
-383.014
 11
0
 21
-383
  0
LINE
  8
0
 10
0
 20
-383
 11
0.439529
 21
-383.014
  0
LINE
  8
0
 10
0.439529
 20
-383.014
 11
0.877319
 21
-383.055
  0
LINE
  8
0
 10
0.877319
 20
-383.055
 11
1.31166
 21
-383.124
  0
LINE
  8
0
 10
1.31166
 20
-383.124
 11
1.74081
 21
-383.22
  0
LINE
  8
0
 10
1.74081
 20
-383.22
 11
2.16312
 21
-383.343
  0
LINE
  8
0
 10
2.16312
 20
-383.343
 11
2.57686
 21
-383.492
  0
LINE
  8
0
 10
2.57686
 20
-383.492
 11
2.98045
 21
-383.666
  0
LINE
  8
0
 10
2.98045
 20
-383.666
 11
3.37227
 21
-383.866
  0
LINE
  8
0
 10
3.37227
 20
-383.866
 11
3.75078
 21
-384.09
  0
LINE
  8
0
 10
3.75078
 20
-384.09
 11
4.11449
 21
-384.337
  0
LINE
  8
0
 10
4.11449
 20
-384.337
 11
4.46196
 21
-384.606
  0
LINE
  8
0
 10
4.46196
 20
-384.606
 11
4.79182
 21
-384.897
  0
LINE
  8
0
 10
4.79182
 20
-384.897
 11
5.10277
 21
-385.208
  0
LINE
  8
0
 10
5.10277
 20
-385.208
 11
5.39359
 21
-385.538
  0
LINE
  8
0
 10
5.39359
 20
-385.538
 11
5.66312
 21
-385.885
  0
LINE
  8
0
 10
5.66312
 20
-385.885
 11
5.91029
 21
-386.249
  0
LINE
  8
0
 10
5.91029
 20
-386.249
 11
6.13414
 21
-386.628
  0
LINE
  8
0
 10
6.13414
 20
-386.628
 11
6.33379
 21
-387.02
  0
LINE
  8
0
 10
6.33379
 20
-387.02
 11
6.50842
 21
-387.423
  0
LINE
  8
0
 10
6.50842
 20
-387.423
 11
6.65739
 21
-387.837
  0
LINE
  8
0
 10
6.65739
 20
-387.837
 11
6.78008
 21
-388.259
  0
LINE
  8
0
 10
6.78008
 20
-388.259
 11
6.87601
 21
-388.688
  0
LINE
  8
0
 10
6.87601
 20
-388.688
 11
6.94479
 21
-389.123
  0
LINE
  8
0
 10
6.94479
 20
-389.123
 11
6.98618
 21
-389.56
  0
LINE
  8
0
 10
6.98618
 20
-389.56
 11
7
 21
-390
  0
LINE
  8
0
 10
7
 20
-390
 11
6.98618
 21
-390.44
  0
LINE
  8
0
 10
6.98618
 20
-390.44
 11
6.94479
 21
-390.877
  0
LINE
  8
0
 10
6.94479
 20
-390.877
 11
6.87601
 21
-391.312
  0
LINE
  8
0
 10
6.87601
 20
-391.312
 11
6.78008
 21
-391.741
  0
LINE
  8
0
 10
6.78008
 20
-391.741
 11
6.65739
 21
-392.163
  0
LINE
  8
0
 10
6.65739
 20
-392.163
 11
6.50842
 21
-392.577
  0
LINE
  8
0
 10
6.50842
 20
-392.577
 11
6.33379
 21
-392.98
  0
LINE
  8
0
 10
6.33379
 20
-392.98
 11
6.13414
 21
-393.372
  0
LINE
  8
0
 10
6.13414
 20
-393.372
 11
5.91029
 21
-393.751
  0
LINE
  8
0
 10
5.91029
 20
-393.751
 11
5.66312
 21
-394.115
  0
LINE
  8
0
 10
5.66312
 20
-394.115
 11
5.39359
 21
-394.462
  0
LINE
  8
0
 10
5.39359
 20
-394.462
 11
5.10277
 21
-394.792
  0
LINE
  8
0
 10
5.10277
 20
-394.792
 11
4.79182
 21
-395.103
  0
LINE
  8
0
 10
4.79182
 20
-395.103
 11
4.46196
 21
-395.394
  0
LINE
  8
0
 10
4.46196
 20
-395.394
 11
4.11449
 21
-395.663
  0
LINE
  8
0
 10
4.11449
 20
-395.663
 11
3.75078
 21
-395.91
  0
LINE
  8
0
 10
3.75078
 20
-395.91
 11
3.37227
 21
-396.134
  0
LINE
  8
0
 10
3.37227
 20
-396.134
 11
2.98045
 21
-396.334
  0
LINE
  8
0
 10
2.98045
 20
-396.334
 11
2.57686
 21
-396.508
  0
LINE
  8
0
 10
2.57686
 20
-396.508
 11
2.16312
 21
-396.657
  0
LINE
  8
0
 10
2.16312
 20
-396.657
 11
1.74081
 21
-396.78
  0
LINE
  8
0
 10
1.74081
 20
-396.78
 11
1.31166
 21
-396.876
  0
LINE
  8
0
 10
1.31166
 20
-396.876
 11
0.877319
 21
-396.945
  0
LINE
  8
0
 10
0.877319
 20
-396.945
 11
0.439529
 21
-396.986
  0
LINE
  8
0
 10
0.439529
 20
-396.986
 11
0
 21
-397
  0
LINE
  8
0
 10
0
 20
-397
 11
-0.439529
 21
-396.986
  0
ENDSEC
  0
SECTION
  2
OBJECTS
  0
DICTIONARY
  0
ENDSEC
  0
EOF
